<svg xmlns="http://www.w3.org/2000/svg" viewBox="0 0 178.49 166.23"><defs><style>.cls-1,.cls-2{fill:#fff;}.cls-1,.cls-2,.cls-3,.cls-4,.cls-5{stroke:#000;}.cls-1,.cls-3,.cls-4,.cls-5{stroke-linecap:round;stroke-linejoin:round;}.cls-1,.cls-2,.cls-3,.cls-5{stroke-width:4px;}.cls-2{stroke-miterlimit:10;}.cls-3{fill:#9f8c7e;}.cls-4,.cls-5{fill:none;}.cls-4{stroke-width:2px;}</style></defs><g id="Layer_2" data-name="Layer 2"><g id="Layer_33" data-name="Layer 33"><g id="pen"><path class="cls-1" d="M130.56,121.7c11.31-2.7,17-4,18.27-4.53,13-4.77,12.43-24.32,18.4-24.25,5,0,11.92,13.67,8.21,25-3.9,11.9-17.83,15.94-26,16.39-13.2.72-25.86-7.21-25.24-10.22C124.41,123.14,125.86,122.82,130.56,121.7Z"/><path class="cls-2" d="M89.24,19.05c13.93,4,22.2,13.46,25.74,17.61s6.48,8.74,13.55,25.75c8.52,20.51,12.78,30.76,13.55,36.58,2,15.08-.28,41.5-17.62,54.19C117.89,158,104.28,158.64,77,160c-23,1.11-31.9-.46-39.29-2.71-8.17-2.48-18.09-5.63-25.74-14.9C4.77,133.56,3.34,124,2.53,118,.25,101.13,5.61,87.52,13.37,67.83A117.17,117.17,0,0,1,21.5,50.21c5.7-9.84,12-20.67,24.38-27.09,8.1-4.19,15.67-4.88,21.68-5.42C73.08,17.2,80.47,16.53,89.24,19.05Z"/><path class="cls-3" d="M98.72,31.25c.13-3,1-13.79,9.48-21.68,1.92-1.78,11-10.15,19-6.78,7,3,8.65,13.06,8.13,19a22,22,0,0,1-4.06,10.84C125.16,41,115.3,42,113.62,42.08"/><path class="cls-3" d="M44.53,32.6c-.88-2-2.23-4.81-4.07-8.13-4-7.21-6-10.81-9.48-13.55-1.22-1-9.11-7.15-17.61-4.06C6.32,9.42,2.74,17,2.53,23.12A20,20,0,0,0,6.59,35.31c7.23,10.51,20.31,11.95,23,12.19"/><path d="M56.72,50.21c2.12,2.07.89,7.8-2.71,9.49-2.1,1-5.38.76-6.77-1.36-1.54-2.34.12-5.64,2-7.25C51.41,49.22,55.07,48.6,56.72,50.21Z"/><path d="M93.66,57.6c-1.21,2.38-4.77,3.18-7,2.14C82.81,58,82.48,50.62,85,48.94c2.07-1.37,6.55.63,8.23,3.86C93.51,53.29,94.69,55.56,93.66,57.6Z"/><path d="M74.33,61.05c.22,1.1-2,3-4.06,2.71-1.51-.24-3-1.68-2.71-2.71S70,59.69,71,59.7C72.15,59.7,74.15,60.1,74.33,61.05Z"/><path class="cls-4" d="M63.5,67.83a11.88,11.88,0,0,0,8.12,2.7,11.75,11.75,0,0,0,6.78-2.7"/><path class="cls-5" d="M45.88,90.86c6.35,5.15,6.95,13.16,4,16.5s-11.79,3.67-17.53-3"/><path class="cls-5" d="M90.59,89.5c-6.16,6.31-6,14.7-2.71,17.61s12.18,2.1,17.61-5.41"/><path class="cls-1" d="M51.3,155.89c-.94-4-6.47-6.26-10.84-5.42-4.93.95-9.21,6.05-8.13,9.48,1.23,3.87,8.77,4.05,9.49,4.07,2.06,0,5.88.14,8.13-2.71A7,7,0,0,0,51.3,155.89Z"/><path class="cls-1" d="M113.62,161.31c1.55-3.13-2.38-10.11-8.13-10.84-4.43-.57-9.48,2.64-10,6.77a6.46,6.46,0,0,0,1.9,5.42c2,1.92,4.8,1.66,8.12,1.36C109.27,163.67,112.61,163.37,113.62,161.31Z"/><path class="cls-4" d="M108.2,32.6A23.27,23.27,0,0,1,115,19.05a22.75,22.75,0,0,1,9.48-5.42"/><path class="cls-4" d="M13.37,19.05a23.79,23.79,0,0,1,13.55,4.07A24,24,0,0,1,36.4,36.66"/></g></g></g></svg>