<svg xmlns="http://www.w3.org/2000/svg" viewBox="0 0 172.96 166.23"><defs><style>.cls-1,.cls-2{fill:#fff;}.cls-1,.cls-2,.cls-3,.cls-4{stroke:#000;}.cls-1,.cls-3,.cls-4{stroke-linecap:round;stroke-linejoin:round;}.cls-1,.cls-2,.cls-3{stroke-width:4px;}.cls-2{stroke-miterlimit:10;}.cls-3{fill:#9f8c7e;}.cls-4{fill:none;stroke-width:2px;}</style></defs><g id="Layer_2" data-name="Layer 2"><g id="Layer_33" data-name="Layer 33"><g id="Layer_32" data-name="Layer 32"><path class="cls-1" d="M131.8,130.07c9.09-7.25,13.64-10.87,14.62-11.87,9.7-9.82.91-27.29,6.35-29.77,4.53-2.06,16.6,7.31,18,19.14,1.52,12.42-9.37,22-16.56,25.87-11.64,6.26-26.47,4.46-27.19,1.47C126.84,134,128,133.08,131.8,130.07Z"/><path class="cls-2" d="M90.05,19.05c13.94,4,22.21,13.46,25.74,17.61s6.49,8.74,13.55,25.75c8.52,20.51,12.78,30.76,13.55,36.58,2,15.08-.27,41.5-17.61,54.19-6.57,4.81-20.19,5.46-47.42,6.77-23,1.11-31.91-.46-39.29-2.71-8.17-2.48-18.09-5.63-25.74-14.9C5.58,133.56,4.16,124,3.34,118,1.07,101.13,6.43,87.52,14.18,67.83a119.18,119.18,0,0,1,8.13-17.62c5.7-9.84,12-20.67,24.39-27.09,8.1-4.19,15.66-4.88,21.68-5.42C73.89,17.2,81.29,16.53,90.05,19.05Z"/><path class="cls-3" d="M99.54,31.25c.13-3,1-13.79,9.48-21.68,1.91-1.78,11-10.15,19-6.78,7,3,8.65,13.06,8.13,19a22,22,0,0,1-4.07,10.84C126,41,116.11,42,114.44,42.08"/><path class="cls-3" d="M45.34,32.6c-.88-2-2.22-4.81-4.06-8.13-4-7.21-6-10.81-9.48-13.55-1.23-1-9.12-7.15-17.62-4.06C7.13,9.42,3.56,17,3.34,23.12,3.14,29,6,33.26,7.41,35.31c7.23,10.51,20.3,11.95,23,12.19"/><path d="M57.54,50.21c2.12,2.07.89,7.8-2.71,9.49-2.11,1-5.39.76-6.78-1.36-1.54-2.34.12-5.64,2-7.25C52.22,49.22,55.89,48.6,57.54,50.21Z"/><path d="M94.47,57.6c-1.2,2.38-4.77,3.18-7,2.14-3.83-1.78-4.16-9.12-1.61-10.8,2.06-1.37,6.55.63,8.22,3.86C94.33,53.29,95.51,55.56,94.47,57.6Z"/><path d="M75.15,61.05c.21,1.1-2,3-4.06,2.71-1.51-.24-3-1.68-2.71-2.71s2.38-1.36,3.38-1.35C73,59.7,75,60.1,75.15,61.05Z"/><path class="cls-4" d="M64.31,67.83a11.94,11.94,0,0,0,8.13,2.7,11.68,11.68,0,0,0,6.77-2.7"/><path class="cls-1" d="M7.93,90.09c-7.85-9.38-7-20-2.71-23,3.65-2.56,11.37-.64,17.61,5.42"/><path class="cls-1" d="M136.64,87.38c7.33-9.69,6-20.18,1.52-23-3.65-2.29-10.72-.2-16.43,5.35"/><path class="cls-1" d="M52.12,155.89c-.95-4-6.48-6.26-10.84-5.42-4.93.95-9.22,6.05-8.13,9.48,1.22,3.87,8.77,4.05,9.48,4.07,2.07,0,5.89.14,8.13-2.71A6.94,6.94,0,0,0,52.12,155.89Z"/><path class="cls-1" d="M114.44,161.31c1.54-3.13-2.39-10.11-8.13-10.84-4.43-.57-9.48,2.64-10,6.77a6.52,6.52,0,0,0,1.9,5.42c2,1.92,4.81,1.66,8.13,1.36C110.08,163.67,113.42,163.37,114.44,161.31Z"/><path class="cls-4" d="M109,32.6a23.24,23.24,0,0,1,6.77-13.55,22.71,22.71,0,0,1,9.49-5.42"/><path class="cls-4" d="M14.18,19.05a23.77,23.77,0,0,1,13.55,4.07,24,24,0,0,1,9.48,13.54"/></g></g></g></svg>