<svg xmlns="http://www.w3.org/2000/svg" viewBox="0 0 198.14 113.98"><defs><style>.cls-1,.cls-4{fill:#fff;}.cls-1,.cls-2,.cls-3,.cls-4{stroke:#000;}.cls-1{stroke-miterlimit:10;}.cls-1,.cls-2,.cls-4{stroke-width:4px;}.cls-2{fill:#9f8c7e;}.cls-2,.cls-3,.cls-4{stroke-linecap:round;stroke-linejoin:round;}.cls-3{fill:none;stroke-width:2px;}</style></defs><g id="Layer_2" data-name="Layer 2"><g id="Layer_33" data-name="Layer 33"><g id="Layer_31" data-name="Layer 31"><path class="cls-1" d="M52.54,83.32c1.2,3.1-8.21,11.36-19,13.55-2.7.55-12.83,2.61-21.68-4.07A25.33,25.33,0,0,1,2.41,76.55c-.15-1-1.78-12.9,2.71-14.91C11.16,59,18.7,78.42,37.63,82,46,83.53,51.67,81.08,52.54,83.32Z"/><path class="cls-1" d="M175.83,95.51a25.82,25.82,0,0,1-4.23,3.92c-13.09,9.53-40.8,7.36-66.22,8.28-20.37.73-49.26,4.09-59.62-4.07a36.62,36.62,0,0,1-5.42-5.42A35.14,35.14,0,0,1,33.57,82c-.36-2-1.76-11,2.71-25.75,2.5-8.21,7.47-24.57,23-37.93A67.74,67.74,0,0,1,83.7,4.74c8.49-2.47,16-2.6,21.68-2.71a92.67,92.67,0,0,1,19,1.36,76.47,76.47,0,0,1,32.52,13.54c4.21,3.1,17.4,13.05,24.39,31.16,2.07,5.38,4.9,13,4.06,23C184.46,81.38,180.31,90.4,175.83,95.51Z"/><path class="cls-2" d="M70.15,16.93a176.69,176.69,0,0,0-27.1-8.12c-7.2-1.54-11.6-2-16.25,0-1.18.49-7.4,3.14-9.49,9.48-2.56,7.75,3.05,15,4.07,16.26,6.54,8.05,20,10.2,33.87,5.42"/><path class="cls-2" d="M146,15.58a109.82,109.82,0,0,1,24.39-6.77c11.05-1.73,17.4-2.62,21.67,1.35,4.55,4.22,5,12.29,2.71,17.61-4.1,9.56-19,14.9-36.58,10.84"/><path d="M133.83,65.71c-.11,2.12-2.31,3.62-4.07,4.06a6.59,6.59,0,0,1-5.42-1.35c-2.08-1.5-4.21-4.61-3.24-6.59,1.12-2.28,6-2.31,9.07-.67C130.89,61.54,134,63.14,133.83,65.71Z"/><path d="M111.43,68.88c.22,1.1-2,3-4.06,2.71-1.51-.25-3-1.69-2.71-2.71S107,67.52,108,67.52C109.25,67.53,111.24,67.92,111.43,68.88Z"/><path class="cls-3" d="M114.86,79.26a11.86,11.86,0,0,0-8.13-2.71A11.6,11.6,0,0,0,100,79.26"/><path d="M82.34,69.77c-1.57-1.52-1.5-4.23-.62-6,2.1-4.09,9.81-4.66,11.46-2.17,1.3,2-.7,6.36-4,8.15C87.56,70.68,84.27,71.63,82.34,69.77Z"/><path class="cls-4" d="M98.6,103.64c-1.67-4.74-9-5.17-10.22-5.21-1.53-.06-7.13-.26-10.1,3.86-.18.24-2.78,3.95-1.36,6.77,1.55,3.06,6.74,2.89,12.2,2.71,4.21-.14,7.11-.28,8.74-2.5A6.28,6.28,0,0,0,98.6,103.64Z"/><path class="cls-4" d="M140.6,110.42c1.53-2,.81-5.09,0-6.78-1.9-4-6.74-5.37-10.22-5.21-4.07.18-9.48,2.61-10,6.77a6.52,6.52,0,0,0,1.9,5.42c.89.84,2.11,1.38,8.13,1.36S139.45,111.91,140.6,110.42Z"/><path class="cls-3" d="M157.47,24.21a23.19,23.19,0,0,1,14.24-5.16,22.58,22.58,0,0,1,10.61,2.59"/><path class="cls-3" d="M28.72,23.41A23.68,23.68,0,0,1,42,18.59,24,24,0,0,1,57.71,23.8"/></g></g></g></svg>