<svg xmlns="http://www.w3.org/2000/svg" viewBox="0 0 5760 150"><defs><style>.cls-1,.cls-3{fill:#fff;}.cls-1,.cls-2,.cls-3,.cls-4{stroke:#000;}.cls-1{stroke-miterlimit:10;}.cls-1,.cls-2,.cls-3{stroke-width:4px;}.cls-2{fill:#9f8c7e;}.cls-2,.cls-3,.cls-4{stroke-linecap:round;stroke-linejoin:round;}.cls-4{fill:none;stroke-width:2px;}</style></defs><g id="Layer_2" data-name="Layer 2"><path class="cls-1" d="M220.57,71.36c.46-12-11.63-23.38-16.26-21.68-3.39,1.25-.4,8.68-4.06,17.61C192.42,86.37,164.27,87.86,165,93c.59,4,18.37,7.75,33.87,1.35C201.85,93.17,220,85.68,220.57,71.36Z"/><path class="cls-2" d="M47.15,42.8c.29-2.09,3.62-24.26,18.35-29.66,4.12-1.51,11.92-2.74,15.3,1.64,4.54,5.9-2,17.89-3.06,19.78C72,45,62.48,49.35,57.86,51"/><path class="cls-3" d="M113.54,118.78c-7.53,5.87-10.26,12.81-8.13,16.26,1.94,3.13,7.53,2.75,8.13,2.7,5.81-.46,11-5.22,13.55-12.19"/><path class="cls-3" d="M49.86,109.29C48,111.36,35.31,125.76,39,131c2.15,3,8.74,1.52,9.49,1.36,12.78-2.88,17.25-20.22,17.61-21.68"/><path class="cls-1" d="M182.64,86.26c-.83,4-3.72,17.12-14.91,27.1C157,122.91,145.05,124,123,125.55c-36.55,2.65-60.94-4.61-67.74-6.77-17.29-5.5-29.1-9.44-33.87-20.32C16,86,23,72,26.83,64.58c15.72-30.91,52.56-52,89.42-51.48,9.8.14,23.88.51,37.93,9.49C174.29,35.43,187.71,61.66,182.64,86.26Z"/><path class="cls-2" d="M71.54,51c1.35-1.62,12-14.07,25.74-12.2,2,.27,9.32,1.27,12.2,6.78,3.07,5.87-.23,14.44-5.42,19-10.18,8.88-24.22,7.09-25.75,6.78"/><path d="M57.53,78.85c-1.2,2.38-4.77,3.17-7,2.14-3.83-1.78-4.16-9.13-1.61-10.81,2.06-1.36,6.54.64,8.22,3.87C57.39,74.54,58.56,76.81,57.53,78.85Z"/><path d="M29.57,86c.22,1.1-2,3-4.06,2.71C24,88.47,22.55,87,22.8,86s2.39-1.36,3.39-1.36C27.39,84.66,29.39,85.05,29.57,86Z"/><path class="cls-4" d="M21.44,94.14a10,10,0,0,0,5.39,1.61A10.25,10.25,0,0,0,33.61,93"/><path class="cls-3" d="M77,112a38.94,38.94,0,0,0-4.06,9.49c-1.2,4.3-3,10.65,0,13.55,1.91,1.86,5,1.55,6.77,1.35,11.45-1.3,20.15-13.31,23-17.61"/><path class="cls-3" d="M135.22,110.65a52.7,52.7,0,0,0-5.42,13.55c-1.34,5.47-2.32,9.71,0,12.19,2.17,2.33,6.11,1.9,8.13,1.68,2.4-.26,7.27-1.27,13.54-7.1,8.23-7.64,11.88-17.08,13.55-23"/><path class="cls-4" d="M80.26,56.75a24.64,24.64,0,0,1,13.44-7,23.08,23.08,0,0,1,6.29-.09"/><path class="cls-1" d="M457.87,54.14c-3.26-11.54-18.27-18.66-22.15-15.61-2.84,2.23,2.3,8.38,1.56,18-1.56,20.55-27.89,30.64-25.58,35.34,1.8,3.66,19.86,1.71,32.64-9.15C446.78,80.66,461.76,67.93,457.87,54.14Z"/><path class="cls-2" d="M289.23,42.15c.28-2.09,3.62-24.26,18.35-29.66,4.12-1.51,11.92-2.73,15.29,1.65,4.54,5.89-2,17.89-3.06,19.77-5.71,10.44-15.26,14.8-19.88,16.48"/><path class="cls-3" d="M355.61,118.13c-7.52,5.87-10.25,12.82-8.13,16.26,1.94,3.14,7.53,2.76,8.13,2.71,5.81-.46,11-5.22,13.55-12.19"/><path class="cls-3" d="M295.63,108.49c-2.39,1.4-18.87,11.26-16.92,17.35,1.06,3.31,7.07,4,8.43,4.16l.2,0c6.82.57,15.24-2.48,15.24-2.48a55.48,55.48,0,0,0,16.26-9.48"/><path class="cls-1" d="M424.71,85.62c-.83,4-3.72,17.11-14.9,27.09-10.71,9.56-22.68,10.6-44.71,12.2-36.56,2.64-61-4.62-67.74-6.78-17.3-5.49-29.1-9.44-33.87-20.32-5.47-12.46,1.63-26.42,5.41-33.87C284.63,33,321.46,12,358.32,12.46c9.81.13,23.89.5,37.94,9.48C416.36,34.79,429.78,61,424.71,85.62Z"/><path class="cls-2" d="M313.61,50.39c1.35-1.62,12-14.06,25.75-12.19,2,.27,9.31,1.27,12.19,6.77,3.07,5.88-.23,14.44-5.42,19C336,72.81,321.92,71,320.39,70.71"/><path d="M299.6,78.21c-1.2,2.37-4.77,3.17-7,2.13-3.84-1.77-4.17-9.12-1.62-10.8,2.06-1.36,6.55.64,8.23,3.87C299.46,73.9,300.64,76.17,299.6,78.21Z"/><path d="M271.65,85.36c.21,1.11-2,3-4.07,2.71-1.5-.24-3-1.68-2.71-2.71S267.26,84,268.26,84C269.46,84,271.46,84.41,271.65,85.36Z"/><path class="cls-4" d="M263.52,93.49a9.92,9.92,0,0,0,5.38,1.61,10.15,10.15,0,0,0,6.78-2.71"/><path class="cls-3" d="M315.52,115.39a39.32,39.32,0,0,0-.68,10.3c.3,4.45.75,11,4.51,12.77,2.42,1.13,5.25-.2,6.84-1,10.36-5,14.58-19.25,15.86-24.27"/><path class="cls-3" d="M381.36,116a52.48,52.48,0,0,0,5.45,13.53c2.81,4.88,5,8.62,8.43,8.81,3.18.19,5.73-2.85,7-4.4,2.15-2.56,4.11-6.32,4.88-14.5a66.28,66.28,0,0,0-1.6-21.7"/><path class="cls-4" d="M323.7,54.52a24.61,24.61,0,0,1,13.44-7,22.72,22.72,0,0,1,6.3-.08"/><path class="cls-1" d="M700.57,70.12c1.29-11.92-10-24.12-14.73-22.74-3.47,1-1,8.63-5.26,17.29-9.12,18.49-37.31,18-36.91,23.26.3,4.07,17.78,9,33.69,3.68C680.4,90.6,699,84.37,700.57,70.12Z"/><path class="cls-2" d="M527.06,42.35c.29-2.09,3.62-24.26,18.35-29.66,4.12-1.51,11.92-2.73,15.3,1.65,4.53,5.89-2,17.89-3.06,19.77-5.71,10.44-15.26,14.8-19.88,16.48"/><path class="cls-3" d="M598.87,118.33c-7.53,5.87-10.26,12.82-8.13,16.26,1.94,3.14,7.53,2.76,8.13,2.71,5.81-.46,11-5.22,13.55-12.19"/><path class="cls-3" d="M529.83,113.42c-6.16,11.07-6.46,21-2.27,24.13,3.41,2.52,9.39.2,11.13-.47,7.4-2.85,10.77-9.42,12.19-12.19a31.54,31.54,0,0,0,3-18.59"/><path class="cls-1" d="M662.54,85.82c-.82,4-3.71,17.11-14.9,27.09-10.7,9.56-22.68,10.6-44.71,12.2-36.55,2.65-60.94-4.62-67.74-6.78-17.29-5.49-29.1-9.44-33.87-20.32-5.47-12.46,1.63-26.42,5.42-33.87,15.72-30.91,52.56-52,89.42-51.48,9.8.13,23.88.5,37.93,9.48C654.2,35,667.62,61.22,662.54,85.82Z"/><path class="cls-2" d="M551.45,50.59c1.35-1.62,12-14.06,25.74-12.19,2,.27,9.32,1.27,12.19,6.77,3.08,5.88-.22,14.44-5.41,19-10.18,8.88-24.22,7.08-25.75,6.78"/><path d="M537.44,78.41c-1.2,2.37-4.77,3.17-7,2.13-3.83-1.77-4.16-9.12-1.61-10.8,2.06-1.36,6.54.64,8.22,3.87C537.3,74.1,538.47,76.37,537.44,78.41Z"/><path d="M509.48,85.56c.22,1.11-2,3-4.06,2.71-1.51-.24-3-1.68-2.71-2.71s2.38-1.36,3.39-1.35C507.3,84.21,509.3,84.61,509.48,85.56Z"/><path class="cls-4" d="M501.35,93.69a9.88,9.88,0,0,0,5.39,1.61,10.11,10.11,0,0,0,6.77-2.71"/><path class="cls-3" d="M556.1,106.77a27.34,27.34,0,0,0-10.63,8.64c-1.89,2.59-6,8.19-4.07,12.19,2.41,5,12.78,4.23,14.9,4.06,11.32-.88,19.36-8.07,23.11-12"/><path class="cls-3" d="M617.83,112.38a52.3,52.3,0,0,0,1.26,14.54c1.27,5.49,2.3,9.71,5.49,10.89,3,1.1,6.31-1.05,8-2.16,2.8-1.82,5.77-4.85,8.9-12.44A66.46,66.46,0,0,0,646.29,102"/><path class="cls-4" d="M560.58,54.78a24.68,24.68,0,0,1,13.44-7,23.16,23.16,0,0,1,6.3-.09"/><path class="cls-1" d="M2899.43,71.36c-.46-12,11.63-23.38,16.26-21.68,3.39,1.25.4,8.68,4.06,17.61,7.83,19.08,36,20.57,35.23,25.75-.59,4-18.37,7.75-33.87,1.35C2918.15,93.17,2900,85.68,2899.43,71.36Z"/><path class="cls-2" d="M3072.85,42.8c-.29-2.09-3.62-24.26-18.35-29.66-4.12-1.51-11.92-2.74-15.3,1.64-4.54,5.9,2,17.89,3.06,19.78C3048,45,3057.52,49.35,3062.14,51"/><path class="cls-3" d="M3006.46,118.78c7.53,5.87,10.26,12.81,8.13,16.26-1.94,3.13-7.53,2.75-8.13,2.7-5.81-.46-11-5.22-13.55-12.19"/><path class="cls-3" d="M3070.14,109.29c1.84,2.07,14.55,16.47,10.84,21.68-2.15,3-8.74,1.52-9.49,1.36-12.78-2.88-17.25-20.22-17.61-21.68"/><path class="cls-1" d="M2937.36,86.26c.83,4,3.72,17.12,14.91,27.1C2963,122.91,2975,124,2997,125.55c36.55,2.65,60.94-4.61,67.74-6.77,17.29-5.5,29.1-9.44,33.87-20.32C3104.05,86,3097,72,3093.17,64.58c-15.72-30.91-52.56-52-89.42-51.48-9.8.14-23.88.51-37.93,9.49C2945.71,35.43,2932.29,61.66,2937.36,86.26Z"/><path class="cls-2" d="M3048.46,51c-1.35-1.62-12-14.07-25.74-12.2-2,.27-9.32,1.27-12.2,6.78-3.07,5.87.23,14.44,5.42,19,10.18,8.88,24.22,7.09,25.75,6.78"/><path d="M3062.47,78.85c1.2,2.38,4.77,3.17,7,2.14,3.83-1.78,4.16-9.13,1.61-10.81-2.06-1.36-6.54.64-8.22,3.87C3062.61,74.54,3061.44,76.81,3062.47,78.85Z"/><path d="M3090.43,86c-.22,1.1,2,3,4.06,2.71,1.51-.25,3-1.69,2.71-2.71s-2.39-1.36-3.39-1.36C3092.61,84.66,3090.61,85.05,3090.43,86Z"/><path class="cls-4" d="M3098.56,94.14a10,10,0,0,1-5.39,1.61,10.25,10.25,0,0,1-6.78-2.71"/><path class="cls-3" d="M3043,112a38.94,38.94,0,0,1,4.06,9.49c1.2,4.3,3,10.65,0,13.55-1.91,1.86-5,1.55-6.77,1.35-11.45-1.3-20.15-13.31-23-17.61"/><path class="cls-3" d="M2984.78,110.65a52.7,52.7,0,0,1,5.42,13.55c1.34,5.47,2.32,9.71,0,12.19-2.17,2.33-6.11,1.9-8.13,1.68-2.4-.26-7.27-1.27-13.54-7.1-8.23-7.64-11.88-17.08-13.55-23"/><path class="cls-4" d="M3039.74,56.75a24.64,24.64,0,0,0-13.44-7,23.08,23.08,0,0,0-6.29-.09"/><path class="cls-1" d="M5302.13,54.14c3.26-11.54,18.27-18.66,22.15-15.61,2.84,2.23-2.3,8.38-1.56,18,1.56,20.55,27.89,30.64,25.58,35.34-1.8,3.66-19.86,1.71-32.64-9.15C5313.22,80.66,5298.24,67.93,5302.13,54.14Z"/><path class="cls-2" d="M5470.77,42.15c-.28-2.09-3.62-24.26-18.35-29.66-4.12-1.51-11.92-2.73-15.29,1.65-4.54,5.89,2,17.89,3.06,19.77,5.71,10.44,15.26,14.8,19.88,16.48"/><path class="cls-3" d="M5404.39,118.13c7.52,5.87,10.25,12.82,8.13,16.26-1.94,3.14-7.53,2.76-8.13,2.71-5.81-.46-11-5.22-13.55-12.19"/><path class="cls-3" d="M5464.37,108.49c2.39,1.4,18.87,11.26,16.92,17.35-1.06,3.31-7.07,4-8.43,4.16l-.2,0c-6.82.57-15.24-2.48-15.24-2.48a55.48,55.48,0,0,1-16.26-9.48"/><path class="cls-1" d="M5335.29,85.62c.83,4,3.72,17.11,14.9,27.09,10.71,9.56,22.68,10.6,44.71,12.2,36.56,2.64,61-4.62,67.74-6.78,17.3-5.49,29.1-9.44,33.87-20.32,5.47-12.46-1.63-26.42-5.41-33.87-15.73-30.91-52.56-52-89.42-51.48-9.81.13-23.89.5-37.94,9.48C5343.64,34.79,5330.22,61,5335.29,85.62Z"/><path class="cls-2" d="M5446.39,50.39c-1.35-1.62-12-14.06-25.75-12.19-2,.27-9.31,1.27-12.19,6.77-3.07,5.88.23,14.44,5.42,19,10.18,8.87,24.21,7.08,25.74,6.77"/><path d="M5460.4,78.21c1.2,2.37,4.77,3.17,7,2.13,3.84-1.77,4.17-9.12,1.62-10.8-2.06-1.36-6.55.64-8.23,3.87C5460.54,73.9,5459.36,76.17,5460.4,78.21Z"/><path d="M5488.35,85.36c-.21,1.11,2,3,4.07,2.71,1.5-.24,3-1.68,2.71-2.71s-2.39-1.36-3.39-1.35C5490.54,84,5488.54,84.41,5488.35,85.36Z"/><path class="cls-4" d="M5496.48,93.49a9.92,9.92,0,0,1-5.38,1.61,10.15,10.15,0,0,1-6.78-2.71"/><path class="cls-3" d="M5444.48,115.39a39.32,39.32,0,0,1,.68,10.3c-.3,4.45-.75,11-4.51,12.77-2.42,1.13-5.25-.2-6.84-1-10.36-5-14.58-19.25-15.86-24.27"/><path class="cls-3" d="M5378.64,116a52.48,52.48,0,0,1-5.45,13.53c-2.81,4.88-5,8.62-8.43,8.81-3.18.19-5.73-2.85-7-4.4-2.15-2.56-4.11-6.32-4.88-14.5a66.28,66.28,0,0,1,1.6-21.7"/><path class="cls-4" d="M5436.3,54.52a24.61,24.61,0,0,0-13.44-7,22.72,22.72,0,0,0-6.3-.08"/><path class="cls-1" d="M5059.43,70.12c-1.29-11.92,10-24.12,14.73-22.74,3.47,1,1,8.63,5.26,17.29,9.12,18.49,37.31,18,36.91,23.26-.3,4.07-17.78,9-33.69,3.68C5079.6,90.6,5061,84.37,5059.43,70.12Z"/><path class="cls-2" d="M5232.94,42.35c-.29-2.09-3.62-24.26-18.35-29.66-4.12-1.51-11.92-2.73-15.3,1.65-4.53,5.89,2,17.89,3.06,19.77,5.71,10.44,15.26,14.8,19.88,16.48"/><path class="cls-3" d="M5161.13,118.33c7.53,5.87,10.26,12.82,8.13,16.26-1.94,3.14-7.53,2.76-8.13,2.71-5.81-.46-11-5.22-13.55-12.19"/><path class="cls-3" d="M5230.17,113.42c6.16,11.07,6.46,21,2.27,24.13-3.41,2.52-9.39.2-11.13-.47-7.4-2.85-10.77-9.42-12.19-12.19a31.54,31.54,0,0,1-3-18.59"/><path class="cls-1" d="M5097.46,85.82c.82,4,3.71,17.11,14.9,27.09,10.7,9.56,22.68,10.6,44.71,12.2,36.55,2.65,60.94-4.62,67.74-6.78,17.29-5.49,29.1-9.44,33.87-20.32,5.47-12.46-1.63-26.42-5.42-33.87-15.72-30.91-52.56-52-89.42-51.48-9.8.13-23.88.5-37.93,9.48C5105.8,35,5092.38,61.22,5097.46,85.82Z"/><path class="cls-2" d="M5208.55,50.59c-1.35-1.62-12-14.06-25.74-12.19-2,.27-9.32,1.27-12.19,6.77-3.08,5.88.22,14.44,5.41,19,10.18,8.88,24.22,7.08,25.75,6.78"/><path d="M5222.56,78.41c1.2,2.37,4.77,3.17,7,2.13,3.83-1.77,4.16-9.12,1.61-10.8-2.06-1.36-6.54.64-8.22,3.87C5222.7,74.1,5221.53,76.37,5222.56,78.41Z"/><path d="M5250.52,85.56c-.22,1.11,2,3,4.06,2.71,1.51-.24,3-1.68,2.71-2.71s-2.38-1.36-3.39-1.35C5252.7,84.21,5250.7,84.61,5250.52,85.56Z"/><path class="cls-4" d="M5258.65,93.69a9.88,9.88,0,0,1-5.39,1.61,10.11,10.11,0,0,1-6.77-2.71"/><path class="cls-3" d="M5203.9,106.77a27.34,27.34,0,0,1,10.63,8.64c1.89,2.59,6,8.19,4.07,12.19-2.41,5-12.78,4.23-14.9,4.06-11.32-.88-19.36-8.07-23.11-12"/><path class="cls-3" d="M5142.17,112.38a52.3,52.3,0,0,1-1.26,14.54c-1.27,5.49-2.3,9.71-5.49,10.89-3,1.1-6.31-1.05-8-2.16-2.8-1.82-5.77-4.85-8.9-12.44a66.46,66.46,0,0,1-4.79-21.22"/><path class="cls-4" d="M5199.42,54.78a24.68,24.68,0,0,0-13.44-7,23.16,23.16,0,0,0-6.3-.09"/><path class="cls-1" d="M4822.13,54.14c3.26-11.54,18.27-18.66,22.15-15.61,2.84,2.23-2.3,8.38-1.56,18,1.56,20.55,27.89,30.64,25.58,35.34-1.8,3.66-19.86,1.71-32.64-9.15C4833.22,80.66,4818.24,67.93,4822.13,54.14Z"/><path class="cls-2" d="M4990.77,42.15c-.28-2.09-3.62-24.26-18.35-29.66-4.12-1.51-11.92-2.73-15.29,1.65-4.54,5.89,2,17.89,3.06,19.77,5.71,10.44,15.26,14.8,19.88,16.48"/><path class="cls-3" d="M4924.39,118.13c7.52,5.87,10.25,12.82,8.13,16.26-1.94,3.14-7.53,2.76-8.13,2.71-5.81-.46-11-5.22-13.55-12.19"/><path class="cls-3" d="M4984.37,108.49c2.39,1.4,18.87,11.26,16.92,17.35-1.06,3.31-7.07,4-8.43,4.16l-.2,0c-6.82.57-15.24-2.48-15.24-2.48a55.48,55.48,0,0,1-16.26-9.48"/><path class="cls-1" d="M4855.29,85.62c.83,4,3.72,17.11,14.9,27.09,10.71,9.56,22.68,10.6,44.71,12.2,36.56,2.64,61-4.62,67.74-6.78,17.3-5.49,29.1-9.44,33.87-20.32,5.47-12.46-1.63-26.42-5.41-33.87-15.73-30.91-52.56-52-89.42-51.48-9.81.13-23.89.5-37.94,9.48C4863.64,34.79,4850.22,61,4855.29,85.62Z"/><path class="cls-2" d="M4966.39,50.39c-1.35-1.62-12-14.06-25.75-12.19-2,.27-9.31,1.27-12.19,6.77-3.07,5.88.23,14.44,5.42,19,10.18,8.87,24.21,7.08,25.74,6.77"/><path d="M4980.4,78.21c1.2,2.37,4.77,3.17,7,2.13,3.84-1.77,4.17-9.12,1.62-10.8-2.06-1.36-6.55.64-8.23,3.87C4980.54,73.9,4979.36,76.17,4980.4,78.21Z"/><path d="M5008.35,85.36c-.21,1.11,2,3,4.07,2.71,1.5-.24,3-1.68,2.71-2.71s-2.39-1.36-3.39-1.35C5010.54,84,5008.54,84.41,5008.35,85.36Z"/><path class="cls-4" d="M5016.48,93.49a9.92,9.92,0,0,1-5.38,1.61,10.15,10.15,0,0,1-6.78-2.71"/><path class="cls-3" d="M4964.48,115.39a39.32,39.32,0,0,1,.68,10.3c-.3,4.45-.75,11-4.51,12.77-2.42,1.13-5.25-.2-6.84-1-10.36-5-14.58-19.25-15.86-24.27"/><path class="cls-3" d="M4898.64,116a52.48,52.48,0,0,1-5.45,13.53c-2.81,4.88-5,8.62-8.43,8.81-3.18.19-5.73-2.85-7-4.4-2.15-2.56-4.11-6.32-4.88-14.5a66.28,66.28,0,0,1,1.6-21.7"/><path class="cls-4" d="M4956.3,54.52a24.61,24.61,0,0,0-13.44-7,22.72,22.72,0,0,0-6.3-.08"/><path class="cls-1" d="M4579.43,70.12c-1.29-11.92,10-24.12,14.73-22.74,3.47,1,1,8.63,5.26,17.29,9.12,18.49,37.31,18,36.91,23.26-.3,4.07-17.78,9-33.69,3.68C4599.6,90.6,4581,84.37,4579.43,70.12Z"/><path class="cls-2" d="M4752.94,42.35c-.29-2.09-3.62-24.26-18.35-29.66-4.12-1.51-11.92-2.73-15.3,1.65-4.53,5.89,2,17.89,3.06,19.77,5.71,10.44,15.26,14.8,19.88,16.48"/><path class="cls-3" d="M4681.13,118.33c7.53,5.87,10.26,12.82,8.13,16.26-1.94,3.14-7.53,2.76-8.13,2.71-5.81-.46-11-5.22-13.55-12.19"/><path class="cls-3" d="M4750.17,113.42c6.16,11.07,6.46,21,2.27,24.13-3.41,2.52-9.39.2-11.13-.47-7.4-2.85-10.77-9.42-12.19-12.19a31.54,31.54,0,0,1-3-18.59"/><path class="cls-1" d="M4617.46,85.82c.82,4,3.71,17.11,14.9,27.09,10.7,9.56,22.68,10.6,44.71,12.2,36.55,2.65,60.94-4.62,67.74-6.78,17.29-5.49,29.1-9.44,33.87-20.32,5.47-12.46-1.63-26.42-5.42-33.87-15.72-30.91-52.56-52-89.42-51.48-9.8.13-23.88.5-37.93,9.48C4625.8,35,4612.38,61.22,4617.46,85.82Z"/><path class="cls-2" d="M4728.55,50.59c-1.35-1.62-12-14.06-25.74-12.19-2,.27-9.32,1.27-12.19,6.77-3.08,5.88.22,14.44,5.41,19,10.18,8.88,24.22,7.08,25.75,6.78"/><path d="M4742.56,78.41c1.2,2.37,4.77,3.17,7,2.13,3.83-1.77,4.16-9.12,1.61-10.8-2.06-1.36-6.54.64-8.22,3.87C4742.7,74.1,4741.53,76.37,4742.56,78.41Z"/><path d="M4770.52,85.56c-.22,1.11,2,3,4.06,2.71,1.51-.24,3-1.68,2.71-2.71s-2.38-1.36-3.39-1.35C4772.7,84.21,4770.7,84.61,4770.52,85.56Z"/><path class="cls-4" d="M4778.65,93.69a9.88,9.88,0,0,1-5.39,1.61,10.11,10.11,0,0,1-6.77-2.71"/><path class="cls-3" d="M4723.9,106.77a27.34,27.34,0,0,1,10.63,8.64c1.89,2.59,6,8.19,4.07,12.19-2.41,5-12.78,4.23-14.9,4.06-11.32-.88-19.36-8.07-23.11-12"/><path class="cls-3" d="M4662.17,112.38a52.3,52.3,0,0,1-1.26,14.54c-1.27,5.49-2.3,9.71-5.49,10.89-3,1.1-6.31-1.05-8-2.16-2.8-1.82-5.77-4.85-8.9-12.44a66.46,66.46,0,0,1-4.79-21.22"/><path class="cls-4" d="M4719.42,54.78a24.68,24.68,0,0,0-13.44-7,23.16,23.16,0,0,0-6.3-.09"/><path class="cls-1" d="M4342.13,54.14c3.26-11.54,18.27-18.66,22.15-15.61,2.84,2.23-2.3,8.38-1.56,18,1.56,20.55,27.89,30.64,25.58,35.34-1.8,3.66-19.86,1.71-32.64-9.15C4353.22,80.66,4338.24,67.93,4342.13,54.14Z"/><path class="cls-2" d="M4510.77,42.15c-.28-2.09-3.62-24.26-18.35-29.66-4.12-1.51-11.92-2.73-15.29,1.65-4.54,5.89,2,17.89,3.06,19.77,5.71,10.44,15.26,14.8,19.88,16.48"/><path class="cls-3" d="M4444.39,118.13c7.52,5.87,10.25,12.82,8.13,16.26-1.94,3.14-7.53,2.76-8.13,2.71-5.81-.46-11-5.22-13.55-12.19"/><path class="cls-3" d="M4504.37,108.49c2.39,1.4,18.87,11.26,16.92,17.35-1.06,3.31-7.07,4-8.43,4.16l-.2,0c-6.82.57-15.24-2.48-15.24-2.48a55.48,55.48,0,0,1-16.26-9.48"/><path class="cls-1" d="M4375.29,85.62c.83,4,3.72,17.11,14.9,27.09,10.71,9.56,22.68,10.6,44.71,12.2,36.56,2.64,61-4.62,67.74-6.78,17.3-5.49,29.1-9.44,33.87-20.32,5.47-12.46-1.63-26.42-5.41-33.87-15.73-30.91-52.56-52-89.42-51.48-9.81.13-23.89.5-37.94,9.48C4383.64,34.79,4370.22,61,4375.29,85.62Z"/><path class="cls-2" d="M4486.39,50.39c-1.35-1.62-12-14.06-25.75-12.19-2,.27-9.31,1.27-12.19,6.77-3.07,5.88.23,14.44,5.42,19,10.18,8.87,24.21,7.08,25.74,6.77"/><path d="M4500.4,78.21c1.2,2.37,4.77,3.17,7,2.13,3.84-1.77,4.17-9.12,1.62-10.8-2.06-1.36-6.55.64-8.23,3.87C4500.54,73.9,4499.36,76.17,4500.4,78.21Z"/><path d="M4528.35,85.36c-.21,1.11,2,3,4.07,2.71,1.5-.24,3-1.68,2.71-2.71s-2.39-1.36-3.39-1.35C4530.54,84,4528.54,84.41,4528.35,85.36Z"/><path class="cls-4" d="M4536.48,93.49a9.92,9.92,0,0,1-5.38,1.61,10.15,10.15,0,0,1-6.78-2.71"/><path class="cls-3" d="M4484.48,115.39a39.32,39.32,0,0,1,.68,10.3c-.3,4.45-.75,11-4.51,12.77-2.42,1.13-5.25-.2-6.84-1-10.36-5-14.58-19.25-15.86-24.27"/><path class="cls-3" d="M4418.64,116a52.48,52.48,0,0,1-5.45,13.53c-2.81,4.88-5,8.62-8.43,8.81-3.18.19-5.73-2.85-7-4.4-2.15-2.56-4.11-6.32-4.88-14.5a66.28,66.28,0,0,1,1.6-21.7"/><path class="cls-4" d="M4476.3,54.52a24.61,24.61,0,0,0-13.44-7,22.72,22.72,0,0,0-6.3-.08"/><path class="cls-1" d="M4099.43,70.12c-1.29-11.92,10-24.12,14.73-22.74,3.47,1,1,8.63,5.26,17.29,9.12,18.49,37.31,18,36.91,23.26-.3,4.07-17.78,9-33.69,3.68C4119.6,90.6,4101,84.37,4099.43,70.12Z"/><path class="cls-2" d="M4272.94,42.35c-.29-2.09-3.62-24.26-18.35-29.66-4.12-1.51-11.92-2.73-15.3,1.65-4.53,5.89,2,17.89,3.06,19.77,5.71,10.44,15.26,14.8,19.88,16.48"/><path class="cls-3" d="M4201.13,118.33c7.53,5.87,10.26,12.82,8.13,16.26-1.94,3.14-7.53,2.76-8.13,2.71-5.81-.46-11-5.22-13.55-12.19"/><path class="cls-3" d="M4270.17,113.42c6.16,11.07,6.46,21,2.27,24.13-3.41,2.52-9.39.2-11.13-.47-7.4-2.85-10.77-9.42-12.19-12.19a31.54,31.54,0,0,1-3-18.59"/><path class="cls-1" d="M4137.46,85.82c.82,4,3.71,17.11,14.9,27.09,10.7,9.56,22.68,10.6,44.71,12.2,36.55,2.65,60.94-4.62,67.74-6.78,17.29-5.49,29.1-9.44,33.87-20.32,5.47-12.46-1.63-26.42-5.42-33.87-15.72-30.91-52.56-52-89.42-51.48-9.8.13-23.88.5-37.93,9.48C4145.8,35,4132.38,61.22,4137.46,85.82Z"/><path class="cls-2" d="M4248.55,50.59c-1.35-1.62-12-14.06-25.74-12.19-2,.27-9.32,1.27-12.19,6.77-3.08,5.88.22,14.44,5.41,19,10.18,8.88,24.22,7.08,25.75,6.78"/><path d="M4262.56,78.41c1.2,2.37,4.77,3.17,7,2.13,3.83-1.77,4.16-9.12,1.61-10.8-2.06-1.36-6.54.64-8.22,3.87C4262.7,74.1,4261.53,76.37,4262.56,78.41Z"/><path d="M4290.52,85.56c-.22,1.11,2,3,4.06,2.71,1.51-.24,3-1.68,2.71-2.71s-2.38-1.36-3.39-1.35C4292.7,84.21,4290.7,84.61,4290.52,85.56Z"/><path class="cls-4" d="M4298.65,93.69a9.88,9.88,0,0,1-5.39,1.61,10.11,10.11,0,0,1-6.77-2.71"/><path class="cls-3" d="M4243.9,106.77a27.34,27.34,0,0,1,10.63,8.64c1.89,2.59,6,8.19,4.07,12.19-2.41,5-12.78,4.23-14.9,4.06-11.32-.88-19.36-8.07-23.11-12"/><path class="cls-3" d="M4182.17,112.38a52.3,52.3,0,0,1-1.26,14.54c-1.27,5.49-2.3,9.71-5.49,10.89-3,1.1-6.31-1.05-8-2.16-2.8-1.82-5.77-4.85-8.9-12.44a66.46,66.46,0,0,1-4.79-21.22"/><path class="cls-4" d="M4239.42,54.78a24.68,24.68,0,0,0-13.44-7,23.16,23.16,0,0,0-6.3-.09"/><path class="cls-1" d="M3862.13,54.14c3.26-11.54,18.27-18.66,22.15-15.61,2.84,2.23-2.3,8.38-1.56,18,1.56,20.55,27.89,30.64,25.58,35.34-1.8,3.66-19.86,1.71-32.64-9.15C3873.22,80.66,3858.24,67.93,3862.13,54.14Z"/><path class="cls-2" d="M4030.77,42.15c-.28-2.09-3.62-24.26-18.35-29.66-4.12-1.51-11.92-2.73-15.29,1.65-4.54,5.89,2,17.89,3.06,19.77,5.71,10.44,15.26,14.8,19.88,16.48"/><path class="cls-3" d="M3964.39,118.13c7.52,5.87,10.25,12.82,8.13,16.26-1.94,3.14-7.53,2.76-8.13,2.71-5.81-.46-11-5.22-13.55-12.19"/><path class="cls-3" d="M4024.37,108.49c2.39,1.4,18.87,11.26,16.92,17.35-1.06,3.31-7.07,4-8.43,4.16l-.2,0c-6.82.57-15.24-2.48-15.24-2.48a55.48,55.48,0,0,1-16.26-9.48"/><path class="cls-1" d="M3895.29,85.62c.83,4,3.72,17.11,14.9,27.09,10.71,9.56,22.68,10.6,44.71,12.2,36.56,2.64,60.95-4.62,67.74-6.78,17.3-5.49,29.1-9.44,33.87-20.32,5.47-12.46-1.63-26.42-5.41-33.87-15.73-30.91-52.56-52-89.42-51.48-9.81.13-23.89.5-37.94,9.48C3903.64,34.79,3890.22,61,3895.29,85.62Z"/><path class="cls-2" d="M4006.39,50.39c-1.35-1.62-12-14.06-25.75-12.19-2,.27-9.31,1.27-12.19,6.77-3.07,5.88.23,14.44,5.42,19,10.18,8.87,24.21,7.08,25.74,6.77"/><path d="M4020.4,78.21c1.2,2.37,4.77,3.17,7,2.13,3.84-1.77,4.17-9.12,1.62-10.8-2.06-1.36-6.55.64-8.23,3.87C4020.54,73.9,4019.36,76.17,4020.4,78.21Z"/><path d="M4048.35,85.36c-.21,1.11,2,3,4.07,2.71,1.5-.24,3-1.68,2.71-2.71s-2.39-1.36-3.39-1.35C4050.54,84,4048.54,84.41,4048.35,85.36Z"/><path class="cls-4" d="M4056.48,93.49a9.92,9.92,0,0,1-5.38,1.61,10.15,10.15,0,0,1-6.78-2.71"/><path class="cls-3" d="M4004.48,115.39a39.32,39.32,0,0,1,.68,10.3c-.3,4.45-.75,11-4.51,12.77-2.42,1.13-5.25-.2-6.84-1-10.36-5-14.58-19.25-15.86-24.27"/><path class="cls-3" d="M3938.64,116a52.48,52.48,0,0,1-5.45,13.53c-2.81,4.88-5,8.62-8.43,8.81-3.18.19-5.73-2.85-7-4.4-2.15-2.56-4.11-6.32-4.88-14.5a66.28,66.28,0,0,1,1.6-21.7"/><path class="cls-4" d="M3996.3,54.52a24.61,24.61,0,0,0-13.44-7,22.72,22.72,0,0,0-6.3-.08"/><path class="cls-1" d="M3619.43,70.12c-1.29-11.92,10-24.12,14.73-22.74,3.47,1,1,8.63,5.26,17.29,9.12,18.49,37.31,18,36.91,23.26-.3,4.07-17.78,9-33.69,3.68C3639.6,90.6,3621,84.37,3619.43,70.12Z"/><path class="cls-2" d="M3792.94,42.35c-.29-2.09-3.62-24.26-18.35-29.66-4.12-1.51-11.92-2.73-15.3,1.65-4.53,5.89,2,17.89,3.06,19.77,5.71,10.44,15.26,14.8,19.88,16.48"/><path class="cls-3" d="M3721.13,118.33c7.53,5.87,10.26,12.82,8.13,16.26-1.94,3.14-7.53,2.76-8.13,2.71-5.81-.46-11-5.22-13.55-12.19"/><path class="cls-3" d="M3790.17,113.42c6.16,11.07,6.46,21,2.27,24.13-3.41,2.52-9.39.2-11.13-.47-7.4-2.85-10.77-9.42-12.19-12.19a31.54,31.54,0,0,1-3-18.59"/><path class="cls-1" d="M3657.46,85.82c.82,4,3.71,17.11,14.9,27.09,10.7,9.56,22.68,10.6,44.71,12.2,36.55,2.65,60.94-4.62,67.74-6.78,17.29-5.49,29.1-9.44,33.87-20.32,5.47-12.46-1.63-26.42-5.42-33.87-15.72-30.91-52.56-52-89.42-51.48-9.8.13-23.88.5-37.93,9.48C3665.8,35,3652.38,61.22,3657.46,85.82Z"/><path class="cls-2" d="M3768.55,50.59c-1.35-1.62-12-14.06-25.74-12.19-2,.27-9.32,1.27-12.19,6.77-3.08,5.88.22,14.44,5.41,19,10.18,8.88,24.22,7.08,25.75,6.78"/><path d="M3782.56,78.41c1.2,2.37,4.77,3.17,7,2.13,3.83-1.77,4.16-9.12,1.61-10.8-2.06-1.36-6.54.64-8.22,3.87C3782.7,74.1,3781.53,76.37,3782.56,78.41Z"/><path d="M3810.52,85.56c-.22,1.11,2,3,4.06,2.71,1.51-.24,3-1.68,2.71-2.71s-2.38-1.36-3.39-1.35C3812.7,84.21,3810.7,84.61,3810.52,85.56Z"/><path class="cls-4" d="M3818.65,93.69a9.88,9.88,0,0,1-5.39,1.61,10.11,10.11,0,0,1-6.77-2.71"/><path class="cls-3" d="M3763.9,106.77a27.34,27.34,0,0,1,10.63,8.64c1.89,2.59,6,8.19,4.07,12.19-2.41,5-12.78,4.23-14.9,4.06-11.32-.88-19.36-8.07-23.11-12"/><path class="cls-3" d="M3702.17,112.38a52.3,52.3,0,0,1-1.26,14.54c-1.27,5.49-2.3,9.71-5.49,10.89-3,1.1-6.31-1.05-8-2.16-2.8-1.82-5.77-4.85-8.9-12.44a66.46,66.46,0,0,1-4.79-21.22"/><path class="cls-4" d="M3759.42,54.78a24.68,24.68,0,0,0-13.44-7,23.16,23.16,0,0,0-6.3-.09"/><path class="cls-1" d="M3382.13,54.14c3.26-11.54,18.27-18.66,22.15-15.61,2.84,2.23-2.3,8.38-1.56,18,1.56,20.55,27.89,30.64,25.58,35.34-1.8,3.66-19.86,1.71-32.64-9.15C3393.22,80.66,3378.24,67.93,3382.13,54.14Z"/><path class="cls-2" d="M3550.77,42.15c-.28-2.09-3.62-24.26-18.35-29.66-4.12-1.51-11.92-2.73-15.29,1.65-4.54,5.89,2,17.89,3.06,19.77,5.71,10.44,15.26,14.8,19.88,16.48"/><path class="cls-3" d="M3484.39,118.13c7.52,5.87,10.25,12.82,8.13,16.26-1.94,3.14-7.53,2.76-8.13,2.71-5.81-.46-11-5.22-13.55-12.19"/><path class="cls-3" d="M3544.37,108.49c2.39,1.4,18.87,11.26,16.92,17.35-1.06,3.31-7.07,4-8.43,4.16l-.2,0c-6.82.57-15.24-2.48-15.24-2.48a55.48,55.48,0,0,1-16.26-9.48"/><path class="cls-1" d="M3415.29,85.62c.83,4,3.72,17.11,14.9,27.09,10.71,9.56,22.68,10.6,44.71,12.2,36.56,2.64,60.95-4.62,67.74-6.78,17.3-5.49,29.1-9.44,33.87-20.32,5.47-12.46-1.63-26.42-5.41-33.87-15.73-30.91-52.56-52-89.42-51.48-9.81.13-23.89.5-37.94,9.48C3423.64,34.79,3410.22,61,3415.29,85.62Z"/><path class="cls-2" d="M3526.39,50.39c-1.35-1.62-12-14.06-25.75-12.19-2,.27-9.31,1.27-12.19,6.77-3.07,5.88.23,14.44,5.42,19,10.18,8.87,24.21,7.08,25.74,6.77"/><path d="M3540.4,78.21c1.2,2.37,4.77,3.17,7,2.13,3.84-1.77,4.17-9.12,1.62-10.8-2.06-1.36-6.55.64-8.23,3.87C3540.54,73.9,3539.36,76.17,3540.4,78.21Z"/><path d="M3568.35,85.36c-.21,1.11,2,3,4.07,2.71,1.5-.24,3-1.68,2.71-2.71s-2.39-1.36-3.39-1.35C3570.54,84,3568.54,84.41,3568.35,85.36Z"/><path class="cls-4" d="M3576.48,93.49a9.92,9.92,0,0,1-5.38,1.61,10.15,10.15,0,0,1-6.78-2.71"/><path class="cls-3" d="M3524.48,115.39a39.32,39.32,0,0,1,.68,10.3c-.3,4.45-.75,11-4.51,12.77-2.42,1.13-5.25-.2-6.84-1-10.36-5-14.58-19.25-15.86-24.27"/><path class="cls-3" d="M3458.64,116a52.48,52.48,0,0,1-5.45,13.53c-2.81,4.88-5,8.62-8.43,8.81-3.18.19-5.73-2.85-7-4.4-2.15-2.56-4.11-6.32-4.88-14.5a66.28,66.28,0,0,1,1.6-21.7"/><path class="cls-4" d="M3516.3,54.52a24.61,24.61,0,0,0-13.44-7,22.72,22.72,0,0,0-6.3-.08"/><path class="cls-1" d="M3139.43,70.12c-1.29-11.92,10-24.12,14.73-22.74,3.47,1,1,8.63,5.26,17.29,9.12,18.49,37.31,18,36.91,23.26-.3,4.07-17.78,9-33.69,3.68C3159.6,90.6,3141,84.37,3139.43,70.12Z"/><path class="cls-2" d="M3312.94,42.35c-.29-2.09-3.62-24.26-18.35-29.66-4.12-1.51-11.92-2.73-15.3,1.65-4.53,5.89,2,17.89,3.06,19.77,5.71,10.44,15.26,14.8,19.88,16.48"/><path class="cls-3" d="M3241.13,118.33c7.53,5.87,10.26,12.82,8.13,16.26-1.94,3.14-7.53,2.76-8.13,2.71-5.81-.46-11-5.22-13.55-12.19"/><path class="cls-3" d="M3310.17,113.42c6.16,11.07,6.46,21,2.27,24.13-3.41,2.52-9.39.2-11.13-.47-7.4-2.85-10.77-9.42-12.19-12.19a31.54,31.54,0,0,1-3-18.59"/><path class="cls-1" d="M3177.46,85.82c.82,4,3.71,17.11,14.9,27.09,10.7,9.56,22.68,10.6,44.71,12.2,36.55,2.65,60.94-4.62,67.74-6.78,17.29-5.49,29.1-9.44,33.87-20.32,5.47-12.46-1.63-26.42-5.42-33.87-15.72-30.91-52.56-52-89.42-51.48-9.8.13-23.88.5-37.93,9.48C3185.8,35,3172.38,61.22,3177.46,85.82Z"/><path class="cls-2" d="M3288.55,50.59c-1.35-1.62-12-14.06-25.74-12.19-2,.27-9.32,1.27-12.19,6.77-3.08,5.88.22,14.44,5.41,19,10.18,8.88,24.22,7.08,25.75,6.78"/><path d="M3302.56,78.41c1.2,2.37,4.77,3.17,7,2.13,3.83-1.77,4.16-9.12,1.61-10.8-2.06-1.36-6.54.64-8.22,3.87C3302.7,74.1,3301.53,76.37,3302.56,78.41Z"/><path d="M3330.52,85.56c-.22,1.11,2,3,4.06,2.71,1.51-.24,3-1.68,2.71-2.71s-2.38-1.36-3.39-1.35C3332.7,84.21,3330.7,84.61,3330.52,85.56Z"/><path class="cls-4" d="M3338.65,93.69a9.88,9.88,0,0,1-5.39,1.61,10.11,10.11,0,0,1-6.77-2.71"/><path class="cls-3" d="M3283.9,106.77a27.34,27.34,0,0,1,10.63,8.64c1.89,2.59,6,8.19,4.07,12.19-2.41,5-12.78,4.23-14.9,4.06-11.32-.88-19.36-8.07-23.11-12"/><path class="cls-3" d="M3222.17,112.38a52.3,52.3,0,0,1-1.26,14.54c-1.27,5.49-2.3,9.71-5.49,10.89-3,1.1-6.31-1.05-8-2.16-2.8-1.82-5.77-4.85-8.9-12.44a66.46,66.46,0,0,1-4.79-21.22"/><path class="cls-4" d="M3279.42,54.78a24.68,24.68,0,0,0-13.44-7,23.16,23.16,0,0,0-6.3-.09"/><path class="cls-1" d="M5539.43,70.12c-1.29-11.92,10-24.12,14.73-22.74,3.47,1,1,8.63,5.26,17.29,9.12,18.49,37.31,18,36.91,23.26-.3,4.07-17.78,9-33.69,3.68C5559.6,90.6,5541,84.37,5539.43,70.12Z"/><path class="cls-2" d="M5712.94,42.35c-.29-2.09-3.62-24.26-18.35-29.66-4.12-1.51-11.92-2.73-15.3,1.65-4.53,5.89,2,17.89,3.06,19.77,5.71,10.44,15.26,14.8,19.88,16.48"/><path class="cls-3" d="M5641.13,118.33c7.53,5.87,10.26,12.82,8.13,16.26-1.94,3.14-7.53,2.76-8.13,2.71-5.81-.46-11-5.22-13.55-12.19"/><path class="cls-3" d="M5710.17,113.42c6.16,11.07,6.46,21,2.27,24.13-3.41,2.52-9.39.2-11.13-.47-7.4-2.85-10.77-9.42-12.19-12.19a31.54,31.54,0,0,1-3-18.59"/><path class="cls-1" d="M5577.46,85.82c.82,4,3.71,17.11,14.9,27.09,10.7,9.56,22.68,10.6,44.71,12.2,36.55,2.65,60.94-4.62,67.74-6.78,17.29-5.49,29.1-9.44,33.87-20.32,5.47-12.46-1.63-26.42-5.42-33.87-15.72-30.91-52.56-52-89.42-51.48-9.8.13-23.88.5-37.93,9.48C5585.8,35,5572.38,61.22,5577.46,85.82Z"/><path class="cls-2" d="M5688.55,50.59c-1.35-1.62-12-14.06-25.74-12.19-2,.27-9.32,1.27-12.19,6.77-3.08,5.88.22,14.44,5.41,19,10.18,8.88,24.22,7.08,25.75,6.78"/><path d="M5702.56,78.41c1.2,2.37,4.77,3.17,7,2.13,3.83-1.77,4.16-9.12,1.61-10.8-2.06-1.36-6.54.64-8.22,3.87C5702.7,74.1,5701.53,76.37,5702.56,78.41Z"/><path d="M5730.52,85.56c-.22,1.11,2,3,4.06,2.71,1.51-.24,3-1.68,2.71-2.71s-2.38-1.36-3.39-1.35C5732.7,84.21,5730.7,84.61,5730.52,85.56Z"/><path class="cls-4" d="M5738.65,93.69a9.88,9.88,0,0,1-5.39,1.61,10.11,10.11,0,0,1-6.77-2.71"/><path class="cls-3" d="M5683.9,106.77a27.34,27.34,0,0,1,10.63,8.64c1.89,2.59,6,8.19,4.07,12.19-2.41,5-12.78,4.23-14.9,4.06-11.32-.88-19.36-8.07-23.11-12"/><path class="cls-3" d="M5622.17,112.38a52.3,52.3,0,0,1-1.26,14.54c-1.27,5.49-2.3,9.71-5.49,10.89-3,1.1-6.31-1.05-8-2.16-2.8-1.82-5.77-4.85-8.9-12.44a66.46,66.46,0,0,1-4.79-21.22"/><path class="cls-4" d="M5679.42,54.78a24.68,24.68,0,0,0-13.44-7,23.16,23.16,0,0,0-6.3-.09"/><path class="cls-1" d="M937.87,54.14c-3.26-11.54-18.27-18.66-22.15-15.61-2.84,2.23,2.3,8.38,1.56,18-1.56,20.55-27.89,30.64-25.58,35.34,1.8,3.66,19.86,1.71,32.64-9.15C926.78,80.66,941.76,67.93,937.87,54.14Z"/><path class="cls-2" d="M769.23,42.15c.28-2.09,3.62-24.26,18.35-29.66,4.12-1.51,11.92-2.73,15.29,1.65,4.54,5.89-2,17.89-3.06,19.77-5.71,10.44-15.26,14.8-19.88,16.48"/><path class="cls-3" d="M835.61,118.13c-7.52,5.87-10.25,12.82-8.13,16.26,1.94,3.14,7.53,2.76,8.13,2.71,5.81-.46,11-5.22,13.55-12.19"/><path class="cls-3" d="M775.63,108.49c-2.39,1.4-18.87,11.26-16.92,17.35,1.06,3.31,7.07,4,8.43,4.16l.2,0c6.82.57,15.24-2.48,15.24-2.48a55.48,55.48,0,0,0,16.26-9.48"/><path class="cls-1" d="M904.71,85.62c-.83,4-3.72,17.11-14.9,27.09-10.71,9.56-22.68,10.6-44.71,12.2-36.56,2.64-61-4.62-67.74-6.78-17.3-5.49-29.1-9.44-33.87-20.32-5.47-12.46,1.63-26.42,5.41-33.87C764.63,33,801.46,12,838.32,12.46c9.81.13,23.89.5,37.94,9.48C896.36,34.79,909.78,61,904.71,85.62Z"/><path class="cls-2" d="M793.61,50.39c1.35-1.62,12-14.06,25.75-12.19,2,.27,9.31,1.27,12.19,6.77,3.07,5.88-.23,14.44-5.42,19C816,72.81,801.92,71,800.39,70.71"/><path d="M779.6,78.21c-1.2,2.37-4.77,3.17-7,2.13-3.84-1.77-4.17-9.12-1.62-10.8,2.06-1.36,6.55.64,8.23,3.87C779.46,73.9,780.64,76.17,779.6,78.21Z"/><path d="M751.65,85.36c.21,1.11-2,3-4.07,2.71-1.5-.24-3-1.68-2.71-2.71S747.26,84,748.26,84C749.46,84,751.46,84.41,751.65,85.36Z"/><path class="cls-4" d="M743.52,93.49a9.92,9.92,0,0,0,5.38,1.61,10.15,10.15,0,0,0,6.78-2.71"/><path class="cls-3" d="M795.52,115.39a39.32,39.32,0,0,0-.68,10.3c.3,4.45.75,11,4.51,12.77,2.42,1.13,5.25-.2,6.84-1,10.36-5,14.58-19.25,15.86-24.27"/><path class="cls-3" d="M861.36,116a52.48,52.48,0,0,0,5.45,13.53c2.81,4.88,5,8.62,8.43,8.81,3.18.19,5.73-2.85,7-4.4,2.15-2.56,4.11-6.32,4.88-14.5a66.28,66.28,0,0,0-1.6-21.7"/><path class="cls-4" d="M803.7,54.52a24.61,24.61,0,0,1,13.44-7,22.72,22.72,0,0,1,6.3-.08"/><path class="cls-1" d="M1180.57,70.12c1.29-11.92-10-24.12-14.73-22.74-3.47,1-1,8.63-5.26,17.29-9.12,18.49-37.31,18-36.91,23.26.3,4.07,17.78,9,33.69,3.68C1160.4,90.6,1179,84.37,1180.57,70.12Z"/><path class="cls-2" d="M1007.06,42.35c.29-2.09,3.62-24.26,18.35-29.66,4.12-1.51,11.92-2.73,15.3,1.65,4.53,5.89-2,17.89-3.06,19.77-5.71,10.44-15.26,14.8-19.88,16.48"/><path class="cls-3" d="M1078.87,118.33c-7.53,5.87-10.26,12.82-8.13,16.26,1.94,3.14,7.53,2.76,8.13,2.71,5.81-.46,11-5.22,13.55-12.19"/><path class="cls-3" d="M1009.83,113.42c-6.16,11.07-6.46,21-2.27,24.13,3.41,2.52,9.39.2,11.13-.47,7.4-2.85,10.77-9.42,12.19-12.19a31.54,31.54,0,0,0,3-18.59"/><path class="cls-1" d="M1142.54,85.82c-.82,4-3.71,17.11-14.9,27.09-10.7,9.56-22.68,10.6-44.71,12.2-36.55,2.65-60.94-4.62-67.74-6.78-17.29-5.49-29.1-9.44-33.87-20.32-5.47-12.46,1.63-26.42,5.42-33.87,15.72-30.91,52.56-52,89.42-51.48,9.8.13,23.88.5,37.93,9.48C1134.2,35,1147.62,61.22,1142.54,85.82Z"/><path class="cls-2" d="M1031.45,50.59c1.35-1.62,12-14.06,25.74-12.19,2,.27,9.32,1.27,12.19,6.77,3.08,5.88-.22,14.44-5.41,19-10.18,8.88-24.22,7.08-25.75,6.78"/><path d="M1017.44,78.41c-1.2,2.37-4.77,3.17-7,2.13-3.83-1.77-4.16-9.12-1.61-10.8,2.06-1.36,6.54.64,8.22,3.87C1017.3,74.1,1018.47,76.37,1017.44,78.41Z"/><path d="M989.48,85.56c.22,1.11-2,3-4.06,2.71-1.51-.24-3-1.68-2.71-2.71s2.38-1.36,3.39-1.35C987.3,84.21,989.3,84.61,989.48,85.56Z"/><path class="cls-4" d="M981.35,93.69a9.88,9.88,0,0,0,5.39,1.61,10.11,10.11,0,0,0,6.77-2.71"/><path class="cls-3" d="M1036.1,106.77a27.34,27.34,0,0,0-10.63,8.64c-1.89,2.59-6,8.19-4.07,12.19,2.41,5,12.78,4.23,14.9,4.06,11.32-.88,19.36-8.07,23.11-12"/><path class="cls-3" d="M1097.83,112.38a52.3,52.3,0,0,0,1.26,14.54c1.27,5.49,2.3,9.71,5.49,10.89,3,1.1,6.31-1.05,8-2.16,2.8-1.82,5.77-4.85,8.9-12.44a66.46,66.46,0,0,0,4.79-21.22"/><path class="cls-4" d="M1040.58,54.78a24.68,24.68,0,0,1,13.44-7,23.16,23.16,0,0,1,6.3-.09"/><path class="cls-1" d="M1417.87,54.14c-3.26-11.54-18.27-18.66-22.15-15.61-2.84,2.23,2.3,8.38,1.56,18-1.56,20.55-27.89,30.64-25.58,35.34,1.8,3.66,19.86,1.71,32.64-9.15C1406.78,80.66,1421.76,67.93,1417.87,54.14Z"/><path class="cls-2" d="M1249.23,42.15c.28-2.09,3.62-24.26,18.35-29.66,4.12-1.51,11.92-2.73,15.29,1.65,4.54,5.89-2,17.89-3.06,19.77-5.71,10.44-15.26,14.8-19.88,16.48"/><path class="cls-3" d="M1315.61,118.13c-7.52,5.87-10.25,12.82-8.13,16.26,1.94,3.14,7.53,2.76,8.13,2.71,5.81-.46,11-5.22,13.55-12.19"/><path class="cls-3" d="M1255.63,108.49c-2.39,1.4-18.87,11.26-16.92,17.35,1.06,3.31,7.07,4,8.43,4.16l.2,0c6.82.57,15.24-2.48,15.24-2.48a55.48,55.48,0,0,0,16.26-9.48"/><path class="cls-1" d="M1384.71,85.62c-.83,4-3.72,17.11-14.9,27.09-10.71,9.56-22.68,10.6-44.71,12.2-36.56,2.64-60.95-4.62-67.74-6.78-17.3-5.49-29.1-9.44-33.87-20.32-5.47-12.46,1.63-26.42,5.41-33.87,15.73-30.91,52.56-52,89.42-51.48,9.81.13,23.89.5,37.94,9.48C1376.36,34.79,1389.78,61,1384.71,85.62Z"/><path class="cls-2" d="M1273.61,50.39c1.35-1.62,12-14.06,25.75-12.19,2,.27,9.31,1.27,12.19,6.77,3.07,5.88-.23,14.44-5.42,19-10.18,8.87-24.21,7.08-25.74,6.77"/><path d="M1259.6,78.21c-1.2,2.37-4.77,3.17-7,2.13-3.84-1.77-4.17-9.12-1.62-10.8,2.06-1.36,6.55.64,8.23,3.87C1259.46,73.9,1260.64,76.17,1259.6,78.21Z"/><path d="M1231.65,85.36c.21,1.11-2,3-4.07,2.71-1.5-.24-3-1.68-2.71-2.71s2.39-1.36,3.39-1.35C1229.46,84,1231.46,84.41,1231.65,85.36Z"/><path class="cls-4" d="M1223.52,93.49a9.92,9.92,0,0,0,5.38,1.61,10.15,10.15,0,0,0,6.78-2.71"/><path class="cls-3" d="M1275.52,115.39a39.32,39.32,0,0,0-.68,10.3c.3,4.45.75,11,4.51,12.77,2.42,1.13,5.25-.2,6.84-1,10.36-5,14.58-19.25,15.86-24.27"/><path class="cls-3" d="M1341.36,116a52.48,52.48,0,0,0,5.45,13.53c2.81,4.88,5,8.62,8.43,8.81,3.18.19,5.73-2.85,7-4.4,2.15-2.56,4.11-6.32,4.88-14.5a66.28,66.28,0,0,0-1.6-21.7"/><path class="cls-4" d="M1283.7,54.52a24.61,24.61,0,0,1,13.44-7,22.72,22.72,0,0,1,6.3-.08"/><path class="cls-1" d="M1660.57,70.12c1.29-11.92-10-24.12-14.73-22.74-3.47,1-1,8.63-5.26,17.29-9.12,18.49-37.31,18-36.91,23.26.3,4.07,17.78,9,33.69,3.68C1640.4,90.6,1659,84.37,1660.57,70.12Z"/><path class="cls-2" d="M1487.06,42.35c.29-2.09,3.62-24.26,18.35-29.66,4.12-1.51,11.92-2.73,15.3,1.65,4.53,5.89-2,17.89-3.06,19.77-5.71,10.44-15.26,14.8-19.88,16.48"/><path class="cls-3" d="M1558.87,118.33c-7.53,5.87-10.26,12.82-8.13,16.26,1.94,3.14,7.53,2.76,8.13,2.71,5.81-.46,11-5.22,13.55-12.19"/><path class="cls-3" d="M1489.83,113.42c-6.16,11.07-6.46,21-2.27,24.13,3.41,2.52,9.39.2,11.13-.47,7.4-2.85,10.77-9.42,12.19-12.19a31.54,31.54,0,0,0,3-18.59"/><path class="cls-1" d="M1622.54,85.82c-.82,4-3.71,17.11-14.9,27.09-10.7,9.56-22.68,10.6-44.71,12.2-36.55,2.65-60.94-4.62-67.74-6.78-17.29-5.49-29.1-9.44-33.87-20.32-5.47-12.46,1.63-26.42,5.42-33.87,15.72-30.91,52.56-52,89.42-51.48,9.8.13,23.88.5,37.93,9.48C1614.2,35,1627.62,61.22,1622.54,85.82Z"/><path class="cls-2" d="M1511.45,50.59c1.35-1.62,12-14.06,25.74-12.19,2,.27,9.32,1.27,12.19,6.77,3.08,5.88-.22,14.44-5.41,19-10.18,8.88-24.22,7.08-25.75,6.78"/><path d="M1497.44,78.41c-1.2,2.37-4.77,3.17-7,2.13-3.83-1.77-4.16-9.12-1.61-10.8,2.06-1.36,6.54.64,8.22,3.87C1497.3,74.1,1498.47,76.37,1497.44,78.41Z"/><path d="M1469.48,85.56c.22,1.11-2,3-4.06,2.71-1.51-.24-3-1.68-2.71-2.71s2.38-1.36,3.39-1.35C1467.3,84.21,1469.3,84.61,1469.48,85.56Z"/><path class="cls-4" d="M1461.35,93.69a9.88,9.88,0,0,0,5.39,1.61,10.11,10.11,0,0,0,6.77-2.71"/><path class="cls-3" d="M1516.1,106.77a27.34,27.34,0,0,0-10.63,8.64c-1.89,2.59-6,8.19-4.07,12.19,2.41,5,12.78,4.23,14.9,4.06,11.32-.88,19.36-8.07,23.11-12"/><path class="cls-3" d="M1577.83,112.38a52.3,52.3,0,0,0,1.26,14.54c1.27,5.49,2.3,9.71,5.49,10.89,3,1.1,6.31-1.05,8-2.16,2.8-1.82,5.77-4.85,8.9-12.44a66.46,66.46,0,0,0,4.79-21.22"/><path class="cls-4" d="M1520.58,54.78a24.68,24.68,0,0,1,13.44-7,23.16,23.16,0,0,1,6.3-.09"/><path class="cls-1" d="M1897.87,54.14c-3.26-11.54-18.27-18.66-22.15-15.61-2.84,2.23,2.3,8.38,1.56,18-1.56,20.55-27.89,30.64-25.58,35.34,1.8,3.66,19.86,1.71,32.64-9.15C1886.78,80.66,1901.76,67.93,1897.87,54.14Z"/><path class="cls-2" d="M1729.23,42.15c.28-2.09,3.62-24.26,18.35-29.66,4.12-1.51,11.92-2.73,15.29,1.65,4.54,5.89-2,17.89-3.06,19.77-5.71,10.44-15.26,14.8-19.88,16.48"/><path class="cls-3" d="M1795.61,118.13c-7.52,5.87-10.25,12.82-8.13,16.26,1.94,3.14,7.53,2.76,8.13,2.71,5.81-.46,11-5.22,13.55-12.19"/><path class="cls-3" d="M1735.63,108.49c-2.39,1.4-18.87,11.26-16.92,17.35,1.06,3.31,7.07,4,8.43,4.16l.2,0c6.82.57,15.24-2.48,15.24-2.48a55.48,55.48,0,0,0,16.26-9.48"/><path class="cls-1" d="M1864.71,85.62c-.83,4-3.72,17.11-14.9,27.09-10.71,9.56-22.68,10.6-44.71,12.2-36.56,2.64-60.95-4.62-67.74-6.78-17.3-5.49-29.1-9.44-33.87-20.32-5.47-12.46,1.63-26.42,5.41-33.87,15.73-30.91,52.56-52,89.42-51.48,9.81.13,23.89.5,37.94,9.48C1856.36,34.79,1869.78,61,1864.71,85.62Z"/><path class="cls-2" d="M1753.61,50.39c1.35-1.62,12-14.06,25.75-12.19,2,.27,9.31,1.27,12.19,6.77,3.07,5.88-.23,14.44-5.42,19-10.18,8.87-24.21,7.08-25.74,6.77"/><path d="M1739.6,78.21c-1.2,2.37-4.77,3.17-7,2.13-3.84-1.77-4.17-9.12-1.62-10.8,2.06-1.36,6.55.64,8.23,3.87C1739.46,73.9,1740.64,76.17,1739.6,78.21Z"/><path d="M1711.65,85.36c.21,1.11-2,3-4.07,2.71-1.5-.24-3-1.68-2.71-2.71s2.39-1.36,3.39-1.35C1709.46,84,1711.46,84.41,1711.65,85.36Z"/><path class="cls-4" d="M1703.52,93.49a9.92,9.92,0,0,0,5.38,1.61,10.15,10.15,0,0,0,6.78-2.71"/><path class="cls-3" d="M1755.52,115.39a39.32,39.32,0,0,0-.68,10.3c.3,4.45.75,11,4.51,12.77,2.42,1.13,5.25-.2,6.84-1,10.36-5,14.58-19.25,15.86-24.27"/><path class="cls-3" d="M1821.36,116a52.48,52.48,0,0,0,5.45,13.53c2.81,4.88,5,8.62,8.43,8.81,3.18.19,5.73-2.85,7-4.4,2.15-2.56,4.11-6.32,4.88-14.5a66.28,66.28,0,0,0-1.6-21.7"/><path class="cls-4" d="M1763.7,54.52a24.61,24.61,0,0,1,13.44-7,22.72,22.72,0,0,1,6.3-.08"/><path class="cls-1" d="M2140.57,70.12c1.29-11.92-10-24.12-14.73-22.74-3.47,1-1,8.63-5.26,17.29-9.12,18.49-37.31,18-36.91,23.26.3,4.07,17.78,9,33.69,3.68C2120.4,90.6,2139,84.37,2140.57,70.12Z"/><path class="cls-2" d="M1967.06,42.35c.29-2.09,3.62-24.26,18.35-29.66,4.12-1.51,11.92-2.73,15.3,1.65,4.53,5.89-2,17.89-3.06,19.77-5.71,10.44-15.26,14.8-19.88,16.48"/><path class="cls-3" d="M2038.87,118.33c-7.53,5.87-10.26,12.82-8.13,16.26,1.94,3.14,7.53,2.76,8.13,2.71,5.81-.46,11-5.22,13.55-12.19"/><path class="cls-3" d="M1969.83,113.42c-6.16,11.07-6.46,21-2.27,24.13,3.41,2.52,9.39.2,11.13-.47,7.4-2.85,10.77-9.42,12.19-12.19a31.54,31.54,0,0,0,3-18.59"/><path class="cls-1" d="M2102.54,85.82c-.82,4-3.71,17.11-14.9,27.09-10.7,9.56-22.68,10.6-44.71,12.2-36.55,2.65-60.94-4.62-67.74-6.78-17.29-5.49-29.1-9.44-33.87-20.32-5.47-12.46,1.63-26.42,5.42-33.87,15.72-30.91,52.56-52,89.42-51.48,9.8.13,23.88.5,37.93,9.48C2094.2,35,2107.62,61.22,2102.54,85.82Z"/><path class="cls-2" d="M1991.45,50.59c1.35-1.62,12-14.06,25.74-12.19,2,.27,9.32,1.27,12.19,6.77,3.08,5.88-.22,14.44-5.41,19-10.18,8.88-24.22,7.08-25.75,6.78"/><path d="M1977.44,78.41c-1.2,2.37-4.77,3.17-7,2.13-3.83-1.77-4.16-9.12-1.61-10.8,2.06-1.36,6.54.64,8.22,3.87C1977.3,74.1,1978.47,76.37,1977.44,78.41Z"/><path d="M1949.48,85.56c.22,1.11-2,3-4.06,2.71-1.51-.24-3-1.68-2.71-2.71s2.38-1.36,3.39-1.35C1947.3,84.21,1949.3,84.61,1949.48,85.56Z"/><path class="cls-4" d="M1941.35,93.69a9.88,9.88,0,0,0,5.39,1.61,10.11,10.11,0,0,0,6.77-2.71"/><path class="cls-3" d="M1996.1,106.77a27.34,27.34,0,0,0-10.63,8.64c-1.89,2.59-6,8.19-4.07,12.19,2.41,5,12.78,4.23,14.9,4.06,11.32-.88,19.36-8.07,23.11-12"/><path class="cls-3" d="M2057.83,112.38a52.3,52.3,0,0,0,1.26,14.54c1.27,5.49,2.3,9.71,5.49,10.89,3,1.1,6.31-1.05,8-2.16,2.8-1.82,5.77-4.85,8.9-12.44a66.46,66.46,0,0,0,4.79-21.22"/><path class="cls-4" d="M2000.58,54.78a24.68,24.68,0,0,1,13.44-7,23.16,23.16,0,0,1,6.3-.09"/><path class="cls-1" d="M2377.87,54.14c-3.26-11.54-18.27-18.66-22.15-15.61-2.84,2.23,2.3,8.38,1.56,18-1.56,20.55-27.89,30.64-25.58,35.34,1.8,3.66,19.86,1.71,32.64-9.15C2366.78,80.66,2381.76,67.93,2377.87,54.14Z"/><path class="cls-2" d="M2209.23,42.15c.28-2.09,3.62-24.26,18.35-29.66,4.12-1.51,11.92-2.73,15.29,1.65,4.54,5.89-2,17.89-3.06,19.77-5.71,10.44-15.26,14.8-19.88,16.48"/><path class="cls-3" d="M2275.61,118.13c-7.52,5.87-10.25,12.82-8.13,16.26,1.94,3.14,7.53,2.76,8.13,2.71,5.81-.46,11-5.22,13.55-12.19"/><path class="cls-3" d="M2215.63,108.49c-2.39,1.4-18.87,11.26-16.92,17.35,1.06,3.31,7.07,4,8.43,4.16l.2,0c6.82.57,15.24-2.48,15.24-2.48a55.48,55.48,0,0,0,16.26-9.48"/><path class="cls-1" d="M2344.71,85.62c-.83,4-3.72,17.11-14.9,27.09-10.71,9.56-22.68,10.6-44.71,12.2-36.56,2.64-60.95-4.62-67.74-6.78-17.3-5.49-29.1-9.44-33.87-20.32-5.47-12.46,1.63-26.42,5.41-33.87,15.73-30.91,52.56-52,89.42-51.48,9.81.13,23.89.5,37.94,9.48C2336.36,34.79,2349.78,61,2344.71,85.62Z"/><path class="cls-2" d="M2233.61,50.39c1.35-1.62,12-14.06,25.75-12.19,2,.27,9.31,1.27,12.19,6.77,3.07,5.88-.23,14.44-5.42,19-10.18,8.87-24.21,7.08-25.74,6.77"/><path d="M2219.6,78.21c-1.2,2.37-4.77,3.17-7,2.13-3.84-1.77-4.17-9.12-1.62-10.8,2.06-1.36,6.55.64,8.23,3.87C2219.46,73.9,2220.64,76.17,2219.6,78.21Z"/><path d="M2191.65,85.36c.21,1.11-2,3-4.07,2.71-1.5-.24-3-1.68-2.71-2.71s2.39-1.36,3.39-1.35C2189.46,84,2191.46,84.41,2191.65,85.36Z"/><path class="cls-4" d="M2183.52,93.49a9.92,9.92,0,0,0,5.38,1.61,10.15,10.15,0,0,0,6.78-2.71"/><path class="cls-3" d="M2235.52,115.39a39.32,39.32,0,0,0-.68,10.3c.3,4.45.75,11,4.51,12.77,2.42,1.13,5.25-.2,6.84-1,10.36-5,14.58-19.25,15.86-24.27"/><path class="cls-3" d="M2301.36,116a52.48,52.48,0,0,0,5.45,13.53c2.81,4.88,5,8.62,8.43,8.81,3.18.19,5.73-2.85,7-4.4,2.15-2.56,4.11-6.32,4.88-14.5a66.28,66.28,0,0,0-1.6-21.7"/><path class="cls-4" d="M2243.7,54.52a24.61,24.61,0,0,1,13.44-7,22.72,22.72,0,0,1,6.3-.08"/><path class="cls-1" d="M2620.57,70.12c1.29-11.92-10-24.12-14.73-22.74-3.47,1-1,8.63-5.26,17.29-9.12,18.49-37.31,18-36.91,23.26.3,4.07,17.78,9,33.69,3.68C2600.4,90.6,2619,84.37,2620.57,70.12Z"/><path class="cls-2" d="M2447.06,42.35c.29-2.09,3.62-24.26,18.35-29.66,4.12-1.51,11.92-2.73,15.3,1.65,4.53,5.89-2,17.89-3.06,19.77-5.71,10.44-15.26,14.8-19.88,16.48"/><path class="cls-3" d="M2518.87,118.33c-7.53,5.87-10.26,12.82-8.13,16.26,1.94,3.14,7.53,2.76,8.13,2.71,5.81-.46,11-5.22,13.55-12.19"/><path class="cls-3" d="M2449.83,113.42c-6.16,11.07-6.46,21-2.27,24.13,3.41,2.52,9.39.2,11.13-.47,7.4-2.85,10.77-9.42,12.19-12.19a31.54,31.54,0,0,0,3-18.59"/><path class="cls-1" d="M2582.54,85.82c-.82,4-3.71,17.11-14.9,27.09-10.7,9.56-22.68,10.6-44.71,12.2-36.55,2.65-60.94-4.62-67.74-6.78-17.29-5.49-29.1-9.44-33.87-20.32-5.47-12.46,1.63-26.42,5.42-33.87,15.72-30.91,52.56-52,89.42-51.48,9.8.13,23.88.5,37.93,9.48C2574.2,35,2587.62,61.22,2582.54,85.82Z"/><path class="cls-2" d="M2471.45,50.59c1.35-1.62,12-14.06,25.74-12.19,2,.27,9.32,1.27,12.19,6.77,3.08,5.88-.22,14.44-5.41,19-10.18,8.88-24.22,7.08-25.75,6.78"/><path d="M2457.44,78.41c-1.2,2.37-4.77,3.17-7,2.13-3.83-1.77-4.16-9.12-1.61-10.8,2.06-1.36,6.54.64,8.22,3.87C2457.3,74.1,2458.47,76.37,2457.44,78.41Z"/><path d="M2429.48,85.56c.22,1.11-2,3-4.06,2.71-1.51-.24-3-1.68-2.71-2.71s2.38-1.36,3.39-1.35C2427.3,84.21,2429.3,84.61,2429.48,85.56Z"/><path class="cls-4" d="M2421.35,93.69a9.88,9.88,0,0,0,5.39,1.61,10.11,10.11,0,0,0,6.77-2.71"/><path class="cls-3" d="M2476.1,106.77a27.34,27.34,0,0,0-10.63,8.64c-1.89,2.59-6,8.19-4.07,12.19,2.41,5,12.78,4.23,14.9,4.06,11.32-.88,19.36-8.07,23.11-12"/><path class="cls-3" d="M2537.83,112.38a52.3,52.3,0,0,0,1.26,14.54c1.27,5.49,2.3,9.71,5.49,10.89,3,1.1,6.31-1.05,8-2.16,2.8-1.82,5.77-4.85,8.9-12.44a66.46,66.46,0,0,0,4.79-21.22"/><path class="cls-4" d="M2480.58,54.78a24.68,24.68,0,0,1,13.44-7,23.16,23.16,0,0,1,6.3-.09"/><path class="cls-1" d="M2857.87,54.14c-3.26-11.54-18.27-18.66-22.15-15.61-2.84,2.23,2.3,8.38,1.56,18-1.56,20.55-27.89,30.64-25.58,35.34,1.8,3.66,19.86,1.71,32.64-9.15C2846.78,80.66,2861.76,67.93,2857.87,54.14Z"/><path class="cls-2" d="M2689.23,42.15c.28-2.09,3.62-24.26,18.35-29.66,4.12-1.51,11.92-2.73,15.29,1.65,4.54,5.89-2,17.89-3.06,19.77-5.71,10.44-15.26,14.8-19.88,16.48"/><path class="cls-3" d="M2755.61,118.13c-7.52,5.87-10.25,12.82-8.13,16.26,1.94,3.14,7.53,2.76,8.13,2.71,5.81-.46,11-5.22,13.55-12.19"/><path class="cls-3" d="M2695.63,108.49c-2.39,1.4-18.87,11.26-16.92,17.35,1.06,3.31,7.07,4,8.43,4.16l.2,0c6.82.57,15.24-2.48,15.24-2.48a55.48,55.48,0,0,0,16.26-9.48"/><path class="cls-1" d="M2824.71,85.62c-.83,4-3.72,17.11-14.9,27.09-10.71,9.56-22.68,10.6-44.71,12.2-36.56,2.64-60.95-4.62-67.74-6.78-17.3-5.49-29.1-9.44-33.87-20.32-5.47-12.46,1.63-26.42,5.41-33.87,15.73-30.91,52.56-52,89.42-51.48,9.81.13,23.89.5,37.94,9.48C2816.36,34.79,2829.78,61,2824.71,85.62Z"/><path class="cls-2" d="M2713.61,50.39c1.35-1.62,12-14.06,25.75-12.19,2,.27,9.31,1.27,12.19,6.77,3.07,5.88-.23,14.44-5.42,19-10.18,8.87-24.21,7.08-25.74,6.77"/><path d="M2699.6,78.21c-1.2,2.37-4.77,3.17-7,2.13-3.84-1.77-4.17-9.12-1.62-10.8,2.06-1.36,6.55.64,8.23,3.87C2699.46,73.9,2700.64,76.17,2699.6,78.21Z"/><path d="M2671.65,85.36c.21,1.11-2,3-4.07,2.71-1.5-.24-3-1.68-2.71-2.71s2.39-1.36,3.39-1.35C2669.46,84,2671.46,84.41,2671.65,85.36Z"/><path class="cls-4" d="M2663.52,93.49a9.92,9.92,0,0,0,5.38,1.61,10.15,10.15,0,0,0,6.78-2.71"/><path class="cls-3" d="M2715.52,115.39a39.32,39.32,0,0,0-.68,10.3c.3,4.45.75,11,4.51,12.77,2.42,1.13,5.25-.2,6.84-1,10.36-5,14.58-19.25,15.86-24.27"/><path class="cls-3" d="M2781.36,116a52.48,52.48,0,0,0,5.45,13.53c2.81,4.88,5,8.62,8.43,8.81,3.18.19,5.73-2.85,7-4.4,2.15-2.56,4.11-6.32,4.88-14.5a66.28,66.28,0,0,0-1.6-21.7"/><path class="cls-4" d="M2723.7,54.52a24.61,24.61,0,0,1,13.44-7,22.72,22.72,0,0,1,6.3-.08"/></g></svg>