<svg xmlns="http://www.w3.org/2000/svg" viewBox="0 0 584.94 305.01"><defs><style>.cls-1{fill:#fff;}</style></defs><g id="Layer_2" data-name="Layer 2"><g id="clouds"><path class="cls-1" d="M581.78,239.66c-5.58,15.48-17.09,24.22-25.13,30.16-40.89,30.2-92.27,23.42-110.56,20.1a643.71,643.71,0,0,1-134,15.07,644.11,644.11,0,0,1-157.46-18.42c-46.19,10.09-81.17,3.69-100.51-1.68-20.26-5.62-37.25-10.62-46.91-26.8-11.53-19.34-9.9-50.09,10-68.68,20.26-18.88,47.34-14,50.26-13.4C68.37,130.26,93,89.75,131.16,72.14c36.28-16.76,71.08-6.44,80.4-3.35a91.47,91.47,0,0,1,21.78-40.2C234.77,27.07,259,2,295.32.11c37.25-1.93,73.95,21.21,93.81,58.63,5.18-1.85,37.89-13,70.36,5,27.13,15,43.78,44.73,43.55,77.06,10.25.38,30.27,2.73,48.58,16.75C575.53,175.88,592.19,210.74,581.78,239.66Z"/></g></g></svg>