<svg xmlns="http://www.w3.org/2000/svg" viewBox="0 0 348.78 198.52"><defs><style>.cls-1{fill:#fff;}</style></defs><g id="Layer_2" data-name="Layer 2"><g id="clouds"><path class="cls-1" d="M314.08,183.52c-30.87,12.65-61,3.46-73-1a220.69,220.69,0,0,1-83,16,220.35,220.35,0,0,1-71-12c-36.55,11.95-70.68,2.44-82-18-7.5-13.54-4.67-31.3-4-35,1.22-6.78,3.85-21.42,17-32,12.84-10.34,27.53-10.21,32-10,.09-3.81.94-24,17-38,15.9-13.85,40.27-16,61-5a89.38,89.38,0,0,1,30-34c29.4-19.41,68.61-18.63,97-2,22,12.9,32.55,32.42,36,39a102.68,102.68,0,0,1,11,36c4.74.37,21.52,2.27,34,16,14.95,16.46,16.37,41.84,6,59C334.58,174.93,322.77,180,314.08,183.52Z"/></g></g></svg>