<svg id="Layer_1" data-name="Layer 1" xmlns="http://www.w3.org/2000/svg" viewBox="0 0 15600 450"><defs><style>.cls-1,.cls-2{fill:#9fcea5;stroke-width:5px;}.cls-1,.cls-2,.cls-3{stroke:#000;}.cls-1,.cls-3{stroke-linecap:round;stroke-linejoin:round;}.cls-2{stroke-miterlimit:10;}.cls-3{fill:none;stroke-width:3px;}</style></defs><path class="cls-1" d="M8183.53,324.9c-3.41,25.15-.48,44.08,2.84,56.73,5,18.95,12.55,30.46,7.09,36.87s-20.09,4-29.78-1.42c-12.61-7-17.36-19.58-24.11-38.29a211.88,211.88,0,0,1-11.35-49.63"/><path class="cls-1" d="M8321.09,256.83c3,56.68,16.13,93.71,28.37,117.71,5,9.88,17.22,31.85,9.92,39.71-5.5,5.92-19.55,1.08-22.69,0-5.37-1.85-22-8.59-38.29-38.29-16-29.12-19.68-58.4-19.85-79.42"/><path class="cls-2" d="M8267.71,119.9c-13.26,40-20.67,58.89-36.6,71-17.17,13.11-37.56,11.83-73.31,10s-42-9.94-69.29-6.47c-15,1.9-36.05,4.58-52.47,21.27-19.37,19.7-19.72,46.17-19.85,56.73-.11,8.55-.48,36.45,18.43,58.15,16.84,19.3,39.53,22.45,75.17,28.36,27,4.47,45.88,3.45,83.67,1.42,68.05-3.67,85.33-13.92,92.18-18.44a106.22,106.22,0,0,0,32.62-34c5.84-10.07,13.69-27.9,11.34-95-1.91-54.66-8.65-86.69,3.69-92.23a8.68,8.68,0,0,1,1.85-.66c6.44-1.31,12.48,2.44,13.85,3.28,8.35,5.13,37.09,9.46,50.1-1.16,17.84-14.54,3.48-55,2.84-56.72-2.21-6-7-18.52-19.42-29.12-2.87-2.44-22.36-18.51-48.65-14.85-3.1.44-18,2.78-32.62,15.6C8280.76,55,8282.75,74.56,8267.71,119.9Z"/><path class="cls-1" d="M8043.13,210c-3,2.25-7.48,5.64-12.76,9.93-11.19,9.06-18.14,15.93-22.69,19.85a384,384,0,0,1-76.58,51.06c-49.16,23.31-89.41,21.68-89.1,30.42.15,4.15,8.86,7,17.89,9.68,11.06,3.34,34.51,8.87,76.88,2.44a328.22,328.22,0,0,0,61-15.6c12.89-4.47,23.48-8.92,31.08-12.34"/><path class="cls-1" d="M8204.8,288c3.7,63.33,15.88,110.06,29.78,124.8,12.88,13.65,25.53,14.18,25.53,14.18,3.55.15,9.11.38,12.77-2.84,9.6-8.46-3.52-32.36-8.51-61-2.61-14.91-4-36.86,2.83-65.23"/><path class="cls-1" d="M8114,307.88c-5,31.47-1.48,55,2.84,70.91,6.13,22.55,15.75,39.1,8.51,46.8s-25.81.46-27,0c-10.61-4.27-21-13.33-31.2-35.45-16.32-35.32-17.52-72.07-15.6-97.85"/><path d="M8360.8,74.14c-.12,3.78,3.55,6.36,6.4,6.84.36.06,4.5.68,6.26-2.39,1.43-2.51.19-5.53,0-5.93-1.21-2.45-4.35-5.27-7.91-4.44A6.53,6.53,0,0,0,8360.8,74.14Z"/><path class="cls-3" d="M8398.38,111.47a27.43,27.43,0,0,1-8.51,0,27.12,27.12,0,0,1-8.5-2.84"/><path class="cls-1" d="M9500.6,322.73c-3.42,25.15-.48,44.08,2.83,56.73,5,19,12.55,30.46,7.1,36.87s-20.09,4-29.79-1.42c-12.61-7-17.35-19.58-24.11-38.29A212,212,0,0,1,9445.29,327"/><path class="cls-1" d="M9622.37,252.74c-10,55.88-5.66,94.93.78,121.08,2.66,10.77,9.51,34.94.62,40.92-6.71,4.52-19.29-3.4-22.1-5.17-4.81-3-19.44-13.37-28.55-46-8.93-32-5.85-61.35-1.23-81.85"/><path class="cls-2" d="M9567.76,117.73c-13.26,40-20.67,58.89-36.6,71.05-17.17,13.1-37.56,11.82-73.31,10s-42-10-69.29-6.48c-15,1.9-36,4.58-52.47,21.27-19.37,19.7-19.72,46.17-19.85,56.73-.12,8.55-.48,36.45,18.43,58.15,16.84,19.3,39.53,22.45,75.17,28.36,27,4.47,45.88,3.46,83.67,1.42,68-3.67,85.33-13.92,92.18-18.44a106.34,106.34,0,0,0,32.62-34c5.84-10.08,13.69-27.91,11.34-95-1.91-54.66-8.65-86.69,3.69-92.23a8.68,8.68,0,0,1,1.85-.66c6.44-1.31,12.48,2.44,13.85,3.28,8.34,5.12,36.75,9.31,49.74-1.18,15.17-12.24,8-43.45,3.2-56.7-2.14-5.89-6.91-18.46-19.42-29.12-2.87-2.44-22.36-18.51-48.65-14.84-3.1.43-18,2.77-32.62,15.59C9580.81,52.85,9582.8,72.39,9567.76,117.73Z"/><path class="cls-1" d="M9343.18,207.86c-3,2.25-7.48,5.65-12.76,9.93-11.19,9.07-18.15,15.93-22.69,19.85a384,384,0,0,1-76.58,51.06c-49.16,23.31-89.41,21.68-89.1,30.42.15,4.15,8.86,7,17.89,9.69,11.06,3.33,34.51,8.87,76.88,2.43a328.22,328.22,0,0,0,61-15.6c12.89-4.47,23.47-8.92,31.08-12.33"/><path class="cls-1" d="M9518.68,278.75c10.27,18.78,28.54,46,58.14,66.65,20.38,14.25,34.62,17.37,41.13,18.44a88.57,88.57,0,0,0,35.47-1.52c2.78-2.21,7.13-5.69,7.77-10.52,1.72-12.84-24-22.15-46.45-40.41-11.75-9.54-27.23-25.18-40.69-51.07"/><path class="cls-1" d="M9424.57,312c-11.49,29.72-12.93,53.49-12,69.94,1.28,23.33,7.24,41.52-1.45,47.54s-25.34-4.94-26.35-5.62c-9.49-6.4-17.74-17.43-23.11-41.19-8.59-37.95-2.1-74.14,5.17-98.95"/><path d="M9660.85,72c-.12,3.78,3.55,6.36,6.39,6.84.37.06,4.51.68,6.26-2.39,1.44-2.5.2-5.53,0-5.93-1.2-2.45-4.34-5.27-7.9-4.44A6.53,6.53,0,0,0,9660.85,72Z"/><path class="cls-3" d="M9698.43,109.3a27.25,27.25,0,0,1-17-2.84"/><path class="cls-1" d="M8831.75,322.58c-3.41,25.15-.48,44.08,2.84,56.72,5,18.95,12.55,30.46,7.09,36.88s-20.09,4-29.78-1.42c-12.61-7-17.36-19.58-24.11-38.29a212.62,212.62,0,0,1-11.35-49.64"/><path class="cls-1" d="M8969.88,227.37c13.59,55.11,33.4,89,49.91,110.31,6.81,8.77,22.89,28.07,17.19,37.15-4.29,6.85-19,4.73-22.28,4.25-5.63-.81-23.2-4.31-44.79-30.44-21.16-25.6-30.27-53.68-34.38-74.29"/><path class="cls-2" d="M8915.93,117.58c-13.26,40-20.66,58.88-36.6,71-17.17,13.1-37.56,11.82-73.31,10s-42-9.94-69.29-6.48c-15,1.91-36,4.59-52.47,21.28-19.37,19.69-19.72,46.17-19.85,56.72-.11,8.55-.48,36.46,18.43,58.15,16.84,19.31,39.53,22.45,75.17,28.36,27,4.48,45.88,3.46,83.67,1.42,68-3.67,85.33-13.91,92.18-18.44a106.11,106.11,0,0,0,32.62-34c5.85-10.08,13.69-27.91,11.34-95-1.91-54.66-8.65-86.69,3.69-92.23a8.68,8.68,0,0,1,1.85-.66c6.44-1.31,12.48,2.45,13.85,3.29,8.34,5.11,36.75,9.3,49.75-1.19,15.16-12.24,8-43.44,3.19-56.7-2.14-5.88-6.9-18.45-19.42-29.11-2.87-2.45-22.36-18.52-48.65-14.85-3.1.43-18,2.77-32.62,15.6C8929,52.69,8931,72.23,8915.93,117.58Z"/><path class="cls-1" d="M8691.35,207.7c-3,2.25-7.48,5.65-12.76,9.93-3.23,2.62-6.08,5-8.61,7.2-7.77,6.71-13.38,12-14.08,12.66-18.82,17.59-51.79,21.55-51.79,21.55-50.79,6-107.58-3.05-110.14,5.67-2.12,7.22,33.89,23.44,44,28,37.21,16.77,66.24,19.33,76.58,19.85a157,157,0,0,0,32.62-1.42,146.31,146.31,0,0,0,23.63-5.74c2.56-.86,4.7-1.65,6.26-2.25"/><path class="cls-1" d="M8860.38,280.74c-.36,64.74,8.81,113.1,21.74,129,12,14.72,24.57,16,24.57,16,3.53.37,9.06,1,12.92-2.09,10.13-8-1.44-33.18-4.59-62.65-1.65-15.35-1.64-37.8,7-66.26"/><path class="cls-1" d="M8768.07,312.62c-12.14,29.46-14.09,53.2-13.54,69.66.79,23.36,6.35,41.67-2.47,47.51s-25.22-5.49-26.22-6.2c-7.57-5.34-16.54-15.3-22.22-41.67-3.53-16.41-7.39-46.64,3-86.31"/><path d="M9009,71.82c-.13,3.77,3.54,6.36,6.39,6.83.36.06,4.5.69,6.26-2.39,1.43-2.5.19-5.52,0-5.92-1.21-2.45-4.35-5.28-7.91-4.45A6.51,6.51,0,0,0,9009,71.82Z"/><path class="cls-3" d="M9046.6,109.14a27.07,27.07,0,0,1-8.5,0,27.39,27.39,0,0,1-8.51-2.83"/><path class="cls-1" d="M266.47,324.9c3.41,25.15.48,44.08-2.84,56.73-5,18.95-12.55,30.46-7.09,36.87s20.09,4,29.78-1.42c12.61-7,17.36-19.58,24.11-38.29a211.88,211.88,0,0,0,11.35-49.63"/><path class="cls-1" d="M128.91,256.83c-3,56.68-16.13,93.71-28.37,117.71-5,9.88-17.22,31.85-9.92,39.71,5.5,5.92,19.55,1.08,22.69,0,5.37-1.85,22-8.59,38.29-38.29,16-29.12,19.68-58.4,19.85-79.42"/><path class="cls-2" d="M182.29,119.9c13.26,40,20.67,58.89,36.6,71,17.17,13.11,37.56,11.83,73.31,10s42-9.94,69.29-6.47c15,1.9,36.05,4.58,52.47,21.27,19.37,19.7,19.72,46.17,19.85,56.73.11,8.55.48,36.45-18.43,58.15-16.84,19.3-39.53,22.45-75.17,28.36-27,4.47-45.88,3.45-83.67,1.42-68.05-3.67-85.33-13.92-92.18-18.44a106.22,106.22,0,0,1-32.62-34c-5.84-10.07-13.69-27.9-11.34-95,1.91-54.66,8.65-86.69-3.69-92.23a8.68,8.68,0,0,0-1.85-.66c-6.44-1.31-12.48,2.44-13.85,3.28-8.35,5.13-37.09,9.46-50.1-1.16-17.84-14.54-3.48-55-2.84-56.72,2.21-6,7-18.52,19.42-29.12,2.87-2.44,22.36-18.51,48.65-14.85,3.1.44,18,2.78,32.62,15.6C169.24,55,167.25,74.56,182.29,119.9Z"/><path class="cls-1" d="M406.87,210c3,2.25,7.48,5.64,12.76,9.93,11.19,9.06,18.14,15.93,22.69,19.85a384,384,0,0,0,76.58,51.06c49.16,23.31,89.41,21.68,89.1,30.42-.15,4.15-8.86,7-17.89,9.68-11.06,3.34-34.51,8.87-76.88,2.44a328.22,328.22,0,0,1-61-15.6c-12.89-4.47-23.48-8.92-31.08-12.34"/><path class="cls-1" d="M245.2,288c-3.7,63.33-15.88,110.06-29.78,124.8C202.54,426.48,189.89,427,189.89,427c-3.55.15-9.11.38-12.77-2.84-9.6-8.46,3.52-32.36,8.51-61,2.61-14.91,4-36.86-2.83-65.23"/><path class="cls-1" d="M336,307.88c5,31.47,1.48,55-2.84,70.91-6.13,22.55-15.75,39.1-8.51,46.8s25.81.46,26.95,0c10.61-4.27,21-13.33,31.2-35.45,16.32-35.32,17.52-72.07,15.6-97.85"/><path d="M89.2,74.14c.12,3.78-3.55,6.36-6.4,6.84-.36.06-4.5.68-6.26-2.39-1.43-2.51-.19-5.53,0-5.93,1.21-2.45,4.35-5.27,7.91-4.44A6.53,6.53,0,0,1,89.2,74.14Z"/><path class="cls-3" d="M51.62,111.47a27.43,27.43,0,0,0,8.51,0,27.12,27.12,0,0,0,8.5-2.84"/><path class="cls-1" d="M1568.25,322.58c3.41,25.15.48,44.08-2.84,56.72-5,18.95-12.55,30.46-7.09,36.88s20.09,4,29.78-1.42c12.61-7,17.36-19.58,24.11-38.29a212.62,212.62,0,0,0,11.35-49.64"/><path class="cls-1" d="M1430.12,227.37c-13.59,55.11-33.4,89-49.91,110.31-6.81,8.77-22.89,28.07-17.19,37.15,4.29,6.85,19,4.73,22.28,4.25,5.63-.81,23.2-4.31,44.79-30.44,21.16-25.6,30.27-53.68,34.38-74.29"/><path class="cls-2" d="M1484.07,117.58c13.26,40,20.66,58.88,36.6,71,17.17,13.1,37.56,11.82,73.31,10s42-9.94,69.29-6.48c15,1.91,36,4.59,52.47,21.28,19.37,19.69,19.72,46.17,19.85,56.72.11,8.55.48,36.46-18.43,58.15-16.84,19.31-39.53,22.45-75.17,28.36-27,4.48-45.88,3.46-83.67,1.42-68-3.67-85.33-13.91-92.18-18.44a106.11,106.11,0,0,1-32.62-34c-5.85-10.08-13.69-27.91-11.34-95,1.91-54.66,8.65-86.69-3.69-92.23a8.68,8.68,0,0,0-1.85-.66c-6.44-1.31-12.48,2.45-13.85,3.29-8.34,5.11-36.75,9.3-49.75-1.19-15.16-12.24-8-43.44-3.19-56.7,2.14-5.88,6.9-18.45,19.42-29.11,2.87-2.45,22.36-18.52,48.65-14.85,3.1.43,18,2.77,32.62,15.6C1471,52.69,1469,72.23,1484.07,117.58Z"/><path class="cls-1" d="M1708.65,207.7c3,2.25,7.48,5.65,12.76,9.93,3.23,2.62,6.08,5,8.61,7.2,7.77,6.71,13.38,12,14.08,12.66,18.82,17.59,51.79,21.55,51.79,21.55,50.79,6,107.58-3.05,110.14,5.67,2.12,7.22-33.89,23.44-44,28-37.21,16.77-66.24,19.33-76.58,19.85a157,157,0,0,1-32.62-1.42,146.31,146.31,0,0,1-23.63-5.74c-2.56-.86-4.7-1.65-6.26-2.25"/><path class="cls-1" d="M1539.62,280.74c.36,64.74-8.81,113.1-21.74,129-12,14.72-24.57,16-24.57,16-3.53.37-9.06,1-12.92-2.09-10.13-8,1.44-33.18,4.59-62.65,1.65-15.35,1.64-37.8-7-66.26"/><path class="cls-1" d="M1631.93,312.62c12.14,29.46,14.09,53.2,13.54,69.66-.79,23.36-6.35,41.67,2.47,47.51s25.22-5.49,26.22-6.2c7.57-5.34,16.54-15.3,22.22-41.67,3.53-16.41,7.39-46.64-3-86.31"/><path d="M1391,71.82c.13,3.77-3.54,6.36-6.39,6.83-.36.06-4.5.69-6.26-2.39-1.43-2.5-.19-5.52,0-5.92,1.21-2.45,4.35-5.28,7.91-4.45A6.51,6.51,0,0,1,1391,71.82Z"/><path class="cls-3" d="M1353.4,109.14a27.07,27.07,0,0,0,8.5,0,27.39,27.39,0,0,0,8.51-2.83"/><path class="cls-1" d="M899.4,322.73c3.42,25.15.48,44.08-2.83,56.73-5,19-12.55,30.46-7.1,36.87s20.09,4,29.79-1.42c12.61-7,17.35-19.58,24.11-38.29A212,212,0,0,0,954.71,327"/><path class="cls-1" d="M777.63,252.74c10,55.88,5.66,94.93-.78,121.08-2.66,10.77-9.51,34.94-.62,40.92,6.71,4.52,19.29-3.4,22.1-5.17,4.81-3,19.44-13.37,28.55-46,8.93-32,5.85-61.35,1.23-81.85"/><path class="cls-2" d="M832.24,117.73c13.26,40,20.67,58.89,36.6,71.05,17.17,13.1,37.56,11.82,73.31,10s42-10,69.29-6.48c15,1.9,36,4.58,52.47,21.27,19.37,19.7,19.72,46.17,19.85,56.73.12,8.55.48,36.45-18.43,58.15-16.84,19.3-39.53,22.45-75.17,28.36-27,4.47-45.88,3.46-83.67,1.42-68-3.67-85.33-13.92-92.18-18.44a106.34,106.34,0,0,1-32.62-34c-5.84-10.08-13.69-27.91-11.34-95C772.26,156,779,124,766.66,118.47a8.68,8.68,0,0,0-1.85-.66c-6.44-1.31-12.48,2.44-13.85,3.28-8.34,5.12-36.75,9.31-49.74-1.18-15.17-12.24-8-43.45-3.2-56.7,2.14-5.89,6.91-18.46,19.42-29.12,2.87-2.44,22.36-18.51,48.65-14.84,3.1.43,18,2.77,32.62,15.59C819.19,52.85,817.2,72.39,832.24,117.73Z"/><path class="cls-1" d="M1056.82,207.86c3,2.25,7.48,5.65,12.76,9.93,11.19,9.07,18.15,15.93,22.69,19.85a384,384,0,0,0,76.58,51.06c49.16,23.31,89.41,21.68,89.1,30.42-.15,4.15-8.86,7-17.89,9.69-11.06,3.33-34.51,8.87-76.88,2.43a328.22,328.22,0,0,1-61-15.6c-12.89-4.47-23.47-8.92-31.08-12.33"/><path class="cls-1" d="M881.32,278.75c-10.27,18.78-28.54,46-58.14,66.65-20.38,14.25-34.62,17.37-41.13,18.44a88.57,88.57,0,0,1-35.47-1.52c-2.78-2.21-7.13-5.69-7.77-10.52-1.72-12.84,24-22.15,46.45-40.41,11.75-9.54,27.23-25.18,40.69-51.07"/><path class="cls-1" d="M975.43,312c11.49,29.72,12.93,53.49,12,69.94-1.28,23.33-7.24,41.52,1.45,47.54s25.34-4.94,26.35-5.62c9.49-6.4,17.74-17.43,23.11-41.19,8.59-37.95,2.1-74.14-5.17-98.95"/><path d="M739.15,72c.12,3.78-3.55,6.36-6.39,6.84-.37.06-4.51.68-6.26-2.39-1.44-2.5-.2-5.53,0-5.93,1.2-2.45,4.34-5.27,7.9-4.44A6.53,6.53,0,0,1,739.15,72Z"/><path class="cls-3" d="M701.57,109.3a27.25,27.25,0,0,0,17-2.84"/><path class="cls-1" d="M2868.25,322.58c3.41,25.15.48,44.08-2.84,56.72-5,18.95-12.55,30.46-7.09,36.88s20.09,4,29.78-1.42c12.61-7,17.36-19.58,24.11-38.29a212.62,212.62,0,0,0,11.35-49.64"/><path class="cls-1" d="M2730.12,227.37c-13.59,55.11-33.4,89-49.91,110.31-6.81,8.77-22.89,28.07-17.19,37.15,4.29,6.85,19,4.73,22.28,4.25,5.63-.81,23.2-4.31,44.79-30.44,21.16-25.6,30.27-53.68,34.38-74.29"/><path class="cls-2" d="M2784.07,117.58c13.26,40,20.66,58.88,36.6,71,17.17,13.1,37.56,11.82,73.31,10s42-9.94,69.29-6.48c15,1.91,36.05,4.59,52.47,21.28,19.37,19.69,19.72,46.17,19.85,56.72.11,8.55.48,36.46-18.43,58.15-16.84,19.31-39.53,22.45-75.17,28.36-27,4.48-45.88,3.46-83.67,1.42-68.05-3.67-85.33-13.91-92.18-18.44a106.11,106.11,0,0,1-32.62-34c-5.85-10.08-13.69-27.91-11.34-95,1.91-54.66,8.65-86.69-3.69-92.23a8.68,8.68,0,0,0-1.85-.66c-6.44-1.31-12.48,2.45-13.85,3.29-8.34,5.11-36.75,9.3-49.75-1.19-15.16-12.24-8-43.44-3.19-56.7,2.14-5.88,6.9-18.45,19.42-29.11,2.87-2.45,22.36-18.52,48.65-14.85,3.1.43,18,2.77,32.62,15.6C2771,52.69,2769,72.23,2784.07,117.58Z"/><path class="cls-1" d="M3008.65,207.7c3,2.25,7.48,5.65,12.76,9.93,3.23,2.62,6.08,5,8.61,7.2,7.77,6.71,13.38,12,14.08,12.66,18.82,17.59,51.79,21.55,51.79,21.55,50.79,6,107.58-3.05,110.14,5.67,2.12,7.22-33.89,23.44-44,28-37.21,16.77-66.24,19.33-76.58,19.85a157,157,0,0,1-32.62-1.42,146.31,146.31,0,0,1-23.63-5.74c-2.56-.86-4.7-1.65-6.26-2.25"/><path class="cls-1" d="M2839.62,280.74c.36,64.74-8.81,113.1-21.74,129-12,14.72-24.57,16-24.57,16-3.53.37-9.06,1-12.92-2.09-10.13-8,1.44-33.18,4.59-62.65,1.65-15.35,1.64-37.8-7-66.26"/><path class="cls-1" d="M2931.93,312.62c12.14,29.46,14.09,53.2,13.54,69.66-.79,23.36-6.35,41.67,2.47,47.51s25.22-5.49,26.22-6.2c7.57-5.34,16.54-15.3,22.22-41.67,3.53-16.41,7.39-46.64-3-86.31"/><path d="M2691,71.82c.13,3.77-3.54,6.36-6.39,6.83-.36.06-4.5.69-6.26-2.39-1.43-2.5-.19-5.52,0-5.92,1.21-2.45,4.35-5.28,7.91-4.45A6.51,6.51,0,0,1,2691,71.82Z"/><path class="cls-3" d="M2653.4,109.14a27.07,27.07,0,0,0,8.5,0,27.39,27.39,0,0,0,8.51-2.83"/><path class="cls-1" d="M4168.25,322.58c3.41,25.15.48,44.08-2.84,56.72-5,18.95-12.55,30.46-7.09,36.88s20.09,4,29.78-1.42c12.61-7,17.36-19.58,24.11-38.29a212.62,212.62,0,0,0,11.35-49.64"/><path class="cls-1" d="M4030.12,227.37c-13.59,55.11-33.4,89-49.91,110.31-6.81,8.77-22.89,28.07-17.19,37.15,4.29,6.85,19,4.73,22.28,4.25,5.63-.81,23.2-4.31,44.79-30.44,21.16-25.6,30.27-53.68,34.38-74.29"/><path class="cls-2" d="M4084.07,117.58c13.26,40,20.66,58.88,36.6,71,17.17,13.1,37.56,11.82,73.31,10s42-9.94,69.29-6.48c15,1.91,36,4.59,52.47,21.28,19.37,19.69,19.72,46.17,19.85,56.72.11,8.55.48,36.46-18.43,58.15-16.84,19.31-39.53,22.45-75.17,28.36-27,4.48-45.88,3.46-83.67,1.42-68-3.67-85.33-13.91-92.18-18.44a106.11,106.11,0,0,1-32.62-34c-5.85-10.08-13.69-27.91-11.34-95,1.91-54.66,8.65-86.69-3.69-92.23a8.68,8.68,0,0,0-1.85-.66c-6.44-1.31-12.48,2.45-13.85,3.29-8.34,5.11-36.75,9.3-49.75-1.19-15.16-12.24-8-43.44-3.19-56.7,2.14-5.88,6.9-18.45,19.42-29.11,2.87-2.45,22.36-18.52,48.65-14.85,3.1.43,18,2.77,32.62,15.6C4071,52.69,4069,72.23,4084.07,117.58Z"/><path class="cls-1" d="M4308.65,207.7c3,2.25,7.48,5.65,12.76,9.93,3.23,2.62,6.08,5,8.61,7.2,7.77,6.71,13.38,12,14.08,12.66,18.82,17.59,51.79,21.55,51.79,21.55,50.79,6,107.58-3.05,110.14,5.67,2.12,7.22-33.89,23.44-44,28-37.21,16.77-66.24,19.33-76.58,19.85a157,157,0,0,1-32.62-1.42,146.31,146.31,0,0,1-23.63-5.74c-2.56-.86-4.7-1.65-6.26-2.25"/><path class="cls-1" d="M4139.62,280.74c.36,64.74-8.81,113.1-21.74,129-12,14.72-24.57,16-24.57,16-3.53.37-9.06,1-12.92-2.09-10.13-8,1.44-33.18,4.59-62.65,1.65-15.35,1.64-37.8-7-66.26"/><path class="cls-1" d="M4231.93,312.62c12.14,29.46,14.09,53.2,13.54,69.66-.79,23.36-6.35,41.67,2.47,47.51s25.22-5.49,26.22-6.2c7.57-5.34,16.54-15.3,22.22-41.67,3.53-16.41,7.39-46.64-3-86.31"/><path d="M3991,71.82c.13,3.77-3.54,6.36-6.39,6.83-.36.06-4.5.69-6.26-2.39-1.43-2.5-.19-5.52,0-5.92,1.21-2.45,4.35-5.28,7.91-4.45A6.51,6.51,0,0,1,3991,71.82Z"/><path class="cls-3" d="M3953.4,109.14a27.07,27.07,0,0,0,8.5,0,27.39,27.39,0,0,0,8.51-2.83"/><path class="cls-1" d="M5468.25,322.58c3.41,25.15.48,44.08-2.84,56.72-5,18.95-12.55,30.46-7.09,36.88s20.09,4,29.78-1.42c12.61-7,17.36-19.58,24.11-38.29a212.62,212.62,0,0,0,11.35-49.64"/><path class="cls-1" d="M5330.12,227.37c-13.59,55.11-33.4,89-49.91,110.31-6.81,8.77-22.89,28.07-17.19,37.15,4.29,6.85,19,4.73,22.28,4.25,5.63-.81,23.2-4.31,44.79-30.44,21.16-25.6,30.27-53.68,34.38-74.29"/><path class="cls-2" d="M5384.07,117.58c13.26,40,20.66,58.88,36.6,71,17.17,13.1,37.56,11.82,73.31,10s42-9.94,69.29-6.48c15,1.91,36,4.59,52.47,21.28,19.37,19.69,19.72,46.17,19.85,56.72.11,8.55.48,36.46-18.43,58.15-16.84,19.31-39.53,22.45-75.17,28.36-27,4.48-45.88,3.46-83.67,1.42-68-3.67-85.33-13.91-92.18-18.44a106.11,106.11,0,0,1-32.62-34c-5.85-10.08-13.69-27.91-11.34-95,1.91-54.66,8.65-86.69-3.69-92.23a8.68,8.68,0,0,0-1.85-.66c-6.44-1.31-12.48,2.45-13.85,3.29-8.34,5.11-36.75,9.3-49.75-1.19-15.16-12.24-8-43.44-3.19-56.7,2.14-5.88,6.9-18.45,19.42-29.11,2.87-2.45,22.36-18.52,48.65-14.85,3.1.43,18,2.77,32.62,15.6C5371,52.69,5369,72.23,5384.07,117.58Z"/><path class="cls-1" d="M5608.65,207.7c3,2.25,7.48,5.65,12.76,9.93,3.23,2.62,6.08,5,8.61,7.2,7.77,6.71,13.38,12,14.08,12.66,18.82,17.59,51.79,21.55,51.79,21.55,50.79,6,107.58-3.05,110.14,5.67,2.12,7.22-33.89,23.44-44,28-37.21,16.77-66.24,19.33-76.58,19.85a157,157,0,0,1-32.62-1.42,146.31,146.31,0,0,1-23.63-5.74c-2.56-.86-4.7-1.65-6.26-2.25"/><path class="cls-1" d="M5439.62,280.74c.36,64.74-8.81,113.1-21.74,129-12,14.72-24.57,16-24.57,16-3.53.37-9.06,1-12.92-2.09-10.13-8,1.44-33.18,4.59-62.65,1.65-15.35,1.64-37.8-7-66.26"/><path class="cls-1" d="M5531.93,312.62c12.14,29.46,14.09,53.2,13.54,69.66-.79,23.36-6.35,41.67,2.47,47.51s25.22-5.49,26.22-6.2c7.57-5.34,16.54-15.3,22.22-41.67,3.53-16.41,7.39-46.64-3-86.31"/><path d="M5291,71.82c.13,3.77-3.54,6.36-6.39,6.83-.36.06-4.5.69-6.26-2.39-1.43-2.5-.19-5.52,0-5.92,1.21-2.45,4.35-5.28,7.91-4.45A6.51,6.51,0,0,1,5291,71.82Z"/><path class="cls-3" d="M5253.4,109.14a27.07,27.07,0,0,0,8.5,0,27.39,27.39,0,0,0,8.51-2.83"/><path class="cls-1" d="M6768.25,322.58c3.41,25.15.48,44.08-2.84,56.72-5,18.95-12.55,30.46-7.09,36.88s20.09,4,29.78-1.42c12.61-7,17.36-19.58,24.11-38.29a212.62,212.62,0,0,0,11.35-49.64"/><path class="cls-1" d="M6630.12,227.37c-13.59,55.11-33.4,89-49.91,110.31-6.81,8.77-22.89,28.07-17.19,37.15,4.29,6.85,19,4.73,22.28,4.25,5.63-.81,23.2-4.31,44.79-30.44,21.16-25.6,30.27-53.68,34.38-74.29"/><path class="cls-2" d="M6684.07,117.58c13.26,40,20.66,58.88,36.6,71,17.17,13.1,37.56,11.82,73.31,10s42-9.94,69.29-6.48c15,1.91,36,4.59,52.47,21.28,19.37,19.69,19.72,46.17,19.85,56.72.11,8.55.48,36.46-18.43,58.15-16.84,19.31-39.53,22.45-75.17,28.36-27,4.48-45.88,3.46-83.67,1.42-68-3.67-85.33-13.91-92.18-18.44a106.11,106.11,0,0,1-32.62-34c-5.85-10.08-13.69-27.91-11.34-95,1.91-54.66,8.65-86.69-3.69-92.23a8.68,8.68,0,0,0-1.85-.66c-6.44-1.31-12.48,2.45-13.85,3.29-8.34,5.11-36.75,9.3-49.75-1.19-15.16-12.24-8-43.44-3.19-56.7,2.14-5.88,6.9-18.45,19.42-29.11,2.87-2.45,22.36-18.52,48.65-14.85,3.1.43,18,2.77,32.62,15.6C6671,52.69,6669,72.23,6684.07,117.58Z"/><path class="cls-1" d="M6908.65,207.7c3,2.25,7.48,5.65,12.76,9.93,3.23,2.62,6.08,5,8.61,7.2,7.77,6.71,13.38,12,14.08,12.66,18.82,17.59,51.79,21.55,51.79,21.55,50.79,6,107.58-3.05,110.14,5.67,2.12,7.22-33.89,23.44-44,28-37.21,16.77-66.24,19.33-76.58,19.85a157,157,0,0,1-32.62-1.42,146.31,146.31,0,0,1-23.63-5.74c-2.56-.86-4.7-1.65-6.26-2.25"/><path class="cls-1" d="M6739.62,280.74c.36,64.74-8.81,113.1-21.74,129-12,14.72-24.57,16-24.57,16-3.53.37-9.06,1-12.92-2.09-10.13-8,1.44-33.18,4.59-62.65,1.65-15.35,1.64-37.8-7-66.26"/><path class="cls-1" d="M6831.93,312.62c12.14,29.46,14.09,53.2,13.54,69.66-.79,23.36-6.35,41.67,2.47,47.51s25.22-5.49,26.22-6.2c7.57-5.34,16.54-15.3,22.22-41.67,3.53-16.41,7.39-46.64-3-86.31"/><path d="M6591,71.82c.13,3.77-3.54,6.36-6.39,6.83-.36.06-4.5.69-6.26-2.39-1.43-2.5-.19-5.52,0-5.92,1.21-2.45,4.35-5.28,7.91-4.45A6.51,6.51,0,0,1,6591,71.82Z"/><path class="cls-3" d="M6553.4,109.14a27.07,27.07,0,0,0,8.5,0,27.39,27.39,0,0,0,8.51-2.83"/><path class="cls-1" d="M10800.6,322.73c-3.42,25.15-.48,44.08,2.83,56.73,5,19,12.55,30.46,7.1,36.87s-20.09,4-29.79-1.42c-12.61-7-17.35-19.58-24.11-38.29a212,212,0,0,1-11.34-49.63"/><path class="cls-1" d="M10922.37,252.74c-10,55.88-5.66,94.93.78,121.08,2.66,10.77,9.51,34.94.62,40.92-6.71,4.52-19.29-3.4-22.1-5.17-4.81-3-19.44-13.37-28.55-46-8.93-32-5.85-61.35-1.23-81.85"/><path class="cls-2" d="M10867.76,117.73c-13.26,40-20.67,58.89-36.6,71.05-17.17,13.1-37.56,11.82-73.31,10s-42-10-69.29-6.48c-15,1.9-36,4.58-52.47,21.27-19.37,19.7-19.72,46.17-19.85,56.73-.12,8.55-.48,36.45,18.43,58.15,16.84,19.3,39.53,22.45,75.17,28.36,27,4.47,45.88,3.46,83.67,1.42,68-3.67,85.33-13.92,92.18-18.44a106.34,106.34,0,0,0,32.62-34c5.84-10.08,13.69-27.91,11.34-95-1.91-54.66-8.65-86.69,3.69-92.23a8.68,8.68,0,0,1,1.85-.66c6.44-1.31,12.48,2.44,13.85,3.28,8.34,5.12,36.75,9.31,49.74-1.18,15.17-12.24,8-43.45,3.2-56.7-2.14-5.89-6.91-18.46-19.42-29.12-2.87-2.44-22.36-18.51-48.65-14.84-3.1.43-18,2.77-32.62,15.59C10880.81,52.85,10882.8,72.39,10867.76,117.73Z"/><path class="cls-1" d="M10643.18,207.86c-3,2.25-7.48,5.65-12.76,9.93-11.19,9.07-18.15,15.93-22.69,19.85a384,384,0,0,1-76.58,51.06c-49.16,23.31-89.41,21.68-89.1,30.42.15,4.15,8.86,7,17.89,9.69,11.06,3.33,34.51,8.87,76.88,2.43a328.22,328.22,0,0,0,61-15.6c12.89-4.47,23.47-8.92,31.08-12.33"/><path class="cls-1" d="M10818.68,278.75c10.27,18.78,28.54,46,58.14,66.65,20.38,14.25,34.62,17.37,41.13,18.44a88.57,88.57,0,0,0,35.47-1.52c2.78-2.21,7.13-5.69,7.77-10.52,1.72-12.84-24-22.15-46.45-40.41-11.75-9.54-27.23-25.18-40.69-51.07"/><path class="cls-1" d="M10724.57,312c-11.49,29.72-12.93,53.49-12,69.94,1.28,23.33,7.24,41.52-1.45,47.54s-25.34-4.94-26.35-5.62c-9.49-6.4-17.74-17.43-23.11-41.19-8.59-37.95-2.1-74.14,5.17-98.95"/><path d="M10960.85,72c-.12,3.78,3.55,6.36,6.39,6.84.37.06,4.51.68,6.26-2.39,1.44-2.5.2-5.53,0-5.93-1.2-2.45-4.34-5.27-7.9-4.44A6.53,6.53,0,0,0,10960.85,72Z"/><path class="cls-3" d="M10998.43,109.3a27.25,27.25,0,0,1-17-2.84"/><path class="cls-1" d="M10131.75,322.58c-3.41,25.15-.48,44.08,2.84,56.72,5,18.95,12.55,30.46,7.09,36.88s-20.09,4-29.78-1.42c-12.61-7-17.36-19.58-24.11-38.29a212.62,212.62,0,0,1-11.35-49.64"/><path class="cls-1" d="M10269.88,227.37c13.59,55.11,33.4,89,49.91,110.31,6.81,8.77,22.89,28.07,17.19,37.15-4.29,6.85-19,4.73-22.28,4.25-5.63-.81-23.2-4.31-44.79-30.44-21.16-25.6-30.27-53.68-34.38-74.29"/><path class="cls-2" d="M10215.93,117.58c-13.26,40-20.66,58.88-36.6,71-17.17,13.1-37.56,11.82-73.31,10s-42-9.94-69.29-6.48c-15,1.91-36,4.59-52.47,21.28-19.37,19.69-19.72,46.17-19.85,56.72-.11,8.55-.48,36.46,18.43,58.15,16.84,19.31,39.53,22.45,75.17,28.36,27,4.48,45.88,3.46,83.67,1.42,68-3.67,85.33-13.91,92.18-18.44a106.11,106.11,0,0,0,32.62-34c5.85-10.08,13.69-27.91,11.34-95-1.91-54.66-8.65-86.69,3.69-92.23a8.68,8.68,0,0,1,1.85-.66c6.44-1.31,12.48,2.45,13.85,3.29,8.34,5.11,36.75,9.3,49.75-1.19,15.16-12.24,8-43.44,3.19-56.7-2.14-5.88-6.9-18.45-19.42-29.11-2.87-2.45-22.36-18.52-48.65-14.85-3.1.43-18,2.77-32.62,15.6C10229,52.69,10231,72.23,10215.93,117.58Z"/><path class="cls-1" d="M9991.35,207.7c-3,2.25-7.48,5.65-12.76,9.93-3.23,2.62-6.08,5-8.61,7.2-7.77,6.71-13.38,12-14.08,12.66-18.82,17.59-51.79,21.55-51.79,21.55-50.79,6-107.58-3.05-110.14,5.67-2.12,7.22,33.89,23.44,44,28,37.21,16.77,66.24,19.33,76.58,19.85a157,157,0,0,0,32.62-1.42,146.31,146.31,0,0,0,23.63-5.74c2.56-.86,4.7-1.65,6.26-2.25"/><path class="cls-1" d="M10160.38,280.74c-.36,64.74,8.81,113.1,21.74,129,12,14.72,24.57,16,24.57,16,3.53.37,9.06,1,12.92-2.09,10.13-8-1.44-33.18-4.59-62.65-1.65-15.35-1.64-37.8,7-66.26"/><path class="cls-1" d="M10068.07,312.62c-12.14,29.46-14.09,53.2-13.54,69.66.79,23.36,6.35,41.67-2.47,47.51s-25.22-5.49-26.22-6.2c-7.57-5.34-16.54-15.3-22.22-41.67-3.53-16.41-7.39-46.64,3-86.31"/><path d="M10309,71.82c-.13,3.77,3.54,6.36,6.39,6.83.36.06,4.5.69,6.26-2.39,1.43-2.5.19-5.52,0-5.92-1.21-2.45-4.35-5.28-7.91-4.45A6.51,6.51,0,0,0,10309,71.82Z"/><path class="cls-3" d="M10346.6,109.14a27.07,27.07,0,0,1-8.5,0,27.39,27.39,0,0,1-8.51-2.83"/><path class="cls-1" d="M12100.6,322.73c-3.42,25.15-.48,44.08,2.83,56.73,5,19,12.55,30.46,7.1,36.87s-20.09,4-29.79-1.42c-12.61-7-17.35-19.58-24.11-38.29a212,212,0,0,1-11.34-49.63"/><path class="cls-1" d="M12222.37,252.74c-10,55.88-5.66,94.93.78,121.08,2.66,10.77,9.51,34.94.62,40.92-6.71,4.52-19.29-3.4-22.1-5.17-4.81-3-19.44-13.37-28.55-46-8.93-32-5.85-61.35-1.23-81.85"/><path class="cls-2" d="M12167.76,117.73c-13.26,40-20.67,58.89-36.6,71.05-17.17,13.1-37.56,11.82-73.31,10s-42-10-69.29-6.48c-15,1.9-36,4.58-52.47,21.27-19.37,19.7-19.72,46.17-19.85,56.73-.12,8.55-.48,36.45,18.43,58.15,16.84,19.3,39.53,22.45,75.17,28.36,27,4.47,45.88,3.46,83.67,1.42,68-3.67,85.33-13.92,92.18-18.44a106.34,106.34,0,0,0,32.62-34c5.84-10.08,13.69-27.91,11.34-95-1.91-54.66-8.65-86.69,3.69-92.23a8.68,8.68,0,0,1,1.85-.66c6.44-1.31,12.48,2.44,13.85,3.28,8.34,5.12,36.75,9.31,49.74-1.18,15.17-12.24,8-43.45,3.2-56.7-2.14-5.89-6.91-18.46-19.42-29.12-2.87-2.44-22.36-18.51-48.65-14.84-3.1.43-18,2.77-32.62,15.59C12180.81,52.85,12182.8,72.39,12167.76,117.73Z"/><path class="cls-1" d="M11943.18,207.86c-3,2.25-7.48,5.65-12.76,9.93-11.19,9.07-18.15,15.93-22.69,19.85a384,384,0,0,1-76.58,51.06c-49.16,23.31-89.41,21.68-89.1,30.42.15,4.15,8.86,7,17.89,9.69,11.06,3.33,34.51,8.87,76.88,2.43a328.22,328.22,0,0,0,61-15.6c12.89-4.47,23.47-8.92,31.08-12.33"/><path class="cls-1" d="M12118.68,278.75c10.27,18.78,28.54,46,58.14,66.65,20.38,14.25,34.62,17.37,41.13,18.44a88.57,88.57,0,0,0,35.47-1.52c2.78-2.21,7.13-5.69,7.77-10.52,1.72-12.84-24-22.15-46.45-40.41-11.75-9.54-27.23-25.18-40.69-51.07"/><path class="cls-1" d="M12024.57,312c-11.49,29.72-12.93,53.49-12,69.94,1.28,23.33,7.24,41.52-1.45,47.54s-25.34-4.94-26.35-5.62c-9.49-6.4-17.74-17.43-23.11-41.19-8.59-37.95-2.1-74.14,5.17-98.95"/><path d="M12260.85,72c-.12,3.78,3.55,6.36,6.39,6.84.37.06,4.51.68,6.26-2.39,1.44-2.5.2-5.53,0-5.93-1.2-2.45-4.34-5.27-7.9-4.44A6.53,6.53,0,0,0,12260.85,72Z"/><path class="cls-3" d="M12298.43,109.3a27.25,27.25,0,0,1-17-2.84"/><path class="cls-1" d="M11431.75,322.58c-3.41,25.15-.48,44.08,2.84,56.72,5,18.95,12.55,30.46,7.09,36.88s-20.09,4-29.78-1.42c-12.61-7-17.36-19.58-24.11-38.29a212.62,212.62,0,0,1-11.35-49.64"/><path class="cls-1" d="M11569.88,227.37c13.59,55.11,33.4,89,49.91,110.31,6.81,8.77,22.89,28.07,17.19,37.15-4.29,6.85-19,4.73-22.28,4.25-5.63-.81-23.2-4.31-44.79-30.44-21.16-25.6-30.27-53.68-34.38-74.29"/><path class="cls-2" d="M11515.93,117.58c-13.26,40-20.66,58.88-36.6,71-17.17,13.1-37.56,11.82-73.31,10s-42-9.94-69.29-6.48c-15,1.91-36,4.59-52.47,21.28-19.37,19.69-19.72,46.17-19.85,56.72-.11,8.55-.48,36.46,18.43,58.15,16.84,19.31,39.53,22.45,75.17,28.36,27,4.48,45.88,3.46,83.67,1.42,68-3.67,85.33-13.91,92.18-18.44a106.11,106.11,0,0,0,32.62-34c5.85-10.08,13.69-27.91,11.34-95-1.91-54.66-8.65-86.69,3.69-92.23a8.68,8.68,0,0,1,1.85-.66c6.44-1.31,12.48,2.45,13.85,3.29,8.34,5.11,36.75,9.3,49.75-1.19,15.16-12.24,8-43.44,3.19-56.7-2.14-5.88-6.9-18.45-19.42-29.11-2.87-2.45-22.36-18.52-48.65-14.85-3.1.43-18,2.77-32.62,15.6C11529,52.69,11531,72.23,11515.93,117.58Z"/><path class="cls-1" d="M11291.35,207.7c-3,2.25-7.48,5.65-12.76,9.93-3.23,2.62-6.08,5-8.61,7.2-7.77,6.71-13.38,12-14.08,12.66-18.82,17.59-51.79,21.55-51.79,21.55-50.79,6-107.58-3.05-110.14,5.67-2.12,7.22,33.89,23.44,44,28,37.21,16.77,66.24,19.33,76.58,19.85a157,157,0,0,0,32.62-1.42,146.31,146.31,0,0,0,23.63-5.74c2.56-.86,4.7-1.65,6.26-2.25"/><path class="cls-1" d="M11460.38,280.74c-.36,64.74,8.81,113.1,21.74,129,12,14.72,24.57,16,24.57,16,3.53.37,9.06,1,12.92-2.09,10.13-8-1.44-33.18-4.59-62.65-1.65-15.35-1.64-37.8,7-66.26"/><path class="cls-1" d="M11368.07,312.62c-12.14,29.46-14.09,53.2-13.54,69.66.79,23.36,6.35,41.67-2.47,47.51s-25.22-5.49-26.22-6.2c-7.57-5.34-16.54-15.3-22.22-41.67-3.53-16.41-7.39-46.64,3-86.31"/><path d="M11609,71.82c-.13,3.77,3.54,6.36,6.39,6.83.36.06,4.5.69,6.26-2.39,1.43-2.5.19-5.52,0-5.92-1.21-2.45-4.35-5.28-7.91-4.45A6.51,6.51,0,0,0,11609,71.82Z"/><path class="cls-3" d="M11646.6,109.14a27.07,27.07,0,0,1-8.5,0,27.39,27.39,0,0,1-8.51-2.83"/><path class="cls-1" d="M13400.6,322.73c-3.42,25.15-.48,44.08,2.83,56.73,5,19,12.55,30.46,7.1,36.87s-20.09,4-29.79-1.42c-12.61-7-17.35-19.58-24.11-38.29a212,212,0,0,1-11.34-49.63"/><path class="cls-1" d="M13522.37,252.74c-10,55.88-5.66,94.93.78,121.08,2.66,10.77,9.51,34.94.62,40.92-6.71,4.52-19.29-3.4-22.1-5.17-4.81-3-19.44-13.37-28.55-46-8.93-32-5.85-61.35-1.23-81.85"/><path class="cls-2" d="M13467.76,117.73c-13.26,40-20.67,58.89-36.6,71.05-17.17,13.1-37.56,11.82-73.31,10s-42-10-69.29-6.48c-15,1.9-36,4.58-52.47,21.27-19.37,19.7-19.72,46.17-19.85,56.73-.12,8.55-.48,36.45,18.43,58.15,16.84,19.3,39.53,22.45,75.17,28.36,27,4.47,45.88,3.46,83.67,1.42,68-3.67,85.33-13.92,92.18-18.44a106.34,106.34,0,0,0,32.62-34c5.84-10.08,13.69-27.91,11.34-95-1.91-54.66-8.65-86.69,3.69-92.23a8.68,8.68,0,0,1,1.85-.66c6.44-1.31,12.48,2.44,13.85,3.28,8.34,5.12,36.75,9.31,49.74-1.18,15.17-12.24,8-43.45,3.2-56.7-2.14-5.89-6.91-18.46-19.42-29.12-2.87-2.44-22.36-18.51-48.65-14.84-3.1.43-18,2.77-32.62,15.59C13480.81,52.85,13482.8,72.39,13467.76,117.73Z"/><path class="cls-1" d="M13243.18,207.86c-3,2.25-7.48,5.65-12.76,9.93-11.19,9.07-18.15,15.93-22.69,19.85a384,384,0,0,1-76.58,51.06c-49.16,23.31-89.41,21.68-89.1,30.42.15,4.15,8.86,7,17.89,9.69,11.06,3.33,34.51,8.87,76.88,2.43a328.22,328.22,0,0,0,61-15.6c12.89-4.47,23.47-8.92,31.08-12.33"/><path class="cls-1" d="M13418.68,278.75c10.27,18.78,28.54,46,58.14,66.65,20.38,14.25,34.62,17.37,41.13,18.44a88.57,88.57,0,0,0,35.47-1.52c2.78-2.21,7.13-5.69,7.77-10.52,1.72-12.84-24-22.15-46.45-40.41-11.75-9.54-27.23-25.18-40.69-51.07"/><path class="cls-1" d="M13324.57,312c-11.49,29.72-12.93,53.49-12,69.94,1.28,23.33,7.24,41.52-1.45,47.54s-25.34-4.94-26.35-5.62c-9.49-6.4-17.74-17.43-23.11-41.19-8.59-37.95-2.1-74.14,5.17-98.95"/><path d="M13560.85,72c-.12,3.78,3.55,6.36,6.39,6.84.37.06,4.51.68,6.26-2.39,1.44-2.5.2-5.53,0-5.93-1.2-2.45-4.34-5.27-7.9-4.44A6.53,6.53,0,0,0,13560.85,72Z"/><path class="cls-3" d="M13598.43,109.3a27.25,27.25,0,0,1-17-2.84"/><path class="cls-1" d="M12731.75,322.58c-3.41,25.15-.48,44.08,2.84,56.72,5,18.95,12.55,30.46,7.09,36.88s-20.09,4-29.78-1.42c-12.61-7-17.36-19.58-24.11-38.29a212.62,212.62,0,0,1-11.35-49.64"/><path class="cls-1" d="M12869.88,227.37c13.59,55.11,33.4,89,49.91,110.31,6.81,8.77,22.89,28.07,17.19,37.15-4.29,6.85-19,4.73-22.28,4.25-5.63-.81-23.2-4.31-44.79-30.44-21.16-25.6-30.27-53.68-34.38-74.29"/><path class="cls-2" d="M12815.93,117.58c-13.26,40-20.66,58.88-36.6,71-17.17,13.1-37.56,11.82-73.31,10s-42-9.94-69.29-6.48c-15,1.91-36,4.59-52.47,21.28-19.37,19.69-19.72,46.17-19.85,56.72-.11,8.55-.48,36.46,18.43,58.15,16.84,19.31,39.53,22.45,75.17,28.36,27,4.48,45.88,3.46,83.67,1.42,68-3.67,85.33-13.91,92.18-18.44a106.11,106.11,0,0,0,32.62-34c5.85-10.08,13.69-27.91,11.34-95-1.91-54.66-8.65-86.69,3.69-92.23a8.68,8.68,0,0,1,1.85-.66c6.44-1.31,12.48,2.45,13.85,3.29,8.34,5.11,36.75,9.3,49.75-1.19,15.16-12.24,8-43.44,3.19-56.7-2.14-5.88-6.9-18.45-19.42-29.11-2.87-2.45-22.36-18.52-48.65-14.85-3.1.43-18,2.77-32.62,15.6C12829,52.69,12831,72.23,12815.93,117.58Z"/><path class="cls-1" d="M12591.35,207.7c-3,2.25-7.48,5.65-12.76,9.93-3.23,2.62-6.08,5-8.61,7.2-7.77,6.71-13.38,12-14.08,12.66-18.82,17.59-51.79,21.55-51.79,21.55-50.79,6-107.58-3.05-110.14,5.67-2.12,7.22,33.89,23.44,44,28,37.21,16.77,66.24,19.33,76.58,19.85a157,157,0,0,0,32.62-1.42,146.31,146.31,0,0,0,23.63-5.74c2.56-.86,4.7-1.65,6.26-2.25"/><path class="cls-1" d="M12760.38,280.74c-.36,64.74,8.81,113.1,21.74,129,12,14.72,24.57,16,24.57,16,3.53.37,9.06,1,12.92-2.09,10.13-8-1.44-33.18-4.59-62.65-1.65-15.35-1.64-37.8,7-66.26"/><path class="cls-1" d="M12668.07,312.62c-12.14,29.46-14.09,53.2-13.54,69.66.79,23.36,6.35,41.67-2.47,47.51s-25.22-5.49-26.22-6.2c-7.57-5.34-16.54-15.3-22.22-41.67-3.53-16.41-7.39-46.64,3-86.31"/><path d="M12909,71.82c-.13,3.77,3.54,6.36,6.39,6.83.36.06,4.5.69,6.26-2.39,1.43-2.5.19-5.52,0-5.92-1.21-2.45-4.35-5.28-7.91-4.45A6.51,6.51,0,0,0,12909,71.82Z"/><path class="cls-3" d="M12946.6,109.14a27.07,27.07,0,0,1-8.5,0,27.39,27.39,0,0,1-8.51-2.83"/><path class="cls-1" d="M14700.6,322.73c-3.42,25.15-.48,44.08,2.83,56.73,5,19,12.55,30.46,7.1,36.87s-20.09,4-29.79-1.42c-12.61-7-17.35-19.58-24.11-38.29a212,212,0,0,1-11.34-49.63"/><path class="cls-1" d="M14822.37,252.74c-10,55.88-5.66,94.93.78,121.08,2.66,10.77,9.51,34.94.62,40.92-6.71,4.52-19.29-3.4-22.1-5.17-4.81-3-19.44-13.37-28.55-46-8.93-32-5.85-61.35-1.23-81.85"/><path class="cls-2" d="M14767.76,117.73c-13.26,40-20.67,58.89-36.6,71.05-17.17,13.1-37.56,11.82-73.31,10s-42-10-69.29-6.48c-15,1.9-36,4.58-52.47,21.27-19.37,19.7-19.72,46.17-19.85,56.73-.12,8.55-.48,36.45,18.43,58.15,16.84,19.3,39.53,22.45,75.17,28.36,27,4.47,45.88,3.46,83.67,1.42,68-3.67,85.33-13.92,92.18-18.44a106.34,106.34,0,0,0,32.62-34c5.84-10.08,13.69-27.91,11.34-95-1.91-54.66-8.65-86.69,3.69-92.23a8.68,8.68,0,0,1,1.85-.66c6.44-1.31,12.48,2.44,13.85,3.28,8.34,5.12,36.75,9.31,49.74-1.18,15.17-12.24,8-43.45,3.2-56.7-2.14-5.89-6.91-18.46-19.42-29.12-2.87-2.44-22.36-18.51-48.65-14.84-3.1.43-18,2.77-32.62,15.59C14780.81,52.85,14782.8,72.39,14767.76,117.73Z"/><path class="cls-1" d="M14543.18,207.86c-3,2.25-7.48,5.65-12.76,9.93-11.19,9.07-18.15,15.93-22.69,19.85a384,384,0,0,1-76.58,51.06c-49.16,23.31-89.41,21.68-89.1,30.42.15,4.15,8.86,7,17.89,9.69,11.06,3.33,34.51,8.87,76.88,2.43a328.22,328.22,0,0,0,61-15.6c12.89-4.47,23.47-8.92,31.08-12.33"/><path class="cls-1" d="M14718.68,278.75c10.27,18.78,28.54,46,58.14,66.65,20.38,14.25,34.62,17.37,41.13,18.44a88.57,88.57,0,0,0,35.47-1.52c2.78-2.21,7.13-5.69,7.77-10.52,1.72-12.84-24-22.15-46.45-40.41-11.75-9.54-27.23-25.18-40.69-51.07"/><path class="cls-1" d="M14624.57,312c-11.49,29.72-12.93,53.49-12,69.94,1.28,23.33,7.24,41.52-1.45,47.54s-25.34-4.94-26.35-5.62c-9.49-6.4-17.74-17.43-23.11-41.19-8.59-37.95-2.1-74.14,5.17-98.95"/><path d="M14860.85,72c-.12,3.78,3.55,6.36,6.39,6.84.37.06,4.51.68,6.26-2.39,1.44-2.5.2-5.53,0-5.93-1.2-2.45-4.34-5.27-7.9-4.44A6.53,6.53,0,0,0,14860.85,72Z"/><path class="cls-3" d="M14898.43,109.3a27.25,27.25,0,0,1-17-2.84"/><path class="cls-1" d="M14031.75,322.58c-3.41,25.15-.48,44.08,2.84,56.72,5,18.95,12.55,30.46,7.09,36.88s-20.09,4-29.78-1.42c-12.61-7-17.36-19.58-24.11-38.29a212.62,212.62,0,0,1-11.35-49.64"/><path class="cls-1" d="M14169.88,227.37c13.59,55.11,33.4,89,49.91,110.31,6.81,8.77,22.89,28.07,17.19,37.15-4.29,6.85-19,4.73-22.28,4.25-5.63-.81-23.2-4.31-44.79-30.44-21.16-25.6-30.27-53.68-34.38-74.29"/><path class="cls-2" d="M14115.93,117.58c-13.26,40-20.66,58.88-36.6,71-17.17,13.1-37.56,11.82-73.31,10s-42-9.94-69.29-6.48c-15,1.91-36,4.59-52.47,21.28-19.37,19.69-19.72,46.17-19.85,56.72-.11,8.55-.48,36.46,18.43,58.15,16.84,19.31,39.53,22.45,75.17,28.36,27,4.48,45.88,3.46,83.67,1.42,68-3.67,85.33-13.91,92.18-18.44a106.11,106.11,0,0,0,32.62-34c5.85-10.08,13.69-27.91,11.34-95-1.91-54.66-8.65-86.69,3.69-92.23a8.68,8.68,0,0,1,1.85-.66c6.44-1.31,12.48,2.45,13.85,3.29,8.34,5.11,36.75,9.3,49.75-1.19,15.16-12.24,8-43.44,3.19-56.7-2.14-5.88-6.9-18.45-19.42-29.11-2.87-2.45-22.36-18.52-48.65-14.85-3.1.43-18,2.77-32.62,15.6C14129,52.69,14131,72.23,14115.93,117.58Z"/><path class="cls-1" d="M13891.35,207.7c-3,2.25-7.48,5.65-12.76,9.93-3.23,2.62-6.08,5-8.61,7.2-7.77,6.71-13.38,12-14.08,12.66-18.82,17.59-51.79,21.55-51.79,21.55-50.79,6-107.58-3.05-110.14,5.67-2.12,7.22,33.89,23.44,44,28,37.21,16.77,66.24,19.33,76.58,19.85a157,157,0,0,0,32.62-1.42,146.31,146.31,0,0,0,23.63-5.74c2.56-.86,4.7-1.65,6.26-2.25"/><path class="cls-1" d="M14060.38,280.74c-.36,64.74,8.81,113.1,21.74,129,12,14.72,24.57,16,24.57,16,3.53.37,9.06,1,12.92-2.09,10.13-8-1.44-33.18-4.59-62.65-1.65-15.35-1.64-37.8,7-66.26"/><path class="cls-1" d="M13968.07,312.62c-12.14,29.46-14.09,53.2-13.54,69.66.79,23.36,6.35,41.67-2.47,47.51s-25.22-5.49-26.22-6.2c-7.57-5.34-16.54-15.3-22.22-41.67-3.53-16.41-7.39-46.64,3-86.31"/><path d="M14209,71.82c-.13,3.77,3.54,6.36,6.39,6.83.36.06,4.5.69,6.26-2.39,1.43-2.5.19-5.52,0-5.92-1.21-2.45-4.35-5.28-7.91-4.45A6.51,6.51,0,0,0,14209,71.82Z"/><path class="cls-3" d="M14246.6,109.14a27.07,27.07,0,0,1-8.5,0,27.39,27.39,0,0,1-8.51-2.83"/><path class="cls-1" d="M15331.75,322.58c-3.41,25.15-.48,44.08,2.84,56.72,5,18.95,12.55,30.46,7.09,36.88s-20.09,4-29.78-1.42c-12.61-7-17.36-19.58-24.11-38.29a212.62,212.62,0,0,1-11.35-49.64"/><path class="cls-1" d="M15469.88,227.37c13.59,55.11,33.4,89,49.91,110.31,6.81,8.77,22.89,28.07,17.19,37.15-4.29,6.85-19,4.73-22.28,4.25-5.63-.81-23.2-4.31-44.79-30.44-21.16-25.6-30.27-53.68-34.38-74.29"/><path class="cls-2" d="M15415.93,117.58c-13.26,40-20.66,58.88-36.6,71-17.17,13.1-37.56,11.82-73.31,10s-42-9.94-69.29-6.48c-15,1.91-36,4.59-52.47,21.28-19.37,19.69-19.72,46.17-19.85,56.72-.11,8.55-.48,36.46,18.43,58.15,16.84,19.31,39.53,22.45,75.17,28.36,27,4.48,45.88,3.46,83.67,1.42,68-3.67,85.33-13.91,92.18-18.44a106.11,106.11,0,0,0,32.62-34c5.85-10.08,13.69-27.91,11.34-95-1.91-54.66-8.65-86.69,3.69-92.23a8.68,8.68,0,0,1,1.85-.66c6.44-1.31,12.48,2.45,13.85,3.29,8.34,5.11,36.75,9.3,49.75-1.19,15.16-12.24,8-43.44,3.19-56.7-2.14-5.88-6.9-18.45-19.42-29.11-2.87-2.45-22.36-18.52-48.65-14.85-3.1.43-18,2.77-32.62,15.6C15429,52.69,15431,72.23,15415.93,117.58Z"/><path class="cls-1" d="M15191.35,207.7c-3,2.25-7.48,5.65-12.76,9.93-3.23,2.62-6.08,5-8.61,7.2-7.77,6.71-13.38,12-14.08,12.66-18.82,17.59-51.79,21.55-51.79,21.55-50.79,6-107.58-3.05-110.14,5.67-2.12,7.22,33.89,23.44,44,28,37.21,16.77,66.24,19.33,76.58,19.85a157,157,0,0,0,32.62-1.42,146.31,146.31,0,0,0,23.63-5.74c2.56-.86,4.7-1.65,6.26-2.25"/><path class="cls-1" d="M15360.38,280.74c-.36,64.74,8.81,113.1,21.74,129,12,14.72,24.57,16,24.57,16,3.53.37,9.06,1,12.92-2.09,10.13-8-1.44-33.18-4.59-62.65-1.65-15.35-1.64-37.8,7-66.26"/><path class="cls-1" d="M15268.07,312.62c-12.14,29.46-14.09,53.2-13.54,69.66.79,23.36,6.35,41.67-2.47,47.51s-25.22-5.49-26.22-6.2c-7.57-5.34-16.54-15.3-22.22-41.67-3.53-16.41-7.39-46.64,3-86.31"/><path d="M15509,71.82c-.13,3.77,3.54,6.36,6.39,6.83.36.06,4.5.69,6.26-2.39,1.43-2.5.19-5.52,0-5.92-1.21-2.45-4.35-5.28-7.91-4.45A6.51,6.51,0,0,0,15509,71.82Z"/><path class="cls-3" d="M15546.6,109.14a27.07,27.07,0,0,1-8.5,0,27.39,27.39,0,0,1-8.51-2.83"/><path class="cls-1" d="M2199.4,322.73c3.42,25.15.48,44.08-2.83,56.73-5,19-12.55,30.46-7.1,36.87s20.09,4,29.79-1.42c12.61-7,17.35-19.58,24.11-38.29A212,212,0,0,0,2254.71,327"/><path class="cls-1" d="M2077.63,252.74c10,55.88,5.66,94.93-.78,121.08-2.66,10.77-9.51,34.94-.62,40.92,6.71,4.52,19.29-3.4,22.1-5.17,4.81-3,19.44-13.37,28.55-46,8.93-32,5.85-61.35,1.23-81.85"/><path class="cls-2" d="M2132.24,117.73c13.26,40,20.67,58.89,36.6,71.05,17.17,13.1,37.56,11.82,73.31,10s42-10,69.29-6.48c15,1.9,36,4.58,52.47,21.27,19.37,19.7,19.72,46.17,19.85,56.73.12,8.55.48,36.45-18.43,58.15-16.84,19.3-39.53,22.45-75.17,28.36-27,4.47-45.88,3.46-83.67,1.42-68-3.67-85.33-13.92-92.18-18.44a106.34,106.34,0,0,1-32.62-34c-5.84-10.08-13.69-27.91-11.34-95,1.91-54.66,8.65-86.69-3.69-92.23a8.68,8.68,0,0,0-1.85-.66c-6.44-1.31-12.48,2.44-13.85,3.28-8.34,5.12-36.75,9.31-49.74-1.18-15.17-12.24-8-43.45-3.2-56.7,2.14-5.89,6.91-18.46,19.42-29.12,2.87-2.44,22.36-18.51,48.65-14.84,3.1.43,18,2.77,32.62,15.59C2119.19,52.85,2117.2,72.39,2132.24,117.73Z"/><path class="cls-1" d="M2356.82,207.86c3,2.25,7.48,5.65,12.76,9.93,11.19,9.07,18.15,15.93,22.69,19.85a384,384,0,0,0,76.58,51.06c49.16,23.31,89.41,21.68,89.1,30.42-.15,4.15-8.86,7-17.89,9.69-11.06,3.33-34.51,8.87-76.88,2.43a328.22,328.22,0,0,1-61-15.6c-12.89-4.47-23.47-8.92-31.08-12.33"/><path class="cls-1" d="M2181.32,278.75c-10.27,18.78-28.54,46-58.14,66.65-20.38,14.25-34.62,17.37-41.13,18.44a88.57,88.57,0,0,1-35.47-1.52c-2.78-2.21-7.13-5.69-7.77-10.52-1.72-12.84,24-22.15,46.45-40.41,11.75-9.54,27.23-25.18,40.69-51.07"/><path class="cls-1" d="M2275.43,312c11.49,29.72,12.93,53.49,12,69.94-1.28,23.33-7.24,41.52,1.45,47.54s25.34-4.94,26.35-5.62c9.49-6.4,17.74-17.43,23.11-41.19,8.59-37.95,2.1-74.14-5.17-98.95"/><path d="M2039.15,72c.12,3.78-3.55,6.36-6.39,6.84-.37.06-4.51.68-6.26-2.39-1.44-2.5-.2-5.53,0-5.93,1.2-2.45,4.34-5.27,7.9-4.44A6.53,6.53,0,0,1,2039.15,72Z"/><path class="cls-3" d="M2001.57,109.3a27.25,27.25,0,0,0,17-2.84"/><path class="cls-1" d="M3499.4,322.73c3.42,25.15.48,44.08-2.83,56.73-5,19-12.55,30.46-7.1,36.87s20.09,4,29.79-1.42c12.61-7,17.35-19.58,24.11-38.29A212,212,0,0,0,3554.71,327"/><path class="cls-1" d="M3377.63,252.74c10,55.88,5.66,94.93-.78,121.08-2.66,10.77-9.51,34.94-.62,40.92,6.71,4.52,19.29-3.4,22.1-5.17,4.81-3,19.44-13.37,28.55-46,8.93-32,5.85-61.35,1.23-81.85"/><path class="cls-2" d="M3432.24,117.73c13.26,40,20.67,58.89,36.6,71.05,17.17,13.1,37.56,11.82,73.31,10s42-10,69.29-6.48c15,1.9,36,4.58,52.47,21.27,19.37,19.7,19.72,46.17,19.85,56.73.12,8.55.48,36.45-18.43,58.15-16.84,19.3-39.53,22.45-75.17,28.36-27,4.47-45.88,3.46-83.67,1.42-68-3.67-85.33-13.92-92.18-18.44a106.34,106.34,0,0,1-32.62-34c-5.84-10.08-13.69-27.91-11.34-95,1.91-54.66,8.65-86.69-3.69-92.23a8.68,8.68,0,0,0-1.85-.66c-6.44-1.31-12.48,2.44-13.85,3.28-8.34,5.12-36.75,9.31-49.74-1.18-15.17-12.24-8-43.45-3.2-56.7,2.14-5.89,6.91-18.46,19.42-29.12,2.87-2.44,22.36-18.51,48.65-14.84,3.1.43,18,2.77,32.62,15.59C3419.19,52.85,3417.2,72.39,3432.24,117.73Z"/><path class="cls-1" d="M3656.82,207.86c3,2.25,7.48,5.65,12.76,9.93,11.19,9.07,18.15,15.93,22.69,19.85a384,384,0,0,0,76.58,51.06c49.16,23.31,89.41,21.68,89.1,30.42-.15,4.15-8.86,7-17.89,9.69-11.06,3.33-34.51,8.87-76.88,2.43a328.22,328.22,0,0,1-61-15.6c-12.89-4.47-23.47-8.92-31.08-12.33"/><path class="cls-1" d="M3481.32,278.75c-10.27,18.78-28.54,46-58.14,66.65-20.38,14.25-34.62,17.37-41.13,18.44a88.57,88.57,0,0,1-35.47-1.52c-2.78-2.21-7.13-5.69-7.77-10.52-1.72-12.84,24-22.15,46.45-40.41,11.75-9.54,27.23-25.18,40.69-51.07"/><path class="cls-1" d="M3575.43,312c11.49,29.72,12.93,53.49,12,69.94-1.28,23.33-7.24,41.52,1.45,47.54s25.34-4.94,26.35-5.62c9.49-6.4,17.74-17.43,23.11-41.19,8.59-37.95,2.1-74.14-5.17-98.95"/><path d="M3339.15,72c.12,3.78-3.55,6.36-6.39,6.84-.37.06-4.51.68-6.26-2.39-1.44-2.5-.2-5.53,0-5.93,1.2-2.45,4.34-5.27,7.9-4.44A6.53,6.53,0,0,1,3339.15,72Z"/><path class="cls-3" d="M3301.57,109.3a27.25,27.25,0,0,0,17-2.84"/><path class="cls-1" d="M4799.4,322.73c3.42,25.15.48,44.08-2.83,56.73-5,19-12.55,30.46-7.1,36.87s20.09,4,29.79-1.42c12.61-7,17.35-19.58,24.11-38.29A212,212,0,0,0,4854.71,327"/><path class="cls-1" d="M4677.63,252.74c10,55.88,5.66,94.93-.78,121.08-2.66,10.77-9.51,34.94-.62,40.92,6.71,4.52,19.29-3.4,22.1-5.17,4.81-3,19.44-13.37,28.55-46,8.93-32,5.85-61.35,1.23-81.85"/><path class="cls-2" d="M4732.24,117.73c13.26,40,20.67,58.89,36.6,71.05,17.17,13.1,37.56,11.82,73.31,10s42-10,69.29-6.48c15,1.9,36.05,4.58,52.47,21.27,19.37,19.7,19.72,46.17,19.85,56.73.12,8.55.48,36.45-18.43,58.15-16.84,19.3-39.53,22.45-75.17,28.36-27,4.47-45.88,3.46-83.67,1.42-68-3.67-85.33-13.92-92.18-18.44a106.34,106.34,0,0,1-32.62-34c-5.84-10.08-13.69-27.91-11.34-95,1.91-54.66,8.65-86.69-3.69-92.23a8.68,8.68,0,0,0-1.85-.66c-6.44-1.31-12.48,2.44-13.85,3.28-8.34,5.12-36.75,9.31-49.74-1.18-15.17-12.24-8-43.45-3.2-56.7,2.14-5.89,6.91-18.46,19.42-29.12,2.87-2.44,22.36-18.51,48.65-14.84,3.1.43,18,2.77,32.62,15.59C4719.19,52.85,4717.2,72.39,4732.24,117.73Z"/><path class="cls-1" d="M4956.82,207.86c3,2.25,7.48,5.65,12.76,9.93,11.19,9.07,18.15,15.93,22.69,19.85a384,384,0,0,0,76.58,51.06c49.16,23.31,89.41,21.68,89.1,30.42-.15,4.15-8.86,7-17.89,9.69-11.06,3.33-34.51,8.87-76.88,2.43a328.22,328.22,0,0,1-61-15.6c-12.89-4.47-23.47-8.92-31.08-12.33"/><path class="cls-1" d="M4781.32,278.75c-10.27,18.78-28.54,46-58.14,66.65-20.38,14.25-34.62,17.37-41.13,18.44a88.57,88.57,0,0,1-35.47-1.52c-2.78-2.21-7.13-5.69-7.77-10.52-1.72-12.84,23.95-22.15,46.45-40.41,11.75-9.54,27.23-25.18,40.69-51.07"/><path class="cls-1" d="M4875.43,312c11.49,29.72,12.93,53.49,12,69.94-1.28,23.33-7.24,41.52,1.45,47.54s25.34-4.94,26.35-5.62c9.49-6.4,17.74-17.43,23.11-41.19,8.59-37.95,2.1-74.14-5.17-98.95"/><path d="M4639.15,72c.12,3.78-3.55,6.36-6.39,6.84-.37.06-4.51.68-6.26-2.39-1.44-2.5-.2-5.53,0-5.93,1.2-2.45,4.34-5.27,7.9-4.44A6.53,6.53,0,0,1,4639.15,72Z"/><path class="cls-3" d="M4601.57,109.3a27.25,27.25,0,0,0,17-2.84"/><path class="cls-1" d="M6099.4,322.73c3.42,25.15.48,44.08-2.83,56.73-5,19-12.55,30.46-7.1,36.87s20.09,4,29.79-1.42c12.61-7,17.35-19.58,24.11-38.29A212,212,0,0,0,6154.71,327"/><path class="cls-1" d="M5977.63,252.74c10,55.88,5.66,94.93-.78,121.08-2.66,10.77-9.51,34.94-.62,40.92,6.71,4.52,19.29-3.4,22.1-5.17,4.81-3,19.44-13.37,28.55-46,8.93-32,5.85-61.35,1.23-81.85"/><path class="cls-2" d="M6032.24,117.73c13.26,40,20.67,58.89,36.6,71.05,17.17,13.1,37.56,11.82,73.31,10s42-10,69.29-6.48c15,1.9,36.05,4.58,52.47,21.27,19.37,19.7,19.72,46.17,19.85,56.73.12,8.55.48,36.45-18.43,58.15-16.84,19.3-39.53,22.45-75.17,28.36-27,4.47-45.88,3.46-83.67,1.42-68-3.67-85.33-13.92-92.18-18.44a106.34,106.34,0,0,1-32.62-34c-5.84-10.08-13.69-27.91-11.34-95,1.91-54.66,8.65-86.69-3.69-92.23a8.68,8.68,0,0,0-1.85-.66c-6.44-1.31-12.48,2.44-13.85,3.28-8.34,5.12-36.75,9.31-49.74-1.18-15.17-12.24-8-43.45-3.2-56.7,2.14-5.89,6.91-18.46,19.42-29.12,2.87-2.44,22.36-18.51,48.65-14.84,3.1.43,18,2.77,32.62,15.59C6019.19,52.85,6017.2,72.39,6032.24,117.73Z"/><path class="cls-1" d="M6256.82,207.86c3,2.25,7.48,5.65,12.76,9.93,11.19,9.07,18.15,15.93,22.69,19.85a384,384,0,0,0,76.58,51.06c49.16,23.31,89.41,21.68,89.1,30.42-.15,4.15-8.86,7-17.89,9.69-11.06,3.33-34.51,8.87-76.88,2.43a328.22,328.22,0,0,1-61-15.6c-12.89-4.47-23.47-8.92-31.08-12.33"/><path class="cls-1" d="M6081.32,278.75c-10.27,18.78-28.54,46-58.14,66.65-20.38,14.25-34.62,17.37-41.13,18.44a88.57,88.57,0,0,1-35.47-1.52c-2.78-2.21-7.13-5.69-7.77-10.52-1.72-12.84,23.95-22.15,46.45-40.41,11.75-9.54,27.23-25.18,40.69-51.07"/><path class="cls-1" d="M6175.43,312c11.49,29.72,12.93,53.49,12,69.94-1.28,23.33-7.24,41.52,1.45,47.54s25.34-4.94,26.35-5.62c9.49-6.4,17.74-17.43,23.11-41.19,8.59-37.95,2.1-74.14-5.17-98.95"/><path d="M5939.15,72c.12,3.78-3.55,6.36-6.39,6.84-.37.06-4.51.68-6.26-2.39-1.44-2.5-.2-5.53,0-5.93,1.2-2.45,4.34-5.27,7.9-4.44A6.53,6.53,0,0,1,5939.15,72Z"/><path class="cls-3" d="M5901.57,109.3a27.25,27.25,0,0,0,17-2.84"/><path class="cls-1" d="M7399.4,322.73c3.42,25.15.48,44.08-2.83,56.73-5,19-12.55,30.46-7.1,36.87s20.09,4,29.79-1.42c12.61-7,17.35-19.58,24.11-38.29A212,212,0,0,0,7454.71,327"/><path class="cls-1" d="M7277.63,252.74c10,55.88,5.66,94.93-.78,121.08-2.66,10.77-9.51,34.94-.62,40.92,6.71,4.52,19.29-3.4,22.1-5.17,4.81-3,19.44-13.37,28.55-46,8.93-32,5.85-61.35,1.23-81.85"/><path class="cls-2" d="M7332.24,117.73c13.26,40,20.67,58.89,36.6,71.05,17.17,13.1,37.56,11.82,73.31,10s42-10,69.29-6.48c15,1.9,36.05,4.58,52.47,21.27,19.37,19.7,19.72,46.17,19.85,56.73.12,8.55.48,36.45-18.43,58.15-16.84,19.3-39.53,22.45-75.17,28.36-27,4.47-45.88,3.46-83.67,1.42-68-3.67-85.33-13.92-92.18-18.44a106.34,106.34,0,0,1-32.62-34c-5.84-10.08-13.69-27.91-11.34-95,1.91-54.66,8.65-86.69-3.69-92.23a8.68,8.68,0,0,0-1.85-.66c-6.44-1.31-12.48,2.44-13.85,3.28-8.34,5.12-36.75,9.31-49.74-1.18-15.17-12.24-8-43.45-3.2-56.7,2.14-5.89,6.91-18.46,19.42-29.12,2.87-2.44,22.36-18.51,48.65-14.84,3.1.43,18,2.77,32.62,15.59C7319.19,52.85,7317.2,72.39,7332.24,117.73Z"/><path class="cls-1" d="M7556.82,207.86c3,2.25,7.48,5.65,12.76,9.93,11.19,9.07,18.15,15.93,22.69,19.85a384,384,0,0,0,76.58,51.06c49.16,23.31,89.41,21.68,89.1,30.42-.15,4.15-8.86,7-17.89,9.69-11.06,3.33-34.51,8.87-76.88,2.43a328.22,328.22,0,0,1-61-15.6c-12.89-4.47-23.47-8.92-31.08-12.33"/><path class="cls-1" d="M7381.32,278.75c-10.27,18.78-28.54,46-58.14,66.65-20.38,14.25-34.62,17.37-41.13,18.44a88.57,88.57,0,0,1-35.47-1.52c-2.78-2.21-7.13-5.69-7.77-10.52-1.72-12.84,23.95-22.15,46.45-40.41,11.75-9.54,27.23-25.18,40.69-51.07"/><path class="cls-1" d="M7475.43,312c11.49,29.72,12.93,53.49,12,69.94-1.28,23.33-7.24,41.52,1.45,47.54s25.34-4.94,26.35-5.62c9.49-6.4,17.74-17.43,23.11-41.19,8.59-37.95,2.1-74.14-5.17-98.95"/><path d="M7239.15,72c.12,3.78-3.55,6.36-6.39,6.84-.37.06-4.51.68-6.26-2.39-1.44-2.5-.2-5.53,0-5.93,1.2-2.45,4.34-5.27,7.9-4.44A6.53,6.53,0,0,1,7239.15,72Z"/><path class="cls-3" d="M7201.57,109.3a27.25,27.25,0,0,0,17-2.84"/></svg>