<svg xmlns="http://www.w3.org/2000/svg" viewBox="0 0 364.28 334.43"><defs><style>.cls-1,.cls-2{fill:#9fcea5;stroke-width:4px;}.cls-1,.cls-2,.cls-3{stroke:#000;}.cls-1,.cls-3{stroke-linecap:round;stroke-linejoin:round;}.cls-2{stroke-miterlimit:10;}.cls-3{fill:none;stroke-width:3px;}</style></defs><g id="Layer_2" data-name="Layer 2"><g id="Layer_27" data-name="Layer 27"><g id="Layer_26" data-name="Layer 26"><path class="cls-1" d="M248.51,240.48c3.81,17.49,10.32,29.32,15.57,36.9,8.08,11.66,15.8,17.84,13.6,22.72s-13.48,5.54-21.58,3.3c-9.42-2.6-14.89-9.1-23-19a146.55,146.55,0,0,1-18-28"/><path class="cls-1" d="M302.37,133.32c7.91,25.68,19.5,42,28.75,52.14C346.31,202.18,365,213.29,362,221.6c-1.49,4.06-7.34,5.36-10,6-8.91,2-18.26-1.22-34.94-13.17a229,229,0,0,1-37.84-34.18"/><path class="cls-2" d="M248,88.06c3.15,37.19,3.48,39.47,1.09,44.34-6.24,12.74-20.83,19.5-50,33-14.26,6.61-19.65,8-26.55,11.32-1.82.88-5.09,2.65-8.45,4.68-12.21,7.4-27.08,16.41-32,32-4.45,14.1,1.28,27.09,3,31,7.57,17.18,22.53,24.45,28,27,13,6.09,24.18,5.62,39,5a147.42,147.42,0,0,0,57-14c9.46-4.55,24.67-12.07,39-28,5.85-6.5,15.16-16.85,20-32,6.64-20.76,1.36-39.58-7-68-9.79-33.27-21.86-53.79-14-61,1.7-1.55,2.46-.78,10-3,11.75-3.45,21.66-6.37,26-13,7-10.77-2.16-29-9.5-38A47.37,47.37,0,0,0,303.67,4.8c-2.54-.94-19.38-6.84-35.81,2A44.4,44.4,0,0,0,251.1,23.4C243.77,35.94,245.08,53.48,248,88.06Z"/><path class="cls-1" d="M135.1,206.4c-1,1.64-2,3.3-3,5-1.39,2.36-2.72,4.7-4,7a84.6,84.6,0,0,1-12,13c-17.21,14.77-47.68,19.7-47.68,19.7C30.53,257.22,3.77,248,2.08,253.64c-.84,2.78,5.1,6.84,10.13,10.16,6.79,4.49,21.52,13,51.44,17.18a208.16,208.16,0,0,0,27.09,2.35s8.65.12,17.26-.56c23.89-1.88,47.41-10.13,56.1-13.37"/><path class="cls-1" d="M251.24,205.72c28.28,34.66,54.55,56.33,68.58,59,13,2.48,20.45-2.45,20.45-2.45,2.09-1.38,5.36-3.54,6.12-6.89,2-8.81-15.38-17-30.06-31.33-7.65-7.44-17.52-19.41-25.33-38.45"/><path class="cls-1" d="M213.1,251.4a154.83,154.83,0,0,0,5.09,46.25c4.51,16.64,10.87,28.34,6,33-4.58,4.39-15.74-.64-17.09-1.25-11-4.95-17-14.93-22-26-5.7-12.54-13.37-33.55-16-63"/><path d="M302.19,31.84c-.09,2.66,2.5,4.48,4.51,4.81.25.05,3.17.49,4.41-1.68a5,5,0,0,0,0-4.18c-.85-1.73-3.07-3.72-5.57-3.13A4.59,4.59,0,0,0,302.19,31.84Z"/><path class="cls-3" d="M328.76,52.08a15,15,0,0,1-4.2.83,14.54,14.54,0,0,1-4.46-.43"/></g></g></g></svg>