<svg xmlns="http://www.w3.org/2000/svg" viewBox="0 0 364.28 334.43"><defs><style>.cls-1,.cls-2{fill:#9fcea5;stroke-width:4px;}.cls-1,.cls-2,.cls-3{stroke:#000;}.cls-1,.cls-3{stroke-linecap:round;stroke-linejoin:round;}.cls-2{stroke-miterlimit:10;}.cls-3{fill:none;stroke-width:3px;}</style></defs><g id="Layer_2" data-name="Layer 2"><g id="Layer_26" data-name="Layer 26"><path class="cls-1" d="M115.77,240.48C112,258,105.45,269.8,100.2,277.38,92.12,289,84.41,295.22,86.6,300.1s13.48,5.54,21.58,3.3c9.42-2.6,14.89-9.1,23-19a146.55,146.55,0,0,0,18-28"/><path class="cls-1" d="M61.92,133.32C54,159,42.41,175.28,33.16,185.46,18,202.18-.73,213.29,2.33,221.6c1.5,4.06,7.34,5.36,10,6,8.91,2,18.27-1.22,34.94-13.17a229,229,0,0,0,37.84-34.18"/><path class="cls-2" d="M116.27,88.06c-3.15,37.19-3.48,39.47-1.09,44.34,6.24,12.74,20.83,19.5,50,33,14.26,6.61,19.65,8,26.55,11.32,1.83.88,5.1,2.65,8.45,4.68,12.21,7.4,27.08,16.41,32,32,4.45,14.1-1.28,27.09-3,31-7.57,17.18-22.53,24.45-28,27-13,6.09-24.18,5.62-39,5a147.42,147.42,0,0,1-57-14c-9.46-4.55-24.67-12.07-39-28-5.85-6.5-15.16-16.85-20-32-6.63-20.76-1.36-39.58,7-68,9.79-33.27,21.86-53.79,14-61-1.7-1.55-2.46-.78-10-3C45.43,67,35.52,64,31.18,57.4c-7-10.77,2.16-29,9.5-38A47.37,47.37,0,0,1,60.61,4.8C63.15,3.86,80-2,96.42,6.79A44.4,44.4,0,0,1,113.18,23.4C120.51,35.94,119.2,53.48,116.27,88.06Z"/><path class="cls-1" d="M229.18,206.4c1,1.64,2,3.3,3,5,1.39,2.36,2.72,4.7,4,7a84.6,84.6,0,0,0,12,13c17.21,14.77,47.69,19.7,47.69,19.7,37.89,6.12,64.64-3.08,66.33,2.54.84,2.78-5.1,6.84-10.13,10.16-6.79,4.49-21.52,13-51.44,17.18a208.15,208.15,0,0,1-27.08,2.35s-8.66.12-17.27-.56c-23.89-1.88-47.4-10.13-56.1-13.37"/><path class="cls-1" d="M113,205.72c-28.28,34.66-54.55,56.33-68.58,59-13,2.48-20.45-2.45-20.45-2.45-2.09-1.38-5.36-3.54-6.12-6.89-2-8.81,15.38-17,30.06-31.33,7.65-7.44,17.52-19.41,25.33-38.45"/><path class="cls-1" d="M151.18,251.4a154.83,154.83,0,0,1-5.09,46.25c-4.51,16.64-10.87,28.34-6,33,4.58,4.39,15.74-.64,17.09-1.25,11-4.95,17-14.93,22-26,5.7-12.54,13.37-33.55,16-63"/><path d="M62.09,31.84c.09,2.66-2.5,4.48-4.5,4.81-.26.05-3.18.49-4.42-1.68a5,5,0,0,1,0-4.18c.85-1.73,3.07-3.72,5.58-3.13A4.58,4.58,0,0,1,62.09,31.84Z"/><path class="cls-3" d="M35.52,52.08a15,15,0,0,0,4.2.83,14.54,14.54,0,0,0,4.46-.43"/></g></g></svg>