<svg id="Layer_1" data-name="Layer 1" xmlns="http://www.w3.org/2000/svg" viewBox="0 0 10800 310"><defs><style>.cls-1,.cls-2{fill:#9fcea5;stroke-width:4px;}.cls-1,.cls-2,.cls-3{stroke:#000;}.cls-1,.cls-3{stroke-linecap:round;stroke-linejoin:round;}.cls-2{stroke-miterlimit:10;}.cls-3{fill:none;stroke-width:3px;}</style></defs><path class="cls-1" d="M183.73,225.44c2.41,17.74.34,31.09-2,40-3.51,13.37-8.85,21.48-5,26s14.16,2.8,21-1c8.89-4.94,12.23-13.8,17-27a149.86,149.86,0,0,0,8-35"/><path class="cls-1" d="M86.73,177.44c-2.13,40-11.38,66.09-20,83-3.56,7-12.15,22.47-7,28,3.88,4.18,13.78.77,16,0,3.79-1.3,15.49-6.05,27-27,11.27-20.53,13.87-41.17,14-56"/><path class="cls-2" d="M124.37,80.89c9.35,28.2,14.57,41.53,25.81,50.1,12.11,9.23,26.48,8.33,51.69,7s29.61-7,48.86-4.57c10.55,1.35,25.42,3.24,37,15,13.66,13.89,13.9,32.56,14,40,.08,6,.33,25.71-13,41-11.87,13.62-27.87,15.84-53,20-19,3.16-32.36,2.44-59,1-48-2.58-60.17-9.81-65-13a74.65,74.65,0,0,1-23-24c-4.13-7.1-9.66-19.67-8-67,1.35-38.54,6.1-61.12-2.6-65A5.51,5.51,0,0,0,76.82,81c-4.54-.93-8.8,1.72-9.76,2.31-5.89,3.62-26.15,6.67-35.33-.82-12.58-10.25-2.45-38.77-2-40A47,47,0,0,1,43.42,21.92c2-1.73,15.77-13.06,34.31-10.48a45.22,45.22,0,0,1,23,11C115.17,35.14,113.77,48.92,124.37,80.89Z"/><path class="cls-1" d="M282.73,144.44c2.12,1.59,5.27,4,9,7,7.88,6.4,12.79,11.24,16,14a270.27,270.27,0,0,0,54,36c34.66,16.45,63,15.29,62.82,21.46-.1,2.93-6.24,4.9-12.61,6.83-7.8,2.35-24.34,6.25-54.21,1.71a231,231,0,0,1-43-11c-9.09-3.15-16.55-6.29-21.92-8.69"/><path class="cls-1" d="M168.73,199.44c-2.61,44.66-11.2,77.61-21,88-9.08,9.63-18,10-18,10-2.5.11-6.42.27-9-2-6.78-6,2.48-22.82,6-43,1.83-10.51,2.82-26-2-46"/><path class="cls-1" d="M232.73,213.44c3.55,22.19,1,38.8-2,50-4.32,15.91-11.11,27.57-6,33s18.2.33,19,0c7.48-3,14.79-9.4,22-25,11.5-24.9,12.35-50.81,11-69"/><path d="M58.73,48.63c.09,2.66-2.51,4.48-4.51,4.81-.26.05-3.17.49-4.41-1.68a5,5,0,0,1,0-4.18c.84-1.73,3.06-3.72,5.57-3.13A4.59,4.59,0,0,1,58.73,48.63Z"/><path class="cls-3" d="M32.23,74.94a19.24,19.24,0,0,0,12-2"/><path class="cls-1" d="M621.69,223.92c2.41,17.73.34,31.08-2,40-3.5,13.36-8.85,21.47-5,26s14.17,2.79,21-1c8.89-4.95,12.24-13.81,17-27a149.09,149.09,0,0,0,8-35"/><path class="cls-1" d="M535.83,174.56c7,39.4,4,66.94-.56,85.38-1.87,7.59-6.7,24.64-.43,28.86,4.73,3.18,13.6-2.4,15.58-3.65,3.39-2.14,13.71-9.43,20.14-32.45,6.29-22.56,4.12-43.25.86-57.71"/><path class="cls-2" d="M574.33,79.36c9.35,28.2,14.58,41.53,25.81,50.1,12.11,9.23,26.49,8.33,51.7,7s29.6-7,48.85-4.56c10.56,1.34,25.43,3.23,37,15,13.66,13.88,13.91,32.55,14,40,.08,6,.34,25.7-13,41-11.87,13.61-27.87,15.83-53,20-19,3.15-32.35,2.43-59,1-48-2.59-60.17-9.82-65-13a75,75,0,0,1-23-24c-4.12-7.11-9.65-19.68-8-67,1.35-38.55,6.1-61.13-2.6-65a5.6,5.6,0,0,0-1.3-.46c-4.54-.93-8.8,1.72-9.77,2.31-5.88,3.61-25.91,6.56-35.07-.83-10.7-8.64-5.66-30.64-2.26-40a46.85,46.85,0,0,1,13.7-20.53c2-1.73,15.77-13.06,34.3-10.47a45,45,0,0,1,23,11C565.13,33.61,563.73,47.39,574.33,79.36Z"/><path class="cls-1" d="M732.69,142.92c2.13,1.58,5.28,4,9,7,7.89,6.39,12.8,11.23,16,14a271.12,271.12,0,0,0,54,36c34.67,16.44,63,15.28,62.83,21.45-.11,2.93-6.25,4.9-12.62,6.83-7.8,2.35-24.33,6.25-54.21,1.72a233.08,233.08,0,0,1-43-11c-9.09-3.16-16.55-6.3-21.91-8.7"/><path class="cls-1" d="M609,192.9c-7.25,13.24-20.13,32.41-41,47-14.38,10-24.41,12.24-29,13a62.37,62.37,0,0,1-25-1.07c-1.95-1.56-5-4-5.48-7.42-1.21-9.06,16.89-15.61,32.76-28.49,8.29-6.73,19.2-17.76,28.69-36"/><path class="cls-1" d="M675.3,216.35c8.11,21,9.12,37.72,8.48,49.32-.91,16.45-5.11,29.28,1,33.52s17.87-3.48,18.58-4c6.69-4.51,12.51-12.29,16.3-29,6.05-26.76,1.47-52.28-3.65-69.78"/><path d="M508.69,47.1c.09,2.66-2.5,4.48-4.5,4.82-.26,0-3.18.48-4.42-1.69a5,5,0,0,1,0-4.18c.85-1.73,3.07-3.72,5.58-3.13A4.58,4.58,0,0,1,508.69,47.1Z"/><path class="cls-3" d="M482.19,73.42a19.24,19.24,0,0,0,12-2"/><path class="cls-1" d="M1085,223.8c2.41,17.74.34,31.09-2,40-3.5,13.37-8.85,21.48-5,26s14.17,2.8,21-1c8.89-4.94,12.24-13.8,17-27a148.84,148.84,0,0,0,8-35"/><path class="cls-1" d="M987.58,156.67C978,195.53,964,219.45,952.39,234.46c-4.8,6.18-16.14,19.79-12.12,26.19,3,4.83,13.39,3.33,15.71,3,4-.58,16.36-3,31.58-21.47,14.93-18.05,21.35-37.85,24.25-52.38"/><path class="cls-2" d="M1025.62,79.25c9.35,28.2,14.58,41.53,25.81,50.1,12.11,9.23,26.49,8.33,51.7,7s29.6-7,48.85-4.57c10.56,1.35,25.43,3.24,37,15,13.66,13.89,13.91,32.56,14,40,.08,6,.34,25.71-13,41-11.87,13.62-27.87,15.84-53,20-19,3.16-32.35,2.44-59,1-48-2.58-60.17-9.81-65-13a74.78,74.78,0,0,1-23-24c-4.12-7.1-9.65-19.67-8-67,1.35-38.54,6.1-61.12-2.6-65a5.6,5.6,0,0,0-1.3-.46c-4.54-.93-8.8,1.72-9.77,2.31-5.88,3.61-25.91,6.56-35.07-.83-10.7-8.64-5.66-30.64-2.26-40a47,47,0,0,1,13.7-20.53c2-1.72,15.76-13,34.3-10.47a45.19,45.19,0,0,1,23,11C1016.42,33.5,1015,47.28,1025.62,79.25Z"/><path class="cls-1" d="M1184,142.8c2.13,1.59,5.28,4,9,7,2.28,1.85,4.29,3.54,6.07,5.08,5.48,4.73,9.44,8.46,9.93,8.92,13.27,12.41,36.52,15.2,36.52,15.2,35.81,4.26,75.86-2.15,77.67,4,1.49,5.09-23.9,16.53-31,19.74-26.23,11.83-46.71,13.64-54,14a110.91,110.91,0,0,1-23-1,102.16,102.16,0,0,1-16.65-4.05c-1.82-.6-3.32-1.16-4.43-1.58"/><path class="cls-1" d="M1064.8,194.31c.25,45.65-6.21,79.74-15.33,90.95-8.45,10.37-17.33,11.31-17.33,11.31-2.49.26-6.39.68-9.11-1.47-7.14-5.66,1-23.4,3.24-44.18,1.16-10.82,1.16-26.65-4.94-46.73"/><path class="cls-1" d="M1129.89,216.78c8.55,20.78,9.93,37.52,9.54,49.13-.55,16.46-4.48,29.38,1.75,33.49s17.78-3.87,18.49-4.37c5.33-3.76,11.66-10.78,15.66-29.38,2.49-11.57,5.21-32.89-2.09-60.86"/><path d="M960,47c.09,2.66-2.5,4.48-4.51,4.81-.25.05-3.17.49-4.41-1.68a5,5,0,0,1,0-4.18c.85-1.73,3.07-3.72,5.58-3.13A4.58,4.58,0,0,1,960,47Z"/><path class="cls-3" d="M933.48,73.3a19.24,19.24,0,0,0,12-2"/><path class="cls-1" d="M5666.27,225.44c-2.41,17.74-.34,31.09,2,40,3.51,13.37,8.85,21.48,5,26s-14.16,2.8-21-1c-8.89-4.94-12.23-13.8-17-27a149.86,149.86,0,0,1-8-35"/><path class="cls-1" d="M5763.27,177.44c2.13,40,11.38,66.09,20,83,3.56,7,12.15,22.47,7,28-3.88,4.18-13.78.77-16,0-3.79-1.3-15.49-6.05-27-27-11.27-20.53-13.87-41.17-14-56"/><path class="cls-2" d="M5725.63,80.89c-9.35,28.2-14.57,41.53-25.81,50.1-12.11,9.23-26.48,8.33-51.69,7s-29.61-7-48.86-4.57c-10.55,1.35-25.42,3.24-37,15-13.66,13.89-13.9,32.56-14,40-.08,6-.33,25.71,13,41,11.87,13.62,27.87,15.84,53,20,19,3.16,32.36,2.44,59,1,48-2.58,60.17-9.81,65-13a74.65,74.65,0,0,0,23-24c4.13-7.1,9.66-19.67,8-67-1.35-38.54-6.1-61.12,2.6-65a5.51,5.51,0,0,1,1.31-.46c4.54-.93,8.8,1.72,9.76,2.31,5.89,3.62,26.15,6.67,35.33-.82,12.58-10.25,2.45-38.77,2-40a47,47,0,0,0-13.69-20.52c-2-1.73-15.77-13.06-34.31-10.48a45.22,45.22,0,0,0-23,11C5734.83,35.14,5736.23,48.92,5725.63,80.89Z"/><path class="cls-1" d="M5567.27,144.44c-2.12,1.59-5.27,4-9,7-7.88,6.4-12.79,11.24-16,14a270.27,270.27,0,0,1-54,36c-34.66,16.45-63,15.29-62.82,21.46.1,2.93,6.24,4.9,12.61,6.83,7.8,2.35,24.34,6.25,54.21,1.71a231,231,0,0,0,43-11c9.09-3.15,16.55-6.29,21.92-8.69"/><path class="cls-1" d="M5681.27,199.44c2.61,44.66,11.2,77.61,21,88,9.08,9.63,18,10,18,10,2.5.11,6.42.27,9-2,6.78-6-2.48-22.82-6-43-1.83-10.51-2.82-26,2-46"/><path class="cls-1" d="M5617.27,213.44c-3.55,22.19-1,38.8,2,50,4.32,15.91,11.11,27.57,6,33s-18.2.33-19,0c-7.48-3-14.79-9.4-22-25-11.5-24.9-12.35-50.81-11-69"/><path d="M5791.27,48.63c-.09,2.66,2.51,4.48,4.51,4.81.26.05,3.17.49,4.41-1.68a5,5,0,0,0,0-4.18c-.84-1.73-3.06-3.72-5.57-3.13A4.59,4.59,0,0,0,5791.27,48.63Z"/><path class="cls-3" d="M5817.77,74.94a19.24,19.24,0,0,1-12-2"/><path class="cls-1" d="M6578.31,223.92c-2.41,17.73-.34,31.08,2,40,3.5,13.36,8.85,21.47,5,26s-14.17,2.79-21-1c-8.89-4.95-12.24-13.81-17-27a149.09,149.09,0,0,1-8-35"/><path class="cls-1" d="M6664.17,174.56c-7,39.4-4,66.94.56,85.38,1.87,7.59,6.7,24.64.43,28.86-4.73,3.18-13.6-2.4-15.58-3.65-3.39-2.14-13.71-9.43-20.14-32.45-6.29-22.56-4.12-43.25-.86-57.71"/><path class="cls-2" d="M6625.67,79.36c-9.35,28.2-14.58,41.53-25.81,50.1-12.11,9.23-26.49,8.33-51.7,7s-29.6-7-48.85-4.56c-10.56,1.34-25.43,3.23-37,15-13.66,13.88-13.91,32.55-14,40-.08,6-.34,25.7,13,41,11.87,13.61,27.87,15.83,53,20,19,3.15,32.35,2.43,59,1,48-2.59,60.17-9.82,65-13a75,75,0,0,0,23-24c4.12-7.11,9.65-19.68,8-67-1.35-38.55-6.1-61.13,2.6-65a5.6,5.6,0,0,1,1.3-.46c4.54-.93,8.8,1.72,9.77,2.31,5.88,3.61,25.91,6.56,35.07-.83,10.7-8.64,5.66-30.64,2.26-40a46.85,46.85,0,0,0-13.7-20.53c-2-1.73-15.77-13.06-34.3-10.47a45,45,0,0,0-23,11C6634.87,33.61,6636.27,47.39,6625.67,79.36Z"/><path class="cls-1" d="M6467.31,142.92c-2.13,1.58-5.28,4-9,7-7.89,6.39-12.8,11.23-16,14a271.12,271.12,0,0,1-54,36c-34.67,16.44-63,15.28-62.83,21.45.11,2.93,6.25,4.9,12.62,6.83,7.8,2.35,24.33,6.25,54.21,1.72a233.08,233.08,0,0,0,43-11c9.09-3.16,16.55-6.3,21.91-8.7"/><path class="cls-1" d="M6591.05,192.9c7.25,13.24,20.13,32.41,41,47,14.38,10,24.41,12.24,29,13a62.37,62.37,0,0,0,25-1.07c2-1.56,5-4,5.48-7.42,1.21-9.06-16.89-15.61-32.76-28.49-8.29-6.73-19.2-17.76-28.69-36"/><path class="cls-1" d="M6524.7,216.35c-8.11,21-9.12,37.72-8.48,49.32.91,16.45,5.11,29.28-1,33.52s-17.87-3.48-18.58-4c-6.69-4.51-12.51-12.29-16.3-29-6-26.76-1.47-52.28,3.65-69.78"/><path d="M6691.31,47.1c-.09,2.66,2.5,4.48,4.5,4.82.26,0,3.18.48,4.42-1.69a5,5,0,0,0,0-4.18c-.85-1.73-3.07-3.72-5.58-3.13A4.58,4.58,0,0,0,6691.31,47.1Z"/><path class="cls-3" d="M6717.81,73.42a19.24,19.24,0,0,1-12-2"/><path class="cls-1" d="M6115,223.8c-2.41,17.74-.34,31.09,2,40,3.5,13.37,8.85,21.48,5,26s-14.17,2.8-21-1c-8.89-4.94-12.24-13.8-17-27a148.84,148.84,0,0,1-8-35"/><path class="cls-1" d="M6212.42,156.67c9.58,38.86,23.55,62.78,35.19,77.79,4.8,6.18,16.14,19.79,12.12,26.19-3,4.83-13.39,3.33-15.71,3-4-.58-16.36-3-31.58-21.47-14.93-18.05-21.35-37.85-24.25-52.38"/><path class="cls-2" d="M6174.38,79.25c-9.35,28.2-14.58,41.53-25.81,50.1-12.11,9.23-26.49,8.33-51.7,7s-29.6-7-48.85-4.57c-10.56,1.35-25.43,3.24-37,15-13.66,13.89-13.91,32.56-14,40-.08,6-.34,25.71,13,41,11.87,13.62,27.87,15.84,53,20,19,3.16,32.35,2.44,59,1,48-2.58,60.17-9.81,65-13a74.78,74.78,0,0,0,23-24c4.12-7.1,9.65-19.67,8-67-1.35-38.54-6.1-61.12,2.6-65a5.6,5.6,0,0,1,1.3-.46c4.54-.93,8.8,1.72,9.77,2.31,5.88,3.61,25.91,6.56,35.07-.83,10.7-8.64,5.66-30.64,2.26-40a47,47,0,0,0-13.7-20.53c-2-1.72-15.76-13-34.3-10.47a45.19,45.19,0,0,0-23,11C6183.58,33.5,6185,47.28,6174.38,79.25Z"/><path class="cls-1" d="M6016,142.8c-2.13,1.59-5.28,4-9,7-2.28,1.85-4.29,3.54-6.07,5.08-5.48,4.73-9.44,8.46-9.93,8.92-13.27,12.41-36.52,15.2-36.52,15.2-35.81,4.26-75.86-2.15-77.67,4-1.49,5.09,23.9,16.53,31,19.74,26.23,11.83,46.71,13.64,54,14a110.91,110.91,0,0,0,23-1,102.16,102.16,0,0,0,16.65-4.05c1.82-.6,3.32-1.16,4.43-1.58"/><path class="cls-1" d="M6135.2,194.31c-.25,45.65,6.21,79.74,15.33,90.95,8.45,10.37,17.33,11.31,17.33,11.31,2.49.26,6.39.68,9.11-1.47,7.14-5.66-1-23.4-3.24-44.18-1.16-10.82-1.16-26.65,4.94-46.73"/><path class="cls-1" d="M6070.11,216.78c-8.55,20.78-9.93,37.52-9.54,49.13.55,16.46,4.48,29.38-1.75,33.49s-17.78-3.87-18.49-4.37c-5.33-3.76-11.66-10.78-15.66-29.38-2.49-11.57-5.21-32.89,2.09-60.86"/><path d="M6240,47c-.09,2.66,2.5,4.48,4.51,4.81.25.05,3.17.49,4.41-1.68a5,5,0,0,0,0-4.18c-.85-1.73-3.07-3.72-5.58-3.13A4.58,4.58,0,0,0,6240,47Z"/><path class="cls-3" d="M6266.52,73.3a19.24,19.24,0,0,1-12-2"/><path class="cls-1" d="M1521.69,223.92c2.41,17.73.34,31.08-2,40-3.5,13.36-8.85,21.47-5,26s14.17,2.79,21-1c8.89-4.95,12.24-13.81,17-27a149.09,149.09,0,0,0,8-35"/><path class="cls-1" d="M1435.83,174.56c7,39.4,4,66.94-.56,85.38-1.87,7.59-6.7,24.64-.43,28.86,4.73,3.18,13.6-2.4,15.58-3.65,3.39-2.14,13.71-9.43,20.14-32.45,6.29-22.56,4.12-43.25.86-57.71"/><path class="cls-2" d="M1474.33,79.36c9.35,28.2,14.58,41.53,25.81,50.1,12.11,9.23,26.49,8.33,51.7,7s29.6-7,48.85-4.56c10.56,1.34,25.43,3.23,37,15,13.66,13.88,13.91,32.55,14,40,.08,6,.34,25.7-13,41-11.87,13.61-27.87,15.83-53,20-19,3.15-32.35,2.43-59,1-48-2.59-60.17-9.82-65-13a75,75,0,0,1-23-24c-4.12-7.11-9.65-19.68-8-67,1.35-38.55,6.1-61.13-2.6-65a5.6,5.6,0,0,0-1.3-.46c-4.54-.93-8.8,1.72-9.77,2.31-5.88,3.61-25.91,6.56-35.07-.83-10.7-8.64-5.66-30.64-2.26-40a46.85,46.85,0,0,1,13.7-20.53c2-1.73,15.77-13.06,34.3-10.47a45,45,0,0,1,23,11C1465.13,33.61,1463.73,47.39,1474.33,79.36Z"/><path class="cls-1" d="M1632.69,142.92c2.13,1.58,5.28,4,9,7,7.89,6.39,12.8,11.23,16,14a271.12,271.12,0,0,0,54,36c34.67,16.44,63,15.28,62.83,21.45-.11,2.93-6.25,4.9-12.62,6.83-7.8,2.35-24.33,6.25-54.21,1.72a233.08,233.08,0,0,1-43-11c-9.09-3.16-16.55-6.3-21.91-8.7"/><path class="cls-1" d="M1509,192.9c-7.25,13.24-20.13,32.41-41,47-14.38,10-24.41,12.24-29,13a62.37,62.37,0,0,1-25-1.07c-2-1.56-5-4-5.48-7.42-1.21-9.06,16.89-15.61,32.76-28.49,8.29-6.73,19.2-17.76,28.69-36"/><path class="cls-1" d="M1575.3,216.35c8.11,21,9.12,37.72,8.48,49.32-.91,16.45-5.11,29.28,1,33.52s17.87-3.48,18.58-4c6.69-4.51,12.51-12.29,16.3-29,6-26.76,1.47-52.28-3.65-69.78"/><path d="M1408.69,47.1c.09,2.66-2.5,4.48-4.5,4.82-.26,0-3.18.48-4.42-1.69a5,5,0,0,1,0-4.18c.85-1.73,3.07-3.72,5.58-3.13A4.58,4.58,0,0,1,1408.69,47.1Z"/><path class="cls-3" d="M1382.19,73.42a19.24,19.24,0,0,0,12-2"/><path class="cls-1" d="M1985,223.8c2.41,17.74.34,31.09-2,40-3.5,13.37-8.85,21.48-5,26s14.17,2.8,21-1c8.89-4.94,12.24-13.8,17-27a148.84,148.84,0,0,0,8-35"/><path class="cls-1" d="M1887.58,156.67c-9.58,38.86-23.55,62.78-35.19,77.79-4.8,6.18-16.14,19.79-12.12,26.19,3,4.83,13.39,3.33,15.71,3,4-.58,16.36-3,31.58-21.47,14.93-18.05,21.35-37.85,24.25-52.38"/><path class="cls-2" d="M1925.62,79.25c9.35,28.2,14.58,41.53,25.81,50.1,12.11,9.23,26.49,8.33,51.7,7s29.6-7,48.85-4.57c10.56,1.35,25.43,3.24,37,15,13.66,13.89,13.91,32.56,14,40,.08,6,.34,25.71-13,41-11.87,13.62-27.87,15.84-53,20-19,3.16-32.35,2.44-59,1-48-2.58-60.17-9.81-65-13a74.78,74.78,0,0,1-23-24c-4.12-7.1-9.65-19.67-8-67,1.35-38.54,6.1-61.12-2.6-65a5.6,5.6,0,0,0-1.3-.46c-4.54-.93-8.8,1.72-9.77,2.31-5.88,3.61-25.91,6.56-35.07-.83-10.7-8.64-5.66-30.64-2.26-40a47,47,0,0,1,13.7-20.53c2-1.72,15.76-13,34.3-10.47a45.19,45.19,0,0,1,23,11C1916.42,33.5,1915,47.28,1925.62,79.25Z"/><path class="cls-1" d="M2084,142.8c2.13,1.59,5.28,4,9,7,2.28,1.85,4.29,3.54,6.07,5.08,5.48,4.73,9.44,8.46,9.93,8.92,13.27,12.41,36.52,15.2,36.52,15.2,35.81,4.26,75.86-2.15,77.67,4,1.49,5.09-23.9,16.53-31,19.74-26.23,11.83-46.71,13.64-54,14a110.91,110.91,0,0,1-23-1,102.16,102.16,0,0,1-16.65-4.05c-1.82-.6-3.32-1.16-4.43-1.58"/><path class="cls-1" d="M1964.8,194.31c.25,45.65-6.21,79.74-15.33,90.95-8.45,10.37-17.33,11.31-17.33,11.31-2.49.26-6.39.68-9.11-1.47-7.14-5.66,1-23.4,3.24-44.18,1.16-10.82,1.16-26.65-4.94-46.73"/><path class="cls-1" d="M2029.89,216.78c8.55,20.78,9.93,37.52,9.54,49.13-.55,16.46-4.48,29.38,1.75,33.49s17.78-3.87,18.49-4.37c5.33-3.76,11.66-10.78,15.66-29.38,2.49-11.57,5.21-32.89-2.09-60.86"/><path d="M1860,47c.09,2.66-2.5,4.48-4.51,4.81-.25.05-3.17.49-4.41-1.68a5,5,0,0,1,0-4.18c.85-1.73,3.07-3.72,5.58-3.13A4.58,4.58,0,0,1,1860,47Z"/><path class="cls-3" d="M1833.48,73.3a19.24,19.24,0,0,0,12-2"/><path class="cls-1" d="M2421.69,223.92c2.41,17.73.34,31.08-2,40-3.5,13.36-8.85,21.47-5,26s14.17,2.79,21-1c8.89-4.95,12.24-13.81,17-27a149.09,149.09,0,0,0,8-35"/><path class="cls-1" d="M2335.83,174.56c7,39.4,4,66.94-.56,85.38-1.87,7.59-6.7,24.64-.43,28.86,4.73,3.18,13.6-2.4,15.58-3.65,3.39-2.14,13.71-9.43,20.14-32.45,6.29-22.56,4.12-43.25.86-57.71"/><path class="cls-2" d="M2374.33,79.36c9.35,28.2,14.58,41.53,25.81,50.1,12.11,9.23,26.49,8.33,51.7,7s29.6-7,48.85-4.56c10.56,1.34,25.43,3.23,37,15,13.66,13.88,13.91,32.55,14,40,.08,6,.34,25.7-13,41-11.87,13.61-27.87,15.83-53,20-19,3.15-32.35,2.43-59,1-48-2.59-60.17-9.82-65-13a75,75,0,0,1-23-24c-4.12-7.11-9.65-19.68-8-67,1.35-38.55,6.1-61.13-2.6-65a5.6,5.6,0,0,0-1.3-.46c-4.54-.93-8.8,1.72-9.77,2.31-5.88,3.61-25.91,6.56-35.07-.83-10.7-8.64-5.66-30.64-2.26-40a46.85,46.85,0,0,1,13.7-20.53c2-1.73,15.77-13.06,34.3-10.47a45,45,0,0,1,23,11C2365.13,33.61,2363.73,47.39,2374.33,79.36Z"/><path class="cls-1" d="M2532.69,142.92c2.13,1.58,5.28,4,9,7,7.89,6.39,12.8,11.23,16,14a271.12,271.12,0,0,0,54,36c34.67,16.44,63,15.28,62.83,21.45-.11,2.93-6.25,4.9-12.62,6.83-7.8,2.35-24.33,6.25-54.21,1.72a233.08,233.08,0,0,1-43-11c-9.09-3.16-16.55-6.3-21.91-8.7"/><path class="cls-1" d="M2409,192.9c-7.25,13.24-20.13,32.41-41,47-14.38,10-24.41,12.24-29,13a62.37,62.37,0,0,1-25-1.07c-1.95-1.56-5-4-5.48-7.42-1.21-9.06,16.89-15.61,32.76-28.49,8.29-6.73,19.2-17.76,28.69-36"/><path class="cls-1" d="M2475.3,216.35c8.11,21,9.12,37.72,8.48,49.32-.91,16.45-5.11,29.28,1,33.52s17.87-3.48,18.58-4c6.69-4.51,12.51-12.29,16.3-29,6.05-26.76,1.47-52.28-3.65-69.78"/><path d="M2308.69,47.1c.09,2.66-2.5,4.48-4.5,4.82-.26,0-3.18.48-4.42-1.69a5,5,0,0,1,0-4.18c.85-1.73,3.07-3.72,5.58-3.13A4.58,4.58,0,0,1,2308.69,47.1Z"/><path class="cls-3" d="M2282.19,73.42a19.24,19.24,0,0,0,12-2"/><path class="cls-1" d="M2885,223.8c2.41,17.74.34,31.09-2,40-3.5,13.37-8.85,21.48-5,26s14.17,2.8,21-1c8.89-4.94,12.24-13.8,17-27a148.84,148.84,0,0,0,8-35"/><path class="cls-1" d="M2787.58,156.67c-9.58,38.86-23.55,62.78-35.19,77.79-4.8,6.18-16.14,19.79-12.12,26.19,3,4.83,13.39,3.33,15.71,3,4-.58,16.36-3,31.58-21.47,14.93-18.05,21.35-37.85,24.25-52.38"/><path class="cls-2" d="M2825.62,79.25c9.35,28.2,14.58,41.53,25.81,50.1,12.11,9.23,26.49,8.33,51.7,7s29.6-7,48.85-4.57c10.56,1.35,25.43,3.24,37,15,13.66,13.89,13.91,32.56,14,40,.08,6,.34,25.71-13,41-11.87,13.62-27.87,15.84-53,20-19,3.16-32.35,2.44-59,1-48-2.58-60.17-9.81-65-13a74.78,74.78,0,0,1-23-24c-4.12-7.1-9.65-19.67-8-67,1.35-38.54,6.1-61.12-2.6-65a5.6,5.6,0,0,0-1.3-.46c-4.54-.93-8.8,1.72-9.77,2.31-5.88,3.61-25.91,6.56-35.07-.83-10.7-8.64-5.66-30.64-2.26-40a47,47,0,0,1,13.7-20.53c2-1.72,15.76-13,34.3-10.47a45.19,45.19,0,0,1,23,11C2816.42,33.5,2815,47.28,2825.62,79.25Z"/><path class="cls-1" d="M2984,142.8c2.13,1.59,5.28,4,9,7,2.28,1.85,4.29,3.54,6.07,5.08,5.48,4.73,9.44,8.46,9.93,8.92,13.27,12.41,36.52,15.2,36.52,15.2,35.81,4.26,75.86-2.15,77.67,4,1.49,5.09-23.9,16.53-31,19.74-26.23,11.83-46.71,13.64-54,14a110.91,110.91,0,0,1-23-1,102.16,102.16,0,0,1-16.65-4.05c-1.82-.6-3.32-1.16-4.43-1.58"/><path class="cls-1" d="M2864.8,194.31c.25,45.65-6.21,79.74-15.33,90.95-8.45,10.37-17.33,11.31-17.33,11.31-2.49.26-6.39.68-9.11-1.47-7.14-5.66,1-23.4,3.24-44.18,1.16-10.82,1.16-26.65-4.94-46.73"/><path class="cls-1" d="M2929.89,216.78c8.55,20.78,9.93,37.52,9.54,49.13-.55,16.46-4.48,29.38,1.75,33.49s17.78-3.87,18.49-4.37c5.33-3.76,11.66-10.78,15.66-29.38,2.49-11.57,5.21-32.89-2.09-60.86"/><path d="M2760,47c.09,2.66-2.5,4.48-4.51,4.81-.25.05-3.17.49-4.41-1.68a5,5,0,0,1,0-4.18c.85-1.73,3.07-3.72,5.58-3.13A4.58,4.58,0,0,1,2760,47Z"/><path class="cls-3" d="M2733.48,73.3a19.24,19.24,0,0,0,12-2"/><path class="cls-1" d="M3321.69,223.92c2.41,17.73.34,31.08-2,40-3.5,13.36-8.85,21.47-5,26s14.17,2.79,21-1c8.89-4.95,12.24-13.81,17-27a149.09,149.09,0,0,0,8-35"/><path class="cls-1" d="M3235.83,174.56c7,39.4,4,66.94-.56,85.38-1.87,7.59-6.7,24.64-.43,28.86,4.73,3.18,13.6-2.4,15.58-3.65,3.39-2.14,13.71-9.43,20.14-32.45,6.29-22.56,4.12-43.25.86-57.71"/><path class="cls-2" d="M3274.33,79.36c9.35,28.2,14.58,41.53,25.81,50.1,12.11,9.23,26.49,8.33,51.7,7s29.6-7,48.85-4.56c10.56,1.34,25.43,3.23,37,15,13.66,13.88,13.91,32.55,14,40,.08,6,.34,25.7-13,41-11.87,13.61-27.87,15.83-53,20-19,3.15-32.35,2.43-59,1-48-2.59-60.17-9.82-65-13a75,75,0,0,1-23-24c-4.12-7.11-9.65-19.68-8-67,1.35-38.55,6.1-61.13-2.6-65a5.6,5.6,0,0,0-1.3-.46c-4.54-.93-8.8,1.72-9.77,2.31-5.88,3.61-25.91,6.56-35.07-.83-10.7-8.64-5.66-30.64-2.26-40a46.85,46.85,0,0,1,13.7-20.53c2-1.73,15.77-13.06,34.3-10.47a45,45,0,0,1,23,11C3265.13,33.61,3263.73,47.39,3274.33,79.36Z"/><path class="cls-1" d="M3432.69,142.92c2.13,1.58,5.28,4,9,7,7.89,6.39,12.8,11.23,16,14a271.12,271.12,0,0,0,54,36c34.67,16.44,63,15.28,62.83,21.45-.11,2.93-6.25,4.9-12.62,6.83-7.8,2.35-24.33,6.25-54.21,1.72a233.08,233.08,0,0,1-43-11c-9.09-3.16-16.55-6.3-21.91-8.7"/><path class="cls-1" d="M3309,192.9c-7.25,13.24-20.13,32.41-41,47-14.38,10-24.41,12.24-29,13a62.37,62.37,0,0,1-25-1.07c-1.95-1.56-5-4-5.48-7.42-1.21-9.06,16.89-15.61,32.76-28.49,8.29-6.73,19.2-17.76,28.69-36"/><path class="cls-1" d="M3375.3,216.35c8.11,21,9.12,37.72,8.48,49.32-.91,16.45-5.11,29.28,1,33.52s17.87-3.48,18.58-4c6.69-4.51,12.51-12.29,16.3-29,6.05-26.76,1.47-52.28-3.65-69.78"/><path d="M3208.69,47.1c.09,2.66-2.5,4.48-4.5,4.82-.26,0-3.18.48-4.42-1.69a5,5,0,0,1,0-4.18c.85-1.73,3.07-3.72,5.58-3.13A4.58,4.58,0,0,1,3208.69,47.1Z"/><path class="cls-3" d="M3182.19,73.42a19.24,19.24,0,0,0,12-2"/><path class="cls-1" d="M3785,223.8c2.41,17.74.34,31.09-2,40-3.5,13.37-8.85,21.48-5,26s14.17,2.8,21-1c8.89-4.94,12.24-13.8,17-27a148.84,148.84,0,0,0,8-35"/><path class="cls-1" d="M3687.58,156.67c-9.58,38.86-23.55,62.78-35.19,77.79-4.8,6.18-16.14,19.79-12.12,26.19,3,4.83,13.39,3.33,15.71,3,4-.58,16.36-3,31.58-21.47,14.93-18.05,21.35-37.85,24.25-52.38"/><path class="cls-2" d="M3725.62,79.25c9.35,28.2,14.58,41.53,25.81,50.1,12.11,9.23,26.49,8.33,51.7,7s29.6-7,48.85-4.57c10.56,1.35,25.43,3.24,37,15,13.66,13.89,13.91,32.56,14,40,.08,6,.34,25.71-13,41-11.87,13.62-27.87,15.84-53,20-19,3.16-32.35,2.44-59,1-48-2.58-60.17-9.81-65-13a74.78,74.78,0,0,1-23-24c-4.12-7.1-9.65-19.67-8-67,1.35-38.54,6.1-61.12-2.6-65a5.6,5.6,0,0,0-1.3-.46c-4.54-.93-8.8,1.72-9.77,2.31-5.88,3.61-25.91,6.56-35.07-.83-10.7-8.64-5.66-30.64-2.26-40a47,47,0,0,1,13.7-20.53c2-1.72,15.76-13,34.3-10.47a45.19,45.19,0,0,1,23,11C3716.42,33.5,3715,47.28,3725.62,79.25Z"/><path class="cls-1" d="M3884,142.8c2.13,1.59,5.28,4,9,7,2.28,1.85,4.29,3.54,6.07,5.08,5.48,4.73,9.44,8.46,9.93,8.92,13.27,12.41,36.52,15.2,36.52,15.2,35.81,4.26,75.86-2.15,77.67,4,1.49,5.09-23.9,16.53-31,19.74-26.23,11.83-46.71,13.64-54,14a110.91,110.91,0,0,1-23-1,102.16,102.16,0,0,1-16.65-4.05c-1.82-.6-3.32-1.16-4.43-1.58"/><path class="cls-1" d="M3764.8,194.31c.25,45.65-6.21,79.74-15.33,90.95-8.45,10.37-17.33,11.31-17.33,11.31-2.49.26-6.39.68-9.11-1.47-7.14-5.66,1-23.4,3.24-44.18,1.16-10.82,1.16-26.65-4.94-46.73"/><path class="cls-1" d="M3829.89,216.78c8.55,20.78,9.93,37.52,9.54,49.13-.55,16.46-4.48,29.38,1.75,33.49s17.78-3.87,18.49-4.37c5.33-3.76,11.66-10.78,15.66-29.38,2.49-11.57,5.21-32.89-2.09-60.86"/><path d="M3660,47c.09,2.66-2.5,4.48-4.51,4.81-.25.05-3.17.49-4.41-1.68a5,5,0,0,1,0-4.18c.85-1.73,3.07-3.72,5.58-3.13A4.58,4.58,0,0,1,3660,47Z"/><path class="cls-3" d="M3633.48,73.3a19.24,19.24,0,0,0,12-2"/><path class="cls-1" d="M4221.69,223.92c2.41,17.73.34,31.08-2,40-3.5,13.36-8.85,21.47-5,26s14.17,2.79,21-1c8.89-4.95,12.24-13.81,17-27a149.09,149.09,0,0,0,8-35"/><path class="cls-1" d="M4135.83,174.56c7,39.4,4,66.94-.56,85.38-1.87,7.59-6.7,24.64-.43,28.86,4.73,3.18,13.6-2.4,15.58-3.65,3.39-2.14,13.71-9.43,20.14-32.45,6.29-22.56,4.12-43.25.86-57.71"/><path class="cls-2" d="M4174.33,79.36c9.35,28.2,14.58,41.53,25.81,50.1,12.11,9.23,26.49,8.33,51.7,7s29.6-7,48.85-4.56c10.56,1.34,25.43,3.23,37,15,13.66,13.88,13.91,32.55,14,40,.08,6,.34,25.7-13,41-11.87,13.61-27.87,15.83-53,20-19,3.15-32.35,2.43-59,1-48-2.59-60.17-9.82-65-13a75,75,0,0,1-23-24c-4.12-7.11-9.65-19.68-8-67,1.35-38.55,6.1-61.13-2.6-65a5.6,5.6,0,0,0-1.3-.46c-4.54-.93-8.8,1.72-9.77,2.31-5.88,3.61-25.91,6.56-35.07-.83-10.7-8.64-5.66-30.64-2.26-40a46.85,46.85,0,0,1,13.7-20.53c2-1.73,15.77-13.06,34.3-10.47a45,45,0,0,1,23,11C4165.13,33.61,4163.73,47.39,4174.33,79.36Z"/><path class="cls-1" d="M4332.69,142.92c2.13,1.58,5.28,4,9,7,7.89,6.39,12.8,11.23,16,14a271.12,271.12,0,0,0,54,36c34.67,16.44,63,15.28,62.83,21.45-.11,2.93-6.25,4.9-12.62,6.83-7.8,2.35-24.33,6.25-54.21,1.72a233.08,233.08,0,0,1-43-11c-9.09-3.16-16.55-6.3-21.91-8.7"/><path class="cls-1" d="M4209,192.9c-7.25,13.24-20.13,32.41-41,47-14.38,10-24.41,12.24-29,13a62.37,62.37,0,0,1-25-1.07c-2-1.56-5-4-5.48-7.42-1.21-9.06,16.89-15.61,32.76-28.49,8.29-6.73,19.2-17.76,28.69-36"/><path class="cls-1" d="M4275.3,216.35c8.11,21,9.12,37.72,8.48,49.32-.91,16.45-5.11,29.28,1,33.52s17.87-3.48,18.58-4c6.69-4.51,12.51-12.29,16.3-29,6-26.76,1.47-52.28-3.65-69.78"/><path d="M4108.69,47.1c.09,2.66-2.5,4.48-4.5,4.82-.26,0-3.18.48-4.42-1.69a5,5,0,0,1,0-4.18c.85-1.73,3.07-3.72,5.58-3.13A4.58,4.58,0,0,1,4108.69,47.1Z"/><path class="cls-3" d="M4082.19,73.42a19.24,19.24,0,0,0,12-2"/><path class="cls-1" d="M4685,223.8c2.41,17.74.34,31.09-2,40-3.5,13.37-8.85,21.48-5,26s14.17,2.8,21-1c8.89-4.94,12.24-13.8,17-27a148.84,148.84,0,0,0,8-35"/><path class="cls-1" d="M4587.58,156.67c-9.58,38.86-23.55,62.78-35.19,77.79-4.8,6.18-16.14,19.79-12.12,26.19,3,4.83,13.39,3.33,15.71,3,4-.58,16.36-3,31.58-21.47,14.93-18.05,21.35-37.85,24.25-52.38"/><path class="cls-2" d="M4625.62,79.25c9.35,28.2,14.58,41.53,25.81,50.1,12.11,9.23,26.49,8.33,51.7,7s29.6-7,48.85-4.57c10.56,1.35,25.43,3.24,37,15,13.66,13.89,13.91,32.56,14,40,.08,6,.34,25.71-13,41-11.87,13.62-27.87,15.84-53,20-19,3.16-32.35,2.44-59,1-48-2.58-60.17-9.81-65-13a74.78,74.78,0,0,1-23-24c-4.12-7.1-9.65-19.67-8-67,1.35-38.54,6.1-61.12-2.6-65a5.6,5.6,0,0,0-1.3-.46c-4.54-.93-8.8,1.72-9.77,2.31-5.88,3.61-25.91,6.56-35.07-.83-10.7-8.64-5.66-30.64-2.26-40a47,47,0,0,1,13.7-20.53c2-1.72,15.76-13,34.3-10.47a45.19,45.19,0,0,1,23,11C4616.42,33.5,4615,47.28,4625.62,79.25Z"/><path class="cls-1" d="M4784,142.8c2.13,1.59,5.28,4,9,7,2.28,1.85,4.29,3.54,6.07,5.08,5.48,4.73,9.44,8.46,9.93,8.92,13.27,12.41,36.52,15.2,36.52,15.2,35.81,4.26,75.86-2.15,77.67,4,1.49,5.09-23.9,16.53-31,19.74-26.23,11.83-46.71,13.64-54,14a110.91,110.91,0,0,1-23-1,102.16,102.16,0,0,1-16.65-4.05c-1.82-.6-3.32-1.16-4.43-1.58"/><path class="cls-1" d="M4664.8,194.31c.25,45.65-6.21,79.74-15.33,90.95-8.45,10.37-17.33,11.31-17.33,11.31-2.49.26-6.39.68-9.11-1.47-7.14-5.66,1-23.4,3.24-44.18,1.16-10.82,1.16-26.65-4.94-46.73"/><path class="cls-1" d="M4729.89,216.78c8.55,20.78,9.93,37.52,9.54,49.13-.55,16.46-4.48,29.38,1.75,33.49s17.78-3.87,18.49-4.37c5.33-3.76,11.66-10.78,15.66-29.38,2.49-11.57,5.21-32.89-2.09-60.86"/><path d="M4560,47c.09,2.66-2.5,4.48-4.51,4.81-.25.05-3.17.49-4.41-1.68a5,5,0,0,1,0-4.18c.85-1.73,3.07-3.72,5.58-3.13A4.58,4.58,0,0,1,4560,47Z"/><path class="cls-3" d="M4533.48,73.3a19.24,19.24,0,0,0,12-2"/><path class="cls-1" d="M5121.69,223.92c2.41,17.73.34,31.08-2,40-3.5,13.36-8.85,21.47-5,26s14.17,2.79,21-1c8.89-4.95,12.24-13.81,17-27a149.09,149.09,0,0,0,8-35"/><path class="cls-1" d="M5035.83,174.56c7,39.4,4,66.94-.56,85.38-1.87,7.59-6.7,24.64-.43,28.86,4.73,3.18,13.6-2.4,15.58-3.65,3.39-2.14,13.71-9.43,20.14-32.45,6.29-22.56,4.12-43.25.86-57.71"/><path class="cls-2" d="M5074.33,79.36c9.35,28.2,14.58,41.53,25.81,50.1,12.11,9.23,26.49,8.33,51.7,7s29.6-7,48.85-4.56c10.56,1.34,25.43,3.23,37,15,13.66,13.88,13.91,32.55,14,40,.08,6,.34,25.7-13,41-11.87,13.61-27.87,15.83-53,20-19,3.15-32.35,2.43-59,1-48-2.59-60.17-9.82-65-13a75,75,0,0,1-23-24c-4.12-7.11-9.65-19.68-8-67,1.35-38.55,6.1-61.13-2.6-65a5.6,5.6,0,0,0-1.3-.46c-4.54-.93-8.8,1.72-9.77,2.31-5.88,3.61-25.91,6.56-35.07-.83-10.7-8.64-5.66-30.64-2.26-40a46.85,46.85,0,0,1,13.7-20.53c2-1.73,15.77-13.06,34.3-10.47a45,45,0,0,1,23,11C5065.13,33.61,5063.73,47.39,5074.33,79.36Z"/><path class="cls-1" d="M5232.69,142.92c2.13,1.58,5.28,4,9,7,7.89,6.39,12.8,11.23,16,14a271.12,271.12,0,0,0,54,36c34.67,16.44,63,15.28,62.83,21.45-.11,2.93-6.25,4.9-12.62,6.83-7.8,2.35-24.33,6.25-54.21,1.72a233.08,233.08,0,0,1-43-11c-9.09-3.16-16.55-6.3-21.91-8.7"/><path class="cls-1" d="M5109,192.9c-7.25,13.24-20.13,32.41-41,47-14.38,10-24.41,12.24-29,13a62.37,62.37,0,0,1-25-1.07c-2-1.56-5-4-5.48-7.42-1.21-9.06,16.89-15.61,32.76-28.49,8.29-6.73,19.2-17.76,28.69-36"/><path class="cls-1" d="M5175.3,216.35c8.11,21,9.12,37.72,8.48,49.32-.91,16.45-5.11,29.28,1,33.52s17.87-3.48,18.58-4c6.69-4.51,12.51-12.29,16.3-29,6-26.76,1.47-52.28-3.65-69.78"/><path d="M5008.69,47.1c.09,2.66-2.5,4.48-4.5,4.82-.26,0-3.18.48-4.42-1.69a5,5,0,0,1,0-4.18c.85-1.73,3.07-3.72,5.58-3.13A4.58,4.58,0,0,1,5008.69,47.1Z"/><path class="cls-3" d="M4982.19,73.42a19.24,19.24,0,0,0,12-2"/><path class="cls-1" d="M10628.31,223.92c-2.41,17.73-.34,31.08,2,40,3.5,13.36,8.85,21.47,5,26s-14.17,2.79-21-1c-8.89-4.95-12.24-13.81-17-27a149.09,149.09,0,0,1-8-35"/><path class="cls-1" d="M10714.17,174.56c-7,39.4-4,66.94.56,85.38,1.87,7.59,6.7,24.64.43,28.86-4.73,3.18-13.6-2.4-15.58-3.65-3.39-2.14-13.71-9.43-20.14-32.45-6.29-22.56-4.12-43.25-.86-57.71"/><path class="cls-2" d="M10675.67,79.36c-9.35,28.2-14.58,41.53-25.81,50.1-12.11,9.23-26.49,8.33-51.7,7s-29.6-7-48.85-4.56c-10.56,1.34-25.43,3.23-37,15-13.66,13.88-13.91,32.55-14,40-.08,6-.34,25.7,13,41,11.87,13.61,27.87,15.83,53,20,19,3.15,32.35,2.43,59,1,48-2.59,60.17-9.82,65-13a75,75,0,0,0,23-24c4.12-7.11,9.65-19.68,8-67-1.35-38.55-6.1-61.13,2.6-65a5.6,5.6,0,0,1,1.3-.46c4.54-.93,8.8,1.72,9.77,2.31,5.88,3.61,25.91,6.56,35.07-.83,10.7-8.64,5.66-30.64,2.26-40a46.85,46.85,0,0,0-13.7-20.53c-2-1.73-15.77-13.06-34.3-10.47a45,45,0,0,0-23,11C10684.87,33.61,10686.27,47.39,10675.67,79.36Z"/><path class="cls-1" d="M10517.31,142.92c-2.13,1.58-5.28,4-9,7-7.89,6.39-12.8,11.23-16,14a271.12,271.12,0,0,1-54,36c-34.67,16.44-63,15.28-62.83,21.45.11,2.93,6.25,4.9,12.62,6.83,7.8,2.35,24.33,6.25,54.21,1.72a233.08,233.08,0,0,0,43-11c9.09-3.16,16.55-6.3,21.91-8.7"/><path class="cls-1" d="M10641.05,192.9c7.25,13.24,20.13,32.41,41,47,14.38,10,24.41,12.24,29,13a62.37,62.37,0,0,0,25-1.07c2-1.56,5-4,5.48-7.42,1.21-9.06-16.89-15.61-32.76-28.49-8.29-6.73-19.2-17.76-28.69-36"/><path class="cls-1" d="M10574.7,216.35c-8.11,21-9.12,37.72-8.48,49.32.91,16.45,5.11,29.28-1,33.52s-17.87-3.48-18.58-4c-6.69-4.51-12.51-12.29-16.3-29-6-26.76-1.47-52.28,3.65-69.78"/><path d="M10741.31,47.1c-.09,2.66,2.5,4.48,4.5,4.82.26,0,3.18.48,4.42-1.69a5,5,0,0,0,0-4.18c-.85-1.73-3.07-3.72-5.58-3.13A4.58,4.58,0,0,0,10741.31,47.1Z"/><path class="cls-3" d="M10767.81,73.42a19.24,19.24,0,0,1-12-2"/><path class="cls-1" d="M10165,223.8c-2.41,17.74-.34,31.09,2,40,3.5,13.37,8.85,21.48,5,26s-14.17,2.8-21-1c-8.89-4.94-12.24-13.8-17-27a148.84,148.84,0,0,1-8-35"/><path class="cls-1" d="M10262.42,156.67c9.58,38.86,23.55,62.78,35.19,77.79,4.8,6.18,16.14,19.79,12.12,26.19-3,4.83-13.39,3.33-15.71,3-4-.58-16.36-3-31.58-21.47-14.93-18.05-21.35-37.85-24.25-52.38"/><path class="cls-2" d="M10224.38,79.25c-9.35,28.2-14.58,41.53-25.81,50.1-12.11,9.23-26.49,8.33-51.7,7s-29.6-7-48.85-4.57c-10.56,1.35-25.43,3.24-37,15-13.66,13.89-13.91,32.56-14,40-.08,6-.34,25.71,13,41,11.87,13.62,27.87,15.84,53,20,19,3.16,32.35,2.44,59,1,48-2.58,60.17-9.81,65-13a74.78,74.78,0,0,0,23-24c4.12-7.1,9.65-19.67,8-67-1.35-38.54-6.1-61.12,2.6-65a5.6,5.6,0,0,1,1.3-.46c4.54-.93,8.8,1.72,9.77,2.31,5.88,3.61,25.91,6.56,35.07-.83,10.7-8.64,5.66-30.64,2.26-40a47,47,0,0,0-13.7-20.53c-2-1.72-15.76-13-34.3-10.47a45.19,45.19,0,0,0-23,11C10233.58,33.5,10235,47.28,10224.38,79.25Z"/><path class="cls-1" d="M10066,142.8c-2.13,1.59-5.28,4-9,7-2.28,1.85-4.29,3.54-6.07,5.08-5.48,4.73-9.44,8.46-9.93,8.92-13.27,12.41-36.52,15.2-36.52,15.2-35.81,4.26-75.86-2.15-77.67,4-1.49,5.09,23.9,16.53,31,19.74,26.23,11.83,46.71,13.64,54,14a110.91,110.91,0,0,0,23-1,102.16,102.16,0,0,0,16.65-4.05c1.82-.6,3.32-1.16,4.43-1.58"/><path class="cls-1" d="M10185.2,194.31c-.25,45.65,6.21,79.74,15.33,90.95,8.45,10.37,17.33,11.31,17.33,11.31,2.49.26,6.39.68,9.11-1.47,7.14-5.66-1-23.4-3.24-44.18-1.16-10.82-1.16-26.65,4.94-46.73"/><path class="cls-1" d="M10120.11,216.78c-8.55,20.78-9.93,37.52-9.54,49.13.55,16.46,4.48,29.38-1.75,33.49s-17.78-3.87-18.49-4.37c-5.33-3.76-11.66-10.78-15.66-29.38-2.49-11.57-5.21-32.89,2.09-60.86"/><path d="M10290,47c-.09,2.66,2.5,4.48,4.51,4.81.25.05,3.17.49,4.41-1.68a5,5,0,0,0,0-4.18c-.85-1.73-3.07-3.72-5.58-3.13A4.58,4.58,0,0,0,10290,47Z"/><path class="cls-3" d="M10316.52,73.3a19.24,19.24,0,0,1-12-2"/><path class="cls-1" d="M7478.31,223.92c-2.41,17.73-.34,31.08,2,40,3.5,13.36,8.85,21.47,5,26s-14.17,2.79-21-1c-8.89-4.95-12.24-13.81-17-27a149.09,149.09,0,0,1-8-35"/><path class="cls-1" d="M7564.17,174.56c-7,39.4-4,66.94.56,85.38,1.87,7.59,6.7,24.64.43,28.86-4.73,3.18-13.6-2.4-15.58-3.65-3.39-2.14-13.71-9.43-20.14-32.45-6.29-22.56-4.12-43.25-.86-57.71"/><path class="cls-2" d="M7525.67,79.36c-9.35,28.2-14.58,41.53-25.81,50.1-12.11,9.23-26.49,8.33-51.7,7s-29.6-7-48.85-4.56c-10.56,1.34-25.43,3.23-37,15-13.66,13.88-13.91,32.55-14,40-.08,6-.34,25.7,13,41,11.87,13.61,27.87,15.83,53,20,19,3.15,32.35,2.43,59,1,48-2.59,60.17-9.82,65-13a75,75,0,0,0,23-24c4.12-7.11,9.65-19.68,8-67-1.35-38.55-6.1-61.13,2.6-65a5.6,5.6,0,0,1,1.3-.46c4.54-.93,8.8,1.72,9.77,2.31,5.88,3.61,25.91,6.56,35.07-.83,10.7-8.64,5.66-30.64,2.26-40a46.85,46.85,0,0,0-13.7-20.53c-2-1.73-15.77-13.06-34.3-10.47a45,45,0,0,0-23,11C7534.87,33.61,7536.27,47.39,7525.67,79.36Z"/><path class="cls-1" d="M7367.31,142.92c-2.13,1.58-5.28,4-9,7-7.89,6.39-12.8,11.23-16,14a271.12,271.12,0,0,1-54,36c-34.67,16.44-63,15.28-62.83,21.45.11,2.93,6.25,4.9,12.62,6.83,7.8,2.35,24.33,6.25,54.21,1.72a233.08,233.08,0,0,0,43-11c9.09-3.16,16.55-6.3,21.91-8.7"/><path class="cls-1" d="M7491.05,192.9c7.25,13.24,20.13,32.41,41,47,14.38,10,24.41,12.24,29,13a62.37,62.37,0,0,0,25-1.07c2-1.56,5-4,5.48-7.42,1.21-9.06-16.89-15.61-32.76-28.49-8.29-6.73-19.2-17.76-28.69-36"/><path class="cls-1" d="M7424.7,216.35c-8.11,21-9.12,37.72-8.48,49.32.91,16.45,5.11,29.28-1,33.52s-17.87-3.48-18.58-4c-6.69-4.51-12.51-12.29-16.3-29-6-26.76-1.47-52.28,3.65-69.78"/><path d="M7591.31,47.1c-.09,2.66,2.5,4.48,4.5,4.82.26,0,3.18.48,4.42-1.69a5,5,0,0,0,0-4.18c-.85-1.73-3.07-3.72-5.58-3.13A4.58,4.58,0,0,0,7591.31,47.1Z"/><path class="cls-3" d="M7617.81,73.42a19.24,19.24,0,0,1-12-2"/><path class="cls-1" d="M7015,223.8c-2.41,17.74-.34,31.09,2,40,3.5,13.37,8.85,21.48,5,26s-14.17,2.8-21-1c-8.89-4.94-12.24-13.8-17-27a148.84,148.84,0,0,1-8-35"/><path class="cls-1" d="M7112.42,156.67c9.58,38.86,23.55,62.78,35.19,77.79,4.8,6.18,16.14,19.79,12.12,26.19-3,4.83-13.39,3.33-15.71,3-4-.58-16.36-3-31.58-21.47-14.93-18.05-21.35-37.85-24.25-52.38"/><path class="cls-2" d="M7074.38,79.25c-9.35,28.2-14.58,41.53-25.81,50.1-12.11,9.23-26.49,8.33-51.7,7s-29.6-7-48.85-4.57c-10.56,1.35-25.43,3.24-37,15-13.66,13.89-13.91,32.56-14,40-.08,6-.34,25.71,13,41,11.87,13.62,27.87,15.84,53,20,19,3.16,32.35,2.44,59,1,48-2.58,60.17-9.81,65-13a74.78,74.78,0,0,0,23-24c4.12-7.1,9.65-19.67,8-67-1.35-38.54-6.1-61.12,2.6-65a5.6,5.6,0,0,1,1.3-.46c4.54-.93,8.8,1.72,9.77,2.31,5.88,3.61,25.91,6.56,35.07-.83,10.7-8.64,5.66-30.64,2.26-40a47,47,0,0,0-13.7-20.53c-2-1.72-15.76-13-34.3-10.47a45.19,45.19,0,0,0-23,11C7083.58,33.5,7085,47.28,7074.38,79.25Z"/><path class="cls-1" d="M6916,142.8c-2.13,1.59-5.28,4-9,7-2.28,1.85-4.29,3.54-6.07,5.08-5.48,4.73-9.44,8.46-9.93,8.92-13.27,12.41-36.52,15.2-36.52,15.2-35.81,4.26-75.86-2.15-77.67,4-1.49,5.09,23.9,16.53,31,19.74,26.23,11.83,46.71,13.64,54,14a110.91,110.91,0,0,0,23-1,102.16,102.16,0,0,0,16.65-4.05c1.82-.6,3.32-1.16,4.43-1.58"/><path class="cls-1" d="M7035.2,194.31c-.25,45.65,6.21,79.74,15.33,90.95,8.45,10.37,17.33,11.31,17.33,11.31,2.49.26,6.39.68,9.11-1.47,7.14-5.66-1-23.4-3.24-44.18-1.16-10.82-1.16-26.65,4.94-46.73"/><path class="cls-1" d="M6970.11,216.78c-8.55,20.78-9.93,37.52-9.54,49.13.55,16.46,4.48,29.38-1.75,33.49s-17.78-3.87-18.49-4.37c-5.33-3.76-11.66-10.78-15.66-29.38-2.49-11.57-5.21-32.89,2.09-60.86"/><path d="M7140,47c-.09,2.66,2.5,4.48,4.51,4.81.25.05,3.17.49,4.41-1.68a5,5,0,0,0,0-4.18c-.85-1.73-3.07-3.72-5.58-3.13A4.58,4.58,0,0,0,7140,47Z"/><path class="cls-3" d="M7166.52,73.3a19.24,19.24,0,0,1-12-2"/><path class="cls-1" d="M8378.31,223.92c-2.41,17.73-.34,31.08,2,40,3.5,13.36,8.85,21.47,5,26s-14.17,2.79-21-1c-8.89-4.95-12.24-13.81-17-27a149.09,149.09,0,0,1-8-35"/><path class="cls-1" d="M8464.17,174.56c-7,39.4-4,66.94.56,85.38,1.87,7.59,6.7,24.64.43,28.86-4.73,3.18-13.6-2.4-15.58-3.65-3.39-2.14-13.71-9.43-20.14-32.45-6.29-22.56-4.12-43.25-.86-57.71"/><path class="cls-2" d="M8425.67,79.36c-9.35,28.2-14.58,41.53-25.81,50.1-12.11,9.23-26.49,8.33-51.7,7s-29.6-7-48.85-4.56c-10.56,1.34-25.43,3.23-37,15-13.66,13.88-13.91,32.55-14,40-.08,6-.34,25.7,13,41,11.87,13.61,27.87,15.83,53,20,19,3.15,32.35,2.43,59,1,48-2.59,60.17-9.82,65-13a75,75,0,0,0,23-24c4.12-7.11,9.65-19.68,8-67-1.35-38.55-6.1-61.13,2.6-65a5.6,5.6,0,0,1,1.3-.46c4.54-.93,8.8,1.72,9.77,2.31,5.88,3.61,25.91,6.56,35.07-.83,10.7-8.64,5.66-30.64,2.26-40a46.85,46.85,0,0,0-13.7-20.53c-2-1.73-15.77-13.06-34.3-10.47a45,45,0,0,0-23,11C8434.87,33.61,8436.27,47.39,8425.67,79.36Z"/><path class="cls-1" d="M8267.31,142.92c-2.13,1.58-5.28,4-9,7-7.89,6.39-12.8,11.23-16,14a271.12,271.12,0,0,1-54,36c-34.67,16.44-63,15.28-62.83,21.45.11,2.93,6.25,4.9,12.62,6.83,7.8,2.35,24.33,6.25,54.21,1.72a233.08,233.08,0,0,0,43-11c9.09-3.16,16.55-6.3,21.91-8.7"/><path class="cls-1" d="M8391.05,192.9c7.25,13.24,20.13,32.41,41,47,14.38,10,24.41,12.24,29,13a62.37,62.37,0,0,0,25-1.07c2-1.56,5-4,5.48-7.42,1.21-9.06-16.89-15.61-32.76-28.49-8.29-6.73-19.2-17.76-28.69-36"/><path class="cls-1" d="M8324.7,216.35c-8.11,21-9.12,37.72-8.48,49.32.91,16.45,5.11,29.28-1,33.52s-17.87-3.48-18.58-4c-6.69-4.51-12.51-12.29-16.3-29-6-26.76-1.47-52.28,3.65-69.78"/><path d="M8491.31,47.1c-.09,2.66,2.5,4.48,4.5,4.82.26,0,3.18.48,4.42-1.69a5,5,0,0,0,0-4.18c-.85-1.73-3.07-3.72-5.58-3.13A4.58,4.58,0,0,0,8491.31,47.1Z"/><path class="cls-3" d="M8517.81,73.42a19.24,19.24,0,0,1-12-2"/><path class="cls-1" d="M7915,223.8c-2.41,17.74-.34,31.09,2,40,3.5,13.37,8.85,21.48,5,26s-14.17,2.8-21-1c-8.89-4.94-12.24-13.8-17-27a148.84,148.84,0,0,1-8-35"/><path class="cls-1" d="M8012.42,156.67c9.58,38.86,23.55,62.78,35.19,77.79,4.8,6.18,16.14,19.79,12.12,26.19-3,4.83-13.39,3.33-15.71,3-4-.58-16.36-3-31.58-21.47-14.93-18.05-21.35-37.85-24.25-52.38"/><path class="cls-2" d="M7974.38,79.25c-9.35,28.2-14.58,41.53-25.81,50.1-12.11,9.23-26.49,8.33-51.7,7s-29.6-7-48.85-4.57c-10.56,1.35-25.43,3.24-37,15-13.66,13.89-13.91,32.56-14,40-.08,6-.34,25.71,13,41,11.87,13.62,27.87,15.84,53,20,19,3.16,32.35,2.44,59,1,48-2.58,60.17-9.81,65-13a74.78,74.78,0,0,0,23-24c4.12-7.1,9.65-19.67,8-67-1.35-38.54-6.1-61.12,2.6-65a5.6,5.6,0,0,1,1.3-.46c4.54-.93,8.8,1.72,9.77,2.31,5.88,3.61,25.91,6.56,35.07-.83,10.7-8.64,5.66-30.64,2.26-40a47,47,0,0,0-13.7-20.53c-2-1.72-15.76-13-34.3-10.47a45.19,45.19,0,0,0-23,11C7983.58,33.5,7985,47.28,7974.38,79.25Z"/><path class="cls-1" d="M7816,142.8c-2.13,1.59-5.28,4-9,7-2.28,1.85-4.29,3.54-6.07,5.08-5.48,4.73-9.44,8.46-9.93,8.92-13.27,12.41-36.52,15.2-36.52,15.2-35.81,4.26-75.86-2.15-77.67,4-1.49,5.09,23.9,16.53,31,19.74,26.23,11.83,46.71,13.64,54,14a110.91,110.91,0,0,0,23-1,102.16,102.16,0,0,0,16.65-4.05c1.82-.6,3.32-1.16,4.43-1.58"/><path class="cls-1" d="M7935.2,194.31c-.25,45.65,6.21,79.74,15.33,90.95,8.45,10.37,17.33,11.31,17.33,11.31,2.49.26,6.39.68,9.11-1.47,7.14-5.66-1-23.4-3.24-44.18-1.16-10.82-1.16-26.65,4.94-46.73"/><path class="cls-1" d="M7870.11,216.78c-8.55,20.78-9.93,37.52-9.54,49.13.55,16.46,4.48,29.38-1.75,33.49s-17.78-3.87-18.49-4.37c-5.33-3.76-11.66-10.78-15.66-29.38-2.49-11.57-5.21-32.89,2.09-60.86"/><path d="M8040,47c-.09,2.66,2.5,4.48,4.51,4.81.25.05,3.17.49,4.41-1.68a5,5,0,0,0,0-4.18c-.85-1.73-3.07-3.72-5.58-3.13A4.58,4.58,0,0,0,8040,47Z"/><path class="cls-3" d="M8066.52,73.3a19.24,19.24,0,0,1-12-2"/><path class="cls-1" d="M9278.31,223.92c-2.41,17.73-.34,31.08,2,40,3.5,13.36,8.85,21.47,5,26s-14.17,2.79-21-1c-8.89-4.95-12.24-13.81-17-27a149.09,149.09,0,0,1-8-35"/><path class="cls-1" d="M9364.17,174.56c-7,39.4-4,66.94.56,85.38,1.87,7.59,6.7,24.64.43,28.86-4.73,3.18-13.6-2.4-15.58-3.65-3.39-2.14-13.71-9.43-20.14-32.45-6.29-22.56-4.12-43.25-.86-57.71"/><path class="cls-2" d="M9325.67,79.36c-9.35,28.2-14.58,41.53-25.81,50.1-12.11,9.23-26.49,8.33-51.7,7s-29.6-7-48.85-4.56c-10.56,1.34-25.43,3.23-37,15-13.66,13.88-13.91,32.55-14,40-.08,6-.34,25.7,13,41,11.87,13.61,27.87,15.83,53,20,19,3.15,32.35,2.43,59,1,48-2.59,60.17-9.82,65-13a75,75,0,0,0,23-24c4.12-7.11,9.65-19.68,8-67-1.35-38.55-6.1-61.13,2.6-65a5.6,5.6,0,0,1,1.3-.46c4.54-.93,8.8,1.72,9.77,2.31,5.88,3.61,25.91,6.56,35.07-.83,10.7-8.64,5.66-30.64,2.26-40a46.85,46.85,0,0,0-13.7-20.53c-2-1.73-15.77-13.06-34.3-10.47a45,45,0,0,0-23,11C9334.87,33.61,9336.27,47.39,9325.67,79.36Z"/><path class="cls-1" d="M9167.31,142.92c-2.13,1.58-5.28,4-9,7-7.89,6.39-12.8,11.23-16,14a271.12,271.12,0,0,1-54,36c-34.67,16.44-63,15.28-62.83,21.45.11,2.93,6.25,4.9,12.62,6.83,7.8,2.35,24.33,6.25,54.21,1.72a233.08,233.08,0,0,0,43-11c9.09-3.16,16.55-6.3,21.91-8.7"/><path class="cls-1" d="M9291.05,192.9c7.25,13.24,20.13,32.41,41,47,14.38,10,24.41,12.24,29,13a62.37,62.37,0,0,0,25-1.07c2-1.56,5-4,5.48-7.42,1.21-9.06-16.89-15.61-32.76-28.49-8.29-6.73-19.2-17.76-28.69-36"/><path class="cls-1" d="M9224.7,216.35c-8.11,21-9.12,37.72-8.48,49.32.91,16.45,5.11,29.28-1,33.52s-17.87-3.48-18.58-4c-6.69-4.51-12.51-12.29-16.3-29-6-26.76-1.47-52.28,3.65-69.78"/><path d="M9391.31,47.1c-.09,2.66,2.5,4.48,4.5,4.82.26,0,3.18.48,4.42-1.69a5,5,0,0,0,0-4.18c-.85-1.73-3.07-3.72-5.58-3.13A4.58,4.58,0,0,0,9391.31,47.1Z"/><path class="cls-3" d="M9417.81,73.42a19.24,19.24,0,0,1-12-2"/><path class="cls-1" d="M8815,223.8c-2.41,17.74-.34,31.09,2,40,3.5,13.37,8.85,21.48,5,26s-14.17,2.8-21-1c-8.89-4.94-12.24-13.8-17-27a148.84,148.84,0,0,1-8-35"/><path class="cls-1" d="M8912.42,156.67c9.58,38.86,23.55,62.78,35.19,77.79,4.8,6.18,16.14,19.79,12.12,26.19-3,4.83-13.39,3.33-15.71,3-4-.58-16.36-3-31.58-21.47-14.93-18.05-21.35-37.85-24.25-52.38"/><path class="cls-2" d="M8874.38,79.25c-9.35,28.2-14.58,41.53-25.81,50.1-12.11,9.23-26.49,8.33-51.7,7s-29.6-7-48.85-4.57c-10.56,1.35-25.43,3.24-37,15-13.66,13.89-13.91,32.56-14,40-.08,6-.34,25.71,13,41,11.87,13.62,27.87,15.84,53,20,19,3.16,32.35,2.44,59,1,48-2.58,60.17-9.81,65-13a74.78,74.78,0,0,0,23-24c4.12-7.1,9.65-19.67,8-67-1.35-38.54-6.1-61.12,2.6-65a5.6,5.6,0,0,1,1.3-.46c4.54-.93,8.8,1.72,9.77,2.31,5.88,3.61,25.91,6.56,35.07-.83,10.7-8.64,5.66-30.64,2.26-40a47,47,0,0,0-13.7-20.53c-2-1.72-15.76-13-34.3-10.47a45.19,45.19,0,0,0-23,11C8883.58,33.5,8885,47.28,8874.38,79.25Z"/><path class="cls-1" d="M8716,142.8c-2.13,1.59-5.28,4-9,7-2.28,1.85-4.29,3.54-6.07,5.08-5.48,4.73-9.44,8.46-9.93,8.92-13.27,12.41-36.52,15.2-36.52,15.2-35.81,4.26-75.86-2.15-77.67,4-1.49,5.09,23.9,16.53,31,19.74,26.23,11.83,46.71,13.64,54,14a110.91,110.91,0,0,0,23-1,102.16,102.16,0,0,0,16.65-4.05c1.82-.6,3.32-1.16,4.43-1.58"/><path class="cls-1" d="M8835.2,194.31c-.25,45.65,6.21,79.74,15.33,90.95,8.45,10.37,17.33,11.31,17.33,11.31,2.49.26,6.39.68,9.11-1.47,7.14-5.66-1-23.4-3.24-44.18-1.16-10.82-1.16-26.65,4.94-46.73"/><path class="cls-1" d="M8770.11,216.78c-8.55,20.78-9.93,37.52-9.54,49.13.55,16.46,4.48,29.38-1.75,33.49s-17.78-3.87-18.49-4.37c-5.33-3.76-11.66-10.78-15.66-29.38-2.49-11.57-5.21-32.89,2.09-60.86"/><path d="M8940,47c-.09,2.66,2.5,4.48,4.51,4.81.25.05,3.17.49,4.41-1.68a5,5,0,0,0,0-4.18c-.85-1.73-3.07-3.72-5.58-3.13A4.58,4.58,0,0,0,8940,47Z"/><path class="cls-3" d="M8966.52,73.3a19.24,19.24,0,0,1-12-2"/><path class="cls-1" d="M9715,223.8c-2.41,17.74-.34,31.09,2,40,3.5,13.37,8.85,21.48,5,26s-14.17,2.8-21-1c-8.89-4.94-12.24-13.8-17-27a148.84,148.84,0,0,1-8-35"/><path class="cls-1" d="M9812.42,156.67c9.58,38.86,23.55,62.78,35.19,77.79,4.8,6.18,16.14,19.79,12.12,26.19-3,4.83-13.39,3.33-15.71,3-4-.58-16.36-3-31.58-21.47-14.93-18.05-21.35-37.85-24.25-52.38"/><path class="cls-2" d="M9774.38,79.25c-9.35,28.2-14.58,41.53-25.81,50.1-12.11,9.23-26.49,8.33-51.7,7s-29.6-7-48.85-4.57c-10.56,1.35-25.43,3.24-37,15-13.66,13.89-13.91,32.56-14,40-.08,6-.34,25.71,13,41,11.87,13.62,27.87,15.84,53,20,19,3.16,32.35,2.44,59,1,48-2.58,60.17-9.81,65-13a74.78,74.78,0,0,0,23-24c4.12-7.1,9.65-19.67,8-67-1.35-38.54-6.1-61.12,2.6-65a5.6,5.6,0,0,1,1.3-.46c4.54-.93,8.8,1.72,9.77,2.31,5.88,3.61,25.91,6.56,35.07-.83,10.7-8.64,5.66-30.64,2.26-40a47,47,0,0,0-13.7-20.53c-2-1.72-15.76-13-34.3-10.47a45.19,45.19,0,0,0-23,11C9783.58,33.5,9785,47.28,9774.38,79.25Z"/><path class="cls-1" d="M9616,142.8c-2.13,1.59-5.28,4-9,7-2.28,1.85-4.29,3.54-6.07,5.08-5.48,4.73-9.44,8.46-9.93,8.92-13.27,12.41-36.52,15.2-36.52,15.2-35.81,4.26-75.86-2.15-77.67,4-1.49,5.09,23.9,16.53,31,19.74,26.23,11.83,46.71,13.64,54,14a110.91,110.91,0,0,0,23-1,102.16,102.16,0,0,0,16.65-4.05c1.82-.6,3.32-1.16,4.43-1.58"/><path class="cls-1" d="M9735.2,194.31c-.25,45.65,6.21,79.74,15.33,90.95,8.45,10.37,17.33,11.31,17.33,11.31,2.49.26,6.39.68,9.11-1.47,7.14-5.66-1-23.4-3.24-44.18-1.16-10.82-1.16-26.65,4.94-46.73"/><path class="cls-1" d="M9670.11,216.78c-8.55,20.78-9.93,37.52-9.54,49.13.55,16.46,4.48,29.38-1.75,33.49s-17.78-3.87-18.49-4.37c-5.33-3.76-11.66-10.78-15.66-29.38-2.49-11.57-5.21-32.89,2.09-60.86"/><path d="M9840,47c-.09,2.66,2.5,4.48,4.51,4.81.25.05,3.17.49,4.41-1.68a5,5,0,0,0,0-4.18c-.85-1.73-3.07-3.72-5.58-3.13A4.58,4.58,0,0,0,9840,47Z"/><path class="cls-3" d="M9866.52,73.3a19.24,19.24,0,0,1-12-2"/></svg>