<svg xmlns="http://www.w3.org/2000/svg" viewBox="0 0 468.65 228.33"><defs><style>.cls-1,.cls-2{fill:#9fcea5;stroke-width:4px;}.cls-1,.cls-2,.cls-3{stroke:#000;}.cls-1,.cls-3{stroke-linecap:round;stroke-linejoin:round;}.cls-2{stroke-miterlimit:10;}.cls-3{fill:none;stroke-width:3px;}</style></defs><g id="Layer_2" data-name="Layer 2"><g id="Layer_27" data-name="Layer 27"><g id="Layer_25" data-name="Layer 25"><path class="cls-1" d="M225.83,152.84c2.4,17.74.33,31.08-2,40-3.51,13.37-8.85,21.48-5,26s14.16,2.8,21-1c8.89-4.94,12.23-13.8,17-27a150,150,0,0,0,8-35"/><path class="cls-1" d="M125.24,103c5.4,39.65,1.22,67-4.08,85.27-2.19,7.52-7.72,24.34-1.63,28.82,4.6,3.38,13.68-1.84,15.72-3,3.47-2,14.08-8.85,21.46-31.58,7.22-22.28,5.91-43.05,3.25-57.63"/><path class="cls-2" d="M129.52,11a128,128,0,0,1,27,17c11.31,9,16.33,14.16,20.85,18.2,10.68,9.55,10.92,10.18,14.9,12.16,23.54,11.74,50.3,7.1,51.7,7,25.25-1.32,29.6-7,48.86-4.57,10.55,1.34,25.42,3.23,37,15,13.66,13.89,13.9,32.56,14,40,.07,6,.33,25.71-13,41-11.87,13.62-27.88,15.84-53,20-19,3.16-32.36,2.44-59,1-48-2.58-60.18-9.81-65-13a74.65,74.65,0,0,1-23-24c-.59-1-1.2-2.12-1.82-3.43-8-17-4.54-32.48-6.18-63.57-.45-8.47-1-12-3.31-15.82-6-9.79-18.15-12.26-22.07-12.87-.26,0-.57-.09-.93-.13-10.67-1.36-22,2.72-27,7-12,10.34,3.29,30.21-8,46-8.13,11.37-27.31,16.76-41,10C6,100.86,3.38,82.9,2.52,77a49.94,49.94,0,0,1,4-28c6-12.92,16-19.08,31-28,16.6-9.9,31.1-18.54,52-19C108.65,1.6,123.48,8.29,129.52,11Z"/><path class="cls-1" d="M324.83,71.84c2.12,1.59,5.27,4,9,7,7.88,6.4,12.79,11.24,16,14a270.27,270.27,0,0,0,54,36c34.66,16.44,63,15.29,62.82,21.46-.1,2.92-6.25,4.9-12.62,6.82-7.8,2.36-24.33,6.26-54.2,1.72a231,231,0,0,1-43-11c-9.09-3.15-16.56-6.29-21.92-8.7"/><path class="cls-1" d="M210.83,126.84c-2.61,44.66-11.2,77.61-21,88-9.08,9.63-18,10-18,10-2.5.11-6.43.27-9-2-6.78-6,2.47-22.82,6-43,1.83-10.51,2.82-26-2-46"/><path class="cls-1" d="M274.83,140.84c3.55,22.19,1,38.8-2,50-4.33,15.9-11.11,27.57-6,33s18.19.33,19,0c7.48-3,14.79-9.4,22-25,11.5-24.9,12.35-50.82,11-69"/><path d="M26.38,78.19c2.3,1.35,2.45,4.51,1.66,6.39-.1.24-1.29,2.94-3.78,2.83a5,5,0,0,1-3.53-2.24c-1-1.64-1.5-4.58.33-6.38A4.6,4.6,0,0,1,26.38,78.19Z"/><path class="cls-3" d="M46,92.52a7.91,7.91,0,0,0,3,9"/></g></g></g></svg>