<svg id="Layer_1" data-name="Layer 1" xmlns="http://www.w3.org/2000/svg" viewBox="0 0 2750 450"><defs><style>.cls-1,.cls-2{fill:#9fcea5;stroke-width:5px;}.cls-1,.cls-2,.cls-3,.cls-4{stroke:#000;}.cls-1,.cls-3,.cls-4{stroke-linecap:round;stroke-linejoin:round;}.cls-2{stroke-miterlimit:10;}.cls-3{fill:none;stroke-width:3px;}.cls-4{fill:#ffc0b3;stroke-width:2px;}</style></defs><path class="cls-1" d="M743.66,311.23c-1.16,21.73-6.67,37.2-11.49,47.32-7.23,15.16-15.46,23.64-11.89,29.92s16.28,6.56,25.31,3.58c11.75-3.88,17.76-13.71,26.45-28.38a181.85,181.85,0,0,0,17.52-40"/><path class="cls-1" d="M652.32,232.75c-.56,48.66-10.46,80.85-20.08,101.85-4,8.64-13.61,27.9-7.08,34.37,4.92,4.88,16.78.22,19.44-.82C649.13,366.37,663.11,360,676,334c12.65-25.51,14.76-50.73,14.16-68.74"/><path class="cls-2" d="M720,127.8c4.75,35.8,8,52.91,19.43,65.7,12.36,13.79,29.74,16,60.15,20.15s37-1.64,59.39,5.66c12.31,4,29.64,9.64,40.79,26.33,13.16,19.7,9.2,42.05,7.62,51-1.28,7.22-5.45,30.78-24.85,46-17.28,13.56-36.9,12.57-67.86,11.83-23.45-.56-39.2-4.45-70.7-12.22-56.72-14-69.64-25.41-74.68-30.32a90.81,90.81,0,0,1-22-33.9c-3.31-9.42-7.06-25.7,5.68-81.84,10.38-45.74,21.19-71.63,11.69-78.28a8.1,8.1,0,0,0-1.45-.85c-5.22-2.13-10.91.06-12.2.55-7.84,3-32.44,1.94-41.7-9-10.81-12.74.21-37.88,6.4-48.27a57.09,57.09,0,0,1,21-21.4c2.81-1.6,21.8-12,43.36-4.71A54.9,54.9,0,0,1,705,52.6C719.38,71.05,714.58,87.19,720,127.8Z"/><path class="cls-1" d="M894.66,239.73c2.18,2.37,5.4,6,9.16,10.41,8,9.43,12.73,16.33,15.93,20.36a328.79,328.79,0,0,0,56.31,55.28c37.66,27.52,71.82,32.6,70.16,39.92-.79,3.47-8.58,4.44-16.62,5.28-9.85,1-30.49,1.94-65.14-10.28a281.27,281.27,0,0,1-48.86-22.92c-10.14-5.83-18.34-11.28-24.2-15.37"/><path class="cls-1" d="M735.49,271.28c-11.67,14.17-31.41,34.13-59.67,46.81-19.45,8.73-31.94,9.08-37.59,8.93a75.79,75.79,0,0,1-29.64-7c-2-2.31-5.09-5.94-4.86-10.11.62-11.09,23.73-14.81,45.61-26.59,11.43-6.14,27-16.84,42.46-36.48"/><path class="cls-1" d="M809.41,314.39c4.91,26.87,2.31,47.13-1.09,60.83-4.83,19.45-12.77,33.81-6.41,40.28S824,415.4,825,415c9-3.87,17.73-11.83,26.07-31,13.32-30.59,13.65-62.11,11.52-84.18"/><path d="M648.9,74.32c-.5,3.2-4,4.79-6.48,4.73-.31,0-3.9-.14-4.88-3-.81-2.33.72-4.68,1-5,1.4-1.88,4.5-3.75,7.37-2.48A5.59,5.59,0,0,1,648.9,74.32Z"/><path class="cls-3" d="M611.27,99.73a23.26,23.26,0,0,0,14.78.34"/><path class="cls-1" d="M1296.2,312c-4.52,20.76-12.25,34.81-18.49,43.81-9.59,13.85-18.75,21.18-16.14,27s16,6.59,25.62,3.93c11.18-3.09,17.68-10.81,27.31-22.56a174.17,174.17,0,0,0,21.37-33.24"/><path class="cls-1" d="M1232.26,184.76c-9.39,30.49-23.16,49.81-34.14,61.9-18,19.85-40.24,33-36.6,42.91,1.77,4.81,8.71,6.36,11.91,7.07,10.58,2.35,21.68-1.45,41.48-15.63a272.5,272.5,0,0,0,44.92-40.58"/><path class="cls-2" d="M1296.8,131c-3.74,44.16-4.13,46.86-1.3,52.65,7.41,15.12,24.73,23.14,59.36,39.18,16.94,7.84,23.34,9.45,31.53,13.43,2.16,1.05,6,3.15,10,5.56,14.49,8.79,32.15,19.49,38,38,5.28,16.74-1.52,32.17-3.56,36.81-9,20.39-26.75,29-33.24,32.06-15.48,7.22-28.71,6.67-46.31,5.93A175,175,0,0,1,1283.63,338c-11.23-5.41-29.29-14.33-46.31-33.24-7-7.73-18-20-23.74-38-7.88-24.65-1.61-47,8.31-80.73,11.62-39.5,25.95-63.87,16.62-72.42-2-1.85-2.92-.93-11.87-3.56-14-4.11-25.72-7.57-30.87-15.44-8.37-12.79,2.57-34.4,11.28-45.18a56.42,56.42,0,0,1,23.66-17.28c3-1.11,23-8.11,42.52,2.37a52.66,52.66,0,0,1,19.9,19.72C1301.83,69.14,1300.27,90,1296.8,131Z"/><path class="cls-1" d="M1430.85,271.52c1.19,1.94,2.37,3.92,3.56,5.94,1.65,2.8,3.23,5.58,4.75,8.31a100.05,100.05,0,0,0,14.25,15.44c20.43,17.52,56.61,23.38,56.61,23.38,45,7.27,76.75-3.65,78.76,3,1,3.29-6,8.12-12,12.06-8.07,5.33-25.55,15.39-61.08,20.4a247.93,247.93,0,0,1-32.16,2.78s-10.27.15-20.49-.66c-28.37-2.24-56.29-12-66.61-15.87"/><path class="cls-1" d="M1293,270.72c-33.58,41.15-64.76,66.87-81.43,70-15.43,3-24.27-2.9-24.27-2.9-2.48-1.64-6.37-4.21-7.27-8.19-2.37-10.45,18.26-20.23,35.69-37.19,9.08-8.84,20.8-23.05,30.08-45.65"/><path class="cls-1" d="M1338.24,325a183.48,183.48,0,0,1-6,54.91c-5.35,19.76-12.9,33.64-7.12,39.18,5.44,5.22,18.69-.76,20.29-1.48,13-5.89,20.15-17.73,26.12-30.87,6.76-14.9,15.87-39.83,19-74.8"/><path d="M1232.47,64.27c.11,3.16-3,5.32-5.35,5.72-.3.05-3.77.57-5.24-2a5.85,5.85,0,0,1,0-5c1-2.06,3.64-4.42,6.62-3.72A5.45,5.45,0,0,1,1232.47,64.27Z"/><path class="cls-4" d="M1200.07,86.26c-1.19,1.13-.2,5.07,2.38,7.13.19.16,3.31,2.57,5.93,1.19,3-1.6,3-7,1.19-8.32-1-.75-1.94.19-5.94,0C1201.23,86.15,1200.6,85.76,1200.07,86.26Z"/><path class="cls-1" d="M224.82,310.66c2.93,21.56.41,37.79-2.43,48.63-4.27,16.25-10.77,26.12-6.08,31.62s17.22,3.4,25.53-1.22c10.81-6,14.88-16.79,20.67-32.83a182,182,0,0,0,9.73-42.56"/><path class="cls-1" d="M106.87,252.29c-2.59,48.6-13.83,80.35-24.32,100.92-4.32,8.48-14.76,27.31-8.51,34.05,4.72,5.08,16.77.93,19.46,0,4.6-1.59,18.84-7.36,32.83-32.83,13.71-25,16.87-50.07,17-68.09"/><path class="cls-2" d="M152.64,134.89C164,169.18,170.36,185.38,184,195.8c14.72,11.23,32.21,10.14,62.86,8.54s36-8.52,59.4-5.55c12.84,1.63,30.92,3.93,45,18.24,16.61,16.89,16.91,39.58,17,48.64.1,7.32.41,31.25-15.8,49.85-14.43,16.55-33.89,19.25-64.45,24.32-23.14,3.83-39.34,3-71.73,1.21-58.35-3.14-73.17-11.93-79-15.8a91.14,91.14,0,0,1-28-29.19c-5-8.64-11.74-23.92-9.72-81.46,1.64-46.87,7.41-74.33-3.17-79.08a6.92,6.92,0,0,0-1.58-.56c-5.52-1.13-10.7,2.09-11.88,2.81-7.15,4.4-31.79,8.11-42.95-1-15.3-12.47-3-47.15-2.43-48.64a57.13,57.13,0,0,1,16.65-25c2.46-2.1,19.17-15.87,41.71-12.73a55,55,0,0,1,28,13.37C141.45,79.26,139.75,96,152.64,134.89Z"/><path class="cls-1" d="M345.19,212.17c2.59,1.92,6.42,4.83,10.95,8.51,9.58,7.77,15.55,13.66,19.45,17a328.87,328.87,0,0,0,65.66,43.77c42.15,20,76.65,18.59,76.39,26.09-.13,3.56-7.6,6-15.34,8.3-9.48,2.86-29.59,7.61-65.91,2.09a282.1,282.1,0,0,1-52.29-13.37c-11.05-3.84-20.13-7.65-26.65-10.58"/><path class="cls-1" d="M206.58,279C203.41,333.34,193,373.4,181,386c-11,11.71-21.88,12.16-21.88,12.16-3,.13-7.81.33-10.95-2.43-8.23-7.25,3-27.75,7.3-52.29,2.23-12.78,3.43-31.6-2.43-55.93"/><path class="cls-1" d="M284.4,296.06c4.32,27,1.27,47.17-2.44,60.8-5.25,19.33-13.5,33.52-7.29,40.13s22.13.39,23.1,0c9.1-3.67,18-11.44,26.75-30.4,14-30.28,15-61.79,13.38-83.9"/><path d="M72.82,95.66c.11,3.24-3,5.45-5.47,5.86-.32,0-3.86.58-5.37-2a6,6,0,0,1,0-5.08c1-2.1,3.73-4.52,6.78-3.81A5.59,5.59,0,0,1,72.82,95.66Z"/><path class="cls-3" d="M40.61,127.66a23.42,23.42,0,0,0,14.59-2.43"/><path class="cls-1" d="M1843.66,311.23c-1.16,21.73-6.67,37.2-11.49,47.32-7.23,15.16-15.46,23.64-11.89,29.92s16.28,6.56,25.31,3.58c11.75-3.88,17.76-13.71,26.45-28.38a181.85,181.85,0,0,0,17.52-40"/><path class="cls-1" d="M1752.32,232.75c-.56,48.66-10.46,80.85-20.08,101.85-4,8.64-13.61,27.9-7.08,34.37,4.92,4.88,16.78.22,19.44-.82,4.53-1.78,18.51-8.14,31.43-34.17,12.65-25.51,14.76-50.73,14.16-68.74"/><path class="cls-2" d="M1820,127.8c4.75,35.8,8,52.91,19.43,65.7,12.36,13.79,29.74,16,60.15,20.15s37-1.64,59.39,5.66c12.31,4,29.64,9.64,40.79,26.33,13.16,19.7,9.2,42.05,7.62,51-1.28,7.22-5.45,30.78-24.85,46-17.28,13.56-36.9,12.57-67.86,11.83-23.45-.56-39.2-4.45-70.7-12.22-56.72-14-69.64-25.41-74.68-30.32a90.81,90.81,0,0,1-22-33.9c-3.31-9.42-7.06-25.7,5.68-81.84,10.38-45.74,21.19-71.63,11.69-78.28a8.1,8.1,0,0,0-1.45-.85c-5.22-2.13-10.91.06-12.2.55-7.84,3-32.44,1.94-41.7-9-10.81-12.74.21-37.88,6.4-48.27a57.09,57.09,0,0,1,21-21.4c2.81-1.6,21.8-12,43.36-4.71a54.9,54.9,0,0,1,25,18.37C1819.38,71.05,1814.58,87.19,1820,127.8Z"/><path class="cls-1" d="M1994.66,239.73c2.18,2.37,5.4,6,9.16,10.41,8,9.43,12.73,16.33,15.93,20.36a328.79,328.79,0,0,0,56.31,55.28c37.66,27.52,71.82,32.6,70.16,39.92-.79,3.47-8.58,4.44-16.62,5.28-9.85,1-30.49,1.94-65.14-10.28a281.27,281.27,0,0,1-48.86-22.92c-10.14-5.83-18.34-11.28-24.2-15.37"/><path class="cls-1" d="M1835.49,271.28c-11.67,14.17-31.41,34.13-59.67,46.81-19.45,8.73-31.94,9.08-37.59,8.93a75.79,75.79,0,0,1-29.64-7c-2-2.31-5.09-5.94-4.86-10.11.62-11.09,23.73-14.81,45.61-26.59,11.43-6.14,27-16.84,42.46-36.48"/><path class="cls-1" d="M1909.41,314.39c4.91,26.87,2.31,47.13-1.09,60.83-4.83,19.45-12.77,33.81-6.41,40.28s22.13-.1,23.1-.51c9-3.87,17.73-11.83,26.07-31,13.32-30.59,13.65-62.11,11.52-84.18"/><path d="M1748.9,74.32c-.5,3.2-4,4.79-6.48,4.73-.31,0-3.9-.14-4.88-3-.81-2.33.72-4.68,1-5,1.4-1.88,4.5-3.75,7.37-2.48A5.59,5.59,0,0,1,1748.9,74.32Z"/><path class="cls-3" d="M1711.27,99.73a23.26,23.26,0,0,0,14.78.34"/><path class="cls-1" d="M2424.82,310.66c2.93,21.56.41,37.79-2.43,48.63-4.27,16.25-10.77,26.12-6.08,31.62s17.22,3.4,25.53-1.22c10.81-6,14.88-16.79,20.67-32.83a182,182,0,0,0,9.73-42.56"/><path class="cls-1" d="M2306.87,252.29c-2.59,48.6-13.83,80.35-24.32,100.92-4.32,8.48-14.76,27.31-8.51,34.05,4.72,5.08,16.77.93,19.46,0,4.6-1.59,18.84-7.36,32.83-32.83,13.71-25,16.87-50.07,17-68.09"/><path class="cls-2" d="M2352.64,134.89c11.37,34.29,17.72,50.49,31.38,60.91,14.72,11.23,32.21,10.14,62.86,8.54s36-8.52,59.4-5.55c12.84,1.63,30.92,3.93,45,18.24,16.61,16.89,16.91,39.58,17,48.64.1,7.32.41,31.25-15.8,49.85-14.43,16.55-33.89,19.25-64.45,24.32-23.14,3.83-39.34,3-71.73,1.21-58.35-3.14-73.17-11.93-79-15.8a91.14,91.14,0,0,1-28-29.19c-5-8.64-11.74-23.92-9.72-81.46,1.64-46.87,7.41-74.33-3.17-79.08a6.92,6.92,0,0,0-1.58-.56c-5.52-1.13-10.7,2.09-11.88,2.81-7.15,4.4-31.79,8.11-42.95-1-15.3-12.47-3-47.15-2.43-48.64a57.13,57.13,0,0,1,16.65-25c2.46-2.1,19.17-15.87,41.71-12.73a55,55,0,0,1,28,13.37C2341.45,79.26,2339.75,96,2352.64,134.89Z"/><path class="cls-1" d="M2545.19,212.17c2.59,1.92,6.42,4.83,10.95,8.51,9.58,7.77,15.55,13.66,19.45,17a328.87,328.87,0,0,0,65.66,43.77c42.15,20,76.65,18.59,76.39,26.09-.13,3.56-7.6,6-15.34,8.3-9.48,2.86-29.59,7.61-65.91,2.09a282.1,282.1,0,0,1-52.29-13.37c-11-3.84-20.13-7.65-26.65-10.58"/><path class="cls-1" d="M2406.58,279c-3.17,54.3-13.62,94.36-25.54,107-11,11.71-21.88,12.16-21.88,12.16-3,.13-7.81.33-10.95-2.43-8.23-7.25,3-27.75,7.3-52.29,2.23-12.78,3.43-31.6-2.43-55.93"/><path class="cls-1" d="M2484.4,296.06c4.32,27,1.27,47.17-2.44,60.8-5.25,19.33-13.5,33.52-7.29,40.13s22.13.39,23.1,0c9.1-3.67,18-11.44,26.75-30.4,14-30.28,15-61.79,13.38-83.9"/><path d="M2272.82,95.66c.11,3.24-3,5.45-5.47,5.86-.32,0-3.86.58-5.37-2a6,6,0,0,1,0-5.08c1-2.1,3.73-4.52,6.78-3.81A5.59,5.59,0,0,1,2272.82,95.66Z"/><path class="cls-3" d="M2240.61,127.66a23.42,23.42,0,0,0,14.59-2.43"/></svg>