<svg xmlns="http://www.w3.org/2000/svg" viewBox="0 0 403.01 291.87"><defs><style>.cls-1,.cls-2{fill:#9fcea5;stroke-width:4px;}.cls-1,.cls-2,.cls-3{stroke:#000;}.cls-1,.cls-3{stroke-linecap:round;stroke-linejoin:round;}.cls-2{stroke-miterlimit:10;}.cls-3{fill:none;stroke-width:3px;}</style></defs><g id="Layer_2" data-name="Layer 2"><g id="Layer_25" data-name="Layer 25"><path class="cls-1" d="M160.18,216.38c2.41,17.74.34,31.08-2,40-3.5,13.36-8.85,21.48-5,26s14.17,2.8,21-1c8.89-4.94,12.24-13.81,17-27a149.47,149.47,0,0,0,8-35"/><path class="cls-1" d="M59.6,166.52c5.4,39.65,1.21,67-4.09,85.27-2.18,7.52-7.71,24.34-1.62,28.82,4.59,3.38,13.68-1.84,15.71-3,3.48-2,14.09-8.85,21.46-31.58C98.29,223.75,97,203,94.32,188.39"/><path class="cls-2" d="M100.82,71.83c9.35,28.2,14.58,41.52,25.81,50.09,12.11,9.24,26.49,8.34,51.7,7s29.6-7,48.85-4.57c10.56,1.34,25.42,3.23,37,15,13.66,13.89,13.9,32.56,14,40,.08,6,.34,25.71-13,41-11.87,13.62-27.87,15.84-53,20-19,3.16-32.35,2.44-59,1-48-2.59-60.17-9.81-65-13a74.76,74.76,0,0,1-23-24c-4.12-7.1-9.65-19.68-8-67,1.35-38.54,6.1-61.12-2.6-65a6.13,6.13,0,0,0-1.3-.47c-4.54-.92-8.79,1.72-9.77,2.32-5.82,3.57-25.56,7.09-34.63.36C-1.8,66.64,2.14,44.45,6.18,33.38a46.93,46.93,0,0,1,13.7-20.53c2-1.72,15.76-13,34.3-10.47a45.22,45.22,0,0,1,23,11C91.62,26.08,90.22,39.86,100.82,71.83Z"/><path class="cls-1" d="M259.18,135.38c2.13,1.59,5.28,4,9,7,7.89,6.39,12.79,11.24,16,14a270.59,270.59,0,0,0,54,36c34.66,16.44,63,15.29,62.82,21.45-.1,2.93-6.24,4.91-12.61,6.83-7.8,2.36-24.33,6.26-54.21,1.72a231.23,231.23,0,0,1-43-11c-9.09-3.15-16.55-6.29-21.92-8.7"/><path class="cls-1" d="M145.18,190.38c-2.61,44.66-11.2,77.61-21,88-9.08,9.63-18,10-18,10-2.5.11-6.42.27-9-2-6.77-6,2.48-22.82,6-43,1.84-10.51,2.83-26-2-46"/><path class="cls-1" d="M209.18,204.38c3.56,22.19,1,38.8-2,50-4.32,15.9-11.11,27.57-6,33s18.2.32,19,0c7.48-3,14.8-9.4,22-25,11.51-24.9,12.36-50.82,11-69"/><path d="M35.18,39.56c.09,2.67-2.5,4.49-4.51,4.82-.25,0-3.17.48-4.41-1.68a5,5,0,0,1,0-4.18c.85-1.73,3.07-3.72,5.57-3.13A4.59,4.59,0,0,1,35.18,39.56Z"/><path class="cls-3" d="M20.73,64.62a19.26,19.26,0,0,0-12.12,1"/></g></g></svg>