<svg xmlns="http://www.w3.org/2000/svg" viewBox="0 0 216.5 200.61"><defs><style>.cls-1,.cls-3,.cls-5{fill:#ca956d;}.cls-1,.cls-2,.cls-3,.cls-5,.cls-6{stroke:#000;}.cls-1,.cls-3,.cls-6{stroke-linecap:round;}.cls-1,.cls-2,.cls-5{stroke-miterlimit:10;}.cls-1,.cls-2,.cls-3,.cls-5{stroke-width:4px;}.cls-2{fill:#774f3d;}.cls-3,.cls-6{stroke-linejoin:round;}.cls-4{fill:#fff;}.cls-6{fill:none;stroke-width:3px;}</style></defs><g id="Layer_2" data-name="Layer 2"><g id="doggo"><g id="Layer_9" data-name="Layer 9"><path class="cls-1" d="M72.84,97.79a109.89,109.89,0,0,0-14,30,113.14,113.14,0,0,0-2,46c.72,4.09,2.11,10.2,7,15a18.38,18.38,0,0,0,9,5c1.85.39,6.7,1.4,9-1s.41-6.47-1-14a73.11,73.11,0,0,1-1-23c.3-2.59.72-4.69,1-6"/><path class="cls-1" d="M164.84,146.79a130.08,130.08,0,0,1-5,34c-1.49,5.13-3.31,10.05-8,13-4.22,2.66-10.71,3.7-13,1-2.59-3,2-8.69,4-18s.33-18.19-2-25"/><path class="cls-2" d="M209.84,70.79c-4.68-5.33-13.15-8.6-16-6-3.93,3.6,7.16,14.42,3,27-2.94,8.91-11.62,12.93-10,16,1.29,2.45,7.58,1.35,8.48,1.2,7.24-1.26,13.43-6.73,16.52-13.2C215.08,89,216.34,78.19,209.84,70.79Z"/><path class="cls-3" d="M71.84,135.79a44.36,44.36,0,0,0,12,17c9.66,8.32,20.31,9.71,33,11,12.16,1.24,30.2,3.07,50-6,8.89-4.07,19-8.69,25-20,1.16-2.17,8.62-16.71,2-31a32.11,32.11,0,0,0-13-14c-18.51-10.22-36.29,6.5-68,8-9.81.47-24.83-.34-43.7-7.73"/><path class="cls-4" d="M150.84,149.79c18.41-.43,27.35-4.83,28-3,.93,2.61-16.22,14.46-36,16a132.54,132.54,0,0,1-18,0c-11.84-.57-18.37-2-22-3a54.25,54.25,0,0,1-11-4,26.62,26.62,0,0,1-10-8c-1.49-2.06-2-3.52-2-5a7,7,0,0,1,2-5c2.56-2.24,6.79-1.15,11,0s6.13,1.68,10,4C117.17,150.4,147.37,149.87,150.84,149.79Z"/><path class="cls-1" d="M128.84,137.79a155,155,0,0,1,1,23c-.5,16.24-3.29,22.7-5,26-3.76,7.27-7.59,9.33-9,10-3.69,1.75-10.1,3-13,0-2.43-2.53-.61-6.23,1-19,0,0,1-8,1.26-15a89.11,89.11,0,0,0-2.26-23"/><path class="cls-1" d="M190.84,101.79a71.88,71.88,0,0,1,12,28c3.26,17-.74,30.29-3,38a57,57,0,0,1-8,17c-3.23,4.64-6.82,9.63-13.13,11.34-2.84.77-8.79,1.57-10.87-1.34s1.53-6.21,4-16c1.76-7,1.85-12.66,1.94-18.42a102.61,102.61,0,0,0-1-16"/><path class="cls-2" d="M53.25,56.09c-1.2,5.57-1.79,8.35-3.41,11.7-7.35,15.28-27.47,27.16-39,21-5.67-3-7.57-9.52-8-11-5.2-17.79,15.23-35.69,19-39,7.69-6.73,24.22-18.09,31-13C58.78,30.25,55.42,45.94,53.25,56.09Z"/><path class="cls-5" d="M152.84,32.79c8.65,15.91,11.65,39.92-1,57-15.79,21.32-46.13,18.55-63,17-16.58-1.51-40.58-3.71-51-22C27.82,67.2,34.59,42.1,45,27.36c.45-.64.8-1.11,1-1.35C57.54,10.68,77.43,2.57,95,2,96.77,2,135.75,1.36,152.84,32.79Z"/><path class="cls-2" d="M179.84,74.79c-.54,1.17-3.18,6.78-9,9-8.8,3.36-18.15-3.62-20-5-15-11.17-14.26-33-14-41s.52-15.69,5-18c7.39-3.8,21.21,9.13,28,18C172.34,41.05,186.81,59.94,179.84,74.79Z"/><path d="M119.9,50.29a4.87,4.87,0,0,1-.81,3.06c-2,2.92-7.54,3.09-11,.72-1.81-1.25-4.29-4.07-3.45-6.79.9-2.94,5.11-3.82,7.78-3.52C115.94,44.16,119.68,46.87,119.9,50.29Z"/><path class="cls-4" d="M119.84,28.79c0,1.55-1.55,2.71-2,3-3.5,2.32-9.92.31-11-3a3,3,0,0,1,0-2c.89-2.22,5-2.77,8-2C116.58,25.25,119.78,26.64,119.84,28.79Z"/><path class="cls-4" d="M58.84,32.79c.27-.74.94-2.63,0-4-1.19-1.73-4.24-1.54-6-1-4.3,1.33-7.38,6.76-6,9,1,1.72,4.55,1.33,6,1C53,37.75,57.46,36.68,58.84,32.79Z"/><path d="M65.84,52.79c-1.63,4-6.45,4.86-7.5,5-.51.08-6,.78-7.5-2s1.47-7.17,5-9c3.25-1.68,8.3-1.73,10,1C67.07,49.76,66,52.32,65.84,52.79Z"/><path d="M88.84,60.79c-.55,1.74-3.71,2-4,2-1.85.13-4.5-.45-5-2a1.49,1.49,0,0,1,0-1c.43-1,2.21-1,4.5-1s4.07,0,4.5,1A1.38,1.38,0,0,1,88.84,60.79Z"/><path class="cls-6" d="M90.34,75.29a9.67,9.67,0,0,1-14,0"/></g></g></g></svg>