<svg xmlns="http://www.w3.org/2000/svg" viewBox="0 0 233.85 172.85"><defs><style>.cls-1{fill:#774f3d;}.cls-1,.cls-2,.cls-3,.cls-5{stroke:#000;}.cls-1,.cls-2,.cls-3{stroke-miterlimit:10;stroke-width:4px;}.cls-2,.cls-3{fill:#ca956d;}.cls-2,.cls-5{stroke-linecap:round;}.cls-4{fill:#fff;}.cls-5{fill:none;stroke-linejoin:round;stroke-width:3px;}</style></defs><g id="Layer_2" data-name="Layer 2"><g id="doggo"><g id="Layer_13" data-name="Layer 13"><path class="cls-1" d="M191.77,5.67c-5.43-3.66-13.8-5-16-2-2.05,2.85,3.11,7.05,7,18,5.22,14.69,2.39,25.91,6.13,26.79,2,.47,4.13-2.3,6.24-5,7.48-9.58,5.74-21.12,5.63-21.79C200.29,18.76,198.91,10.48,191.77,5.67Z"/><path class="cls-2" d="M228.77,114.67c-14.05,43.84-91.18,58.35-119,30-14.11-14.38-12.47-36.67-12-43,2.15-29.14,23.54-56.39,53-64,5.75-1.48,31.33-7.26,54,9C227,62.61,235.87,92.54,228.77,114.67Z"/><path class="cls-1" d="M50.88,99.3c-.92,5.56-1.36,8.35-2.84,11.85C42.19,125,25.7,138.24,13.77,133.67c-7.91-3-10.65-12.69-11-14-4.35-16.23,10.89-31.21,15.92-36.15C26.25,76.09,42,64.31,49,69.06,55.18,73.23,52.57,89.06,50.88,99.3Z"/><path class="cls-3" d="M145.1,79.28c1,1.46,20.44,30.14,7.67,54.39-13.53,25.71-51.64,24.47-66,24-14.72-.48-45.34-1.47-56-22-8.29-16-2.22-39.34,6.37-53.67.45-.76.8-1.29.88-1.42,10.39-16.16,29.6-25.74,47-27.63C106.06,50.68,130.84,58.85,145.1,79.28Z"/><path class="cls-1" d="M174.93,121.15a19.63,19.63,0,0,1-8.39,9.57c-9.31,5.14-20-.09-21.09-.62-17.58-8.89-17-36.65-16.88-43.52.16-7.78.31-15.27,4.89-17.85,7.68-4.34,22.26,8.33,29.1,16.15C165.26,88,180.93,105.88,174.93,121.15Z"/><path class="cls-3" d="M78.77,165.67c-3.66,5.91-13,5.32-18,5-2.44-.15-19.83-1.25-23-12a14.5,14.5,0,0,1,3-13c7.63-8.95,27-7.21,35,3C79.05,152.84,82,160.42,78.77,165.67Z"/><path class="cls-2" d="M139.77,151.67a63.4,63.4,0,0,0-17-7c-5.36-1.33-13.4-3.24-23-1-5.19,1.21-11.13,2.6-15,8-3.13,4.38-5.21,11.81-2,16,2.24,2.92,7.86,3,19,3a155.76,155.76,0,0,0,18-1c5.73-.66,11.42-1.59,18-3a294.55,294.55,0,0,0,38-11"/><path class="cls-2" d="M198.77,122.67a84.38,84.38,0,0,0-13,8c-5.87,4.39-9,6.7-11,11-2.18,4.6-3.77,12.74,0,17,6,6.83,22.93.45,31-4,2.16-1.19,18.73-10.64,24-29,2.37-8.26,2.15-17.26,2-23a102.86,102.86,0,0,0-1-12"/><path class="cls-4" d="M53.14,87.53c.65,2.09-3.26,5.71-7,6a4.31,4.31,0,0,1-3.37-.86,3.5,3.5,0,0,1-1.11-2.86c.24-2.37,3.36-3.89,5.7-4.18C49.5,85.36,52.63,85.91,53.14,87.53Z"/><path class="cls-4" d="M113.48,86.87a4.52,4.52,0,0,1-2.4,3.78c-3.86,2.21-10.62-1.33-10.64-4.11,0-2,3.57-4.29,6.86-4.12C110,82.55,113.35,84.37,113.48,86.87Z"/><path class="cls-5" d="M46.27,104.17a23.93,23.93,0,0,1,15-2"/><path class="cls-5" d="M98.27,101.17a32.78,32.78,0,0,1,8-1,32.41,32.41,0,0,1,8,1"/><path d="M83.36,111.46c-.56,1.74-3.72,2-4,2-1.86.11-4.5-.48-5-2a1.45,1.45,0,0,1,0-1c.44-1,2.21-1,4.51-1s4.07,0,4.49,1A1.42,1.42,0,0,1,83.36,111.46Z"/><path class="cls-5" d="M88.27,125.17a17.8,17.8,0,0,1-9,2,17.53,17.53,0,0,1-5-1"/></g></g></g></svg>