<svg xmlns="http://www.w3.org/2000/svg" viewBox="0 0 218.78 199.76"><defs><style>.cls-1,.cls-3,.cls-5{fill:#ca956d;}.cls-1,.cls-2,.cls-3,.cls-5,.cls-6,.cls-7{stroke:#000;}.cls-1,.cls-3,.cls-6,.cls-7{stroke-linecap:round;}.cls-1,.cls-2,.cls-5{stroke-miterlimit:10;}.cls-1,.cls-2,.cls-3,.cls-5{stroke-width:4px;}.cls-2{fill:#774f3d;}.cls-3,.cls-6,.cls-7{stroke-linejoin:round;}.cls-4{fill:#fff;}.cls-6{fill:none;stroke-width:3px;}.cls-7{fill:#ffb3a4;stroke-width:2px;}</style></defs><g id="Layer_2" data-name="Layer 2"><g id="doggo"><g id="Layer_12" data-name="Layer 12"><path class="cls-1" d="M78.84,97a49.35,49.35,0,0,0-7,7c-9.14,11.28-10.5,23.59-12,39-2,20.91,1.4,31.69,3,36s3.82,8.65,8,12c5.6,4.5,14.62,7.26,18,4,3.09-3-.06-9.42-2-18-1.89-8.39-3.12-21,1-38"/><path class="cls-1" d="M160.84,148a185,185,0,0,1-8,29c-2.74,7.5-5,12-9.71,14.78-4.16,2.42-10.6,3.7-13,1-2.6-2.91,1.19-8.58,3.71-18.78a73.5,73.5,0,0,0,2-22"/><path class="cls-2" d="M212.13,72.79c-4.68-5.33-13.15-8.6-16-6-3.94,3.6,7.16,14.42,3,27-2.95,8.91-11.62,12.93-10,16,1.29,2.45,7.57,1.35,8.48,1.2,7.24-1.26,13.43-6.73,16.52-13.2C217.37,91,218.62,80.19,212.13,72.79Z"/><path class="cls-3" d="M75.84,144a68.11,68.11,0,0,0,11,9c11.68,7.66,22.67,9.65,29.29,10.78,8.83,1.51,28.4,4.56,49.71-4.78a76.27,76.27,0,0,0,25.29-18.19c7.92-8.2,9.43-13.1,10-16a27.44,27.44,0,0,0-2-16,26.82,26.82,0,0,0-5.29-7.81c-1.6-1.62-6.67-6.28-17-8-20.17-3.35-41.32,7.7-64.71,7.78-8.64,0-21.37-1.42-37-9"/><path class="cls-4" d="M150.13,149.79c17.9-.22,28.94-4.95,29.71-2.78s-9.25,8.32-19,12c-18,6.8-33.83,4.65-45,3,0,0-22.28-3.28-32-14-.85-.94-3-3.26-2.71-6.19A7,7,0,0,1,83.84,137c4.34-3.14,13,2.1,18.29,4.78C118.78,150.18,135.75,150,150.13,149.79Z"/><path class="cls-1" d="M132.84,143a62.47,62.47,0,0,1-4,13,66.52,66.52,0,0,1-16,22c-5.62,4.78-10.69,9.08-18,9-.79,0-10.12-.2-12-5-2.23-5.73,8.71-11.52,16-26a58.72,58.72,0,0,0,6-22"/><path class="cls-1" d="M193.84,101a40.27,40.27,0,0,1,9,12c1.16,2.38,3,6.85,4,16,.43,4.08,1.37,18.74-3.71,37.78A60.78,60.78,0,0,1,195.84,184c-3,4.76-6.07,9.55-12,12-3.73,1.55-10.63,3-13,0-2.23-2.82,1.76-6.82,4.29-18.22A83.77,83.77,0,0,0,176.84,159a111,111,0,0,0-1-16"/><path class="cls-2" d="M52.46,53.05c-.92,5.61-1.38,8.42-2.84,11.85C43,80.5,23.47,93.33,11.66,87.73c-5.8-2.76-8-9.15-8.51-10.61-6-17.53,13.51-36.37,17.12-39.86C27.63,30.17,43.6,18,50.62,22.8,56.76,27,54.15,42.8,52.46,53.05Z"/><path class="cls-5" d="M152.13,32.79c8.65,15.91,11.65,39.92-1,57-15.8,21.32-46.14,18.55-63,17-16.58-1.51-40.58-3.71-51-22-10-17.59-3.26-42.69,7.13-57.43.45-.64.81-1.11,1-1.35,11.58-15.33,31.46-23.44,49-24C96.06,2,135,1.36,152.13,32.79Z"/><path class="cls-2" d="M178.72,77.16A19.73,19.73,0,0,1,169.56,86c-10,4.47-20.46-2-21-2.36-14.41-9.22-13-32.21-12.21-44.25.56-8.83,1-15.77,5.33-17.9,7.45-3.67,21,9.51,27.67,18.5C171.82,43.29,186,62.44,178.72,77.16Z"/><path d="M124.19,50.36a4.84,4.84,0,0,1-.42,3.13c-1.67,3.15-7.12,4-10.81,2-1.94-1-4.75-3.52-4.25-6.32.55-3,4.61-4.41,7.31-4.43C119.52,44.75,123.56,47,124.19,50.36Z"/><path class="cls-4" d="M121.13,31.79c0,1.55-1.56,2.71-2,3-3.5,2.32-9.92.31-11-3a2.9,2.9,0,0,1,0-2c.89-2.22,5-2.77,8-2C117.86,28.25,121.07,29.64,121.13,31.79Z"/><path class="cls-4" d="M62.13,33.79c.26-.74.94-2.63,0-4-1.19-1.73-4.24-1.54-6-1-4.31,1.33-7.38,6.76-6,9,1,1.72,4.55,1.33,6,1C56.31,38.75,60.74,37.68,62.13,33.79Z"/><path d="M68.13,53.79c-1.63,4-6.46,4.86-7.5,5-.52.08-6,.78-7.5-2s1.47-7.17,5-9c3.25-1.68,8.29-1.73,10,1C69.36,50.76,68.32,53.32,68.13,53.79Z"/><path d="M90.13,61.79c-.55,1.74-3.72,2-4,2-1.86.13-4.51-.45-5-2a1.37,1.37,0,0,1,0-1c.43-1,2.21-1,4.5-1s4.07,0,4.5,1A1.44,1.44,0,0,1,90.13,61.79Z"/><path class="cls-6" d="M92.63,74.29a9.67,9.67,0,0,1-14,0"/><path class="cls-7" d="M92.35,80.3a4.31,4.31,0,0,1-3.29,3.29c-3.22.49-6-4.23-5.22-5.58.39-.67,1.43-.11,4-1,1.86-.64,2.25-1.24,3-1C92.06,76.41,92.75,78.56,92.35,80.3Z"/></g></g></g></svg>