<svg xmlns="http://www.w3.org/2000/svg" viewBox="0 0 173.35 203.06"><defs><style>.cls-1{fill:#774f3d;}.cls-1,.cls-2,.cls-4,.cls-5{stroke:#000;}.cls-1,.cls-2,.cls-4{stroke-miterlimit:10;stroke-width:4px;}.cls-2,.cls-4{fill:#ca956d;}.cls-3{fill:#fff;}.cls-4,.cls-5{stroke-linecap:round;}.cls-5{fill:none;stroke-linejoin:round;stroke-width:3px;}</style></defs><g id="Layer_2" data-name="Layer 2"><g id="doggo"><g id="dog"><path class="cls-1" d="M170.33,134c-2-5.84-7-11.94-10-11s-.79,7.77-4,18c-4.66,14.87-16.19,21.88-14,25,1.12,1.6,4.83.74,8,0a27.19,27.19,0,0,0,18-14C169.3,150.11,173.15,142.48,170.33,134Z"/><path class="cls-2" d="M144.33,184c-3.24,3.72-6.75,5.45-10,7-16.24,7.78-26,.92-51,1-23.56.08-39.86,6.23-50-2a28.09,28.09,0,0,1-6-7c-3.27-5.72-3.61-11.86-3-18,1.37-13.63,6.84-20.87,19-46,7.41-15.3,8.92-19.94,15-23,4.34-2.18,6.45-1.27,22-1,24.17.42,27.29-1.63,34,2,4,2.18,7.73,7.15,15,17,9.74,13.2,14.61,19.8,17,26C147.68,143.53,157.22,169.22,144.33,184Z"/><path class="cls-2" d="M148.33,192c-1.15,5.51-10.64,9.2-18,7-3.44-1-8.88-4.07-9-8.5-.13-5,6.55-8.7,11.5-9.5,5.2-.83,11.88,1,14.5,6A7.43,7.43,0,0,1,148.33,192Z"/><path class="cls-3" d="M121.33,170c1.88,7.49-.48,17.56-7,22-7.28,5-13.13-1.61-32-1-15.42.5-20.4,5.18-27,1-5.79-3.66-8.72-11.55-8-18,1.58-14.07,20.86-23.25,36-24C97.31,149.35,117.64,155.36,121.33,170Z"/><path class="cls-4" d="M49.33,149a101.63,101.63,0,0,0,4,29c3.1,10.78,4.85,16.54,10.2,20.25a13.71,13.71,0,0,0,8.8,2.75c.69,0,6-.47,8-4,1.6-2.8,0-5.55-2-12-2.15-7-2.87-12.44-4-21a118.91,118.91,0,0,1-1-14"/><path class="cls-4" d="M116.33,148c.08,2.3.12,5.38,0,9a150.36,150.36,0,0,1-2,19c-2.73,17.59-4.73,19.84-6,21a14.16,14.16,0,0,1-10.07,3.76c-1-.06-6.07-.54-8-4-1.67-3,.43-5.76,2-12,1.23-4.85,1.18-9.82,1.07-19.76a152.61,152.61,0,0,0-1-16"/><path class="cls-2" d="M46.33,191c-.82,4.71-8.8,7.58-15,7-5.37-.49-12.77-3.89-13-9s6.83-9.8,13-10C39.22,178.78,47.25,185.8,46.33,191Z"/><path class="cls-1" d="M54.9,56c-1.64,6.09-5,16.39-14.57,25-3.8,3.44-15.23,13.78-26,10C6.38,88.25,3.27,79.33,3,78.63-2.09,63.19,13,46.3,21.29,36.9c6.27-7.12,22.69-25.8,32-21.48S57.69,45.64,54.9,56Z"/><path class="cls-2" d="M149.33,44c3.88,16.1-.82,35-13,47-14.4,14.16-33.75,13.18-57,12-23.42-1.18-40.24-2-50-15-12.24-16.26-7.67-44,4-60.65.24-.35.58-.8,1-1.35,16.79-22.49,44.6-23.85,49-24C108.1,1.22,142.27,14.71,149.33,44Z"/><path class="cls-1" d="M168.33,76c-.93,2.65-3.36,9.29-10,13-7.89,4.42-17.74,2.48-24-2-4.45-3.18-7.37-7.87-10-17-3.51-12.22-10.16-45.17,2-51,9.54-4.56,26.12,9.72,34,21C162.65,43.35,174.06,59.68,168.33,76Z"/><path d="M54.33,50c.56,2.46-2.83,5.26-5.74,6.26-3.72,1.29-8.66.31-9.27-1.85s3.27-4.88,4-5.41c1.27-.88,3.88-2.72,7-2C50.62,47.1,53.85,47.9,54.33,50Z"/><path d="M104.33,56c-1,2-5.29,1.81-8,1-1-.3-5.72-1.7-6-5a4.65,4.65,0,0,1,2-4c2-1.4,4.48-.53,6,0a9.42,9.42,0,0,1,5,4C104,53.13,104.94,54.77,104.33,56Z"/><path d="M77.33,60c0,1-3.21,2.13-6,2-2.25-.1-5-1-5-2s2.75-1.89,5-2C74.12,57.91,77.33,59,77.33,60Z"/><path class="cls-5" d="M64.33,76a10.21,10.21,0,0,1,7-3,10.45,10.45,0,0,1,8,4"/><path class="cls-3" d="M49.33,29c1.22,2-.87,6-4,7-2.19.67-5.23-.06-6-2-.86-2.18,1.52-5,4-6C45.35,27.26,48.35,27.39,49.33,29Z"/><path class="cls-3" d="M108.33,34a4.47,4.47,0,0,1-4,2c-4.44-.09-8.41-6.6-7-9,1-1.75,5.26-1.83,8,0C107.59,28.55,109.51,31.82,108.33,34Z"/></g></g></g></svg>