<svg id="Layer_1" data-name="Layer 1" xmlns="http://www.w3.org/2000/svg" viewBox="0 0 4320 210"><defs><style>.cls-1,.cls-3,.cls-5{fill:#ca956d;}.cls-1,.cls-2,.cls-3,.cls-5,.cls-6,.cls-7{stroke:#000;}.cls-1,.cls-3,.cls-6,.cls-7{stroke-linecap:round;}.cls-1,.cls-2,.cls-5{stroke-miterlimit:10;}.cls-1,.cls-2,.cls-3,.cls-5{stroke-width:4px;}.cls-2{fill:#774f3d;}.cls-3,.cls-6,.cls-7{stroke-linejoin:round;}.cls-4{fill:#fff;}.cls-6{fill:none;stroke-width:3px;}.cls-7{fill:#ffb3a4;stroke-width:2px;}</style></defs><path class="cls-1" d="M3512.41,101.41c.85,2.14,2.18,5.29,4,9,9.21,18.82,21,32.22,26,37,13.74,13.24,20.25,16.74,19,21-1.32,4.49-10.2,6.29-16,6-4.73-.23-7.95-1.88-14-5a79.7,79.7,0,0,1-16-11,84.32,84.32,0,0,1-12-13"/><path class="cls-1" d="M3425.41,151.39a130.08,130.08,0,0,0,5,34c1.49,5.13,3.31,10.05,8,13,4.22,2.66,10.71,3.7,13,1,2.59-3-2-8.69-4-18s-.33-18.19,2-25"/><path class="cls-2" d="M3378.41,75.39c4.68-5.33,13.14-8.6,16-6,3.93,3.6-7.16,14.42-3,27,2.94,8.91,11.62,12.93,10,16-1.3,2.45-7.58,1.35-8.48,1.2-7.24-1.26-13.43-6.73-16.52-13.2C3373.17,93.62,3371.91,82.79,3378.41,75.39Z"/><path class="cls-3" d="M3512.41,138.41c-.79,4.81-2.85,12.58-9,19-8,8.32-18.13,9.53-32,11-10.5,1.1-29.13,2.89-50-6a78.12,78.12,0,0,1-25-17c-8.22-8.37-9.58-13.79-10-16a27.62,27.62,0,0,1,21-32c17.13-4.51,43.46,7.86,68,8,8.63,0,21.36-1.38,37-9"/><path class="cls-4" d="M3437.41,154.39c-18.61-.08-28.34-4.88-29-3-.91,2.62,16.78,14,37,16a121.51,121.51,0,0,0,18,0,118.53,118.53,0,0,0,22-3,37.09,37.09,0,0,0,11-4,21.93,21.93,0,0,0,7-6c1.38-1.9,3.27-4.49,3-8,0-.58-.34-3.54-2-5-3.68-3.21-12.84,1.93-19,5C3469,154.53,3452.78,154.46,3437.41,154.39Z"/><path class="cls-1" d="M3452.41,146.41a136.13,136.13,0,0,0,2,19c2.76,15.63,6.89,23.08,8,25,4.78,8.32,8.77,10.4,10,11,4.46,2.13,11.51,3.16,14,0,2.13-2.69-.73-6.38-3-17-1.2-5.55-1.47-9.47-2-17a164.19,164.19,0,0,1,0-23"/><path class="cls-1" d="M3393.41,105.39a71.88,71.88,0,0,0-12,28c-3.26,17,.74,30.29,3,38a57,57,0,0,0,8,17c3.23,4.64,6.82,9.63,13.13,11.34,2.84.77,8.79,1.57,10.87-1.34s-1.54-6.21-4-16c-1.76-7-1.85-12.66-1.94-18.42a102.61,102.61,0,0,1,1-16"/><path class="cls-2" d="M3535,54.69c1.2,5.57,1.79,8.35,3.41,11.7,7.35,15.28,27.47,27.16,39,21,5.67-3,7.57-9.52,8-11,5.2-17.79-15.23-35.69-19-39-7.69-6.73-24.22-18.09-31-13C3529.47,28.85,3532.83,44.54,3535,54.69Z"/><path class="cls-5" d="M3435.41,37.39c-8.65,15.91-11.66,39.92,1,57,15.79,21.32,46.13,18.55,63,17,16.58-1.51,40.58-3.71,51-22,10-17.59,3.25-42.69-7.14-57.43-.45-.64-.8-1.11-1-1.35-11.58-15.33-31.47-23.44-49-24C3491.48,6.55,3452.5,6,3435.41,37.39Z"/><path class="cls-2" d="M3407.78,78.8a19.72,19.72,0,0,0,8.74,9.25c9.74,4.93,20.53-1.09,21.05-1.38,14.81-8.55,14.44-31.58,14.24-43.64-.15-8.85-.26-15.8-4.49-18.13-7.27-4-21.45,8.52-28.5,17.2C3416.24,45.28,3401.23,63.76,3407.78,78.8Z"/><path d="M3465.34,53a4.87,4.87,0,0,0,.43,3.13c1.66,3.15,7.12,4,10.81,2,1.94-1,4.75-3.52,4.24-6.32-.54-3-4.61-4.41-7.3-4.43C3470,47.35,3466,49.59,3465.34,53Z"/><path class="cls-4" d="M3467.41,33.39c0,1.55,1.55,2.71,2,3,3.5,2.32,9.92.31,11-3a3,3,0,0,0,0-2c-.89-2.22-5-2.77-8-2C3470.67,29.85,3467.47,31.24,3467.41,33.39Z"/><path class="cls-4" d="M3526.41,36.39c-.27-.74-.94-2.63,0-4,1.19-1.73,4.24-1.54,6-1,4.3,1.33,7.38,6.76,6,9-1.06,1.72-4.55,1.33-6,1C3532.22,41.35,3527.79,40.28,3526.41,36.39Z"/><path d="M3520.41,56.39c1.63,4,6.45,4.86,7.5,5,.51.08,6,.78,7.5-2s-1.48-7.17-5-9c-3.25-1.68-8.3-1.73-10,1C3519.18,53.36,3520.22,55.92,3520.41,56.39Z"/><path d="M3499.41,65.39c.55,1.74,3.71,2,4,2,1.85.13,4.5-.45,5-2a1.49,1.49,0,0,0,0-1c-.43-1-2.21-1-4.5-1s-4.07,0-4.5,1A1.38,1.38,0,0,0,3499.41,65.39Z"/><path class="cls-6" d="M3495.91,79.89a9.67,9.67,0,0,0,14,0"/><path class="cls-1" d="M3750.55,102.13a48.83,48.83,0,0,1,7,7c9.14,11.28,10.5,23.59,12,39,2,20.91-1.39,31.69-3,36s-3.82,8.65-8,12c-5.6,4.5-14.61,7.26-18,4-3.09-3,.06-9.42,2-18,1.9-8.39,3.13-21-1-38"/><path class="cls-1" d="M3668.55,153.13a185,185,0,0,0,8,29c2.74,7.5,5,12,9.71,14.78,4.16,2.42,10.6,3.7,13,1,2.6-2.91-1.19-8.58-3.71-18.78a73.5,73.5,0,0,1-2-22"/><path class="cls-2" d="M3617.26,77.91c4.69-5.33,13.15-8.6,16-6,3.94,3.6-7.15,14.42-3,27,2.95,8.91,11.63,12.93,10,16-1.29,2.45-7.57,1.35-8.47,1.2-7.25-1.26-13.43-6.73-16.53-13.2C3612,96.14,3610.77,85.31,3617.26,77.91Z"/><path class="cls-3" d="M3753.55,149.13a68.11,68.11,0,0,1-11,9c-11.68,7.66-22.67,9.65-29.29,10.78-8.83,1.51-28.39,4.56-49.71-4.78a76.23,76.23,0,0,1-25.29-18.2c-7.92-8.19-9.43-13.09-10-16a27.47,27.47,0,0,1,2-16,26.88,26.88,0,0,1,5.29-7.8c1.6-1.62,6.67-6.28,17-8,20.17-3.35,41.33,7.7,64.71,7.78,8.64,0,21.38-1.42,37-9"/><path class="cls-4" d="M3679.26,154.91c-17.9-.22-28.94-4.95-29.71-2.78s9.25,8.32,19,12c18,6.8,33.83,4.65,45,3,0,0,22.29-3.28,32-14,.85-.94,2.95-3.26,2.71-6.2a7,7,0,0,0-2.71-4.8c-4.34-3.14-13,2.1-18.29,4.78C3710.62,155.3,3693.64,155.09,3679.26,154.91Z"/><path class="cls-1" d="M3696.55,148.13a62.47,62.47,0,0,0,4,13,66.52,66.52,0,0,0,16,22c5.62,4.78,10.69,9.08,18,9,.8,0,10.12-.2,12-5,2.23-5.73-8.71-11.52-16-26a58.72,58.72,0,0,1-6-22"/><path class="cls-1" d="M3635.55,106.13a40.27,40.27,0,0,0-9,12c-1.16,2.38-3,6.85-4,16-.43,4.08-1.37,18.74,3.71,37.78a61.08,61.08,0,0,0,7.29,17.22c3,4.76,6.08,9.55,12,12,3.73,1.55,10.63,3,13,0,2.23-2.82-1.76-6.82-4.29-18.22a83.77,83.77,0,0,1-1.71-18.78,111,111,0,0,1,1-16"/><path class="cls-2" d="M3776.93,58.17c.92,5.61,1.39,8.42,2.84,11.85,6.62,15.6,26.15,28.43,38,22.83,5.81-2.76,8-9.15,8.51-10.61,6-17.53-13.51-36.37-17.12-39.86-7.36-7.09-23.33-19.22-30.35-14.46C3772.63,32.09,3775.24,47.92,3776.93,58.17Z"/><path class="cls-5" d="M3677.26,37.91c-8.65,15.91-11.65,39.92,1,57,15.8,21.32,46.14,18.55,63,17,16.58-1.52,40.59-3.71,51-22,10-17.59,3.26-42.69-7.13-57.43-.45-.64-.8-1.11-1-1.35-11.59-15.33-31.47-23.44-49-24C3733.34,7.07,3694.36,6.48,3677.26,37.91Z"/><path class="cls-2" d="M3650.67,82.28a19.78,19.78,0,0,0,9.17,8.84c9.95,4.47,20.45-2,21-2.36,14.4-9.22,13-32.21,12.2-44.25-.56-8.83-1-15.77-5.33-17.9-7.45-3.67-21,9.51-27.67,18.5C3657.57,48.41,3643.44,67.56,3650.67,82.28Z"/><path d="M3705.2,55.48a4.8,4.8,0,0,0,.43,3.13c1.66,3.15,7.12,4,10.81,2,1.94-1,4.75-3.52,4.24-6.32-.55-3-4.61-4.41-7.31-4.43C3709.87,49.87,3705.83,52.11,3705.2,55.48Z"/><path class="cls-4" d="M3708.26,36.91c0,1.55,1.56,2.71,2,3,3.5,2.32,9.93.3,11-3a2.9,2.9,0,0,0,0-2c-.89-2.22-5-2.77-8-2C3711.53,33.36,3708.32,34.76,3708.26,36.91Z"/><path class="cls-4" d="M3767.26,38.91c-.26-.74-.93-2.63,0-4,1.2-1.73,4.24-1.54,6-1,4.31,1.33,7.38,6.76,6,9-1.05,1.71-4.54,1.33-6,1C3773.08,43.87,3768.65,42.8,3767.26,38.91Z"/><path d="M3761.26,58.91c1.63,4,6.46,4.86,7.5,5,.52.07,6,.78,7.5-2s-1.47-7.17-5-9c-3.24-1.68-8.29-1.73-10,1C3760,55.88,3761.07,58.44,3761.26,58.91Z"/><path d="M3739.26,66.91c.55,1.74,3.72,2,4,2,1.86.13,4.51-.45,5-2a1.38,1.38,0,0,0,0-1c-.43-1-2.2-1-4.5-1s-4.07,0-4.5,1A1.5,1.5,0,0,0,3739.26,66.91Z"/><path class="cls-6" d="M3736.76,79.41a9.67,9.67,0,0,0,14,0"/><path class="cls-7" d="M3737,85.42a4.31,4.31,0,0,0,3.29,3.29c3.22.49,6-4.23,5.22-5.58-.38-.67-1.43-.11-4-1-1.86-.64-2.25-1.24-3-1C3737.33,81.53,3736.64,83.68,3737,85.42Z"/><path class="cls-1" d="M3992.41,101.41c.85,2.14,2.18,5.29,4,9,9.21,18.82,21,32.22,26,37,13.74,13.24,20.25,16.74,19,21-1.32,4.49-10.2,6.29-16,6-4.73-.23-7.95-1.88-14-5a79.7,79.7,0,0,1-16-11,84.32,84.32,0,0,1-12-13"/><path class="cls-1" d="M3905.41,151.39a130.08,130.08,0,0,0,5,34c1.49,5.13,3.31,10.05,8,13,4.22,2.66,10.71,3.7,13,1,2.59-3-2-8.69-4-18s-.33-18.19,2-25"/><path class="cls-2" d="M3858.41,75.39c4.68-5.33,13.14-8.6,16-6,3.93,3.6-7.16,14.42-3,27,2.94,8.91,11.62,12.93,10,16-1.3,2.45-7.58,1.35-8.48,1.2-7.24-1.26-13.43-6.73-16.52-13.2C3853.17,93.62,3851.91,82.79,3858.41,75.39Z"/><path class="cls-3" d="M3992.41,138.41c-.79,4.81-2.85,12.58-9,19-8,8.32-18.13,9.53-32,11-10.5,1.1-29.13,2.89-50-6a78.12,78.12,0,0,1-25-17c-8.22-8.37-9.58-13.79-10-16a27.62,27.62,0,0,1,21-32c17.13-4.51,43.46,7.86,68,8,8.63,0,21.36-1.38,37-9"/><path class="cls-4" d="M3917.41,154.39c-18.61-.08-28.34-4.88-29-3-.91,2.62,16.78,14,37,16a121.51,121.51,0,0,0,18,0,118.53,118.53,0,0,0,22-3,37.09,37.09,0,0,0,11-4,21.93,21.93,0,0,0,7-6c1.38-1.9,3.27-4.49,3-8,0-.58-.34-3.54-2-5-3.68-3.21-12.84,1.93-19,5C3949,154.53,3932.78,154.46,3917.41,154.39Z"/><path class="cls-1" d="M3932.41,146.41a136.13,136.13,0,0,0,2,19c2.76,15.63,6.89,23.08,8,25,4.78,8.32,8.77,10.4,10,11,4.46,2.13,11.51,3.16,14,0,2.13-2.69-.73-6.38-3-17-1.2-5.55-1.47-9.47-2-17a164.19,164.19,0,0,1,0-23"/><path class="cls-1" d="M3873.41,105.39a71.88,71.88,0,0,0-12,28c-3.26,17,.74,30.29,3,38a57,57,0,0,0,8,17c3.23,4.64,6.82,9.63,13.13,11.34,2.84.77,8.79,1.57,10.87-1.34s-1.54-6.21-4-16c-1.76-7-1.85-12.66-1.94-18.42a102.61,102.61,0,0,1,1-16"/><path class="cls-2" d="M4015,54.69c1.2,5.57,1.79,8.35,3.41,11.7,7.35,15.28,27.47,27.16,39,21,5.67-3,7.57-9.52,8-11,5.2-17.79-15.23-35.69-19-39-7.69-6.73-24.22-18.09-31-13C4009.47,28.85,4012.83,44.54,4015,54.69Z"/><path class="cls-5" d="M3915.41,37.39c-8.65,15.91-11.66,39.92,1,57,15.79,21.32,46.13,18.55,63,17,16.58-1.51,40.58-3.71,51-22,10-17.59,3.25-42.69-7.14-57.43-.45-.64-.8-1.11-1-1.35-11.58-15.33-31.47-23.44-49-24C3971.48,6.55,3932.5,6,3915.41,37.39Z"/><path class="cls-2" d="M3887.78,78.8a19.72,19.72,0,0,0,8.74,9.25c9.74,4.93,20.53-1.09,21.05-1.38,14.81-8.55,14.44-31.58,14.24-43.64-.15-8.85-.26-15.8-4.49-18.13-7.27-4-21.45,8.52-28.5,17.2C3896.24,45.28,3881.23,63.76,3887.78,78.8Z"/><path d="M3945.34,53a4.87,4.87,0,0,0,.43,3.13c1.66,3.15,7.12,4,10.81,2,1.94-1,4.75-3.52,4.24-6.32-.54-3-4.61-4.41-7.3-4.43C3950,47.35,3946,49.59,3945.34,53Z"/><path class="cls-4" d="M3947.41,33.39c0,1.55,1.55,2.71,2,3,3.5,2.32,9.92.31,11-3a3,3,0,0,0,0-2c-.89-2.22-5-2.77-8-2C3950.67,29.85,3947.47,31.24,3947.41,33.39Z"/><path class="cls-4" d="M4006.41,36.39c-.27-.74-.94-2.63,0-4,1.19-1.73,4.24-1.54,6-1,4.3,1.33,7.38,6.76,6,9-1.06,1.72-4.55,1.33-6,1C4012.22,41.35,4007.79,40.28,4006.41,36.39Z"/><path d="M4000.41,56.39c1.63,4,6.45,4.86,7.5,5,.51.08,6,.78,7.5-2s-1.48-7.17-5-9c-3.25-1.68-8.3-1.73-10,1C3999.18,53.36,4000.22,55.92,4000.41,56.39Z"/><path d="M3979.41,65.39c.55,1.74,3.71,2,4,2,1.85.13,4.5-.45,5-2a1.49,1.49,0,0,0,0-1c-.43-1-2.21-1-4.5-1s-4.07,0-4.5,1A1.38,1.38,0,0,0,3979.41,65.39Z"/><path class="cls-6" d="M3975.91,79.89a9.67,9.67,0,0,0,14,0"/><path class="cls-1" d="M4230.55,102.13a48.83,48.83,0,0,1,7,7c9.14,11.28,10.5,23.59,12,39,2,20.91-1.39,31.69-3,36s-3.82,8.65-8,12c-5.6,4.5-14.61,7.26-18,4-3.09-3,.06-9.42,2-18,1.9-8.39,3.13-21-1-38"/><path class="cls-1" d="M4148.55,153.13a185,185,0,0,0,8,29c2.74,7.5,5,12,9.71,14.78,4.16,2.42,10.6,3.7,13,1,2.6-2.91-1.19-8.58-3.71-18.78a73.5,73.5,0,0,1-2-22"/><path class="cls-2" d="M4097.26,77.91c4.69-5.33,13.15-8.6,16-6,3.94,3.6-7.15,14.42-3,27,2.95,8.91,11.63,12.93,10,16-1.29,2.45-7.57,1.35-8.47,1.2-7.25-1.26-13.43-6.73-16.53-13.2C4092,96.14,4090.77,85.31,4097.26,77.91Z"/><path class="cls-3" d="M4233.55,149.13a68.11,68.11,0,0,1-11,9c-11.68,7.66-22.67,9.65-29.29,10.78-8.83,1.51-28.39,4.56-49.71-4.78a76.23,76.23,0,0,1-25.29-18.2c-7.92-8.19-9.43-13.09-10-16a27.47,27.47,0,0,1,2-16,26.88,26.88,0,0,1,5.29-7.8c1.6-1.62,6.67-6.28,17-8,20.17-3.35,41.33,7.7,64.71,7.78,8.64,0,21.38-1.42,37-9"/><path class="cls-4" d="M4159.26,154.91c-17.9-.22-28.94-4.95-29.71-2.78s9.25,8.32,19,12c18,6.8,33.83,4.65,45,3,0,0,22.29-3.28,32-14,.85-.94,2.95-3.26,2.71-6.2a7,7,0,0,0-2.71-4.8c-4.34-3.14-12.95,2.1-18.29,4.78C4190.62,155.3,4173.64,155.09,4159.26,154.91Z"/><path class="cls-1" d="M4176.55,148.13a62.47,62.47,0,0,0,4,13,66.52,66.52,0,0,0,16,22c5.62,4.78,10.69,9.08,18,9,.8,0,10.12-.2,12-5,2.23-5.73-8.71-11.52-16-26a58.72,58.72,0,0,1-6-22"/><path class="cls-1" d="M4115.55,106.13a40.27,40.27,0,0,0-9,12c-1.16,2.38-3,6.85-4,16-.43,4.08-1.37,18.74,3.71,37.78a61.08,61.08,0,0,0,7.29,17.22c3,4.76,6.08,9.55,12,12,3.73,1.55,10.63,3,13,0,2.23-2.82-1.76-6.82-4.29-18.22a83.77,83.77,0,0,1-1.71-18.78,111,111,0,0,1,1-16"/><path class="cls-2" d="M4256.93,58.17c.92,5.61,1.39,8.42,2.84,11.85,6.62,15.6,26.15,28.43,38,22.83,5.81-2.76,8-9.15,8.51-10.61,6-17.53-13.51-36.37-17.12-39.86-7.36-7.09-23.33-19.22-30.35-14.46C4252.63,32.09,4255.24,47.92,4256.93,58.17Z"/><path class="cls-5" d="M4157.26,37.91c-8.65,15.91-11.65,39.92,1,57,15.8,21.32,46.14,18.55,63,17,16.58-1.52,40.59-3.71,51-22,10-17.59,3.26-42.69-7.13-57.43-.45-.64-.8-1.11-1-1.35-11.59-15.33-31.47-23.44-49-24C4213.34,7.07,4174.36,6.48,4157.26,37.91Z"/><path class="cls-2" d="M4130.67,82.28a19.78,19.78,0,0,0,9.17,8.84c9.95,4.47,20.45-2,21-2.36,14.4-9.22,13-32.21,12.2-44.25-.56-8.83-1-15.77-5.33-17.9-7.45-3.67-21,9.51-27.67,18.5C4137.57,48.41,4123.44,67.56,4130.67,82.28Z"/><path d="M4185.2,55.48a4.8,4.8,0,0,0,.43,3.13c1.66,3.15,7.12,4,10.81,2,1.94-1,4.75-3.52,4.24-6.32-.55-3-4.61-4.41-7.31-4.43C4189.87,49.87,4185.83,52.11,4185.2,55.48Z"/><path class="cls-4" d="M4188.26,36.91c0,1.55,1.56,2.71,2,3,3.5,2.32,9.93.3,11-3a2.9,2.9,0,0,0,0-2c-.89-2.22-5-2.77-8-2C4191.53,33.36,4188.32,34.76,4188.26,36.91Z"/><path class="cls-4" d="M4247.26,38.91c-.26-.74-.93-2.63,0-4,1.2-1.73,4.24-1.54,6-1,4.31,1.33,7.38,6.76,6,9-1.05,1.71-4.54,1.33-6,1C4253.08,43.87,4248.65,42.8,4247.26,38.91Z"/><path d="M4241.26,58.91c1.63,4,6.46,4.86,7.5,5,.52.07,6,.78,7.5-2s-1.47-7.17-5-9c-3.24-1.68-8.29-1.73-10,1C4240,55.88,4241.07,58.44,4241.26,58.91Z"/><path d="M4219.26,66.91c.55,1.74,3.72,2,4,2,1.86.13,4.51-.45,5-2a1.38,1.38,0,0,0,0-1c-.43-1-2.2-1-4.5-1s-4.07,0-4.5,1A1.5,1.5,0,0,0,4219.26,66.91Z"/><path class="cls-6" d="M4216.76,79.41a9.67,9.67,0,0,0,14,0"/><path class="cls-7" d="M4217,85.42a4.31,4.31,0,0,0,3.29,3.29c3.22.49,6-4.23,5.22-5.58-.38-.67-1.43-.11-4-1-1.86-.64-2.25-1.24-3-1C4217.33,81.53,4216.64,83.68,4217,85.42Z"/><path class="cls-1" d="M84.59,102.49a109.93,109.93,0,0,0-14,30,113.14,113.14,0,0,0-2,46c.72,4.09,2.11,10.2,7,15a18.55,18.55,0,0,0,9,5c1.85.38,6.7,1.39,9-1s.41-6.47-1-14a73.11,73.11,0,0,1-1-23c.3-2.6.72-4.69,1-6"/><path class="cls-1" d="M176.59,151.49a130.15,130.15,0,0,1-5,34c-1.49,5.13-3.31,10-8,13-4.22,2.66-10.71,3.69-13,1-2.59-3.05,2-8.69,4-18,2-9.46.33-18.19-2-25"/><path class="cls-2" d="M221.59,75.49c-4.68-5.33-13.14-8.61-16-6-3.93,3.59,7.16,14.42,3,27-2.94,8.9-11.62,12.93-10,16,1.3,2.44,7.58,1.35,8.48,1.19,7.24-1.25,13.43-6.73,16.52-13.19C226.83,93.71,228.09,82.88,221.59,75.49Z"/><path class="cls-3" d="M83.59,140.49a44.43,44.43,0,0,0,12,17c9.67,8.31,20.31,9.71,33,11,12.16,1.23,30.2,3.07,50-6,8.89-4.07,19-8.69,25-20,1.16-2.17,8.62-16.72,2-31a32.11,32.11,0,0,0-13-14c-18.51-10.23-36.29,6.5-68,8-9.81.46-24.83-.35-43.7-7.74"/><path class="cls-4" d="M162.59,154.49c18.42-.44,27.35-4.84,28-3,.94,2.61-16.22,14.46-36,16a134.2,134.2,0,0,1-18,0c-11.84-.58-18.37-2.05-22-3a54.25,54.25,0,0,1-11-4,26.62,26.62,0,0,1-10-8c-1.49-2.07-2-3.53-2-5a7,7,0,0,1,2-5c2.56-2.24,6.79-1.15,11,0s6.13,1.67,10,4C128.92,155.1,159.12,154.57,162.59,154.49Z"/><path class="cls-1" d="M140.59,142.49a154.91,154.91,0,0,1,1,23c-.5,16.23-3.28,22.7-5,26-3.76,7.26-7.59,9.33-9,10-3.69,1.75-10.1,3-13,0-2.43-2.53-.61-6.24,1-19,0,0,1-8,1.26-15a89.11,89.11,0,0,0-2.26-23"/><path class="cls-1" d="M202.59,106.49a71.81,71.81,0,0,1,12,28c3.26,17-.74,30.29-3,38a57.22,57.22,0,0,1-8,17c-3.23,4.63-6.82,9.63-13.13,11.34-2.84.77-8.79,1.57-10.87-1.34s1.54-6.22,4-16c1.76-7,1.85-12.66,1.94-18.42a102.61,102.61,0,0,0-1-16"/><path class="cls-2" d="M65,60.79c-1.2,5.56-1.79,8.34-3.41,11.7-7.35,15.27-27.47,27.16-39,21-5.67-3-7.57-9.53-8-11-5.2-17.8,15.23-35.69,19-39,7.69-6.74,24.22-18.09,31-13C70.53,35,67.17,50.63,65,60.79Z"/><path class="cls-5" d="M164.59,37.49c8.65,15.9,11.66,39.92-1,57-15.79,21.32-46.13,18.54-63,17C84,110,60,107.77,49.59,89.49c-10-17.6-3.25-42.7,7.14-57.44.45-.63.8-1.11,1-1.35,11.58-15.33,31.47-23.43,49-24C108.52,6.65,147.5,6.05,164.59,37.49Z"/><path class="cls-2" d="M191.59,79.49c-.54,1.16-3.18,6.78-9,9-8.79,3.35-18.15-3.62-20-5-15-11.18-14.26-33-14-41s.52-15.69,5-18c7.39-3.8,21.21,9.13,28,18C184.09,45.74,198.56,64.64,191.59,79.49Z"/><path d="M131.65,55a4.89,4.89,0,0,1-.81,3.06c-2,2.91-7.54,3.09-11,.71-1.8-1.24-4.29-4.07-3.45-6.78.91-2.94,5.11-3.82,7.78-3.52C127.69,48.85,131.43,51.56,131.65,55Z"/><path class="cls-4" d="M131.59,33.49c0,1.54-1.55,2.7-2,3-3.5,2.32-9.92.3-11-3a3,3,0,0,1,0-2c.89-2.22,5-2.78,8-2C128.33,29.94,131.53,31.33,131.59,33.49Z"/><path class="cls-4" d="M70.59,37.49c.27-.75.94-2.64,0-4-1.19-1.73-4.24-1.54-6-1-4.3,1.32-7.38,6.75-6,9,1.06,1.71,4.55,1.33,6,1C64.78,42.45,69.21,41.37,70.59,37.49Z"/><path d="M77.59,57.49c-1.63,4-6.45,4.85-7.5,5-.51.07-6,.78-7.5-2s1.48-7.17,5-9c3.25-1.69,8.3-1.73,10,1C78.82,54.46,77.78,57,77.59,57.49Z"/><path d="M100.59,65.49c-.55,1.74-3.71,2-4,2-1.85.12-4.5-.46-5-2a1.5,1.5,0,0,1,0-1c.43-1,2.21-1,4.5-1s4.07,0,4.5,1A1.38,1.38,0,0,1,100.59,65.49Z"/><path class="cls-6" d="M102.09,80a9.67,9.67,0,0,1-14,0"/><path class="cls-1" d="M327.59,101.41c-.85,2.14-2.18,5.29-4,9-9.21,18.82-21,32.22-26,37-13.74,13.24-20.25,16.74-19,21,1.32,4.49,10.2,6.29,16,6,4.73-.23,8-1.88,14-5a79.7,79.7,0,0,0,16-11,84.32,84.32,0,0,0,12-13"/><path class="cls-1" d="M414.59,151.39a130.08,130.08,0,0,1-5,34c-1.49,5.13-3.31,10.05-8,13-4.22,2.66-10.71,3.7-13,1-2.59-3,2-8.69,4-18s.33-18.19-2-25"/><path class="cls-2" d="M461.59,75.39c-4.68-5.33-13.14-8.6-16-6-3.93,3.6,7.16,14.42,3,27-2.94,8.91-11.62,12.93-10,16,1.3,2.45,7.58,1.35,8.48,1.2,7.24-1.26,13.43-6.73,16.52-13.2C466.83,93.62,468.09,82.79,461.59,75.39Z"/><path class="cls-3" d="M327.59,138.41c.79,4.81,2.85,12.58,9,19,8,8.32,18.13,9.53,32,11,10.5,1.1,29.13,2.89,50-6a78.12,78.12,0,0,0,25-17c8.22-8.37,9.58-13.79,10-16a27.62,27.62,0,0,0-21-32c-17.13-4.51-43.46,7.86-68,8-8.63,0-21.36-1.38-37-9"/><path class="cls-4" d="M402.59,154.39c18.61-.08,28.34-4.88,29-3,.91,2.62-16.78,14-37,16a121.51,121.51,0,0,1-18,0,118.53,118.53,0,0,1-22-3,37.09,37.09,0,0,1-11-4,21.93,21.93,0,0,1-7-6c-1.38-1.9-3.27-4.49-3-8,.05-.58.34-3.54,2-5,3.68-3.21,12.84,1.93,19,5C371,154.53,387.22,154.46,402.59,154.39Z"/><path class="cls-1" d="M387.59,146.41a136.13,136.13,0,0,1-2,19c-2.76,15.63-6.89,23.08-8,25-4.78,8.32-8.77,10.4-10,11-4.46,2.13-11.51,3.16-14,0-2.13-2.69.73-6.38,3-17,1.2-5.55,1.47-9.47,2-17a164.19,164.19,0,0,0,0-23"/><path class="cls-1" d="M446.59,105.39a71.88,71.88,0,0,1,12,28c3.26,17-.74,30.29-3,38a57,57,0,0,1-8,17c-3.23,4.64-6.82,9.63-13.13,11.34-2.84.77-8.79,1.57-10.87-1.34s1.54-6.21,4-16c1.76-7,1.85-12.66,1.94-18.42a102.61,102.61,0,0,0-1-16"/><path class="cls-2" d="M305,54.69c-1.2,5.57-1.79,8.35-3.41,11.7-7.35,15.28-27.47,27.16-39,21-5.67-3-7.57-9.52-8-11-5.2-17.79,15.23-35.69,19-39,7.69-6.73,24.22-18.09,31-13C310.53,28.85,307.17,44.54,305,54.69Z"/><path class="cls-5" d="M404.59,37.39c8.65,15.91,11.66,39.92-1,57-15.79,21.32-46.13,18.55-63,17-16.58-1.51-40.58-3.71-51-22-10-17.59-3.25-42.69,7.14-57.43.45-.64.8-1.11,1-1.35,11.58-15.33,31.47-23.44,49-24C348.52,6.55,387.5,6,404.59,37.39Z"/><path class="cls-2" d="M432.22,78.8a19.72,19.72,0,0,1-8.74,9.25C413.74,93,403,87,402.43,86.67,387.62,78.12,388,55.09,388.19,43c.15-8.85.26-15.8,4.49-18.13,7.27-4,21.45,8.52,28.5,17.2C423.76,45.28,438.77,63.76,432.22,78.8Z"/><path d="M374.66,53a4.87,4.87,0,0,1-.43,3.13c-1.66,3.15-7.12,4-10.81,2-1.94-1-4.75-3.52-4.24-6.32.54-3,4.61-4.41,7.3-4.43C370,47.35,374,49.59,374.66,53Z"/><path class="cls-4" d="M372.59,33.39c.05,1.55-1.55,2.71-2,3-3.5,2.32-9.92.31-11-3a3,3,0,0,1,0-2c.89-2.22,5-2.77,8-2C369.33,29.85,372.53,31.24,372.59,33.39Z"/><path class="cls-4" d="M313.59,36.39c.27-.74.94-2.63,0-4-1.19-1.73-4.24-1.54-6-1-4.3,1.33-7.38,6.76-6,9,1.06,1.72,4.55,1.33,6,1C307.78,41.35,312.21,40.28,313.59,36.39Z"/><path d="M319.59,56.39c-1.63,4-6.45,4.86-7.5,5-.51.08-6,.78-7.5-2s1.48-7.17,5-9c3.25-1.68,8.3-1.73,10,1C320.82,53.36,319.78,55.92,319.59,56.39Z"/><path d="M340.59,65.39c-.55,1.74-3.71,2-4,2-1.85.13-4.5-.45-5-2a1.49,1.49,0,0,1,0-1c.43-1,2.21-1,4.5-1s4.07,0,4.5,1A1.38,1.38,0,0,1,340.59,65.39Z"/><path class="cls-6" d="M344.09,79.89a9.67,9.67,0,0,1-14,0"/><path class="cls-1" d="M569.45,102.13a48.83,48.83,0,0,0-7,7c-9.14,11.28-10.5,23.59-12,39-2,20.91,1.39,31.69,3,36s3.82,8.65,8,12c5.6,4.5,14.61,7.26,18,4,3.09-3-.06-9.42-2-18-1.9-8.39-3.13-21,1-38"/><path class="cls-1" d="M651.45,153.13a185,185,0,0,1-8,29c-2.74,7.5-5,12-9.71,14.78-4.16,2.42-10.6,3.7-13,1-2.6-2.91,1.19-8.58,3.71-18.78a73.5,73.5,0,0,0,2-22"/><path class="cls-2" d="M702.74,77.91c-4.69-5.33-13.15-8.6-16-6-3.94,3.6,7.15,14.42,3,27-3,8.91-11.63,12.93-10,16,1.29,2.45,7.57,1.35,8.47,1.2,7.25-1.26,13.43-6.73,16.53-13.2C708,96.14,709.23,85.31,702.74,77.91Z"/><path class="cls-3" d="M566.45,149.13a68.11,68.11,0,0,0,11,9c11.68,7.66,22.67,9.65,29.29,10.78,8.83,1.51,28.39,4.56,49.71-4.78a76.23,76.23,0,0,0,25.29-18.2c7.92-8.19,9.43-13.09,10-16a27.47,27.47,0,0,0-2-16,26.88,26.88,0,0,0-5.29-7.8c-1.6-1.62-6.67-6.28-17-8-20.17-3.35-41.33,7.7-64.71,7.78-8.64,0-21.38-1.42-37-9"/><path class="cls-4" d="M640.74,154.91c17.9-.22,28.94-4.95,29.71-2.78s-9.25,8.32-19,12c-18,6.8-33.83,4.65-45,3,0,0-22.29-3.28-32-14-.85-.94-3-3.26-2.71-6.2a7,7,0,0,1,2.71-4.8c4.34-3.14,12.95,2.1,18.29,4.78C609.38,155.3,626.36,155.09,640.74,154.91Z"/><path class="cls-1" d="M623.45,148.13a62.47,62.47,0,0,1-4,13,66.52,66.52,0,0,1-16,22c-5.62,4.78-10.69,9.08-18,9-.8,0-10.12-.2-12-5-2.23-5.73,8.71-11.52,16-26a58.72,58.72,0,0,0,6-22"/><path class="cls-1" d="M684.45,106.13a40.27,40.27,0,0,1,9,12c1.16,2.38,3,6.85,4,16,.43,4.08,1.37,18.74-3.71,37.78a61.08,61.08,0,0,1-7.29,17.22c-3,4.76-6.08,9.55-12,12-3.73,1.55-10.63,3-13,0-2.23-2.82,1.76-6.82,4.29-18.22a83.77,83.77,0,0,0,1.71-18.78,111,111,0,0,0-1-16"/><path class="cls-2" d="M543.07,58.17c-.92,5.61-1.39,8.42-2.84,11.85-6.62,15.6-26.15,28.43-38,22.83-5.81-2.76-8-9.15-8.51-10.61-6-17.53,13.51-36.37,17.12-39.86,7.36-7.09,23.33-19.22,30.35-14.46C547.37,32.09,544.76,47.92,543.07,58.17Z"/><path class="cls-5" d="M642.74,37.91c8.65,15.91,11.65,39.92-1,57-15.8,21.32-46.14,18.55-63,17-16.58-1.52-40.59-3.71-51-22-10-17.59-3.26-42.69,7.13-57.43.45-.64.8-1.11,1-1.35,11.59-15.33,31.47-23.44,49-24C586.66,7.07,625.64,6.48,642.74,37.91Z"/><path class="cls-2" d="M669.33,82.28a19.78,19.78,0,0,1-9.17,8.84c-9.95,4.47-20.45-2-21-2.36-14.4-9.22-13-32.21-12.2-44.25.56-8.83,1-15.77,5.33-17.9,7.45-3.67,21,9.51,27.67,18.5C662.43,48.41,676.56,67.56,669.33,82.28Z"/><path d="M614.8,55.48a4.8,4.8,0,0,1-.43,3.13c-1.66,3.15-7.12,4-10.81,2-1.94-1-4.75-3.52-4.24-6.32.55-3,4.61-4.41,7.31-4.43C610.13,49.87,614.17,52.11,614.8,55.48Z"/><path class="cls-4" d="M611.74,36.91c0,1.55-1.56,2.71-2,3-3.5,2.32-9.93.3-11-3a2.9,2.9,0,0,1,0-2c.89-2.22,5-2.77,8-2C608.47,33.36,611.68,34.76,611.74,36.91Z"/><path class="cls-4" d="M552.74,38.91c.26-.74.93-2.63,0-4-1.2-1.73-4.24-1.54-6-1-4.31,1.33-7.38,6.76-6,9,1,1.71,4.54,1.33,6,1C546.92,43.87,551.35,42.8,552.74,38.91Z"/><path d="M558.74,58.91c-1.63,4-6.46,4.86-7.5,5-.52.07-6,.78-7.5-2s1.47-7.17,5-9c3.24-1.68,8.29-1.73,10,1C560,55.88,558.93,58.44,558.74,58.91Z"/><path d="M580.74,66.91c-.55,1.74-3.72,2-4,2-1.86.13-4.51-.45-5-2a1.38,1.38,0,0,1,0-1c.43-1,2.2-1,4.5-1s4.07,0,4.5,1A1.5,1.5,0,0,1,580.74,66.91Z"/><path class="cls-6" d="M583.24,79.41a9.67,9.67,0,0,1-14,0"/><path class="cls-7" d="M583,85.42a4.31,4.31,0,0,1-3.29,3.29c-3.22.49-6-4.23-5.22-5.58.38-.67,1.43-.11,4-1,1.86-.64,2.25-1.24,3-1C582.67,81.53,583.36,83.68,583,85.42Z"/><path class="cls-1" d="M807.59,101.41c-.85,2.14-2.18,5.29-4,9-9.21,18.82-21,32.22-26,37-13.74,13.24-20.25,16.74-19,21,1.32,4.49,10.2,6.29,16,6,4.73-.23,7.95-1.88,14-5a79.7,79.7,0,0,0,16-11,84.32,84.32,0,0,0,12-13"/><path class="cls-1" d="M894.59,151.39a130.08,130.08,0,0,1-5,34c-1.49,5.13-3.31,10.05-8,13-4.22,2.66-10.71,3.7-13,1-2.59-3,2-8.69,4-18s.33-18.19-2-25"/><path class="cls-2" d="M941.59,75.39c-4.68-5.33-13.14-8.6-16-6-3.93,3.6,7.16,14.42,3,27-2.94,8.91-11.62,12.93-10,16,1.3,2.45,7.58,1.35,8.48,1.2,7.24-1.26,13.43-6.73,16.52-13.2C946.83,93.62,948.09,82.79,941.59,75.39Z"/><path class="cls-3" d="M807.59,138.41c.79,4.81,2.85,12.58,9,19,8,8.32,18.13,9.53,32,11,10.5,1.1,29.13,2.89,50-6a78.12,78.12,0,0,0,25-17c8.22-8.37,9.58-13.79,10-16a27.62,27.62,0,0,0-21-32c-17.13-4.51-43.46,7.86-68,8-8.63,0-21.36-1.38-37-9"/><path class="cls-4" d="M882.59,154.39c18.61-.08,28.34-4.88,29-3,.91,2.62-16.78,14-37,16a121.51,121.51,0,0,1-18,0,118.53,118.53,0,0,1-22-3,37.09,37.09,0,0,1-11-4,21.93,21.93,0,0,1-7-6c-1.38-1.9-3.27-4.49-3-8,0-.58.34-3.54,2-5,3.68-3.21,12.84,1.93,19,5C851,154.53,867.22,154.46,882.59,154.39Z"/><path class="cls-1" d="M867.59,146.41a136.13,136.13,0,0,1-2,19c-2.76,15.63-6.89,23.08-8,25-4.78,8.32-8.77,10.4-10,11-4.46,2.13-11.51,3.16-14,0-2.13-2.69.73-6.38,3-17,1.2-5.55,1.47-9.47,2-17a164.19,164.19,0,0,0,0-23"/><path class="cls-1" d="M926.59,105.39a71.88,71.88,0,0,1,12,28c3.26,17-.74,30.29-3,38a57,57,0,0,1-8,17c-3.23,4.64-6.82,9.63-13.13,11.34-2.84.77-8.79,1.57-10.87-1.34s1.54-6.21,4-16c1.76-7,1.85-12.66,1.94-18.42a102.61,102.61,0,0,0-1-16"/><path class="cls-2" d="M785,54.69c-1.2,5.57-1.79,8.35-3.41,11.7-7.35,15.28-27.47,27.16-39,21-5.67-3-7.57-9.52-8-11-5.2-17.79,15.23-35.69,19-39,7.69-6.73,24.22-18.09,31-13C790.53,28.85,787.17,44.54,785,54.69Z"/><path class="cls-5" d="M884.59,37.39c8.65,15.91,11.66,39.92-1,57-15.79,21.32-46.13,18.55-63,17-16.58-1.51-40.58-3.71-51-22-10-17.59-3.25-42.69,7.14-57.43.45-.64.8-1.11,1-1.35,11.58-15.33,31.47-23.44,49-24C828.52,6.55,867.5,6,884.59,37.39Z"/><path class="cls-2" d="M912.22,78.8a19.72,19.72,0,0,1-8.74,9.25C893.74,93,883,87,882.43,86.67,867.62,78.12,868,55.09,868.19,43c.15-8.85.26-15.8,4.49-18.13,7.27-4,21.45,8.52,28.5,17.2C903.76,45.28,918.77,63.76,912.22,78.8Z"/><path d="M854.66,53a4.87,4.87,0,0,1-.43,3.13c-1.66,3.15-7.12,4-10.81,2-1.94-1-4.75-3.52-4.24-6.32.54-3,4.61-4.41,7.3-4.43C850,47.35,854,49.59,854.66,53Z"/><path class="cls-4" d="M852.59,33.39c0,1.55-1.55,2.71-2,3-3.5,2.32-9.92.31-11-3a3,3,0,0,1,0-2c.89-2.22,5-2.77,8-2C849.33,29.85,852.53,31.24,852.59,33.39Z"/><path class="cls-4" d="M793.59,36.39c.27-.74.94-2.63,0-4-1.19-1.73-4.24-1.54-6-1-4.3,1.33-7.38,6.76-6,9,1.06,1.72,4.55,1.33,6,1C787.78,41.35,792.21,40.28,793.59,36.39Z"/><path d="M799.59,56.39c-1.63,4-6.45,4.86-7.5,5-.51.08-6,.78-7.5-2s1.48-7.17,5-9c3.25-1.68,8.3-1.73,10,1C800.82,53.36,799.78,55.92,799.59,56.39Z"/><path d="M820.59,65.39c-.55,1.74-3.71,2-4,2-1.85.13-4.5-.45-5-2a1.49,1.49,0,0,1,0-1c.43-1,2.21-1,4.5-1s4.07,0,4.5,1A1.38,1.38,0,0,1,820.59,65.39Z"/><path class="cls-6" d="M824.09,79.89a9.67,9.67,0,0,1-14,0"/><path class="cls-1" d="M1049.45,102.13a48.83,48.83,0,0,0-7,7c-9.14,11.28-10.5,23.59-12,39-2,20.91,1.39,31.69,3,36s3.82,8.65,8,12c5.6,4.5,14.61,7.26,18,4,3.09-3-.06-9.42-2-18-1.9-8.39-3.13-21,1-38"/><path class="cls-1" d="M1131.45,153.13a185,185,0,0,1-8,29c-2.74,7.5-5,12-9.71,14.78-4.16,2.42-10.6,3.7-13,1-2.6-2.91,1.19-8.58,3.71-18.78a73.5,73.5,0,0,0,2-22"/><path class="cls-2" d="M1182.74,77.91c-4.69-5.33-13.15-8.6-16-6-3.94,3.6,7.15,14.42,3,27-3,8.91-11.63,12.93-10,16,1.29,2.45,7.57,1.35,8.47,1.2,7.25-1.26,13.43-6.73,16.53-13.2C1188,96.14,1189.23,85.31,1182.74,77.91Z"/><path class="cls-3" d="M1046.45,149.13a68.11,68.11,0,0,0,11,9c11.68,7.66,22.67,9.65,29.29,10.78,8.83,1.51,28.39,4.56,49.71-4.78a76.23,76.23,0,0,0,25.29-18.2c7.92-8.19,9.43-13.09,10-16a27.47,27.47,0,0,0-2-16,26.88,26.88,0,0,0-5.29-7.8c-1.6-1.62-6.67-6.28-17-8-20.17-3.35-41.33,7.7-64.71,7.78-8.64,0-21.38-1.42-37-9"/><path class="cls-4" d="M1120.74,154.91c17.9-.22,28.94-4.95,29.71-2.78s-9.25,8.32-19,12c-18,6.8-33.83,4.65-45,3,0,0-22.29-3.28-32-14-.85-.94-3-3.26-2.71-6.2a7,7,0,0,1,2.71-4.8c4.34-3.14,13,2.1,18.29,4.78C1089.38,155.3,1106.36,155.09,1120.74,154.91Z"/><path class="cls-1" d="M1103.45,148.13a62.47,62.47,0,0,1-4,13,66.52,66.52,0,0,1-16,22c-5.62,4.78-10.69,9.08-18,9-.8,0-10.12-.2-12-5-2.23-5.73,8.71-11.52,16-26a58.72,58.72,0,0,0,6-22"/><path class="cls-1" d="M1164.45,106.13a40.27,40.27,0,0,1,9,12c1.16,2.38,3,6.85,4,16,.43,4.08,1.37,18.74-3.71,37.78a61.08,61.08,0,0,1-7.29,17.22c-3,4.76-6.08,9.55-12,12-3.73,1.55-10.63,3-13,0-2.23-2.82,1.76-6.82,4.29-18.22a83.77,83.77,0,0,0,1.71-18.78,111,111,0,0,0-1-16"/><path class="cls-2" d="M1023.07,58.17c-.92,5.61-1.39,8.42-2.84,11.85-6.62,15.6-26.15,28.43-38,22.83-5.81-2.76-8-9.15-8.51-10.61-6-17.53,13.51-36.37,17.12-39.86,7.36-7.09,23.33-19.22,30.35-14.46C1027.37,32.09,1024.76,47.92,1023.07,58.17Z"/><path class="cls-5" d="M1122.74,37.91c8.65,15.91,11.65,39.92-1,57-15.8,21.32-46.14,18.55-63,17-16.58-1.52-40.59-3.71-51-22-10-17.59-3.26-42.69,7.13-57.43.45-.64.8-1.11,1-1.35,11.59-15.33,31.47-23.44,49-24C1066.66,7.07,1105.64,6.48,1122.74,37.91Z"/><path class="cls-2" d="M1149.33,82.28a19.78,19.78,0,0,1-9.17,8.84c-10,4.47-20.45-2-21-2.36-14.4-9.22-13-32.21-12.2-44.25.56-8.83,1-15.77,5.33-17.9,7.45-3.67,21,9.51,27.67,18.5C1142.43,48.41,1156.56,67.56,1149.33,82.28Z"/><path d="M1094.8,55.48a4.8,4.8,0,0,1-.43,3.13c-1.66,3.15-7.12,4-10.81,2-1.94-1-4.75-3.52-4.24-6.32.55-3,4.61-4.41,7.31-4.43C1090.13,49.87,1094.17,52.11,1094.8,55.48Z"/><path class="cls-4" d="M1091.74,36.91c0,1.55-1.56,2.71-2,3-3.5,2.32-9.93.3-11-3a2.9,2.9,0,0,1,0-2c.89-2.22,5-2.77,8-2C1088.47,33.36,1091.68,34.76,1091.74,36.91Z"/><path class="cls-4" d="M1032.74,38.91c.26-.74.93-2.63,0-4-1.2-1.73-4.24-1.54-6-1-4.31,1.33-7.38,6.76-6,9,1,1.71,4.54,1.33,6,1C1026.92,43.87,1031.35,42.8,1032.74,38.91Z"/><path d="M1038.74,58.91c-1.63,4-6.46,4.86-7.5,5-.52.07-6,.78-7.5-2s1.47-7.17,5-9c3.24-1.68,8.29-1.73,10,1C1040,55.88,1038.93,58.44,1038.74,58.91Z"/><path d="M1060.74,66.91c-.55,1.74-3.72,2-4,2-1.86.13-4.51-.45-5-2a1.38,1.38,0,0,1,0-1c.43-1,2.2-1,4.5-1s4.07,0,4.5,1A1.5,1.5,0,0,1,1060.74,66.91Z"/><path class="cls-6" d="M1063.24,79.41a9.67,9.67,0,0,1-14,0"/><path class="cls-7" d="M1063,85.42a4.31,4.31,0,0,1-3.29,3.29c-3.22.49-6-4.23-5.22-5.58.38-.67,1.43-.11,4-1,1.86-.64,2.25-1.24,3-1C1062.67,81.53,1063.36,83.68,1063,85.42Z"/><path class="cls-1" d="M3032.41,101.41c.85,2.14,2.18,5.29,4,9,9.21,18.82,21,32.22,26,37,13.74,13.24,20.25,16.74,19,21-1.32,4.49-10.2,6.29-16,6-4.73-.23-7.95-1.88-14-5a79.7,79.7,0,0,1-16-11,84.32,84.32,0,0,1-12-13"/><path class="cls-1" d="M2945.41,151.39a130.08,130.08,0,0,0,5,34c1.49,5.13,3.31,10.05,8,13,4.22,2.66,10.71,3.7,13,1,2.59-3-2-8.69-4-18s-.33-18.19,2-25"/><path class="cls-2" d="M2898.41,75.39c4.68-5.33,13.14-8.6,16-6,3.93,3.6-7.16,14.42-3,27,2.94,8.91,11.62,12.93,10,16-1.3,2.45-7.58,1.35-8.48,1.2-7.24-1.26-13.43-6.73-16.52-13.2C2893.17,93.62,2891.91,82.79,2898.41,75.39Z"/><path class="cls-3" d="M3032.41,138.41c-.79,4.81-2.85,12.58-9,19-8,8.32-18.13,9.53-32,11-10.5,1.1-29.13,2.89-50-6a78.12,78.12,0,0,1-25-17c-8.22-8.37-9.58-13.79-10-16a27.62,27.62,0,0,1,21-32c17.13-4.51,43.46,7.86,68,8,8.63,0,21.36-1.38,37-9"/><path class="cls-4" d="M2957.41,154.39c-18.61-.08-28.34-4.88-29-3-.91,2.62,16.78,14,37,16a121.51,121.51,0,0,0,18,0,118.53,118.53,0,0,0,22-3,37.09,37.09,0,0,0,11-4,21.93,21.93,0,0,0,7-6c1.38-1.9,3.27-4.49,3-8,0-.58-.34-3.54-2-5-3.68-3.21-12.84,1.93-19,5C2989,154.53,2972.78,154.46,2957.41,154.39Z"/><path class="cls-1" d="M2972.41,146.41a136.13,136.13,0,0,0,2,19c2.76,15.63,6.89,23.08,8,25,4.78,8.32,8.77,10.4,10,11,4.46,2.13,11.51,3.16,14,0,2.13-2.69-.73-6.38-3-17-1.2-5.55-1.47-9.47-2-17a164.19,164.19,0,0,1,0-23"/><path class="cls-1" d="M2913.41,105.39a71.88,71.88,0,0,0-12,28c-3.26,17,.74,30.29,3,38a57,57,0,0,0,8,17c3.23,4.64,6.82,9.63,13.13,11.34,2.84.77,8.79,1.57,10.87-1.34s-1.54-6.21-4-16c-1.76-7-1.85-12.66-1.94-18.42a102.61,102.61,0,0,1,1-16"/><path class="cls-2" d="M3055,54.69c1.2,5.57,1.79,8.35,3.41,11.7,7.35,15.28,27.47,27.16,39,21,5.67-3,7.57-9.52,8-11,5.2-17.79-15.23-35.69-19-39-7.69-6.73-24.22-18.09-31-13C3049.47,28.85,3052.83,44.54,3055,54.69Z"/><path class="cls-5" d="M2955.41,37.39c-8.65,15.91-11.66,39.92,1,57,15.79,21.32,46.13,18.55,63,17,16.58-1.51,40.58-3.71,51-22,10-17.59,3.25-42.69-7.14-57.43-.45-.64-.8-1.11-1-1.35-11.58-15.33-31.47-23.44-49-24C3011.48,6.55,2972.5,6,2955.41,37.39Z"/><path class="cls-2" d="M2927.78,78.8a19.72,19.72,0,0,0,8.74,9.25c9.74,4.93,20.53-1.09,21.05-1.38,14.81-8.55,14.44-31.58,14.24-43.64-.15-8.85-.26-15.8-4.49-18.13-7.27-4-21.45,8.52-28.5,17.2C2936.24,45.28,2921.23,63.76,2927.78,78.8Z"/><path d="M2985.34,53a4.87,4.87,0,0,0,.43,3.13c1.66,3.15,7.12,4,10.81,2,1.94-1,4.75-3.52,4.24-6.32-.54-3-4.61-4.41-7.3-4.43C2990,47.35,2986,49.59,2985.34,53Z"/><path class="cls-4" d="M2987.41,33.39c0,1.55,1.55,2.71,2,3,3.5,2.32,9.92.31,11-3a3,3,0,0,0,0-2c-.89-2.22-5-2.77-8-2C2990.67,29.85,2987.47,31.24,2987.41,33.39Z"/><path class="cls-4" d="M3046.41,36.39c-.27-.74-.94-2.63,0-4,1.19-1.73,4.24-1.54,6-1,4.3,1.33,7.38,6.76,6,9-1.06,1.72-4.55,1.33-6,1C3052.22,41.35,3047.79,40.28,3046.41,36.39Z"/><path d="M3040.41,56.39c1.63,4,6.45,4.86,7.5,5,.51.08,6,.78,7.5-2s-1.48-7.17-5-9c-3.25-1.68-8.3-1.73-10,1C3039.18,53.36,3040.22,55.92,3040.41,56.39Z"/><path d="M3019.41,65.39c.55,1.74,3.71,2,4,2,1.85.13,4.5-.45,5-2a1.49,1.49,0,0,0,0-1c-.43-1-2.21-1-4.5-1s-4.07,0-4.5,1A1.38,1.38,0,0,0,3019.41,65.39Z"/><path class="cls-6" d="M3015.91,79.89a9.67,9.67,0,0,0,14,0"/><path class="cls-1" d="M3270.55,102.13a48.83,48.83,0,0,1,7,7c9.14,11.28,10.5,23.59,12,39,2,20.91-1.39,31.69-3,36s-3.82,8.65-8,12c-5.6,4.5-14.61,7.26-18,4-3.09-3,.06-9.42,2-18,1.9-8.39,3.13-21-1-38"/><path class="cls-1" d="M3188.55,153.13a185,185,0,0,0,8,29c2.74,7.5,5,12,9.71,14.78,4.16,2.42,10.6,3.7,13,1,2.6-2.91-1.19-8.58-3.71-18.78a73.5,73.5,0,0,1-2-22"/><path class="cls-2" d="M3137.26,77.91c4.69-5.33,13.15-8.6,16-6,3.94,3.6-7.15,14.42-3,27,2.95,8.91,11.63,12.93,10,16-1.29,2.45-7.57,1.35-8.47,1.2-7.25-1.26-13.43-6.73-16.53-13.2C3132,96.14,3130.77,85.31,3137.26,77.91Z"/><path class="cls-3" d="M3273.55,149.13a68.11,68.11,0,0,1-11,9c-11.68,7.66-22.67,9.65-29.29,10.78-8.83,1.51-28.39,4.56-49.71-4.78a76.23,76.23,0,0,1-25.29-18.2c-7.92-8.19-9.43-13.09-10-16a27.47,27.47,0,0,1,2-16,26.88,26.88,0,0,1,5.29-7.8c1.6-1.62,6.67-6.28,17-8,20.17-3.35,41.33,7.7,64.71,7.78,8.64,0,21.38-1.42,37-9"/><path class="cls-4" d="M3199.26,154.91c-17.9-.22-28.94-4.95-29.71-2.78s9.25,8.32,19,12c18,6.8,33.83,4.65,45,3,0,0,22.29-3.28,32-14,.85-.94,2.95-3.26,2.71-6.2a7,7,0,0,0-2.71-4.8c-4.34-3.14-13,2.1-18.29,4.78C3230.62,155.3,3213.64,155.09,3199.26,154.91Z"/><path class="cls-1" d="M3216.55,148.13a62.47,62.47,0,0,0,4,13,66.52,66.52,0,0,0,16,22c5.62,4.78,10.69,9.08,18,9,.8,0,10.12-.2,12-5,2.23-5.73-8.71-11.52-16-26a58.72,58.72,0,0,1-6-22"/><path class="cls-1" d="M3155.55,106.13a40.27,40.27,0,0,0-9,12c-1.16,2.38-3,6.85-4,16-.43,4.08-1.37,18.74,3.71,37.78a61.08,61.08,0,0,0,7.29,17.22c3,4.76,6.08,9.55,12,12,3.73,1.55,10.63,3,13,0,2.23-2.82-1.76-6.82-4.29-18.22a83.77,83.77,0,0,1-1.71-18.78,111,111,0,0,1,1-16"/><path class="cls-2" d="M3296.93,58.17c.92,5.61,1.39,8.42,2.84,11.85,6.62,15.6,26.15,28.43,38,22.83,5.81-2.76,8-9.15,8.51-10.61,6-17.53-13.51-36.37-17.12-39.86-7.36-7.09-23.33-19.22-30.35-14.46C3292.63,32.09,3295.24,47.92,3296.93,58.17Z"/><path class="cls-5" d="M3197.26,37.91c-8.65,15.91-11.65,39.92,1,57,15.8,21.32,46.14,18.55,63,17,16.58-1.52,40.59-3.71,51-22,10-17.59,3.26-42.69-7.13-57.43-.45-.64-.8-1.11-1-1.35-11.59-15.33-31.47-23.44-49-24C3253.34,7.07,3214.36,6.48,3197.26,37.91Z"/><path class="cls-2" d="M3170.67,82.28a19.78,19.78,0,0,0,9.17,8.84c9.95,4.47,20.45-2,21-2.36,14.4-9.22,13-32.21,12.2-44.25-.56-8.83-1-15.77-5.33-17.9-7.45-3.67-21,9.51-27.67,18.5C3177.57,48.41,3163.44,67.56,3170.67,82.28Z"/><path d="M3225.2,55.48a4.8,4.8,0,0,0,.43,3.13c1.66,3.15,7.12,4,10.81,2,1.94-1,4.75-3.52,4.24-6.32-.55-3-4.61-4.41-7.31-4.43C3229.87,49.87,3225.83,52.11,3225.2,55.48Z"/><path class="cls-4" d="M3228.26,36.91c0,1.55,1.56,2.71,2,3,3.5,2.32,9.93.3,11-3a2.9,2.9,0,0,0,0-2c-.89-2.22-5-2.77-8-2C3231.53,33.36,3228.32,34.76,3228.26,36.91Z"/><path class="cls-4" d="M3287.26,38.91c-.26-.74-.93-2.63,0-4,1.2-1.73,4.24-1.54,6-1,4.31,1.33,7.38,6.76,6,9-1.05,1.71-4.54,1.33-6,1C3293.08,43.87,3288.65,42.8,3287.26,38.91Z"/><path d="M3281.26,58.91c1.63,4,6.46,4.86,7.5,5,.52.07,6,.78,7.5-2s-1.47-7.17-5-9c-3.24-1.68-8.29-1.73-10,1C3280,55.88,3281.07,58.44,3281.26,58.91Z"/><path d="M3259.26,66.91c.55,1.74,3.72,2,4,2,1.86.13,4.51-.45,5-2a1.38,1.38,0,0,0,0-1c-.43-1-2.2-1-4.5-1s-4.07,0-4.5,1A1.5,1.5,0,0,0,3259.26,66.91Z"/><path class="cls-6" d="M3256.76,79.41a9.67,9.67,0,0,0,14,0"/><path class="cls-7" d="M3257,85.42a4.31,4.31,0,0,0,3.29,3.29c3.22.49,6-4.23,5.22-5.58-.38-.67-1.43-.11-4-1-1.86-.64-2.25-1.24-3-1C3257.33,81.53,3256.64,83.68,3257,85.42Z"/><path class="cls-1" d="M2315.41,102.49a109.93,109.93,0,0,1,14,30,113.14,113.14,0,0,1,2,46c-.72,4.09-2.11,10.2-7,15a18.55,18.55,0,0,1-9,5c-1.85.38-6.7,1.39-9-1s-.41-6.47,1-14a73.11,73.11,0,0,0,1-23c-.3-2.6-.72-4.69-1-6"/><path class="cls-1" d="M2223.41,151.49a130.15,130.15,0,0,0,5,34c1.49,5.13,3.31,10,8,13,4.22,2.66,10.71,3.69,13,1,2.59-3.05-2-8.69-4-18-2-9.46-.33-18.19,2-25"/><path class="cls-2" d="M2178.41,75.49c4.68-5.33,13.14-8.61,16-6,3.93,3.59-7.16,14.42-3,27,2.94,8.9,11.62,12.93,10,16-1.3,2.44-7.58,1.35-8.48,1.19-7.24-1.25-13.43-6.73-16.52-13.19C2173.17,93.71,2171.91,82.88,2178.41,75.49Z"/><path class="cls-3" d="M2316.41,140.49a44.43,44.43,0,0,1-12,17c-9.67,8.31-20.31,9.71-33,11-12.16,1.23-30.2,3.07-50-6-8.89-4.07-19-8.69-25-20-1.16-2.17-8.62-16.72-2-31a32.11,32.11,0,0,1,13-14c18.51-10.23,36.29,6.5,68,8,9.81.46,24.83-.35,43.7-7.74"/><path class="cls-4" d="M2237.41,154.49c-18.42-.44-27.35-4.84-28-3-.94,2.61,16.22,14.46,36,16a134.2,134.2,0,0,0,18,0c11.84-.58,18.37-2.05,22-3a54.25,54.25,0,0,0,11-4,26.62,26.62,0,0,0,10-8c1.49-2.07,2-3.53,2-5a7,7,0,0,0-2-5c-2.56-2.24-6.79-1.15-11,0s-6.13,1.67-10,4C2271.08,155.1,2240.88,154.57,2237.41,154.49Z"/><path class="cls-1" d="M2259.41,142.49a154.91,154.91,0,0,0-1,23c.5,16.23,3.28,22.7,5,26,3.76,7.26,7.59,9.33,9,10,3.69,1.75,10.1,3,13,0,2.43-2.53.61-6.24-1-19,0,0-1-8-1.26-15a89.11,89.11,0,0,1,2.26-23"/><path class="cls-1" d="M2197.41,106.49a71.81,71.81,0,0,0-12,28c-3.26,17,.74,30.29,3,38a57.22,57.22,0,0,0,8,17c3.23,4.63,6.82,9.63,13.13,11.34,2.84.77,8.79,1.57,10.87-1.34s-1.54-6.22-4-16c-1.76-7-1.85-12.66-1.94-18.42a102.61,102.61,0,0,1,1-16"/><path class="cls-2" d="M2335,60.79c1.2,5.56,1.79,8.34,3.41,11.7,7.35,15.27,27.47,27.16,39,21,5.67-3,7.57-9.53,8-11,5.2-17.8-15.23-35.69-19-39-7.69-6.74-24.22-18.09-31-13C2329.47,35,2332.83,50.63,2335,60.79Z"/><path class="cls-5" d="M2235.41,37.49c-8.65,15.9-11.66,39.92,1,57,15.79,21.32,46.13,18.54,63,17,16.58-1.52,40.58-3.72,51-22,10-17.6,3.25-42.7-7.14-57.44-.45-.63-.8-1.11-1-1.35-11.58-15.33-31.47-23.43-49-24C2291.48,6.65,2252.5,6.05,2235.41,37.49Z"/><path class="cls-2" d="M2208.41,79.49c.54,1.16,3.18,6.78,9,9,8.79,3.35,18.15-3.62,20-5,15-11.18,14.26-33,14-41s-.52-15.69-5-18c-7.39-3.8-21.21,9.13-28,18C2215.91,45.74,2201.44,64.64,2208.41,79.49Z"/><path d="M2268.35,55a4.89,4.89,0,0,0,.81,3.06c2,2.91,7.54,3.09,11,.71,1.8-1.24,4.29-4.07,3.45-6.78-.91-2.94-5.11-3.82-7.78-3.52C2272.31,48.85,2268.57,51.56,2268.35,55Z"/><path class="cls-4" d="M2268.41,33.49c0,1.54,1.55,2.7,2,3,3.5,2.32,9.92.3,11-3a3,3,0,0,0,0-2c-.89-2.22-5-2.78-8-2C2271.67,29.94,2268.47,31.33,2268.41,33.49Z"/><path class="cls-4" d="M2329.41,37.49c-.27-.75-.94-2.64,0-4,1.19-1.73,4.24-1.54,6-1,4.3,1.32,7.38,6.75,6,9-1.06,1.71-4.55,1.33-6,1C2335.22,42.45,2330.79,41.37,2329.41,37.49Z"/><path d="M2322.41,57.49c1.63,4,6.45,4.85,7.5,5,.51.07,6,.78,7.5-2s-1.48-7.17-5-9c-3.25-1.69-8.3-1.73-10,1C2321.18,54.46,2322.22,57,2322.41,57.49Z"/><path d="M2299.41,65.49c.55,1.74,3.71,2,4,2,1.85.12,4.5-.46,5-2a1.5,1.5,0,0,0,0-1c-.43-1-2.21-1-4.5-1s-4.07,0-4.5,1A1.38,1.38,0,0,0,2299.41,65.49Z"/><path class="cls-6" d="M2297.91,80a9.67,9.67,0,0,0,14,0"/><path class="cls-1" d="M1529.45,102.13a48.83,48.83,0,0,0-7,7c-9.14,11.28-10.5,23.59-12,39-2,20.91,1.39,31.69,3,36s3.82,8.65,8,12c5.6,4.5,14.61,7.26,18,4,3.09-3-.06-9.42-2-18-1.9-8.39-3.13-21,1-38"/><path class="cls-1" d="M1611.45,153.13a185,185,0,0,1-8,29c-2.74,7.5-5,12-9.71,14.78-4.16,2.42-10.6,3.7-13,1-2.6-2.91,1.19-8.58,3.71-18.78a73.5,73.5,0,0,0,2-22"/><path class="cls-2" d="M1662.74,77.91c-4.69-5.33-13.15-8.6-16-6-3.94,3.6,7.15,14.42,3,27-3,8.91-11.63,12.93-10,16,1.29,2.45,7.57,1.35,8.47,1.2,7.25-1.26,13.43-6.73,16.53-13.2C1668,96.14,1669.23,85.31,1662.74,77.91Z"/><path class="cls-3" d="M1526.45,149.13a68.11,68.11,0,0,0,11,9c11.68,7.66,22.67,9.65,29.29,10.78,8.83,1.51,28.39,4.56,49.71-4.78a76.23,76.23,0,0,0,25.29-18.2c7.92-8.19,9.43-13.09,10-16a27.47,27.47,0,0,0-2-16,26.88,26.88,0,0,0-5.29-7.8c-1.6-1.62-6.67-6.28-17-8-20.17-3.35-41.33,7.7-64.71,7.78-8.64,0-21.38-1.42-37-9"/><path class="cls-4" d="M1600.74,154.91c17.9-.22,28.94-4.95,29.71-2.78s-9.25,8.32-19,12c-18,6.8-33.83,4.65-45,3,0,0-22.29-3.28-32-14-.85-.94-3-3.26-2.71-6.2a7,7,0,0,1,2.71-4.8c4.34-3.14,13,2.1,18.29,4.78C1569.38,155.3,1586.36,155.09,1600.74,154.91Z"/><path class="cls-1" d="M1583.45,148.13a62.47,62.47,0,0,1-4,13,66.52,66.52,0,0,1-16,22c-5.62,4.78-10.69,9.08-18,9-.8,0-10.12-.2-12-5-2.23-5.73,8.71-11.52,16-26a58.72,58.72,0,0,0,6-22"/><path class="cls-1" d="M1644.45,106.13a40.27,40.27,0,0,1,9,12c1.16,2.38,3,6.85,4,16,.43,4.08,1.37,18.74-3.71,37.78a61.08,61.08,0,0,1-7.29,17.22c-3,4.76-6.08,9.55-12,12-3.73,1.55-10.63,3-13,0-2.23-2.82,1.76-6.82,4.29-18.22a83.77,83.77,0,0,0,1.71-18.78,111,111,0,0,0-1-16"/><path class="cls-2" d="M1503.07,58.17c-.92,5.61-1.39,8.42-2.84,11.85-6.62,15.6-26.15,28.43-38,22.83-5.81-2.76-8-9.15-8.51-10.61-6-17.53,13.51-36.37,17.12-39.86,7.36-7.09,23.33-19.22,30.35-14.46C1507.37,32.09,1504.76,47.92,1503.07,58.17Z"/><path class="cls-5" d="M1602.74,37.91c8.65,15.91,11.65,39.92-1,57-15.8,21.32-46.14,18.55-63,17-16.58-1.52-40.59-3.71-51-22-10-17.59-3.26-42.69,7.13-57.43.45-.64.8-1.11,1-1.35,11.59-15.33,31.47-23.44,49-24C1546.66,7.07,1585.64,6.48,1602.74,37.91Z"/><path class="cls-2" d="M1629.33,82.28a19.78,19.78,0,0,1-9.17,8.84c-10,4.47-20.45-2-21-2.36-14.4-9.22-13-32.21-12.2-44.25.56-8.83,1-15.77,5.33-17.9,7.45-3.67,21,9.51,27.67,18.5C1622.43,48.41,1636.56,67.56,1629.33,82.28Z"/><path d="M1574.8,55.48a4.8,4.8,0,0,1-.43,3.13c-1.66,3.15-7.12,4-10.81,2-1.94-1-4.75-3.52-4.24-6.32.55-3,4.61-4.41,7.31-4.43C1570.13,49.87,1574.17,52.11,1574.8,55.48Z"/><path class="cls-4" d="M1571.74,36.91c0,1.55-1.56,2.71-2,3-3.5,2.32-9.93.3-11-3a2.9,2.9,0,0,1,0-2c.89-2.22,5-2.77,8-2C1568.47,33.36,1571.68,34.76,1571.74,36.91Z"/><path class="cls-4" d="M1512.74,38.91c.26-.74.93-2.63,0-4-1.2-1.73-4.24-1.54-6-1-4.31,1.33-7.38,6.76-6,9,1,1.71,4.54,1.33,6,1C1506.92,43.87,1511.35,42.8,1512.74,38.91Z"/><path d="M1518.74,58.91c-1.63,4-6.46,4.86-7.5,5-.52.07-6,.78-7.5-2s1.47-7.17,5-9c3.24-1.68,8.29-1.73,10,1C1520,55.88,1518.93,58.44,1518.74,58.91Z"/><path d="M1540.74,66.91c-.55,1.74-3.72,2-4,2-1.86.13-4.51-.45-5-2a1.38,1.38,0,0,1,0-1c.43-1,2.2-1,4.5-1s4.07,0,4.5,1A1.5,1.5,0,0,1,1540.74,66.91Z"/><path class="cls-6" d="M1543.24,79.41a9.67,9.67,0,0,1-14,0"/><path class="cls-7" d="M1543,85.42a4.31,4.31,0,0,1-3.29,3.29c-3.22.49-6-4.23-5.22-5.58.38-.67,1.43-.11,4-1,1.86-.64,2.25-1.24,3-1C1542.67,81.53,1543.36,83.68,1543,85.42Z"/><path class="cls-1" d="M1287.59,101.41c-.85,2.14-2.18,5.29-4,9-9.21,18.82-21,32.22-26,37-13.74,13.24-20.25,16.74-19,21,1.32,4.49,10.2,6.29,16,6,4.73-.23,8-1.88,14-5a79.7,79.7,0,0,0,16-11,84.32,84.32,0,0,0,12-13"/><path class="cls-1" d="M1374.59,151.39a130.08,130.08,0,0,1-5,34c-1.49,5.13-3.31,10.05-8,13-4.22,2.66-10.71,3.7-13,1-2.59-3,2-8.69,4-18s.33-18.19-2-25"/><path class="cls-2" d="M1421.59,75.39c-4.68-5.33-13.14-8.6-16-6-3.93,3.6,7.16,14.42,3,27-2.94,8.91-11.62,12.93-10,16,1.3,2.45,7.58,1.35,8.48,1.2,7.24-1.26,13.43-6.73,16.52-13.2C1426.83,93.62,1428.09,82.79,1421.59,75.39Z"/><path class="cls-3" d="M1287.59,138.41c.79,4.81,2.85,12.58,9,19,8,8.32,18.13,9.53,32,11,10.5,1.1,29.13,2.89,50-6a78.12,78.12,0,0,0,25-17c8.22-8.37,9.58-13.79,10-16a27.62,27.62,0,0,0-21-32c-17.13-4.51-43.46,7.86-68,8-8.63,0-21.36-1.38-37-9"/><path class="cls-4" d="M1362.59,154.39c18.61-.08,28.34-4.88,29-3,.91,2.62-16.78,14-37,16a121.51,121.51,0,0,1-18,0,118.53,118.53,0,0,1-22-3,37.09,37.09,0,0,1-11-4,21.93,21.93,0,0,1-7-6c-1.38-1.9-3.27-4.49-3-8,.05-.58.34-3.54,2-5,3.68-3.21,12.84,1.93,19,5C1331,154.53,1347.22,154.46,1362.59,154.39Z"/><path class="cls-1" d="M1347.59,146.41a136.13,136.13,0,0,1-2,19c-2.76,15.63-6.89,23.08-8,25-4.78,8.32-8.77,10.4-10,11-4.46,2.13-11.51,3.16-14,0-2.13-2.69.73-6.38,3-17,1.2-5.55,1.47-9.47,2-17a164.19,164.19,0,0,0,0-23"/><path class="cls-1" d="M1406.59,105.39a71.88,71.88,0,0,1,12,28c3.26,17-.74,30.29-3,38a57,57,0,0,1-8,17c-3.23,4.64-6.82,9.63-13.13,11.34-2.84.77-8.79,1.57-10.87-1.34s1.54-6.21,4-16c1.76-7,1.85-12.66,1.94-18.42a102.61,102.61,0,0,0-1-16"/><path class="cls-2" d="M1265,54.69c-1.2,5.57-1.79,8.35-3.41,11.7-7.35,15.28-27.47,27.16-39,21-5.67-3-7.57-9.52-8-11-5.2-17.79,15.23-35.69,19-39,7.69-6.73,24.22-18.09,31-13C1270.53,28.85,1267.17,44.54,1265,54.69Z"/><path class="cls-5" d="M1364.59,37.39c8.65,15.91,11.66,39.92-1,57-15.79,21.32-46.13,18.55-63,17-16.58-1.51-40.58-3.71-51-22-10-17.59-3.25-42.69,7.14-57.43.45-.64.8-1.11,1-1.35,11.58-15.33,31.47-23.44,49-24C1308.52,6.55,1347.5,6,1364.59,37.39Z"/><path class="cls-2" d="M1392.22,78.8a19.72,19.72,0,0,1-8.74,9.25c-9.74,4.93-20.53-1.09-21-1.38C1347.62,78.12,1348,55.09,1348.19,43c.15-8.85.26-15.8,4.49-18.13,7.27-4,21.45,8.52,28.5,17.2C1383.76,45.28,1398.77,63.76,1392.22,78.8Z"/><path d="M1334.66,53a4.87,4.87,0,0,1-.43,3.13c-1.66,3.15-7.12,4-10.81,2-1.94-1-4.75-3.52-4.24-6.32.54-3,4.61-4.41,7.3-4.43C1330,47.35,1334,49.59,1334.66,53Z"/><path class="cls-4" d="M1332.59,33.39c.05,1.55-1.55,2.71-2,3-3.5,2.32-9.92.31-11-3a3,3,0,0,1,0-2c.89-2.22,5-2.77,8-2C1329.33,29.85,1332.53,31.24,1332.59,33.39Z"/><path class="cls-4" d="M1273.59,36.39c.27-.74.94-2.63,0-4-1.19-1.73-4.24-1.54-6-1-4.3,1.33-7.38,6.76-6,9,1.06,1.72,4.55,1.33,6,1C1267.78,41.35,1272.21,40.28,1273.59,36.39Z"/><path d="M1279.59,56.39c-1.63,4-6.45,4.86-7.5,5-.51.08-6,.78-7.5-2s1.48-7.17,5-9c3.25-1.68,8.3-1.73,10,1C1280.82,53.36,1279.78,55.92,1279.59,56.39Z"/><path d="M1300.59,65.39c-.55,1.74-3.71,2-4,2-1.85.13-4.5-.45-5-2a1.49,1.49,0,0,1,0-1c.43-1,2.21-1,4.5-1s4.07,0,4.5,1A1.38,1.38,0,0,1,1300.59,65.39Z"/><path class="cls-6" d="M1304.09,79.89a9.67,9.67,0,0,1-14,0"/><path class="cls-1" d="M2009.45,102.13a48.83,48.83,0,0,0-7,7c-9.14,11.28-10.5,23.59-12,39-2,20.91,1.39,31.69,3,36s3.82,8.65,8,12c5.6,4.5,14.61,7.26,18,4,3.09-3-.06-9.42-2-18-1.9-8.39-3.13-21,1-38"/><path class="cls-1" d="M2091.45,153.13a185,185,0,0,1-8,29c-2.74,7.5-5,12-9.71,14.78-4.16,2.42-10.6,3.7-13,1-2.6-2.91,1.19-8.58,3.71-18.78a73.5,73.5,0,0,0,2-22"/><path class="cls-2" d="M2142.74,77.91c-4.69-5.33-13.15-8.6-16-6-3.94,3.6,7.15,14.42,3,27-2.95,8.91-11.63,12.93-10,16,1.29,2.45,7.57,1.35,8.47,1.2,7.25-1.26,13.43-6.73,16.53-13.2C2148,96.14,2149.23,85.31,2142.74,77.91Z"/><path class="cls-3" d="M2006.45,149.13a68.11,68.11,0,0,0,11,9c11.68,7.66,22.67,9.65,29.29,10.78,8.83,1.51,28.39,4.56,49.71-4.78a76.23,76.23,0,0,0,25.29-18.2c7.92-8.19,9.43-13.09,10-16a27.47,27.47,0,0,0-2-16,26.88,26.88,0,0,0-5.29-7.8c-1.6-1.62-6.67-6.28-17-8-20.17-3.35-41.33,7.7-64.71,7.78-8.64,0-21.38-1.42-37-9"/><path class="cls-4" d="M2080.74,154.91c17.9-.22,28.94-4.95,29.71-2.78s-9.25,8.32-19,12c-18,6.8-33.83,4.65-45,3,0,0-22.29-3.28-32-14-.85-.94-3-3.26-2.71-6.2a7,7,0,0,1,2.71-4.8c4.34-3.14,13,2.1,18.29,4.78C2049.38,155.3,2066.36,155.09,2080.74,154.91Z"/><path class="cls-1" d="M2063.45,148.13a62.47,62.47,0,0,1-4,13,66.52,66.52,0,0,1-16,22c-5.62,4.78-10.69,9.08-18,9-.8,0-10.12-.2-12-5-2.23-5.73,8.71-11.52,16-26a58.72,58.72,0,0,0,6-22"/><path class="cls-1" d="M2124.45,106.13a40.27,40.27,0,0,1,9,12c1.16,2.38,3,6.85,4,16,.43,4.08,1.37,18.74-3.71,37.78a61.08,61.08,0,0,1-7.29,17.22c-3,4.76-6.08,9.55-12,12-3.73,1.55-10.63,3-13,0-2.23-2.82,1.76-6.82,4.29-18.22a83.77,83.77,0,0,0,1.71-18.78,111,111,0,0,0-1-16"/><path class="cls-2" d="M1983.07,58.17c-.92,5.61-1.39,8.42-2.84,11.85-6.62,15.6-26.15,28.43-38,22.83-5.81-2.76-8-9.15-8.51-10.61-6-17.53,13.51-36.37,17.12-39.86,7.36-7.09,23.33-19.22,30.35-14.46C1987.37,32.09,1984.76,47.92,1983.07,58.17Z"/><path class="cls-5" d="M2082.74,37.91c8.65,15.91,11.65,39.92-1,57-15.8,21.32-46.14,18.55-63,17-16.58-1.52-40.59-3.71-51-22-10-17.59-3.26-42.69,7.13-57.43.45-.64.8-1.11,1-1.35,11.59-15.33,31.47-23.44,49-24C2026.66,7.07,2065.64,6.48,2082.74,37.91Z"/><path class="cls-2" d="M2109.33,82.28a19.78,19.78,0,0,1-9.17,8.84c-9.95,4.47-20.45-2-21-2.36-14.4-9.22-13-32.21-12.2-44.25.56-8.83,1-15.77,5.33-17.9,7.45-3.67,21,9.51,27.67,18.5C2102.43,48.41,2116.56,67.56,2109.33,82.28Z"/><path d="M2054.8,55.48a4.8,4.8,0,0,1-.43,3.13c-1.66,3.15-7.12,4-10.81,2-1.94-1-4.75-3.52-4.24-6.32.55-3,4.61-4.41,7.31-4.43C2050.13,49.87,2054.17,52.11,2054.8,55.48Z"/><path class="cls-4" d="M2051.74,36.91c0,1.55-1.56,2.71-2,3-3.5,2.32-9.93.3-11-3a2.9,2.9,0,0,1,0-2c.89-2.22,5-2.77,8-2C2048.47,33.36,2051.68,34.76,2051.74,36.91Z"/><path class="cls-4" d="M1992.74,38.91c.26-.74.93-2.63,0-4-1.2-1.73-4.24-1.54-6-1-4.31,1.33-7.38,6.76-6,9,1,1.71,4.54,1.33,6,1C1986.92,43.87,1991.35,42.8,1992.74,38.91Z"/><path d="M1998.74,58.91c-1.63,4-6.46,4.86-7.5,5-.52.07-6,.78-7.5-2s1.47-7.17,5-9c3.24-1.68,8.29-1.73,10,1C2000,55.88,1998.93,58.44,1998.74,58.91Z"/><path d="M2020.74,66.91c-.55,1.74-3.72,2-4,2-1.86.13-4.51-.45-5-2a1.38,1.38,0,0,1,0-1c.43-1,2.2-1,4.5-1s4.07,0,4.5,1A1.5,1.5,0,0,1,2020.74,66.91Z"/><path class="cls-6" d="M2023.24,79.41a9.67,9.67,0,0,1-14,0"/><path class="cls-7" d="M2023,85.42a4.31,4.31,0,0,1-3.29,3.29c-3.22.49-6-4.23-5.22-5.58.38-.67,1.43-.11,4-1,1.86-.64,2.25-1.24,3-1C2022.67,81.53,2023.36,83.68,2023,85.42Z"/><path class="cls-1" d="M1767.59,101.41c-.85,2.14-2.18,5.29-4,9-9.21,18.82-21,32.22-26,37-13.74,13.24-20.25,16.74-19,21,1.32,4.49,10.2,6.29,16,6,4.73-.23,8-1.88,14-5a79.7,79.7,0,0,0,16-11,84.32,84.32,0,0,0,12-13"/><path class="cls-1" d="M1854.59,151.39a130.08,130.08,0,0,1-5,34c-1.49,5.13-3.31,10.05-8,13-4.22,2.66-10.71,3.7-13,1-2.59-3,2-8.69,4-18s.33-18.19-2-25"/><path class="cls-2" d="M1901.59,75.39c-4.68-5.33-13.14-8.6-16-6-3.93,3.6,7.16,14.42,3,27-2.94,8.91-11.62,12.93-10,16,1.3,2.45,7.58,1.35,8.48,1.2,7.24-1.26,13.43-6.73,16.52-13.2C1906.83,93.62,1908.09,82.79,1901.59,75.39Z"/><path class="cls-3" d="M1767.59,138.41c.79,4.81,2.85,12.58,9,19,8,8.32,18.13,9.53,32,11,10.5,1.1,29.13,2.89,50-6a78.12,78.12,0,0,0,25-17c8.22-8.37,9.58-13.79,10-16a27.62,27.62,0,0,0-21-32c-17.13-4.51-43.46,7.86-68,8-8.63,0-21.36-1.38-37-9"/><path class="cls-4" d="M1842.59,154.39c18.61-.08,28.34-4.88,29-3,.91,2.62-16.78,14-37,16a121.51,121.51,0,0,1-18,0,118.53,118.53,0,0,1-22-3,37.09,37.09,0,0,1-11-4,21.93,21.93,0,0,1-7-6c-1.38-1.9-3.27-4.49-3-8,.05-.58.34-3.54,2-5,3.68-3.21,12.84,1.93,19,5C1811,154.53,1827.22,154.46,1842.59,154.39Z"/><path class="cls-1" d="M1827.59,146.41a136.13,136.13,0,0,1-2,19c-2.76,15.63-6.89,23.08-8,25-4.78,8.32-8.77,10.4-10,11-4.46,2.13-11.51,3.16-14,0-2.13-2.69.73-6.38,3-17,1.2-5.55,1.47-9.47,2-17a164.19,164.19,0,0,0,0-23"/><path class="cls-1" d="M1886.59,105.39a71.88,71.88,0,0,1,12,28c3.26,17-.74,30.29-3,38a57,57,0,0,1-8,17c-3.23,4.64-6.82,9.63-13.13,11.34-2.84.77-8.79,1.57-10.87-1.34s1.54-6.21,4-16c1.76-7,1.85-12.66,1.94-18.42a102.61,102.61,0,0,0-1-16"/><path class="cls-2" d="M1745,54.69c-1.2,5.57-1.79,8.35-3.41,11.7-7.35,15.28-27.47,27.16-39,21-5.67-3-7.57-9.52-8-11-5.2-17.79,15.23-35.69,19-39,7.69-6.73,24.22-18.09,31-13C1750.53,28.85,1747.17,44.54,1745,54.69Z"/><path class="cls-5" d="M1844.59,37.39c8.65,15.91,11.66,39.92-1,57-15.79,21.32-46.13,18.55-63,17-16.58-1.51-40.58-3.71-51-22-10-17.59-3.25-42.69,7.14-57.43.45-.64.8-1.11,1-1.35,11.58-15.33,31.47-23.44,49-24C1788.52,6.55,1827.5,6,1844.59,37.39Z"/><path class="cls-2" d="M1872.22,78.8a19.72,19.72,0,0,1-8.74,9.25c-9.74,4.93-20.53-1.09-21-1.38C1827.62,78.12,1828,55.09,1828.19,43c.15-8.85.26-15.8,4.49-18.13,7.27-4,21.45,8.52,28.5,17.2C1863.76,45.28,1878.77,63.76,1872.22,78.8Z"/><path d="M1814.66,53a4.87,4.87,0,0,1-.43,3.13c-1.66,3.15-7.12,4-10.81,2-1.94-1-4.75-3.52-4.24-6.32.54-3,4.61-4.41,7.3-4.43C1810,47.35,1814,49.59,1814.66,53Z"/><path class="cls-4" d="M1812.59,33.39c.05,1.55-1.55,2.71-2,3-3.5,2.32-9.92.31-11-3a3,3,0,0,1,0-2c.89-2.22,5-2.77,8-2C1809.33,29.85,1812.53,31.24,1812.59,33.39Z"/><path class="cls-4" d="M1753.59,36.39c.27-.74.94-2.63,0-4-1.19-1.73-4.24-1.54-6-1-4.3,1.33-7.38,6.76-6,9,1.06,1.72,4.55,1.33,6,1C1747.78,41.35,1752.21,40.28,1753.59,36.39Z"/><path d="M1759.59,56.39c-1.63,4-6.45,4.86-7.5,5-.51.08-6,.78-7.5-2s1.48-7.17,5-9c3.25-1.68,8.3-1.73,10,1C1760.82,53.36,1759.78,55.92,1759.59,56.39Z"/><path d="M1780.59,65.39c-.55,1.74-3.71,2-4,2-1.85.13-4.5-.45-5-2a1.49,1.49,0,0,1,0-1c.43-1,2.21-1,4.5-1s4.07,0,4.5,1A1.38,1.38,0,0,1,1780.59,65.39Z"/><path class="cls-6" d="M1784.09,79.89a9.67,9.67,0,0,1-14,0"/><path class="cls-1" d="M2552.41,101.41c.85,2.14,2.18,5.29,4,9,9.21,18.82,21,32.22,26,37,13.74,13.24,20.25,16.74,19,21-1.32,4.49-10.2,6.29-16,6-4.73-.23-7.95-1.88-14-5a79.7,79.7,0,0,1-16-11,84.32,84.32,0,0,1-12-13"/><path class="cls-1" d="M2465.41,151.39a130.08,130.08,0,0,0,5,34c1.49,5.13,3.31,10.05,8,13,4.22,2.66,10.71,3.7,13,1,2.59-3-2-8.69-4-18s-.33-18.19,2-25"/><path class="cls-2" d="M2418.41,75.39c4.68-5.33,13.14-8.6,16-6,3.93,3.6-7.16,14.42-3,27,2.94,8.91,11.62,12.93,10,16-1.3,2.45-7.58,1.35-8.48,1.2-7.24-1.26-13.43-6.73-16.52-13.2C2413.17,93.62,2411.91,82.79,2418.41,75.39Z"/><path class="cls-3" d="M2552.41,138.41c-.79,4.81-2.85,12.58-9,19-8,8.32-18.13,9.53-32,11-10.5,1.1-29.13,2.89-50-6a78.12,78.12,0,0,1-25-17c-8.22-8.37-9.58-13.79-10-16a27.62,27.62,0,0,1,21-32c17.13-4.51,43.46,7.86,68,8,8.63,0,21.36-1.38,37-9"/><path class="cls-4" d="M2477.41,154.39c-18.61-.08-28.34-4.88-29-3-.91,2.62,16.78,14,37,16a121.51,121.51,0,0,0,18,0,118.53,118.53,0,0,0,22-3,37.09,37.09,0,0,0,11-4,21.93,21.93,0,0,0,7-6c1.38-1.9,3.27-4.49,3-8,0-.58-.34-3.54-2-5-3.68-3.21-12.84,1.93-19,5C2509,154.53,2492.78,154.46,2477.41,154.39Z"/><path class="cls-1" d="M2492.41,146.41a136.13,136.13,0,0,0,2,19c2.76,15.63,6.89,23.08,8,25,4.78,8.32,8.77,10.4,10,11,4.46,2.13,11.51,3.16,14,0,2.13-2.69-.73-6.38-3-17-1.2-5.55-1.47-9.47-2-17a164.19,164.19,0,0,1,0-23"/><path class="cls-1" d="M2433.41,105.39a71.88,71.88,0,0,0-12,28c-3.26,17,.74,30.29,3,38a57,57,0,0,0,8,17c3.23,4.64,6.82,9.63,13.13,11.34,2.84.77,8.79,1.57,10.87-1.34s-1.54-6.21-4-16c-1.76-7-1.85-12.66-1.94-18.42a102.61,102.61,0,0,1,1-16"/><path class="cls-2" d="M2575,54.69c1.2,5.57,1.79,8.35,3.41,11.7,7.35,15.28,27.47,27.16,39,21,5.67-3,7.57-9.52,8-11,5.2-17.79-15.23-35.69-19-39-7.69-6.73-24.22-18.09-31-13C2569.47,28.85,2572.83,44.54,2575,54.69Z"/><path class="cls-5" d="M2475.41,37.39c-8.65,15.91-11.66,39.92,1,57,15.79,21.32,46.13,18.55,63,17,16.58-1.51,40.58-3.71,51-22,10-17.59,3.25-42.69-7.14-57.43-.45-.64-.8-1.11-1-1.35-11.58-15.33-31.47-23.44-49-24C2531.48,6.55,2492.5,6,2475.41,37.39Z"/><path class="cls-2" d="M2447.78,78.8a19.72,19.72,0,0,0,8.74,9.25c9.74,4.93,20.53-1.09,21.05-1.38,14.81-8.55,14.44-31.58,14.24-43.64-.15-8.85-.26-15.8-4.49-18.13-7.27-4-21.45,8.52-28.5,17.2C2456.24,45.28,2441.23,63.76,2447.78,78.8Z"/><path d="M2505.34,53a4.87,4.87,0,0,0,.43,3.13c1.66,3.15,7.12,4,10.81,2,1.94-1,4.75-3.52,4.24-6.32-.54-3-4.61-4.41-7.3-4.43C2510,47.35,2506,49.59,2505.34,53Z"/><path class="cls-4" d="M2507.41,33.39c0,1.55,1.55,2.71,2,3,3.5,2.32,9.92.31,11-3a3,3,0,0,0,0-2c-.89-2.22-5-2.77-8-2C2510.67,29.85,2507.47,31.24,2507.41,33.39Z"/><path class="cls-4" d="M2566.41,36.39c-.27-.74-.94-2.63,0-4,1.19-1.73,4.24-1.54,6-1,4.3,1.33,7.38,6.76,6,9-1.06,1.72-4.55,1.33-6,1C2572.22,41.35,2567.79,40.28,2566.41,36.39Z"/><path d="M2560.41,56.39c1.63,4,6.45,4.86,7.5,5,.51.08,6,.78,7.5-2s-1.48-7.17-5-9c-3.25-1.68-8.3-1.73-10,1C2559.18,53.36,2560.22,55.92,2560.41,56.39Z"/><path d="M2539.41,65.39c.55,1.74,3.71,2,4,2,1.85.13,4.5-.45,5-2a1.49,1.49,0,0,0,0-1c-.43-1-2.21-1-4.5-1s-4.07,0-4.5,1A1.38,1.38,0,0,0,2539.41,65.39Z"/><path class="cls-6" d="M2535.91,79.89a9.67,9.67,0,0,0,14,0"/><path class="cls-1" d="M2790.55,102.13a48.83,48.83,0,0,1,7,7c9.14,11.28,10.5,23.59,12,39,2,20.91-1.39,31.69-3,36s-3.82,8.65-8,12c-5.6,4.5-14.61,7.26-18,4-3.09-3,.06-9.42,2-18,1.9-8.39,3.13-21-1-38"/><path class="cls-1" d="M2708.55,153.13a185,185,0,0,0,8,29c2.74,7.5,5,12,9.71,14.78,4.16,2.42,10.6,3.7,13,1,2.6-2.91-1.19-8.58-3.71-18.78a73.5,73.5,0,0,1-2-22"/><path class="cls-2" d="M2657.26,77.91c4.69-5.33,13.15-8.6,16-6,3.94,3.6-7.15,14.42-3,27,2.95,8.91,11.63,12.93,10,16-1.29,2.45-7.57,1.35-8.47,1.2-7.25-1.26-13.43-6.73-16.53-13.2C2652,96.14,2650.77,85.31,2657.26,77.91Z"/><path class="cls-3" d="M2793.55,149.13a68.11,68.11,0,0,1-11,9c-11.68,7.66-22.67,9.65-29.29,10.78-8.83,1.51-28.39,4.56-49.71-4.78a76.23,76.23,0,0,1-25.29-18.2c-7.92-8.19-9.43-13.09-10-16a27.47,27.47,0,0,1,2-16,26.88,26.88,0,0,1,5.29-7.8c1.6-1.62,6.67-6.28,17-8,20.17-3.35,41.33,7.7,64.71,7.78,8.64,0,21.38-1.42,37-9"/><path class="cls-4" d="M2719.26,154.91c-17.9-.22-28.94-4.95-29.71-2.78s9.25,8.32,19,12c18,6.8,33.83,4.65,45,3,0,0,22.29-3.28,32-14,.85-.94,2.95-3.26,2.71-6.2a7,7,0,0,0-2.71-4.8c-4.34-3.14-13,2.1-18.29,4.78C2750.62,155.3,2733.64,155.09,2719.26,154.91Z"/><path class="cls-1" d="M2736.55,148.13a62.47,62.47,0,0,0,4,13,66.52,66.52,0,0,0,16,22c5.62,4.78,10.69,9.08,18,9,.8,0,10.12-.2,12-5,2.23-5.73-8.71-11.52-16-26a58.72,58.72,0,0,1-6-22"/><path class="cls-1" d="M2675.55,106.13a40.27,40.27,0,0,0-9,12c-1.16,2.38-3,6.85-4,16-.43,4.08-1.37,18.74,3.71,37.78a61.08,61.08,0,0,0,7.29,17.22c3,4.76,6.08,9.55,12,12,3.73,1.55,10.63,3,13,0,2.23-2.82-1.76-6.82-4.29-18.22a83.77,83.77,0,0,1-1.71-18.78,111,111,0,0,1,1-16"/><path class="cls-2" d="M2816.93,58.17c.92,5.61,1.39,8.42,2.84,11.85,6.62,15.6,26.15,28.43,38,22.83,5.81-2.76,8-9.15,8.51-10.61,6-17.53-13.51-36.37-17.12-39.86-7.36-7.09-23.33-19.22-30.35-14.46C2812.63,32.09,2815.24,47.92,2816.93,58.17Z"/><path class="cls-5" d="M2717.26,37.91c-8.65,15.91-11.65,39.92,1,57,15.8,21.32,46.14,18.55,63,17,16.58-1.52,40.59-3.71,51-22,10-17.59,3.26-42.69-7.13-57.43-.45-.64-.8-1.11-1-1.35-11.59-15.33-31.47-23.44-49-24C2773.34,7.07,2734.36,6.48,2717.26,37.91Z"/><path class="cls-2" d="M2690.67,82.28a19.78,19.78,0,0,0,9.17,8.84c9.95,4.47,20.45-2,21-2.36,14.4-9.22,13-32.21,12.2-44.25-.56-8.83-1-15.77-5.33-17.9-7.45-3.67-21,9.51-27.67,18.5C2697.57,48.41,2683.44,67.56,2690.67,82.28Z"/><path d="M2745.2,55.48a4.8,4.8,0,0,0,.43,3.13c1.66,3.15,7.12,4,10.81,2,1.94-1,4.75-3.52,4.24-6.32-.55-3-4.61-4.41-7.31-4.43C2749.87,49.87,2745.83,52.11,2745.2,55.48Z"/><path class="cls-4" d="M2748.26,36.91c0,1.55,1.56,2.71,2,3,3.5,2.32,9.93.3,11-3a2.9,2.9,0,0,0,0-2c-.89-2.22-5-2.77-8-2C2751.53,33.36,2748.32,34.76,2748.26,36.91Z"/><path class="cls-4" d="M2807.26,38.91c-.26-.74-.93-2.63,0-4,1.2-1.73,4.24-1.54,6-1,4.31,1.33,7.38,6.76,6,9-1.05,1.71-4.54,1.33-6,1C2813.08,43.87,2808.65,42.8,2807.26,38.91Z"/><path d="M2801.26,58.91c1.63,4,6.46,4.86,7.5,5,.52.07,6,.78,7.5-2s-1.47-7.17-5-9c-3.24-1.68-8.29-1.73-10,1C2800,55.88,2801.07,58.44,2801.26,58.91Z"/><path d="M2779.26,66.91c.55,1.74,3.72,2,4,2,1.86.13,4.51-.45,5-2a1.38,1.38,0,0,0,0-1c-.43-1-2.2-1-4.5-1s-4.07,0-4.5,1A1.5,1.5,0,0,0,2779.26,66.91Z"/><path class="cls-6" d="M2776.76,79.41a9.67,9.67,0,0,0,14,0"/><path class="cls-7" d="M2777,85.42a4.31,4.31,0,0,0,3.29,3.29c3.22.49,6-4.23,5.22-5.58-.38-.67-1.43-.11-4-1-1.86-.64-2.25-1.24-3-1C2777.33,81.53,2776.64,83.68,2777,85.42Z"/></svg>