<svg xmlns="http://www.w3.org/2000/svg" viewBox="0 0 216.5 200.61"><defs><style>.cls-1,.cls-3,.cls-5{fill:#ca956d;}.cls-1,.cls-2,.cls-3,.cls-5,.cls-6{stroke:#000;}.cls-1,.cls-3,.cls-6{stroke-linecap:round;}.cls-1,.cls-2,.cls-5{stroke-miterlimit:10;}.cls-1,.cls-2,.cls-3,.cls-5{stroke-width:4px;}.cls-2{fill:#774f3d;}.cls-3,.cls-6{stroke-linejoin:round;}.cls-4{fill:#fff;}.cls-6{fill:none;stroke-width:3px;}</style></defs><g id="Layer_2" data-name="Layer 2"><g id="doggo"><g id="Layer_9" data-name="Layer 9"><path class="cls-1" d="M143.66,97.79a110.19,110.19,0,0,1,14,30,113.14,113.14,0,0,1,2,46c-.72,4.09-2.11,10.2-7,15a18.46,18.46,0,0,1-9,5c-1.85.39-6.7,1.4-9-1s-.41-6.47,1-14a73.11,73.11,0,0,0,1-23c-.3-2.59-.72-4.69-1-6"/><path class="cls-1" d="M51.66,146.79a130.08,130.08,0,0,0,5,34c1.49,5.13,3.31,10.05,8,13,4.22,2.66,10.71,3.7,13,1,2.59-3-2-8.69-4-18s-.33-18.19,2-25"/><path class="cls-2" d="M6.66,70.79c4.68-5.33,13.14-8.6,16-6,3.93,3.6-7.16,14.42-3,27,2.94,8.91,11.62,12.93,10,16-1.3,2.45-7.58,1.35-8.48,1.2-7.24-1.26-13.43-6.73-16.52-13.2C1.42,89,.16,78.19,6.66,70.79Z"/><path class="cls-3" d="M144.66,135.79a44.36,44.36,0,0,1-12,17c-9.67,8.32-20.31,9.71-33,11-12.17,1.24-30.2,3.07-50-6-8.89-4.07-19-8.69-25-20-1.16-2.17-8.62-16.71-2-31a32.05,32.05,0,0,1,13-14c18.51-10.22,36.29,6.5,68,8,9.81.47,24.83-.34,43.7-7.73"/><path class="cls-4" d="M65.66,149.79c-18.42-.43-27.35-4.83-28-3-.94,2.61,16.22,14.46,36,16a132.54,132.54,0,0,0,18,0c11.84-.57,18.37-2,22-3a54.25,54.25,0,0,0,11-4,26.62,26.62,0,0,0,10-8c1.49-2.06,2-3.52,2-5a7,7,0,0,0-2-5c-2.56-2.24-6.79-1.15-11,0s-6.13,1.68-10,4C99.33,150.4,69.13,149.87,65.66,149.79Z"/><path class="cls-1" d="M87.66,137.79a155,155,0,0,0-1,23c.5,16.24,3.28,22.7,5,26,3.76,7.27,7.59,9.33,9,10,3.69,1.75,10.1,3,13,0,2.43-2.53.61-6.23-1-19,0,0-1-8-1.26-15a89.11,89.11,0,0,1,2.26-23"/><path class="cls-1" d="M25.66,101.79a71.88,71.88,0,0,0-12,28c-3.26,17,.74,30.29,3,38a57,57,0,0,0,8,17c3.23,4.64,6.82,9.63,13.13,11.34,2.84.77,8.79,1.57,10.87-1.34s-1.54-6.21-4-16c-1.76-7-1.85-12.66-1.94-18.42a102.61,102.61,0,0,1,1-16"/><path class="cls-2" d="M163.25,56.09c1.2,5.57,1.79,8.35,3.41,11.7,7.35,15.28,27.47,27.16,39,21,5.67-3,7.56-9.52,8-11,5.2-17.79-15.23-35.69-19-39-7.69-6.73-24.22-18.09-31-13C157.72,30.25,161.08,45.94,163.25,56.09Z"/><path class="cls-5" d="M63.66,32.79C55,48.7,52,72.71,64.66,89.79c15.79,21.32,46.13,18.55,63,17,16.58-1.51,40.58-3.71,51-22,10-17.59,3.25-42.69-7.14-57.43-.45-.64-.8-1.11-1-1.35C159,10.68,139.07,2.57,121.54,2,119.73,2,80.75,1.36,63.66,32.79Z"/><path class="cls-2" d="M36.66,74.79c.54,1.17,3.18,6.78,9,9,8.79,3.36,18.15-3.62,20-5,15-11.17,14.26-33,14-41s-.52-15.69-5-18c-7.39-3.8-21.21,9.13-28,18C44.16,41.05,29.69,59.94,36.66,74.79Z"/><path d="M96.6,50.29a4.91,4.91,0,0,0,.8,3.06c2,2.92,7.55,3.09,11,.72,1.8-1.25,4.29-4.07,3.45-6.79-.91-2.94-5.11-3.82-7.79-3.52C100.56,44.16,96.82,46.87,96.6,50.29Z"/><path class="cls-4" d="M96.66,28.79c0,1.55,1.55,2.71,2,3,3.5,2.32,9.92.31,11-3a3,3,0,0,0,0-2c-.9-2.22-5-2.77-8-2C99.92,25.25,96.71,26.64,96.66,28.79Z"/><path class="cls-4" d="M157.66,32.79c-.27-.74-.94-2.63,0-4,1.19-1.73,4.24-1.54,6-1,4.3,1.33,7.37,6.76,6,9-1.06,1.72-4.55,1.33-6,1C163.47,37.75,159,36.68,157.66,32.79Z"/><path d="M150.66,52.79c1.63,4,6.45,4.86,7.5,5,.51.08,6,.78,7.5-2s-1.48-7.17-5-9c-3.25-1.68-8.3-1.73-10,1C149.43,49.76,150.47,52.32,150.66,52.79Z"/><path d="M127.66,60.79c.55,1.74,3.71,2,4,2,1.85.13,4.5-.45,5-2a1.49,1.49,0,0,0,0-1c-.44-1-2.21-1-4.5-1s-4.07,0-4.5,1A1.38,1.38,0,0,0,127.66,60.79Z"/><path class="cls-6" d="M126.16,75.29a9.67,9.67,0,0,0,14,0"/></g></g></g></svg>