<svg xmlns="http://www.w3.org/2000/svg" viewBox="0 0 204.9 199.12"><defs><style>.cls-1,.cls-3{fill:#f1bd6a;stroke-width:4px;}.cls-1,.cls-3,.cls-4,.cls-5{stroke:#000;}.cls-1,.cls-4,.cls-5{stroke-linecap:round;stroke-linejoin:round;}.cls-2{fill:#fff;}.cls-3{stroke-miterlimit:10;}.cls-4{fill:none;stroke-width:3px;}.cls-5{fill:#ffb3a4;stroke-width:2px;}</style></defs><g id="Layer_2" data-name="Layer 2"><g id="Layer_22" data-name="Layer 22"><g id="Layer_18" data-name="Layer 18"><path class="cls-1" d="M149.1,97.22a284,284,0,0,1,12,37c3.83,15.36,4.29,22.7,4,29-.43,9.13-1,22-10,28-3.7,2.48-10.26,4.74-14,2-4.84-3.54-1.12-12.65-2-27a75.55,75.55,0,0,0-6-25"/><path class="cls-1" d="M82.1,146.22a60.31,60.31,0,0,0-2,28c1.81,10.3,6,16.85,3,20s-11.22,1-16-2C49.4,181.11,56,143.39,56.8,139"/><path class="cls-1" d="M13.15,42.16c3.13-.6,6,1.84,6.66,2.39,10.54,9-5.08,28,5.05,44.94,3,5,8.06,9.61,8.53,18.09.14,2.39.33,5.85-1.41,6.86-4.47,2.59-21.92-11-27.69-29.18C-1.59,66.76,4.73,43.8,13.15,42.16Z"/><path class="cls-1" d="M145.1,88.22c-30.67,12.57-53.38,12.16-69,9-12-2.43-24.24-7.38-36-1-8.41,4.57-14.66,13.89-16,24-1.63,12.31,4.59,21.46,7,25,9,13.18,22.89,17.31,32,20,14.88,4.41,27,3.09,37,2,12.32-1.34,22.72-2.47,33-10a50,50,0,0,0,15-18"/><path class="cls-2" d="M39.1,149.22c-.22.79.26,2,4,5,12.86,10.49,28.89,11.53,38,12a127.92,127.92,0,0,0,22-1c10.27-1.09,14.23-2.37,16-3,6.87-2.44,17.68-8,17-13a4.93,4.93,0,0,0-2-3c-5.58-4.46-15.12.56-25,3-3.15.78-15.14.2-39-1C49,147.16,39.87,146.5,39.1,149.22Z"/><path class="cls-3" d="M76.9,39c-7.12,13.72-9.65,34.44,1,49.4,9.9,13.95,26.91,16.77,42.62,19.37a76,76,0,0,0,29.06,0c8.81-1.8,22.87-4.67,32.13-17,6.73-8.95,7.62-18.51,8-23.07,1.62-20.2-9.84-34.78-12-37.44C162.08,11.24,138.78,10.18,134.05,10,132.13,9.88,92.63,8.71,76.9,39Z"/><path class="cls-1" d="M186.36,53.56a67.78,67.78,0,0,0,7.75-15.5c3.18-9.15,6.81-19.6,1.94-25.19-6.15-7-22-2-25.19-1a42.44,42.44,0,0,0-11.62,5.82"/><path class="cls-1" d="M111.77,15.78A46.46,46.46,0,0,0,97.24,6.09C92.3,4,80.89-.78,75,4.15,71.9,6.7,71.63,12,71.09,22.56a60.9,60.9,0,0,0,1,15.5A55.55,55.55,0,0,0,75,47.74"/><path class="cls-1" d="M116.1,146.22a75.24,75.24,0,0,0-1,28c1.7,10.69,5.36,17.5,2,21-3.06,3.19-10.18,1.78-14,0-18.39-8.57-14.5-51-14-56"/><path class="cls-1" d="M51.1,139.22c-6.54,16.88-5.86,29-4,37,1.74,7.5,5.27,14.58,2,18-2.82,3-9.22,1.61-13,0-11-4.67-14.71-17.89-17-26a74.8,74.8,0,0,1,1-43,76.22,76.22,0,0,1,10-20"/><path d="M165.27,62.37a4.85,4.85,0,0,1-4.29,2.1c-3.06-.27-4.63-4-5-6.19-.43-2.42,0-6.21,2.14-7.06,2.37-.93,5.69,2.16,7,5C165.53,57.16,166.86,60,165.27,62.37Z"/><path d="M116.1,62.22a5.61,5.61,0,0,0,7,1c2.78-1.76,2.3-5.67,2.11-7.2-.08-.63-.64-5.26-3.2-5.87-2.38-.56-4.93,2.69-6,5C115.53,56.36,114,59.79,116.1,62.22Z"/><path d="M138.1,67.22c-.28,1.18,3.45,4.14,6,3,1.24-.55,2.24-2.09,1.85-3s-2.43-1-3.85-1C141.23,66.23,138.32,66.27,138.1,67.22Z"/><path class="cls-4" d="M176.84,71.45a56.25,56.25,0,0,1,26.56-11"/><path class="cls-4" d="M175.21,78.19a91.07,91.07,0,0,1,27.32.42"/><path class="cls-4" d="M82.87,58.08A91.76,91.76,0,0,1,92,61.74a90.31,90.31,0,0,1,10.46,5.72"/><path class="cls-4" d="M81.12,75.74a85.69,85.69,0,0,1,11,0c3,.18,5.72.51,8.24.91"/><path class="cls-4" d="M135.7,80.89a16.53,16.53,0,0,0,13.65,0"/><path class="cls-5" d="M170.1,27.22c-.5,2.43,1.72,4.88,5,8.5,3.07,3.39,5.29,5.85,8,5.5,3.54-.45,5.38-5.34,6-7,.36-.94,2.92-7.76-.27-11.32C184.38,17.93,171.16,22,170.1,27.22Z"/><path class="cls-5" d="M84.1,35.22c2.83,1.08,6.09-1.6,9-4,3.08-2.53,7.31-6,6.53-9.78-.68-3.26-4.76-4.85-7.17-5.79s-7.18-2.8-10.36-.43c-3.64,2.72-2.52,9-2,12S81.32,34.17,84.1,35.22Z"/><path class="cls-2" d="M141.1,177.22a91.14,91.14,0,0,0-1,10c0,1.26-.09,2.92,1,4a4.25,4.25,0,0,0,3,1,17.29,17.29,0,0,0,13-5c2.32-2.64,3.09-5.54,4-9a33.31,33.31,0,0,0,1-6,61.8,61.8,0,0,1-13,4A60.17,60.17,0,0,1,141.1,177.22Z"/><path class="cls-2" d="M94.1,180.22c.46,2,2.18,8.27,8,12,3.46,2.22,9.71,4.41,13,2a4,4,0,0,0,1-1c1.12-1.63.39-3.63-1-9-.22-.83-.57-2.23-1-4a50.5,50.5,0,0,1-20,0Z"/><path class="cls-2" d="M72.1,182.22a38.3,38.3,0,0,0,7-1,36.1,36.1,0,0,1,2,5c1.07,3.38,1.61,5.07,1,6-1.59,2.42-8.95,1.38-14-2a19,19,0,0,1-7-9A39.1,39.1,0,0,0,72.1,182.22Z"/><path class="cls-2" d="M28.1,184.22a38.77,38.77,0,0,1-3-5,64.16,64.16,0,0,0,21,2,28.77,28.77,0,0,1,2,7c.33,2.14.48,3.22,0,4-1.53,2.48-7.68,2.17-12,0C32.49,190.41,30.34,187.38,28.1,184.22Z"/><path class="cls-2" d="M21.1,50.22a14,14,0,0,1,.45,5.13,28.83,28.83,0,0,1-.7,5.75A21.72,21.72,0,0,0,5.1,58.22c.23-.73.56-1.77,1-3a48.22,48.22,0,0,1,2-5c1.43-2.89,2.72-5.48,5-6C16.19,43.52,19.93,46.91,21.1,50.22Z"/></g></g></g></svg>