<svg xmlns="http://www.w3.org/2000/svg" viewBox="0 0 160.42 204.21"><defs><style>.cls-1,.cls-3{fill:#f1bd6a;}.cls-1,.cls-3,.cls-4,.cls-5,.cls-6{stroke:#000;}.cls-1,.cls-4,.cls-5,.cls-6{stroke-linecap:round;stroke-linejoin:round;}.cls-1,.cls-3,.cls-6{stroke-width:4px;}.cls-2,.cls-6{fill:#fff;}.cls-3{stroke-miterlimit:10;}.cls-4{fill:none;stroke-width:3px;}.cls-5{fill:#ffb3a4;stroke-width:2px;}</style></defs><g id="Layer_2" data-name="Layer 2"><g id="Layer_22" data-name="Layer 22"><g id="Layer_21" data-name="Layer 21"><path class="cls-1" d="M138.35,140.34c-2.67,10.74-9.47,12.37-11.9,24.74-.81,4.07-1.44,7.29,0,8.24,4,2.66,24.29-12.36,30.22-33.89,3.46-12.54,1.73-26.15-4.58-33.89-1.22-1.51-3.75-4.49-7.32-4.59-4-.1-7.91,3.52-9.16,7.33-1.45,4.39,1.16,7.2,2.74,13.74A42.94,42.94,0,0,1,138.35,140.34Z"/><path class="cls-2" d="M136.52,111c.08,1.19.59,1.5,1.83,4.58a47.23,47.23,0,0,1,1.84,5.5,26,26,0,0,1,7.32-4.58,25.56,25.56,0,0,1,7.33-1.83,18.67,18.67,0,0,0-3.66-7.33c-1.77-2.16-3.63-4.42-6.41-4.58C140.48,102.54,136.28,107.41,136.52,111Z"/><path class="cls-1" d="M72.14,88.27c-8.72,4.11-16-4.72-23-2-9,3.5-6.8,14.23-16,34-10.44,22.43-21,25.22-22,42-.29,5-.73,12.8,4,19,7.36,9.64,20,6,54,7,35.81,1.09,46.16,5.9,56-3,6.58-6,10-16.12,10-25,0-2.87-.38-7.93-5-18-5.63-12.28-10.46-16.56-27-37-12.48-15.42-18.09-23.33-24-22C76.1,84,76.2,86.36,72.14,88.27Z"/><path class="cls-2" d="M95.14,161.27c8.64,7.1,16,20.38,12,26-3.46,4.89-12.26-.56-36-1-20.49-.38-29.09,3.41-33-2s.17-14.89,4-20c8.22-11,22.89-11,28-11C74.58,153.26,85.57,153.4,95.14,161.27Z"/><path class="cls-1" d="M47.64,15a29.26,29.26,0,0,0-9-8.5C32.7,3,21.53-.65,14.78,4.69c-4.36,3.45-4.94,9.14-5.49,14.66-1.12,11,2.29,20.36,5.49,26.56"/><path class="cls-3" d="M13,39.5C11.44,42.6.43,65.28,11.14,83.27,21,99.8,43.42,102.68,57.84,104.54a105.68,105.68,0,0,0,24.73,0c18.85-1.73,30.08-2.76,38.57-11.27,11.32-11.33,10.32-28.47,10-34a55.89,55.89,0,0,0-12-31c-17.53-22.51-45.61-23-49-23C47.32,5.25,23.5,17.77,13,39.5Z"/><path class="cls-1" d="M122,50.49a67.71,67.71,0,0,0,8.24-22c1.63-8.79,2.87-15.47-.92-20.16C122.49,0,105.11,4.92,102.72,5.6a42.33,42.33,0,0,0-17.4,10.08"/><path d="M93.48,55.07a5.27,5.27,0,0,1-3.67,3.66c-3.18.83-6.14-2.24-7.33-4.58-1-2-1.85-5.69,0-7.32,2-1.8,6.11-.08,8.25,1.83C91.38,49.24,94.33,51.87,93.48,55.07Z"/><path d="M31.35,54.24A5,5,0,0,0,35.93,57c3.6-.05,5.35-4.22,5.5-4.58,1-2.5.94-6.22-.92-7.33C38,43.58,32.75,47,31.42,51A4.67,4.67,0,0,0,31.35,54.24Z"/><path d="M54.17,58.73c-.38,1.1,2,3.67,4.58,3.67s5-2.57,4.58-3.67c-.32-.91-2.55-.91-4.58-.91S54.49,57.82,54.17,58.73Z"/><path class="cls-4" d="M108.22,67A55.82,55.82,0,0,1,121,59.65,56.49,56.49,0,0,1,134.78,56"/><path class="cls-4" d="M110.58,72.73a90.73,90.73,0,0,1,27.33.41"/><path class="cls-4" d="M4.25,54.61a91.48,91.48,0,0,1,9.16,3.67A92.75,92.75,0,0,1,23.87,64"/><path class="cls-4" d="M1.5,69.27a85.53,85.53,0,0,1,11,0c3,.19,5.73.51,8.25.91"/><path class="cls-4" d="M67.64,76.77a15.1,15.1,0,0,0-16-1"/><path class="cls-5" d="M99.06,23c-.24,1.57,2,3.82,6.41,8.24,5.21,5.2,7.86,7.79,10.07,7.33,4-.81,5.3-8.06,5.5-9.16.33-1.8,1.42-7.7-1.83-11C113.81,13,99.79,18.08,99.06,23Z"/><path class="cls-1" d="M41.14,139.27c-.66,7.77-1.66,23.44,0,39a35.33,35.33,0,0,0,6,17c3,4.24,5.59,5.48,7,6,3,1.09,8.24,1.76,11-1,3.63-3.63,1.5-10.37,0-21a137.85,137.85,0,0,1-1-28"/><path class="cls-1" d="M77.14,151.27c2.21,21.3,1.45,33.51,0,41-.32,1.66-1.19,5.76,1,8,3,3,10.37,1.54,15-2,4.84-3.7,6.24-9.37,7-13,3.56-17,2.8-36.24,2-47"/><path class="cls-6" d="M30.14,187.27c-1.25,3.22-6.9,3.67-11,4-3.32.27-9.48.76-12-3a6.44,6.44,0,0,1-1-4c.46-5,7.5-10.13,14-9S31.64,183.42,30.14,187.27Z"/><path class="cls-6" d="M131.14,191.27c1.3-3.34-2.42-7.37-3-8a13,13,0,0,0-9-4c-4.14-.07-8.82,1.93-11,6-.57,1.07-2,3.64-1,6,2,5,12.32,4.14,14,4C124.58,195,129.86,194.56,131.14,191.27Z"/><path class="cls-2" d="M64.14,198.27c.29-.38.89-1.33,0-8-.34-2.53-.72-4.6-1-6a39.16,39.16,0,0,1-17,3,17.37,17.37,0,0,0,3,7,12.76,12.76,0,0,0,6,5C57.83,200.24,62.36,200.61,64.14,198.27Z"/><path class="cls-2" d="M92.14,196.27a16.84,16.84,0,0,0,5-7,35.65,35.65,0,0,1-9-1,35.13,35.13,0,0,1-8-3c-.07.78-.19,1.91-.4,3.26-.81,5.34-2,7.74-.6,9.74a4.2,4.2,0,0,0,1,1C83.38,201.56,89.16,198.69,92.14,196.27Z"/></g></g></g></svg>