<svg xmlns="http://www.w3.org/2000/svg" viewBox="0 0 172.42 210.54"><defs><style>.cls-1,.cls-3{fill:#f1bd6a;stroke-width:4px;}.cls-1,.cls-3,.cls-4,.cls-5{stroke:#000;}.cls-1,.cls-4,.cls-5{stroke-linecap:round;stroke-linejoin:round;}.cls-2{fill:#fff;}.cls-3{stroke-miterlimit:10;}.cls-4{fill:#ffb3a4;stroke-width:2px;}.cls-5{fill:none;stroke-width:3px;}</style></defs><g id="Layer_2" data-name="Layer 2"><g id="Layer_22" data-name="Layer 22"><g id="kitty"><path class="cls-1" d="M88.06,195.22c-2.12,3.59-7.14,4.34-19.23,4.58-19.94.39-31.83.63-33-3.66-.59-2.22,1.94-4.71,3.66-6.42,5.32-5.23,12.51-4.69,13.75-4.58-9.31-4.39-15.9-11.49-15.58-18.32.53-11.27,19.79-20,32.34-15.58,8.83,3.13,11.9,13.7,18,34.82C88.89,188.88,89.77,192.34,88.06,195.22Z"/><path class="cls-2" d="M37.68,196.14c.59,1.33,2.74,1.55,5.5,1.83a23,23,0,0,0,4.58,0,16.12,16.12,0,0,1-4.58-9.16,10,10,0,0,0-3.67,2.75C38.8,192.42,37,194.59,37.68,196.14Z"/><path class="cls-1" d="M150.35,139.34c-2.67,10.74-9.47,12.37-11.9,24.74-.81,4.07-1.44,7.29,0,8.24,4,2.66,24.29-12.36,30.22-33.89,3.46-12.54,1.73-26.15-4.58-33.89-1.22-1.51-3.75-4.49-7.32-4.59-4-.1-7.91,3.52-9.16,7.33-1.45,4.39,1.16,7.2,2.74,13.74A42.94,42.94,0,0,1,150.35,139.34Z"/><path class="cls-1" d="M42.26,89a244.27,244.27,0,0,1-4.58,35.73c-3.24,15.89-5.83,28.57-12.82,44C18,183.83,11.44,191.44,14.78,196.14c2.6,3.65,9.78,3.59,14.66,1.83,6.26-2.27,9.91-7.79,16.49-22.9,11.27-25.92,8.17-27.21,13.74-33.89C71,127.54,84.43,132.28,91.73,121c3.94-6.08,6.37-17.24-3.67-39.39"/><path class="cls-1" d="M100.89,84.38A86.8,86.8,0,0,0,112.8,110c13.79,20.12,28.14,22.07,33,39.39.66,2.37,3.58,13.74-1.83,25.65-4.75,10.46-13.28,15.55-16.49,17.4-16.18,9.36-39.15,7.94-55.87-3.66-17.14-11.89-25.95-33.26-22.9-55"/><path class="cls-2" d="M56,167.74c3,6,9.06,18.12,21.07,19.24C87,187.9,97.88,181,100,172.32c1.91-7.95-4.14-14.72-15.57-27.48-11.69-13.06-21.06-23.52-27.48-21.07C48.64,126.93,47.47,150.66,56,167.74Z"/><path class="cls-1" d="M95.39,149.42A26.86,26.86,0,0,0,78,154a26,26,0,0,0-11,21.07c0,2.59,0,9.8,5.49,14.65a16.22,16.22,0,0,0,7.33,3.67c-1.46.2-7.41,1.21-11,6.41-1.25,1.81-2.2,3.19-1.83,4.58,1.36,5.25,19.56,4.28,31.14,3.67,15.79-.84,19-3,20.15-5.5,1.26-2.73.2-5.94-.91-8.24"/><path class="cls-1" d="M47.64,15a29.26,29.26,0,0,0-9-8.5C32.7,3,21.53-.65,14.78,4.69c-4.36,3.45-4.94,9.14-5.49,14.66-1.12,11,2.29,20.36,5.49,26.56"/><path class="cls-3" d="M13,39.5c-.5,1.12-10.18,23.83,1.83,43.05,10.5,16.81,30.76,20,43.06,22a85.49,85.49,0,0,0,24.73,0c12.5-1.79,27.69-4,37.55-16.49a40.45,40.45,0,0,0,8.25-23.82c.23-14.93-8.48-27.16-12.15-32.33l-.9-1.23C106.58,19,88.58,9.6,70.43,8.68,51.3,7.72,23.5,15.77,13,39.5Z"/><path class="cls-4" d="M62.65,83.24c.44.13,2.74.78,4.23-.51,2.2-1.91,1.09-6.75-.8-7.51-.81-.32-1.21.31-3.66.92-3.07.76-4.14.18-4.58.91C57,78.43,59.3,82.28,62.65,83.24Z"/><path class="cls-1" d="M102.5,122c-1.2-5.66-6.23-26.6-22.47-34.87-3.31-1.68-11.59-5.89-18.18-2.41-.6.32-4.5,2.38-4.76,5.65-.33,4,5,6,9.15,11,2.75,3.33,5.74,8.94,5.86,18.78"/><path class="cls-1" d="M122,50.49a67.71,67.71,0,0,0,8.24-22c1.63-8.79,2.87-15.47-.92-20.16C122.49,0,105.11,4.92,102.72,5.6a42.33,42.33,0,0,0-17.4,10.08"/><path d="M88.13,57.06a5.28,5.28,0,0,1-4.74,2.08c-3.26-.38-4.91-4.31-5.17-6.92-.23-2.25.33-6,2.65-6.83,2.55-.93,5.72,2.15,7,4.69C88.28,50.86,90.09,54.38,88.13,57.06Z"/><path d="M33.62,55.65a5,5,0,0,0,5.19,1.25c3.41-1.13,3.83-5.64,3.86-6,.21-2.68-1-6.2-3.08-6.71-2.81-.68-6.83,4.17-6.88,8.39A4.59,4.59,0,0,0,33.62,55.65Z"/><path d="M54.17,58.73c-.38,1.1,2,3.67,4.58,3.67s5-2.57,4.58-3.67c-.32-.91-2.55-.91-4.58-.91S54.49,57.82,54.17,58.73Z"/><path class="cls-5" d="M108.22,67A55.82,55.82,0,0,1,121,59.65,56.49,56.49,0,0,1,134.78,56"/><path class="cls-5" d="M110.58,72.73a90.73,90.73,0,0,1,27.33.41"/><path class="cls-5" d="M4.25,54.61a91.48,91.48,0,0,1,9.16,3.67A92.75,92.75,0,0,1,23.87,64"/><path class="cls-5" d="M1.5,69.27a85.53,85.53,0,0,1,11,0c3,.19,5.73.51,8.25.91"/><path class="cls-5" d="M50.05,74.76a21,21,0,0,0,7.33,1.84,21.26,21.26,0,0,0,10.07-1.84"/><path class="cls-2" d="M148.52,110c.08,1.19.59,1.5,1.83,4.58a47.23,47.23,0,0,1,1.84,5.5,26,26,0,0,1,7.32-4.58,25.56,25.56,0,0,1,7.33-1.83,18.67,18.67,0,0,0-3.66-7.33c-1.77-2.16-3.63-4.42-6.41-4.58C152.48,101.54,148.28,106.41,148.52,110Z"/><path class="cls-2" d="M58.89,90.72a3.85,3.85,0,0,0,.57,2c.89,1.75,2.35,2.4,4,3.53a21.32,21.32,0,0,1,4,3.53,36.32,36.32,0,0,1,5.83-6.38A35.78,35.78,0,0,1,79.7,89a20.94,20.94,0,0,0-6.88-3.13c-2.2-.55-5.73-1.43-9.34.15C63,86.18,59,88,58.89,90.72Z"/><path class="cls-2" d="M22.11,198a14.82,14.82,0,0,0,9.16-2.75,19.4,19.4,0,0,0,7.33-9.16,23,23,0,0,1-18.32-3.66,17.77,17.77,0,0,0-3.67,5.49c-1,2.38-2.17,5.15-.91,7.33C17.08,197.62,20.56,197.86,22.11,198Z"/><path class="cls-2" d="M68.83,204.38c.66,1.44,3.26,1.62,6.41,1.83a24.47,24.47,0,0,0,3.66,0,41.65,41.65,0,0,0-2.74-10.07,11.41,11.41,0,0,0-5.5,3.66C69.89,200.76,68.14,202.89,68.83,204.38Z"/><path class="cls-4" d="M99.06,23c-.24,1.57,2,3.82,6.41,8.24,5.21,5.2,7.86,7.79,10.07,7.33,4-.81,5.3-8.06,5.5-9.16.33-1.8,1.42-7.7-1.83-11C113.81,13,99.79,18.08,99.06,23Z"/></g></g></g></svg>