<svg xmlns="http://www.w3.org/2000/svg" viewBox="0 0 204.9 199.12"><defs><style>.cls-1,.cls-3{fill:#f1bd6a;stroke-width:4px;}.cls-1,.cls-3,.cls-4,.cls-5{stroke:#000;}.cls-1,.cls-4,.cls-5{stroke-linecap:round;stroke-linejoin:round;}.cls-2{fill:#fff;}.cls-3{stroke-miterlimit:10;}.cls-4{fill:none;stroke-width:3px;}.cls-5{fill:#ffb3a4;stroke-width:2px;}</style></defs><g id="Layer_2" data-name="Layer 2"><g id="Layer_22" data-name="Layer 22"><g id="Layer_18" data-name="Layer 18"><path class="cls-1" d="M55.8,97.22a285.58,285.58,0,0,0-12,37c-3.83,15.36-4.29,22.7-4,29,.43,9.13,1,22,10,28,3.71,2.48,10.27,4.74,14,2,4.85-3.54,1.12-12.65,2-27a76.06,76.06,0,0,1,6-25"/><path class="cls-1" d="M122.8,146.22a60.31,60.31,0,0,1,2,28c-1.8,10.3-6,16.85-3,20s11.22,1,16-2c17.71-11.11,11.11-48.83,10.3-53.21"/><path class="cls-1" d="M191.75,42.16c-3.13-.6-6,1.84-6.65,2.39-10.55,9,5.07,28-5.06,44.94-3,5-8,9.61-8.53,18.09-.13,2.39-.33,5.85,1.41,6.86,4.48,2.59,21.92-11,27.69-29.18C206.49,66.76,200.17,43.8,191.75,42.16Z"/><path class="cls-1" d="M59.8,88.22c30.67,12.57,53.39,12.16,69,9,12-2.43,24.25-7.38,36-1,8.41,4.57,14.66,13.89,16,24,1.64,12.31-4.58,21.46-7,25-9,13.18-22.89,17.31-32,20-14.87,4.41-27,3.09-37,2-12.31-1.34-22.71-2.47-33-10a50,50,0,0,1-15-18"/><path class="cls-2" d="M165.8,149.22c.22.79-.26,2-4,5-12.85,10.49-28.89,11.53-38,12a128,128,0,0,1-22-1c-10.26-1.09-14.23-2.37-16-3-6.87-2.44-17.67-8-17-13a5,5,0,0,1,2-3c5.58-4.46,15.12.56,25,3,3.15.78,15.15.2,39-1C156,147.16,165,146.5,165.8,149.22Z"/><path class="cls-3" d="M128,39c7.13,13.72,9.65,34.44-1,49.4-9.91,13.95-26.91,16.77-42.63,19.37a76,76,0,0,1-29.06,0c-8.81-1.8-22.87-4.67-32.12-17-6.74-8.95-7.63-18.51-8-23.07-1.61-20.2,9.85-34.78,12-37.44C42.82,11.24,66.12,10.18,70.85,10,72.77,9.88,112.27,8.71,128,39Z"/><path class="cls-1" d="M18.54,53.56a67.78,67.78,0,0,1-7.75-15.5C7.61,28.91,4,18.46,8.86,12.87c6.14-7,22-2,25.18-1a42.67,42.67,0,0,1,11.63,5.82"/><path class="cls-1" d="M93.13,15.78a46.58,46.58,0,0,1,14.53-9.69C112.61,4,124-.78,129.94,4.15,133,6.7,133.28,12,133.82,22.56a61.91,61.91,0,0,1-1,15.5,56.34,56.34,0,0,1-2.91,9.68"/><path class="cls-1" d="M88.8,146.22a75.24,75.24,0,0,1,1,28c-1.7,10.69-5.36,17.5-2,21,3.07,3.19,10.18,1.78,14,0,18.4-8.57,14.5-51,14-56"/><path class="cls-1" d="M153.8,139.22c6.54,16.88,5.86,29,4,37-1.74,7.5-5.27,14.58-2,18,2.83,3,9.22,1.61,13,0,11-4.67,14.71-17.89,17-26a74.71,74.71,0,0,0-1-43,75.91,75.91,0,0,0-10-20"/><path d="M39.63,62.37a4.85,4.85,0,0,0,4.3,2.1c3.06-.27,4.63-4,5-6.19.43-2.42,0-6.21-2.15-7.06-2.36-.93-5.69,2.16-7,5C39.37,57.16,38.05,60,39.63,62.37Z"/><path d="M88.8,62.22a5.61,5.61,0,0,1-7,1C79,61.46,79.51,57.55,79.7,56c.07-.63.64-5.26,3.2-5.87,2.37-.56,4.93,2.69,5.95,5C89.37,56.36,90.88,59.79,88.8,62.22Z"/><path d="M66.8,67.22c.28,1.18-3.45,4.14-6,3-1.23-.55-2.24-2.09-1.85-3s2.44-1,3.85-1C63.67,66.23,66.58,66.27,66.8,67.22Z"/><path class="cls-4" d="M28.06,71.45a55.82,55.82,0,0,0-12.82-7.33A56.12,56.12,0,0,0,1.5,60.45"/><path class="cls-4" d="M29.7,78.19a91.12,91.12,0,0,0-27.33.42"/><path class="cls-4" d="M122,58.08a93.72,93.72,0,0,0-9.16,3.66,91.15,91.15,0,0,0-10.46,5.72"/><path class="cls-4" d="M123.78,75.74a85.53,85.53,0,0,0-11,0c-3,.18-5.72.51-8.25.91"/><path class="cls-4" d="M69.2,80.89a16.53,16.53,0,0,1-13.65,0"/><path class="cls-5" d="M34.8,27.22c.5,2.43-1.71,4.88-5,8.5-3.06,3.39-5.29,5.85-8,5.5-3.53-.45-5.37-5.34-6-7-.35-.94-2.92-7.76.27-11.32C20.52,17.93,33.74,22,34.8,27.22Z"/><path class="cls-5" d="M120.8,35.22c-2.83,1.08-6.09-1.6-9-4-3.07-2.53-7.31-6-6.53-9.78.68-3.26,4.76-4.85,7.17-5.79s7.18-2.8,10.36-.43c3.64,2.72,2.53,9,2,12S123.58,34.17,120.8,35.22Z"/><path class="cls-2" d="M63.8,177.22a91.14,91.14,0,0,1,1,10c.06,1.26.1,2.92-1,4a4.24,4.24,0,0,1-3,1,17.32,17.32,0,0,1-13-5c-2.32-2.64-3.08-5.54-4-9a33.31,33.31,0,0,1-1-6,62,62,0,0,0,13,4A60.37,60.37,0,0,0,63.8,177.22Z"/><path class="cls-2" d="M110.8,180.22c-.45,2-2.17,8.27-8,12-3.45,2.22-9.71,4.41-13,2a4.17,4.17,0,0,1-1-1c-1.12-1.63-.39-3.63,1-9,.22-.83.58-2.23,1-4a50.5,50.5,0,0,0,20,0Z"/><path class="cls-2" d="M132.8,182.22a38.43,38.43,0,0,1-7-1,37.41,37.41,0,0,0-2,5c-1.06,3.38-1.61,5.07-1,6,1.59,2.42,9,1.38,14-2a19,19,0,0,0,7-9A39.1,39.1,0,0,1,132.8,182.22Z"/><path class="cls-2" d="M176.8,184.22a36.59,36.59,0,0,0,3-5,64.16,64.16,0,0,1-21,2,29.7,29.7,0,0,0-2,7c-.32,2.14-.48,3.22,0,4,1.53,2.48,7.69,2.17,12,0C172.42,190.41,174.56,187.38,176.8,184.22Z"/><path class="cls-2" d="M183.8,50.22a14.21,14.21,0,0,0-.44,5.13,28.1,28.1,0,0,0,.7,5.75,21.61,21.61,0,0,1,8.09-3,21.9,21.9,0,0,1,7.65.15c-.22-.73-.56-1.77-1-3a48.22,48.22,0,0,0-2-5c-1.43-2.89-2.72-5.48-5-6C188.72,43.52,185,46.91,183.8,50.22Z"/></g></g></g></svg>