<svg xmlns="http://www.w3.org/2000/svg" viewBox="0 0 71.76 107.53"><defs><style>.cls-1{fill:#a0a0a0;}</style></defs><g id="Layer_2" data-name="Layer 2"><g id="extra"><circle class="cls-1" cx="34.76" cy="96.78" r="10.75"/><path class="cls-1" d="M13.66,38.78C20.08,35.94,17.23,27,24.8,20.21c.47-.42,8.2-7.09,16.73-4.25,5.65,1.88,10.36,7.51,10.35,13.27,0,4.25-2.6,7.25-6.64,11.94-5,5.81-6.79,5.17-11.41,10.35-2.72,3-7.84,8.79-8.23,16.73-.08,1.74-.45,9.27,4.25,11.94a9,9,0,0,0,8.49-.27c4.93-2.78,3.18-8.23,7.43-15.66,3.55-6.19,6.07-4.67,15.13-14.33C66.7,43.75,69.6,40.66,71,35.6c2.43-8.9-1.5-16.84-2.92-19.37-4.58-8.14-11.9-11.36-15.66-13a39.83,39.83,0,0,0-26-1.86c-3.14.87-14.48,4.16-21.24,14.87-1,1.64-8.44,13.38-3.45,19.64A10.82,10.82,0,0,0,13.66,38.78Z"/></g></g></svg>