<svg xmlns="http://www.w3.org/2000/svg" viewBox="0 0 89.34 55.22"><defs><style>.cls-1{fill:#bbe2a1;stroke-width:4px;}.cls-1,.cls-2{stroke:#000;stroke-miterlimit:10;}.cls-2{fill:none;stroke-linecap:round;stroke-width:3px;}</style></defs><g id="Layer_2" data-name="Layer 2"><g id="extra"><g id="sprout"><rect class="cls-1" x="40.95" y="30.56" width="6.27" height="22.66" rx="3.13"/><path class="cls-1" d="M43.6,30.8a9.89,9.89,0,0,1-1.45,3.86c-.57.8-2.56,3.19-11.09,3.37-6.23.13-10.7.23-15.91-2.41C13.82,35,3.2,29.37,2.13,18.74A14.54,14.54,0,0,1,4.06,9.1C9,1.58,20.56,2.73,21.42,2.83,36.12,4.5,42.3,21.28,43.12,24.05A15.89,15.89,0,0,1,43.6,30.8Z"/><path class="cls-1" d="M86.76,21.88C87.12,20.31,89,11.56,83.38,6,77.28-.17,67.25,2.49,65.06,3.07c0,0-13.44,3.56-20.25,22.18a16.88,16.88,0,0,0-1,5.31,9.51,9.51,0,0,0,.48,3.37C45.39,36.4,49,37.33,54,37.79c9.74.92,14.62,1.37,20.25-1.45C76.22,35.34,84.6,31.15,86.76,21.88Z"/><path class="cls-2" d="M28.41,26.7A20.77,20.77,0,0,1,42.88,33"/><path class="cls-2" d="M43.84,33a19.83,19.83,0,0,1,14-7.23"/></g></g></g></svg>