<svg xmlns="http://www.w3.org/2000/svg" viewBox="0 0 354.95 234.11"><defs><style>.cls-1,.cls-2{fill:#4180bf;stroke-width:4px;}.cls-1,.cls-2,.cls-4{stroke:#000;}.cls-1,.cls-4{stroke-linecap:round;stroke-linejoin:round;}.cls-2{stroke-miterlimit:10;}.cls-3{fill:#b4d6ed;}.cls-4{fill:none;stroke-width:3px;}.cls-5{fill:#c0efff;}</style></defs><g id="Layer_2" data-name="Layer 2"><g id="Layer_34" data-name="Layer 34"><g id="turt"><path class="cls-1" d="M32.05,190.28c-1.58,1.09-11.45,8.13-12,20-.12,2.38-.45,9.54,4,13,7.08,5.51,21-2.49,27-7a44.39,44.39,0,0,0,13-16"/><path class="cls-2" d="M199.05,73.28c21.24,33.07,3,67.58,29,87,7.38,5.52,18.8,14.05,33,13,9.65-.72,18.8-5.74,24-1,3,2.77,3,7.3,3,8-.12,15.45-31.12,27.35-38,30-15.55,6-30.05,8.38-60,10-30.94,1.67-46.41,2.5-64,1-39.33-3.37-93.64-8-115-45-8.14-14.09-8.77-28.16-9-35-1.18-35,20.48-59.51,28-68,10.72-12.12,40.56-40.63,86-40C118.88,33.32,174.37,34.86,199.05,73.28Z"/><path class="cls-1" d="M270.05,174.28a49,49,0,0,1-16-18c-1.16-2.27-11.61-23.49-1-39,1.11-1.63,6.88-10.07,15-10,10.82.09,17.8,15.24,20,20,8.55,18.55,3.8,37.48,1,46"/><path class="cls-3" d="M217.05,215.28c-.19,3.11-31.5,3.7-47,4-29.17.55-43.76.83-61-1-30.39-3.23-57.76-6.49-81-26-12.43-10.43-16.6-19.58-18-23-6.3-15.4-7-38.78,5-49,19.12-16.23,60.89,8.86,66,12,35.49,21.8,30.32,44.17,63,64C178.8,217.37,217.26,211.85,217.05,215.28Z"/><path d="M109.24,129.86c-.47,2.24-2.89,3.29-3.19,3.42-3.79,1.58-7.67-1.71-8-2-2.69-2.35-4.67-6.86-3-9s7-1,10,1C105.62,123.66,109.94,126.52,109.24,129.86Z"/><path class="cls-1" d="M128.05,177.28c-1.35,3.71-6.32,18.75,1,34,1.48,3.09,5.93,12,16,17,8.11,4,21.26,6.1,26,0,2.27-2.93,1.82-6.75,1-13a59.11,59.11,0,0,0-7-21"/><path class="cls-4" d="M20.05,143.28a16,16,0,0,0,20.5,1.5"/><path class="cls-1" d="M278.05,174.28a54.6,54.6,0,0,1,42-43c6.44-1.38,23.08-4.94,30,4,5.75,7.42,1.43,19.12,0,23-5.9,16-20.82,23-25,25-17.63,8.32-34.47,4.51-40,3"/><path class="cls-5" d="M142.05,43.28a30.33,30.33,0,0,0-2-17c-3.9-8.58-10.51-10.58-10-16,.47-5,6.75-9,12-10,6.06-1.14,13.11,1.28,16,6,2.08,3.41,3.86,11.09,4,17a3.89,3.89,0,0,0,1,3c1.9,1.6,6.26-.17,9-2,4-2.67,3.46-4.8,7-7a14.85,14.85,0,0,1,9-2c4.37.38,10.87,3,12,8,1,4.71-3.14,9.1-4,10-5.36,5.6-11.64,4.53-23,8a76.19,76.19,0,0,0-16,7"/></g></g></g></svg>