<svg xmlns="http://www.w3.org/2000/svg" viewBox="0 0 354.95 199.5"><defs><style>.cls-1,.cls-2{fill:#4180bf;stroke-width:4px;}.cls-1,.cls-2,.cls-4{stroke:#000;}.cls-1,.cls-4{stroke-linecap:round;stroke-linejoin:round;}.cls-2{stroke-miterlimit:10;}.cls-3{fill:#b4d6ed;}.cls-4{fill:none;stroke-width:3px;}</style></defs><g id="Layer_2" data-name="Layer 2"><g id="Layer_34" data-name="Layer 34"><path class="cls-1" d="M25.91,153.13c-1.86.46-13.59,3.53-18.34,14.42-1,2.18-3.81,8.75-.89,13.57,4.66,7.68,20.53,5.16,27.73,3.07a44.27,44.27,0,0,0,17.84-10.32"/><path class="cls-2" d="M199.05,40.54c21.51,32.74,2.91,67.5,29,87,7.38,5.52,18.8,14,33,13,9.65-.72,18.8-5.74,24-1,3,2.77,3,7.31,3,8-.12,15.45-31.12,27.36-38,30-15.55,6-30.05,8.38-60,10-30.94,1.67-46.41,2.5-64,1-39.33-3.37-93.64-8-115-45-8.14-14.09-8.77-28.15-9-35-1.2-35.42,20.9-60.08,28-68,5.36-6,37-40,87.75-38.49C123.53,2.21,175.32,4.44,199.05,40.54Z"/><path class="cls-1" d="M270.05,141.54a49,49,0,0,1-16-18c-1.16-2.27-11.61-23.49-1-39,1.11-1.63,6.88-10.07,15-10,10.82.09,17.8,15.24,20,20,8.55,18.55,3.8,37.48,1,46"/><path class="cls-3" d="M217.05,182.54c-.19,3.11-31.5,3.7-47,4-29.17.55-43.76.83-61-1-30.39-3.23-57.76-6.49-81-26-12.43-10.43-16.6-19.58-18-23-6.3-15.4-7-38.78,5-49,19.12-16.23,60.89,8.86,66,12,35.5,21.8,30.32,44.17,63,64C178.8,184.63,217.26,179.11,217.05,182.54Z"/><path d="M109.59,93.38c0,2.28-2.1,3.84-2.37,4-3.35,2.37-7.85,0-8.24-.2-3.14-1.7-6.06-5.67-4.9-8.13s6.59-2.5,10-1.21C104.69,88.11,109.54,90,109.59,93.38Z"/><path class="cls-1" d="M124.57,144.11c-.7,5.22-2.41,23,9,38,2.56,3.38,8.52,11,19,14,9.28,2.64,22.75,1.81,26-5,1.5-3.15.32-6.58-2-13a65,65,0,0,0-10-18"/><path class="cls-4" d="M38.75,111.68a17.18,17.18,0,0,0-10.94-2.62,17.42,17.42,0,0,0-9.55,4"/><path class="cls-1" d="M278.05,141.54a54.6,54.6,0,0,1,42-43c6.44-1.38,23.08-4.94,30,4,5.75,7.42,1.43,19.12,0,23-5.9,16-20.82,23-25,25-17.63,8.32-34.47,4.51-40,3"/></g></g></svg>