<svg xmlns="http://www.w3.org/2000/svg" viewBox="0 0 14400 400"><defs><style>.cls-1,.cls-2{fill:#4180bf;stroke-width:5px;}.cls-1,.cls-2,.cls-4{stroke:#000;}.cls-1,.cls-4{stroke-linecap:round;stroke-linejoin:round;}.cls-2{stroke-miterlimit:10;}.cls-3{fill:#b4d6ed;}.cls-4{fill:none;stroke-width:3px;}.cls-5{fill:#c0efff;}</style></defs><g id="Layer_3" data-name="Layer 3"><path class="cls-1" d="M72.18,315.47c-2.8.69-20.43,5.3-27.56,21.67-1.43,3.29-5.73,13.16-1.34,20.4,7,11.54,30.86,7.76,41.67,4.62a66.54,66.54,0,0,0,26.83-15.52"/><path class="cls-2" d="M332.42,146.24C364.35,196,337,247.82,376,277c11.1,8.3,28.26,21.13,49.6,19.54,14.52-1.07,28.27-8.61,36.08-1.5,4.57,4.16,4.52,11,4.51,12-.18,23.23-46.77,41.12-57.12,45.09-23.36,9-45.16,12.6-90.18,15-46.51,2.51-69.76,3.77-96.2,1.5C163.59,363.63,82,356.64,49.84,301.05c-12.23-21.17-13.18-42.31-13.52-52.6C34.54,195.79,67.1,159,78.4,146.24c16.12-18.21,61-61.07,129.27-60.13C211.93,86.17,295.33,88.49,332.42,146.24Z"/><path class="cls-1" d="M439.14,298.05A73.92,73.92,0,0,1,415.09,271c-1.74-3.41-17.44-35.31-1.5-58.62,1.68-2.45,10.35-15.13,22.55-15,16.27.13,26.76,22.91,30.06,30.06,12.85,27.89,5.71,56.34,1.5,69.14"/><path class="cls-3" d="M359.48,359.67c-.29,4.68-47.34,5.57-70.65,6-43.84.83-65.76,1.25-91.68-1.51-45.67-4.85-86.82-9.75-121.75-39.08-18.68-15.67-25-29.42-27.06-34.57-9.46-23.14-10.59-58.29,7.52-73.65,28.73-24.39,91.53,13.33,99.2,18,53.36,32.77,45.57,66.39,94.69,96.2C302,362.82,359.79,354.52,359.48,359.67Z"/><path d="M197.43,231.29c-.7,3.36-4.34,4.94-4.79,5.13-5.69,2.38-11.53-2.57-12-3-4-3.53-7-10.32-4.51-13.53,2.66-3.42,10.49-1.51,15,1.5C192,222,198.48,226.27,197.43,231.29Z"/><path class="cls-1" d="M220.47,301.92c-1.05,7.85-3.61,34.51,13.53,57.11,3.85,5.07,12.82,16.57,28.56,21.05,13.95,4,34.21,2.71,39.08-7.52,2.26-4.74.48-9.89-3-19.54a97,97,0,0,0-15-27"/><path class="cls-4" d="M63.37,251.45a24.07,24.07,0,0,0,30.81,2.26"/><path class="cls-1" d="M451.17,298.05a82,82,0,0,1,63.13-64.63c9.69-2.08,34.69-7.42,45.09,6,8.64,11.16,2.15,28.74,0,34.57-8.87,24-31.28,34.6-37.58,37.58-26.49,12.5-51.81,6.78-60.12,4.51"/><path class="cls-5" d="M246.07,99.25c1-8.65,1.16-20.36-2.9-32-5.63-16.13-15.2-19.91-14.46-30.1.69-9.5,9.77-17,17.36-18.81a20.77,20.77,0,0,1,23.14,11.28c3,6.43,5.59,20.88,5.78,32,0,1.37,0,4.09,1.45,5.64,2.75,3,9.07-.31,13-3.76,5.74-5,5-9,10.12-13.17a17.44,17.44,0,0,1,13-3.76c6.33.72,15.73,5.55,17.36,15.05,1.52,8.86-4.55,17.12-5.79,18.81C316.43,91,307.34,89,290.9,95.49a99.53,99.53,0,0,0-23.14,13.17"/><path class="cls-1" d="M665.6,309.06c-2.58,1.3-18.72,9.76-22,27.31-.65,3.52-2.62,14.11,3.28,20.18,9.42,9.67,31.81.63,41.65-4.87a66.54,66.54,0,0,0,22.65-21.15"/><path class="cls-2" d="M932.42,138C964.35,187.72,937,239.59,976,268.78c11.1,8.29,28.26,21.12,49.6,19.54,14.52-1.08,28.27-8.62,36.08-1.5,4.57,4.16,4.52,11,4.51,12-.18,23.23-46.77,41.12-57.12,45.09-23.36,9-45.16,12.6-90.18,15-46.51,2.51-69.76,3.77-96.2,1.51-59.11-5.06-140.75-12.05-172.86-67.64-12.23-21.18-13.18-42.32-13.52-52.61C634.54,187.56,667.1,150.78,678.4,138c16.12-18.21,61-61.06,129.27-60.12C811.93,77.94,895.33,80.26,932.42,138Z"/><path class="cls-1" d="M1039.14,289.82a74,74,0,0,1-24.05-27.05c-1.74-3.42-17.44-35.31-1.5-58.62,1.68-2.46,10.35-15.14,22.55-15,16.27.14,26.76,22.91,30.06,30.07,12.85,27.89,5.71,56.33,1.5,69.14"/><path class="cls-3" d="M959.48,351.45c-.29,4.67-47.34,5.57-70.65,6-43.84.83-65.76,1.25-91.68-1.5-45.67-4.86-86.82-9.75-121.75-39.08-18.68-15.68-24.95-29.43-27.06-34.57-9.46-23.14-10.59-58.29,7.52-73.66,28.73-24.38,91.53,13.33,99.2,18,53.36,32.78,45.57,66.39,94.69,96.2C902,354.59,959.79,346.29,959.48,351.45Z"/><path d="M797.43,223.06c-.7,3.36-4.34,4.95-4.79,5.13-5.69,2.38-11.53-2.56-12-3-4-3.53-7-10.32-4.51-13.53,2.66-3.41,10.49-1.51,15,1.5C792,213.73,798.48,218,797.43,223.06Z"/><path class="cls-1" d="M827.49,288.29c-5,8.63-12.1,24.23-11.51,44.12.24,8.13.6,21.69,9.8,34.1,8.63,11.65,25.45,23,35.55,17.87,5.64-2.87,7.26-9.45,9.54-17.32a300.46,300.46,0,0,1,21.26-53.21"/><path class="cls-4" d="M663.37,243.23a24.08,24.08,0,0,0,30.81,2.25"/><path class="cls-1" d="M1051.17,289.82a82,82,0,0,1,63.13-64.63c9.69-2.07,34.69-7.42,45.09,6,8.64,11.16,2.15,28.75,0,34.57-8.87,24-31.28,34.61-37.58,37.58-26.49,12.51-51.81,6.78-60.12,4.51"/><path class="cls-5" d="M838.86,91.09c1.31-7.93,2-19.74-3.14-31.77-5.94-13.91-15.5-18.34-14.24-28,1-7.72,8.3-14.86,16.53-16.54,11.58-2.36,20.54,7,21,7.52,5.88,6.32,11.38,19.79,11.21,31.47,0,1.48,0,4,1.57,5.6,3,3,9.84-.3,14.13-3.73,6.24-5,5.44-9,11-13.08a20.27,20.27,0,0,1,14.13-3.74c6.59.69,17.37,6.57,18.85,14.95,1.24,7.06-4.59,13.26-7.75,16.63-8.84,9.4-18,10-34.65,17a172.51,172.51,0,0,0-25.12,13.08"/><path class="cls-1" d="M1281.41,311.57c-2.37,1.63-17.2,12.22-18,30.06-.17,3.58-.67,14.33,6,19.54,10.66,8.29,31.6-3.73,40.59-10.52a66.63,66.63,0,0,0,19.54-24"/><path class="cls-2" d="M1532.42,135.7c31.93,49.72,4.54,101.58,43.59,130.77,11.1,8.3,28.26,21.13,49.6,19.54,14.52-1.07,28.27-8.62,36.08-1.5,4.57,4.16,4.52,11,4.51,12-.18,23.24-46.77,41.12-57.12,45.1-23.36,9-45.16,12.6-90.18,15-46.51,2.51-69.76,3.76-96.2,1.5-59.11-5.06-140.75-12.05-172.86-67.64-12.23-21.18-13.18-42.31-13.52-52.61-1.78-52.65,30.78-89.44,42.08-102.21,16.12-18.21,61-61.06,129.27-60.12C1411.93,75.64,1495.33,78,1532.42,135.7Z"/><path class="cls-1" d="M1639.14,287.52a73.92,73.92,0,0,1-24.05-27.06c-1.74-3.41-17.44-35.31-1.5-58.62,1.68-2.45,10.35-15.13,22.55-15,16.27.13,26.76,22.91,30.06,30.06,12.85,27.89,5.71,56.34,1.5,69.14"/><path class="cls-3" d="M1559.48,349.14c-.29,4.68-47.34,5.57-70.65,6-43.84.83-65.76,1.25-91.68-1.51-45.67-4.85-86.82-9.75-121.75-39.08-18.68-15.68-25-29.42-27.06-34.57-9.46-23.14-10.59-58.29,7.52-73.65,28.73-24.39,91.53,13.32,99.2,18,53.36,32.77,45.57,66.39,94.69,96.19C1502,352.28,1559.79,344,1559.48,349.14Z"/><path d="M1397.43,220.75c-.7,3.36-4.34,4.95-4.79,5.14-5.69,2.38-11.53-2.57-12-3-4-3.52-7-10.31-4.51-13.52,2.66-3.42,10.49-1.51,15,1.5C1392,211.43,1398.48,215.73,1397.43,220.75Z"/><path class="cls-1" d="M1425.7,292c-2,5.58-9.5,28.18,1.51,51.1,2.22,4.64,8.92,18.09,24,25.55,12.19,6,32,9.18,39.08,0,3.42-4.4,2.74-10.14,1.5-19.54a88.75,88.75,0,0,0-10.52-31.56"/><path class="cls-4" d="M1263.37,240.92a24.1,24.1,0,0,0,30.81,2.26"/><path class="cls-1" d="M1651.17,287.52a82.06,82.06,0,0,1,63.13-64.64c9.69-2.07,34.69-7.41,45.09,6,8.64,11.15,2.15,28.74,0,34.57-8.87,24-31.28,34.6-37.58,37.57-26.49,12.51-51.81,6.78-60.12,4.51"/><path class="cls-5" d="M1446.75,90.61c1-6.91,1.21-16.27-3-25.55-5.85-12.89-15.8-15.91-15-24.05.71-7.59,10.15-13.55,18-15,9.12-1.71,19.71,1.93,24,9,3.13,5.13,5.81,16.68,6,25.55,0,1.1,0,3.27,1.5,4.51,2.86,2.41,9.42-.25,13.53-3,6-4,5.2-7.2,10.52-10.52a22.34,22.34,0,0,1,13.53-3c6.57.58,16.35,4.43,18,12,1.57,7.08-4.72,13.68-6,15-8.05,8.43-17.48,6.81-34.57,12a114.5,114.5,0,0,0-24,10.52"/><path class="cls-1" d="M7727.82,315.47c2.8.69,20.43,5.3,27.56,21.67,1.43,3.29,5.73,13.16,1.34,20.4-7,11.54-30.86,7.76-41.67,4.62a66.54,66.54,0,0,1-26.83-15.52"/><path class="cls-2" d="M7467.58,146.24C7435.65,196,7463,247.82,7424,277c-11.1,8.3-28.26,21.13-49.6,19.54-14.52-1.07-28.27-8.61-36.08-1.5-4.57,4.16-4.52,11-4.51,12,.18,23.23,46.77,41.12,57.12,45.09,23.36,9,45.16,12.6,90.18,15,46.51,2.51,69.76,3.77,96.2,1.5,59.11-5.06,140.75-12.05,172.86-67.64,12.23-21.17,13.18-42.31,13.52-52.6,1.78-52.66-30.78-89.44-42.08-102.21-16.12-18.21-61-61.07-129.27-60.13C7588.07,86.17,7504.67,88.49,7467.58,146.24Z"/><path class="cls-1" d="M7360.86,298.05A73.92,73.92,0,0,0,7384.91,271c1.74-3.41,17.44-35.31,1.5-58.62-1.68-2.45-10.35-15.13-22.55-15-16.27.13-26.76,22.91-30.06,30.06-12.85,27.89-5.71,56.34-1.5,69.14"/><path class="cls-3" d="M7440.52,359.67c.29,4.68,47.34,5.57,70.65,6,43.84.83,65.76,1.25,91.68-1.51,45.67-4.85,86.82-9.75,121.75-39.08,18.68-15.67,24.95-29.42,27.06-34.57,9.46-23.14,10.59-58.29-7.52-73.65-28.73-24.39-91.53,13.33-99.2,18-53.36,32.77-45.57,66.39-94.69,96.2C7498,362.82,7440.21,354.52,7440.52,359.67Z"/><path d="M7602.57,231.29c.7,3.36,4.34,4.94,4.79,5.13,5.69,2.38,11.53-2.57,12-3,4-3.53,7-10.32,4.51-13.53-2.66-3.42-10.49-1.51-15,1.5C7608,222,7601.52,226.27,7602.57,231.29Z"/><path class="cls-1" d="M7579.53,301.92c1.05,7.85,3.61,34.51-13.53,57.11-3.85,5.07-12.82,16.57-28.56,21.05-13.95,4-34.21,2.71-39.08-7.52-2.26-4.74-.48-9.89,3-19.54a97,97,0,0,1,15-27"/><path class="cls-4" d="M7736.63,251.45a24.07,24.07,0,0,1-30.81,2.26"/><path class="cls-1" d="M7348.83,298.05a82,82,0,0,0-63.13-64.63c-9.69-2.08-34.69-7.42-45.09,6-8.64,11.16-2.15,28.74,0,34.57,8.87,24,31.28,34.6,37.58,37.58,26.49,12.5,51.81,6.78,60.12,4.51"/><path class="cls-5" d="M7553.93,99.25c-1-8.65-1.16-20.36,2.9-32,5.63-16.13,15.2-19.91,14.46-30.1-.69-9.5-9.77-17-17.36-18.81a20.77,20.77,0,0,0-23.14,11.28c-3,6.43-5.59,20.88-5.78,32,0,1.37,0,4.09-1.45,5.64-2.75,3-9.07-.31-13-3.76-5.74-5-5-9-10.12-13.17a17.44,17.44,0,0,0-13-3.76c-6.33.72-15.73,5.55-17.36,15.05-1.52,8.86,4.55,17.12,5.79,18.81,7.74,10.55,16.83,8.52,33.27,15a99.53,99.53,0,0,1,23.14,13.17"/><path class="cls-1" d="M14334.4,309.06c2.58,1.3,18.72,9.76,22,27.31.65,3.52,2.62,14.11-3.28,20.18-9.42,9.67-31.81.63-41.65-4.87a66.54,66.54,0,0,1-22.65-21.15"/><path class="cls-2" d="M14067.58,138c-31.93,49.71-4.54,101.58-43.59,130.77-11.1,8.29-28.26,21.12-49.6,19.54-14.52-1.08-28.27-8.62-36.08-1.5-4.57,4.16-4.52,11-4.51,12,.18,23.23,46.77,41.12,57.12,45.09,23.36,9,45.16,12.6,90.18,15,46.51,2.51,69.76,3.77,96.2,1.51,59.11-5.06,140.75-12.05,172.86-67.64,12.23-21.18,13.18-42.32,13.52-52.61,1.78-52.66-30.78-89.44-42.08-102.21-16.12-18.21-61-61.06-129.27-60.12C14188.07,77.94,14104.67,80.26,14067.58,138Z"/><path class="cls-1" d="M13960.86,289.82a74,74,0,0,0,24-27.05c1.74-3.42,17.44-35.31,1.5-58.62-1.68-2.46-10.35-15.14-22.55-15-16.27.14-26.76,22.91-30.06,30.07-12.85,27.89-5.71,56.33-1.5,69.14"/><path class="cls-3" d="M14040.52,351.45c.29,4.67,47.34,5.57,70.65,6,43.84.83,65.76,1.25,91.68-1.5,45.67-4.86,86.82-9.75,121.75-39.08,18.68-15.68,24.95-29.43,27.06-34.57,9.46-23.14,10.59-58.29-7.52-73.66-28.73-24.38-91.53,13.33-99.2,18-53.36,32.78-45.57,66.39-94.69,96.2C14098,354.59,14040.21,346.29,14040.52,351.45Z"/><path d="M14202.57,223.06c.7,3.36,4.34,4.95,4.79,5.13,5.69,2.38,11.53-2.56,12-3,4-3.53,7-10.32,4.51-13.53-2.66-3.41-10.49-1.51-15,1.5C14208,213.73,14201.52,218,14202.57,223.06Z"/><path class="cls-1" d="M14172.51,288.29c5,8.63,12.1,24.23,11.51,44.12-.24,8.13-.6,21.69-9.8,34.1-8.63,11.65-25.45,23-35.55,17.87-5.64-2.87-7.26-9.45-9.54-17.32a300.46,300.46,0,0,0-21.26-53.21"/><path class="cls-4" d="M14336.63,243.23a24.08,24.08,0,0,1-30.81,2.25"/><path class="cls-1" d="M13948.83,289.82a82,82,0,0,0-63.13-64.63c-9.69-2.07-34.69-7.42-45.09,6-8.64,11.16-2.15,28.75,0,34.57,8.87,24,31.28,34.61,37.58,37.58,26.49,12.51,51.81,6.78,60.12,4.51"/><path class="cls-5" d="M14161.14,91.09c-1.31-7.93-2-19.74,3.14-31.77,5.94-13.91,15.5-18.34,14.24-28-1-7.72-8.3-14.86-16.53-16.54-11.58-2.36-20.54,7-21,7.52-5.88,6.32-11.38,19.79-11.21,31.47,0,1.48,0,4-1.57,5.6-3,3-9.84-.3-14.13-3.73-6.24-5-5.44-9-11-13.08a20.27,20.27,0,0,0-14.13-3.74c-6.59.69-17.37,6.57-18.85,14.95-1.24,7.06,4.59,13.26,7.75,16.63,8.84,9.4,18,10,34.65,17a172.51,172.51,0,0,1,25.12,13.08"/><path class="cls-1" d="M13718.59,311.57c2.37,1.63,17.2,12.22,18,30.06.17,3.58.67,14.33-6,19.54-10.66,8.29-31.6-3.73-40.59-10.52a66.63,66.63,0,0,1-19.54-24"/><path class="cls-2" d="M13467.58,135.7c-31.93,49.72-4.54,101.58-43.59,130.77-11.1,8.3-28.26,21.13-49.6,19.54-14.52-1.07-28.27-8.62-36.08-1.5-4.57,4.16-4.52,11-4.51,12,.18,23.24,46.77,41.12,57.12,45.1,23.36,9,45.16,12.6,90.18,15,46.51,2.51,69.76,3.76,96.2,1.5,59.11-5.06,140.75-12.05,172.86-67.64,12.23-21.18,13.18-42.31,13.52-52.61,1.78-52.65-30.78-89.44-42.08-102.21-16.12-18.21-61-61.06-129.27-60.12C13588.07,75.64,13504.67,78,13467.58,135.7Z"/><path class="cls-1" d="M13360.86,287.52a73.92,73.92,0,0,0,24-27.06c1.74-3.41,17.44-35.31,1.5-58.62-1.68-2.45-10.35-15.13-22.55-15-16.27.13-26.76,22.91-30.06,30.06-12.85,27.89-5.71,56.34-1.5,69.14"/><path class="cls-3" d="M13440.52,349.14c.29,4.68,47.34,5.57,70.65,6,43.84.83,65.76,1.25,91.68-1.51,45.67-4.85,86.82-9.75,121.75-39.08,18.68-15.68,24.95-29.42,27.06-34.57,9.46-23.14,10.59-58.29-7.52-73.65-28.73-24.39-91.53,13.32-99.2,18-53.36,32.77-45.57,66.39-94.69,96.19C13498,352.28,13440.21,344,13440.52,349.14Z"/><path d="M13602.57,220.75c.7,3.36,4.34,4.95,4.79,5.14,5.69,2.38,11.53-2.57,12-3,4-3.52,7-10.31,4.51-13.52-2.66-3.42-10.49-1.51-15,1.5C13608,211.43,13601.52,215.73,13602.57,220.75Z"/><path class="cls-1" d="M13574.3,292c2,5.58,9.5,28.18-1.51,51.1-2.22,4.64-8.92,18.09-24.05,25.55-12.19,6-32,9.18-39.08,0-3.42-4.4-2.74-10.14-1.5-19.54a88.75,88.75,0,0,1,10.52-31.56"/><path class="cls-4" d="M13736.63,240.92a24.1,24.1,0,0,1-30.81,2.26"/><path class="cls-1" d="M13348.83,287.52a82.06,82.06,0,0,0-63.13-64.64c-9.69-2.07-34.69-7.41-45.09,6-8.64,11.15-2.15,28.74,0,34.57,8.87,24,31.28,34.6,37.58,37.57,26.49,12.51,51.81,6.78,60.12,4.51"/><path class="cls-5" d="M13553.25,90.61c-1-6.91-1.21-16.27,3-25.55,5.85-12.89,15.8-15.91,15-24.05-.71-7.59-10.15-13.55-18-15-9.12-1.71-19.71,1.93-24,9-3.13,5.13-5.81,16.68-6,25.55,0,1.1,0,3.27-1.5,4.51-2.86,2.41-9.42-.25-13.53-3-6-4-5.2-7.2-10.52-10.52a22.34,22.34,0,0,0-13.53-3c-6.57.58-16.35,4.43-18,12-1.57,7.08,4.72,13.68,6,15,8,8.43,17.48,6.81,34.57,12a114.5,114.5,0,0,1,24,10.52"/><path class="cls-1" d="M13134.4,309.06c2.58,1.3,18.72,9.76,22,27.31.65,3.52,2.62,14.11-3.28,20.18-9.42,9.67-31.81.63-41.65-4.87a66.54,66.54,0,0,1-22.65-21.15"/><path class="cls-2" d="M12867.58,138c-31.93,49.71-4.54,101.58-43.59,130.77-11.1,8.29-28.26,21.12-49.6,19.54-14.52-1.08-28.27-8.62-36.08-1.5-4.57,4.16-4.52,11-4.51,12,.18,23.23,46.77,41.12,57.12,45.09,23.36,9,45.16,12.6,90.18,15,46.51,2.51,69.76,3.77,96.2,1.51,59.11-5.06,140.75-12.05,172.86-67.64,12.23-21.18,13.18-42.32,13.52-52.61,1.78-52.66-30.78-89.44-42.08-102.21-16.12-18.21-61-61.06-129.27-60.12C12988.07,77.94,12904.67,80.26,12867.58,138Z"/><path class="cls-1" d="M12760.86,289.82a74,74,0,0,0,24-27.05c1.74-3.42,17.44-35.31,1.5-58.62-1.68-2.46-10.35-15.14-22.55-15-16.27.14-26.76,22.91-30.06,30.07-12.85,27.89-5.71,56.33-1.5,69.14"/><path class="cls-3" d="M12840.52,351.45c.29,4.67,47.34,5.57,70.65,6,43.84.83,65.76,1.25,91.68-1.5,45.67-4.86,86.82-9.75,121.75-39.08,18.68-15.68,24.95-29.43,27.06-34.57,9.46-23.14,10.59-58.29-7.52-73.66-28.73-24.38-91.53,13.33-99.2,18-53.36,32.78-45.57,66.39-94.69,96.2C12898,354.59,12840.21,346.29,12840.52,351.45Z"/><path d="M13002.57,223.06c.7,3.36,4.34,4.95,4.79,5.13,5.69,2.38,11.53-2.56,12-3,4-3.53,7-10.32,4.51-13.53-2.66-3.41-10.49-1.51-15,1.5C13008,213.73,13001.52,218,13002.57,223.06Z"/><path class="cls-1" d="M12972.51,288.29c5,8.63,12.1,24.23,11.51,44.12-.24,8.13-.6,21.69-9.8,34.1-8.63,11.65-25.45,23-35.55,17.87-5.64-2.87-7.26-9.45-9.54-17.32a300.46,300.46,0,0,0-21.26-53.21"/><path class="cls-4" d="M13136.63,243.23a24.08,24.08,0,0,1-30.81,2.25"/><path class="cls-1" d="M12748.83,289.82a82,82,0,0,0-63.13-64.63c-9.69-2.07-34.69-7.42-45.09,6-8.64,11.16-2.15,28.75,0,34.57,8.87,24,31.28,34.61,37.58,37.58,26.49,12.51,51.81,6.78,60.12,4.51"/><path class="cls-5" d="M12961.14,91.09c-1.31-7.93-2-19.74,3.14-31.77,5.94-13.91,15.5-18.34,14.24-28-1-7.72-8.3-14.86-16.53-16.54-11.58-2.36-20.54,7-21,7.52-5.88,6.32-11.38,19.79-11.21,31.47,0,1.48,0,4-1.57,5.6-3,3-9.84-.3-14.13-3.73-6.24-5-5.44-9-11-13.08a20.27,20.27,0,0,0-14.13-3.74c-6.59.69-17.37,6.57-18.85,14.95-1.24,7.06,4.59,13.26,7.75,16.63,8.84,9.4,18,10,34.65,17a172.51,172.51,0,0,1,25.12,13.08"/><path class="cls-1" d="M12518.59,311.57c2.37,1.63,17.2,12.22,18,30.06.17,3.58.67,14.33-6,19.54-10.66,8.29-31.6-3.73-40.59-10.52a66.63,66.63,0,0,1-19.54-24"/><path class="cls-2" d="M12267.58,135.7c-31.93,49.72-4.54,101.58-43.59,130.77-11.1,8.3-28.26,21.13-49.6,19.54-14.52-1.07-28.27-8.62-36.08-1.5-4.57,4.16-4.52,11-4.51,12,.18,23.24,46.77,41.12,57.12,45.1,23.36,9,45.16,12.6,90.18,15,46.51,2.51,69.76,3.76,96.2,1.5,59.11-5.06,140.75-12.05,172.86-67.64,12.23-21.18,13.18-42.31,13.52-52.61,1.78-52.65-30.78-89.44-42.08-102.21-16.12-18.21-61-61.06-129.27-60.12C12388.07,75.64,12304.67,78,12267.58,135.7Z"/><path class="cls-1" d="M12160.86,287.52a73.92,73.92,0,0,0,24-27.06c1.74-3.41,17.44-35.31,1.5-58.62-1.68-2.45-10.35-15.13-22.55-15-16.27.13-26.76,22.91-30.06,30.06-12.85,27.89-5.71,56.34-1.5,69.14"/><path class="cls-3" d="M12240.52,349.14c.29,4.68,47.34,5.57,70.65,6,43.84.83,65.76,1.25,91.68-1.51,45.67-4.85,86.82-9.75,121.75-39.08,18.68-15.68,24.95-29.42,27.06-34.57,9.46-23.14,10.59-58.29-7.52-73.65-28.73-24.39-91.53,13.32-99.2,18-53.36,32.77-45.57,66.39-94.69,96.19C12298,352.28,12240.21,344,12240.52,349.14Z"/><path d="M12402.57,220.75c.7,3.36,4.34,4.95,4.79,5.14,5.69,2.38,11.53-2.57,12-3,4-3.52,7-10.31,4.51-13.52-2.66-3.42-10.49-1.51-15,1.5C12408,211.43,12401.52,215.73,12402.57,220.75Z"/><path class="cls-1" d="M12374.3,292c2,5.58,9.5,28.18-1.51,51.1-2.22,4.64-8.92,18.09-24.05,25.55-12.19,6-32,9.18-39.08,0-3.42-4.4-2.74-10.14-1.5-19.54a88.75,88.75,0,0,1,10.52-31.56"/><path class="cls-4" d="M12536.63,240.92a24.1,24.1,0,0,1-30.81,2.26"/><path class="cls-1" d="M12148.83,287.52a82.06,82.06,0,0,0-63.13-64.64c-9.69-2.07-34.69-7.41-45.09,6-8.64,11.15-2.15,28.74,0,34.57,8.87,24,31.28,34.6,37.58,37.57,26.49,12.51,51.81,6.78,60.12,4.51"/><path class="cls-5" d="M12353.25,90.61c-1-6.91-1.21-16.27,3-25.55,5.85-12.89,15.8-15.91,15-24.05-.71-7.59-10.15-13.55-18-15-9.12-1.71-19.71,1.93-24,9-3.13,5.13-5.81,16.68-6,25.55,0,1.1,0,3.27-1.5,4.51-2.86,2.41-9.42-.25-13.53-3-6-4-5.2-7.2-10.52-10.52a22.34,22.34,0,0,0-13.53-3c-6.57.58-16.35,4.43-18,12-1.57,7.08,4.72,13.68,6,15,8,8.43,17.48,6.81,34.57,12a114.5,114.5,0,0,1,24,10.52"/><path class="cls-1" d="M11934.4,309.06c2.58,1.3,18.72,9.76,22,27.31.65,3.52,2.62,14.11-3.28,20.18-9.42,9.67-31.81.63-41.65-4.87a66.54,66.54,0,0,1-22.65-21.15"/><path class="cls-2" d="M11667.58,138c-31.93,49.71-4.54,101.58-43.59,130.77-11.1,8.29-28.26,21.12-49.6,19.54-14.52-1.08-28.27-8.62-36.08-1.5-4.57,4.16-4.52,11-4.51,12,.18,23.23,46.77,41.12,57.12,45.09,23.36,9,45.16,12.6,90.18,15,46.51,2.51,69.76,3.77,96.2,1.51,59.11-5.06,140.75-12.05,172.86-67.64,12.23-21.18,13.18-42.32,13.52-52.61,1.78-52.66-30.78-89.44-42.08-102.21-16.12-18.21-61-61.06-129.27-60.12C11788.07,77.94,11704.67,80.26,11667.58,138Z"/><path class="cls-1" d="M11560.86,289.82a74,74,0,0,0,24-27.05c1.74-3.42,17.44-35.31,1.5-58.62-1.68-2.46-10.35-15.14-22.55-15-16.27.14-26.76,22.91-30.06,30.07-12.85,27.89-5.71,56.33-1.5,69.14"/><path class="cls-3" d="M11640.52,351.45c.29,4.67,47.34,5.57,70.65,6,43.84.83,65.76,1.25,91.68-1.5,45.67-4.86,86.82-9.75,121.75-39.08,18.68-15.68,24.95-29.43,27.06-34.57,9.46-23.14,10.59-58.29-7.52-73.66-28.73-24.38-91.53,13.33-99.2,18-53.36,32.78-45.57,66.39-94.69,96.2C11698,354.59,11640.21,346.29,11640.52,351.45Z"/><path d="M11802.57,223.06c.7,3.36,4.34,4.95,4.79,5.13,5.69,2.38,11.53-2.56,12-3,4-3.53,7-10.32,4.51-13.53-2.66-3.41-10.49-1.51-15,1.5C11808,213.73,11801.52,218,11802.57,223.06Z"/><path class="cls-1" d="M11772.51,288.29c5,8.63,12.1,24.23,11.51,44.12-.24,8.13-.6,21.69-9.8,34.1-8.63,11.65-25.45,23-35.55,17.87-5.64-2.87-7.26-9.45-9.54-17.32a300.46,300.46,0,0,0-21.26-53.21"/><path class="cls-4" d="M11936.63,243.23a24.08,24.08,0,0,1-30.81,2.25"/><path class="cls-1" d="M11548.83,289.82a82,82,0,0,0-63.13-64.63c-9.69-2.07-34.69-7.42-45.09,6-8.64,11.16-2.15,28.75,0,34.57,8.87,24,31.28,34.61,37.58,37.58,26.49,12.51,51.81,6.78,60.12,4.51"/><path class="cls-5" d="M11761.14,91.09c-1.31-7.93-2-19.74,3.14-31.77,5.94-13.91,15.5-18.34,14.24-28-1-7.72-8.3-14.86-16.53-16.54-11.58-2.36-20.54,7-21,7.52-5.88,6.32-11.38,19.79-11.21,31.47,0,1.48,0,4-1.57,5.6-3,3-9.84-.3-14.13-3.73-6.24-5-5.44-9-11-13.08a20.27,20.27,0,0,0-14.13-3.74c-6.59.69-17.37,6.57-18.85,14.95-1.24,7.06,4.59,13.26,7.75,16.63,8.84,9.4,18,10,34.65,17a172.51,172.51,0,0,1,25.12,13.08"/><path class="cls-1" d="M11318.59,311.57c2.37,1.63,17.2,12.22,18,30.06.17,3.58.67,14.33-6,19.54-10.66,8.29-31.6-3.73-40.59-10.52a66.63,66.63,0,0,1-19.54-24"/><path class="cls-2" d="M11067.58,135.7c-31.93,49.72-4.54,101.58-43.59,130.77-11.1,8.3-28.26,21.13-49.6,19.54-14.52-1.07-28.27-8.62-36.08-1.5-4.57,4.16-4.52,11-4.51,12,.18,23.24,46.77,41.12,57.12,45.1,23.36,9,45.16,12.6,90.18,15,46.51,2.51,69.76,3.76,96.2,1.5,59.11-5.06,140.75-12.05,172.86-67.64,12.23-21.18,13.18-42.31,13.52-52.61,1.78-52.65-30.78-89.44-42.08-102.21-16.12-18.21-61-61.06-129.27-60.12C11188.07,75.64,11104.67,78,11067.58,135.7Z"/><path class="cls-1" d="M10960.86,287.52a73.92,73.92,0,0,0,24-27.06c1.74-3.41,17.44-35.31,1.5-58.62-1.68-2.45-10.35-15.13-22.55-15-16.27.13-26.76,22.91-30.06,30.06-12.85,27.89-5.71,56.34-1.5,69.14"/><path class="cls-3" d="M11040.52,349.14c.29,4.68,47.34,5.57,70.65,6,43.84.83,65.76,1.25,91.68-1.51,45.67-4.85,86.82-9.75,121.75-39.08,18.68-15.68,24.95-29.42,27.06-34.57,9.46-23.14,10.59-58.29-7.52-73.65-28.73-24.39-91.53,13.32-99.2,18-53.36,32.77-45.57,66.39-94.69,96.19C11098,352.28,11040.21,344,11040.52,349.14Z"/><path d="M11202.57,220.75c.7,3.36,4.34,4.95,4.79,5.14,5.69,2.38,11.53-2.57,12-3,4-3.52,7-10.31,4.51-13.52-2.66-3.42-10.49-1.51-15,1.5C11208,211.43,11201.52,215.73,11202.57,220.75Z"/><path class="cls-1" d="M11174.3,292c2,5.58,9.5,28.18-1.51,51.1-2.22,4.64-8.92,18.09-24.05,25.55-12.19,6-32,9.18-39.08,0-3.42-4.4-2.74-10.14-1.5-19.54a88.75,88.75,0,0,1,10.52-31.56"/><path class="cls-4" d="M11336.63,240.92a24.1,24.1,0,0,1-30.81,2.26"/><path class="cls-1" d="M10948.83,287.52a82.06,82.06,0,0,0-63.13-64.64c-9.69-2.07-34.69-7.41-45.09,6-8.64,11.15-2.15,28.74,0,34.57,8.87,24,31.28,34.6,37.58,37.57,26.49,12.51,51.81,6.78,60.12,4.51"/><path class="cls-5" d="M11153.25,90.61c-1-6.91-1.21-16.27,3-25.55,5.85-12.89,15.8-15.91,15-24.05-.71-7.59-10.15-13.55-18-15-9.12-1.71-19.71,1.93-24,9-3.13,5.13-5.81,16.68-6,25.55,0,1.1,0,3.27-1.5,4.51-2.86,2.41-9.42-.25-13.53-3-6-4-5.2-7.2-10.52-10.52a22.34,22.34,0,0,0-13.53-3c-6.57.58-16.35,4.43-18,12-1.57,7.08,4.72,13.68,6,15,8,8.43,17.48,6.81,34.57,12a114.5,114.5,0,0,1,24,10.52"/><path class="cls-1" d="M10734.4,309.06c2.58,1.3,18.72,9.76,22,27.31.65,3.52,2.62,14.11-3.28,20.18-9.42,9.67-31.81.63-41.65-4.87a66.54,66.54,0,0,1-22.65-21.15"/><path class="cls-2" d="M10467.58,138c-31.93,49.71-4.54,101.58-43.59,130.77-11.1,8.29-28.26,21.12-49.6,19.54-14.52-1.08-28.27-8.62-36.08-1.5-4.57,4.16-4.52,11-4.51,12,.18,23.23,46.77,41.12,57.12,45.09,23.36,9,45.16,12.6,90.18,15,46.51,2.51,69.76,3.77,96.2,1.51,59.11-5.06,140.75-12.05,172.86-67.64,12.23-21.18,13.18-42.32,13.52-52.61,1.78-52.66-30.78-89.44-42.08-102.21-16.12-18.21-61-61.06-129.27-60.12C10588.07,77.94,10504.67,80.26,10467.58,138Z"/><path class="cls-1" d="M10360.86,289.82a74,74,0,0,0,24-27.05c1.74-3.42,17.44-35.31,1.5-58.62-1.68-2.46-10.35-15.14-22.55-15-16.27.14-26.76,22.91-30.06,30.07-12.85,27.89-5.71,56.33-1.5,69.14"/><path class="cls-3" d="M10440.52,351.45c.29,4.67,47.34,5.57,70.65,6,43.84.83,65.76,1.25,91.68-1.5,45.67-4.86,86.82-9.75,121.75-39.08,18.68-15.68,24.95-29.43,27.06-34.57,9.46-23.14,10.59-58.29-7.52-73.66-28.73-24.38-91.53,13.33-99.2,18-53.36,32.78-45.57,66.39-94.69,96.2C10498,354.59,10440.21,346.29,10440.52,351.45Z"/><path d="M10602.57,223.06c.7,3.36,4.34,4.95,4.79,5.13,5.69,2.38,11.53-2.56,12-3,4-3.53,7-10.32,4.51-13.53-2.66-3.41-10.49-1.51-15,1.5C10608,213.73,10601.52,218,10602.57,223.06Z"/><path class="cls-1" d="M10572.51,288.29c5,8.63,12.1,24.23,11.51,44.12-.24,8.13-.6,21.69-9.8,34.1-8.63,11.65-25.45,23-35.55,17.87-5.64-2.87-7.26-9.45-9.54-17.32a300.46,300.46,0,0,0-21.26-53.21"/><path class="cls-4" d="M10736.63,243.23a24.08,24.08,0,0,1-30.81,2.25"/><path class="cls-1" d="M10348.83,289.82a82,82,0,0,0-63.13-64.63c-9.69-2.07-34.69-7.42-45.09,6-8.64,11.16-2.15,28.75,0,34.57,8.87,24,31.28,34.61,37.58,37.58,26.49,12.51,51.81,6.78,60.12,4.51"/><path class="cls-5" d="M10561.14,91.09c-1.31-7.93-2-19.74,3.14-31.77,5.94-13.91,15.5-18.34,14.24-28-1-7.72-8.3-14.86-16.53-16.54-11.58-2.36-20.54,7-21,7.52-5.88,6.32-11.38,19.79-11.21,31.47,0,1.48,0,4-1.57,5.6-3,3-9.84-.3-14.13-3.73-6.24-5-5.44-9-11-13.08a20.27,20.27,0,0,0-14.13-3.74c-6.59.69-17.37,6.57-18.85,14.95-1.24,7.06,4.59,13.26,7.75,16.63,8.84,9.4,18,10,34.65,17a172.51,172.51,0,0,1,25.12,13.08"/><path class="cls-1" d="M10118.59,311.57c2.37,1.63,17.2,12.22,18,30.06.17,3.58.67,14.33-6,19.54-10.66,8.29-31.6-3.73-40.59-10.52a66.63,66.63,0,0,1-19.54-24"/><path class="cls-2" d="M9867.58,135.7c-31.93,49.72-4.54,101.58-43.59,130.77-11.1,8.3-28.26,21.13-49.6,19.54-14.52-1.07-28.27-8.62-36.08-1.5-4.57,4.16-4.52,11-4.51,12,.18,23.24,46.77,41.12,57.12,45.1,23.36,9,45.16,12.6,90.18,15,46.51,2.51,69.76,3.76,96.2,1.5,59.11-5.06,140.75-12.05,172.86-67.64,12.23-21.18,13.18-42.31,13.52-52.61,1.78-52.65-30.78-89.44-42.08-102.21-16.12-18.21-61-61.06-129.27-60.12C9988.07,75.64,9904.67,78,9867.58,135.7Z"/><path class="cls-1" d="M9760.86,287.52a73.92,73.92,0,0,0,24-27.06c1.74-3.41,17.44-35.31,1.5-58.62-1.68-2.45-10.35-15.13-22.55-15-16.27.13-26.76,22.91-30.06,30.06-12.85,27.89-5.71,56.34-1.5,69.14"/><path class="cls-3" d="M9840.52,349.14c.29,4.68,47.34,5.57,70.65,6,43.84.83,65.76,1.25,91.68-1.51,45.67-4.85,86.82-9.75,121.75-39.08,18.68-15.68,24.95-29.42,27.06-34.57,9.46-23.14,10.59-58.29-7.52-73.65-28.73-24.39-91.53,13.32-99.2,18-53.36,32.77-45.57,66.39-94.69,96.19C9898,352.28,9840.21,344,9840.52,349.14Z"/><path d="M10002.57,220.75c.7,3.36,4.34,4.95,4.79,5.14,5.69,2.38,11.53-2.57,12-3,4-3.52,7-10.31,4.51-13.52-2.66-3.42-10.49-1.51-15,1.5C10008,211.43,10001.52,215.73,10002.57,220.75Z"/><path class="cls-1" d="M9974.3,292c2,5.58,9.5,28.18-1.51,51.1-2.22,4.64-8.92,18.09-24.05,25.55-12.19,6-32,9.18-39.08,0-3.42-4.4-2.74-10.14-1.5-19.54a88.75,88.75,0,0,1,10.52-31.56"/><path class="cls-4" d="M10136.63,240.92a24.1,24.1,0,0,1-30.81,2.26"/><path class="cls-1" d="M9748.83,287.52a82.06,82.06,0,0,0-63.13-64.64c-9.69-2.07-34.69-7.41-45.09,6-8.64,11.15-2.15,28.74,0,34.57,8.87,24,31.28,34.6,37.58,37.57,26.49,12.51,51.81,6.78,60.12,4.51"/><path class="cls-5" d="M9953.25,90.61c-1-6.91-1.21-16.27,3-25.55,5.85-12.89,15.8-15.91,15-24.05-.71-7.59-10.15-13.55-18-15-9.12-1.71-19.71,1.93-24,9-3.13,5.13-5.81,16.68-6,25.55,0,1.1,0,3.27-1.5,4.51-2.86,2.41-9.42-.25-13.53-3-6-4-5.2-7.2-10.52-10.52a22.34,22.34,0,0,0-13.53-3c-6.57.58-16.35,4.43-18,12-1.57,7.08,4.72,13.68,6,15,8,8.43,17.48,6.81,34.57,12a114.5,114.5,0,0,1,24,10.52"/><path class="cls-1" d="M9534.4,309.06c2.58,1.3,18.72,9.76,22,27.31.65,3.52,2.62,14.11-3.28,20.18-9.42,9.67-31.81.63-41.65-4.87a66.54,66.54,0,0,1-22.65-21.15"/><path class="cls-2" d="M9267.58,138c-31.93,49.71-4.54,101.58-43.59,130.77-11.1,8.29-28.26,21.12-49.6,19.54-14.52-1.08-28.27-8.62-36.08-1.5-4.57,4.16-4.52,11-4.51,12,.18,23.23,46.77,41.12,57.12,45.09,23.36,9,45.16,12.6,90.18,15,46.51,2.51,69.76,3.77,96.2,1.51,59.11-5.06,140.75-12.05,172.86-67.64,12.23-21.18,13.18-42.32,13.52-52.61,1.78-52.66-30.78-89.44-42.08-102.21-16.12-18.21-61-61.06-129.27-60.12C9388.07,77.94,9304.67,80.26,9267.58,138Z"/><path class="cls-1" d="M9160.86,289.82a74,74,0,0,0,24-27.05c1.74-3.42,17.44-35.31,1.5-58.62-1.68-2.46-10.35-15.14-22.55-15-16.27.14-26.76,22.91-30.06,30.07-12.85,27.89-5.71,56.33-1.5,69.14"/><path class="cls-3" d="M9240.52,351.45c.29,4.67,47.34,5.57,70.65,6,43.84.83,65.76,1.25,91.68-1.5,45.67-4.86,86.82-9.75,121.75-39.08,18.68-15.68,24.95-29.43,27.06-34.57,9.46-23.14,10.59-58.29-7.52-73.66-28.73-24.38-91.53,13.33-99.2,18-53.36,32.78-45.57,66.39-94.69,96.2C9298,354.59,9240.21,346.29,9240.52,351.45Z"/><path d="M9402.57,223.06c.7,3.36,4.34,4.95,4.79,5.13,5.69,2.38,11.53-2.56,12-3,4-3.53,7-10.32,4.51-13.53-2.66-3.41-10.49-1.51-15,1.5C9408,213.73,9401.52,218,9402.57,223.06Z"/><path class="cls-1" d="M9372.51,288.29c5,8.63,12.1,24.23,11.51,44.12-.24,8.13-.6,21.69-9.8,34.1-8.63,11.65-25.45,23-35.55,17.87-5.64-2.87-7.26-9.45-9.54-17.32a300.46,300.46,0,0,0-21.26-53.21"/><path class="cls-4" d="M9536.63,243.23a24.08,24.08,0,0,1-30.81,2.25"/><path class="cls-1" d="M9148.83,289.82a82,82,0,0,0-63.13-64.63c-9.69-2.07-34.69-7.42-45.09,6-8.64,11.16-2.15,28.75,0,34.57,8.87,24,31.28,34.61,37.58,37.58,26.49,12.51,51.81,6.78,60.12,4.51"/><path class="cls-5" d="M9361.14,91.09c-1.31-7.93-2-19.74,3.14-31.77,5.94-13.91,15.5-18.34,14.24-28-1-7.72-8.3-14.86-16.53-16.54-11.58-2.36-20.54,7-21,7.52-5.88,6.32-11.38,19.79-11.21,31.47,0,1.48,0,4-1.57,5.6-3,3-9.84-.3-14.13-3.73-6.24-5-5.44-9-11-13.08a20.27,20.27,0,0,0-14.13-3.74c-6.59.69-17.37,6.57-18.85,14.95-1.24,7.06,4.59,13.26,7.75,16.63,8.84,9.4,18,10,34.65,17a172.51,172.51,0,0,1,25.12,13.08"/><path class="cls-1" d="M8918.59,311.57c2.37,1.63,17.2,12.22,18,30.06.17,3.58.67,14.33-6,19.54-10.66,8.29-31.6-3.73-40.59-10.52a66.63,66.63,0,0,1-19.54-24"/><path class="cls-2" d="M8667.58,135.7c-31.93,49.72-4.54,101.58-43.59,130.77-11.1,8.3-28.26,21.13-49.6,19.54-14.52-1.07-28.27-8.62-36.08-1.5-4.57,4.16-4.52,11-4.51,12,.18,23.24,46.77,41.12,57.12,45.1,23.36,9,45.16,12.6,90.18,15,46.51,2.51,69.76,3.76,96.2,1.5,59.11-5.06,140.75-12.05,172.86-67.64,12.23-21.18,13.18-42.31,13.52-52.61,1.78-52.65-30.78-89.44-42.08-102.21-16.12-18.21-61-61.06-129.27-60.12C8788.07,75.64,8704.67,78,8667.58,135.7Z"/><path class="cls-1" d="M8560.86,287.52a73.92,73.92,0,0,0,24-27.06c1.74-3.41,17.44-35.31,1.5-58.62-1.68-2.45-10.35-15.13-22.55-15-16.27.13-26.76,22.91-30.06,30.06-12.85,27.89-5.71,56.34-1.5,69.14"/><path class="cls-3" d="M8640.52,349.14c.29,4.68,47.34,5.57,70.65,6,43.84.83,65.76,1.25,91.68-1.51,45.67-4.85,86.82-9.75,121.75-39.08,18.68-15.68,24.95-29.42,27.06-34.57,9.46-23.14,10.59-58.29-7.52-73.65-28.73-24.39-91.53,13.32-99.2,18-53.36,32.77-45.57,66.39-94.69,96.19C8698,352.28,8640.21,344,8640.52,349.14Z"/><path d="M8802.57,220.75c.7,3.36,4.34,4.95,4.79,5.14,5.69,2.38,11.53-2.57,12-3,4-3.52,7-10.31,4.51-13.52-2.66-3.42-10.49-1.51-15,1.5C8808,211.43,8801.52,215.73,8802.57,220.75Z"/><path class="cls-1" d="M8774.3,292c2,5.58,9.5,28.18-1.51,51.1-2.22,4.64-8.92,18.09-24.05,25.55-12.19,6-32,9.18-39.08,0-3.42-4.4-2.74-10.14-1.5-19.54a88.75,88.75,0,0,1,10.52-31.56"/><path class="cls-4" d="M8936.63,240.92a24.1,24.1,0,0,1-30.81,2.26"/><path class="cls-1" d="M8548.83,287.52a82.06,82.06,0,0,0-63.13-64.64c-9.69-2.07-34.69-7.41-45.09,6-8.64,11.15-2.15,28.74,0,34.57,8.87,24,31.28,34.6,37.58,37.57,26.49,12.51,51.81,6.78,60.12,4.51"/><path class="cls-5" d="M8753.25,90.61c-1-6.91-1.21-16.27,3-25.55,5.85-12.89,15.8-15.91,15-24.05-.71-7.59-10.15-13.55-18-15-9.12-1.71-19.71,1.93-24,9-3.13,5.13-5.81,16.68-6,25.55,0,1.1,0,3.27-1.5,4.51-2.86,2.41-9.42-.25-13.53-3-6-4-5.2-7.2-10.52-10.52a22.34,22.34,0,0,0-13.53-3c-6.57.58-16.35,4.43-18,12-1.57,7.08,4.72,13.68,6,15,8,8.43,17.48,6.81,34.57,12a114.5,114.5,0,0,1,24,10.52"/><path class="cls-1" d="M8334.4,309.06c2.58,1.3,18.72,9.76,22,27.31.65,3.52,2.62,14.11-3.28,20.18-9.42,9.67-31.81.63-41.65-4.87a66.54,66.54,0,0,1-22.65-21.15"/><path class="cls-2" d="M8067.58,138c-31.93,49.71-4.54,101.58-43.59,130.77-11.1,8.29-28.26,21.12-49.6,19.54-14.52-1.08-28.27-8.62-36.08-1.5-4.57,4.16-4.52,11-4.51,12,.18,23.23,46.77,41.12,57.12,45.09,23.36,9,45.16,12.6,90.18,15,46.51,2.51,69.76,3.77,96.2,1.51,59.11-5.06,140.75-12.05,172.86-67.64,12.23-21.18,13.18-42.32,13.52-52.61,1.78-52.66-30.78-89.44-42.08-102.21-16.12-18.21-61-61.06-129.27-60.12C8188.07,77.94,8104.67,80.26,8067.58,138Z"/><path class="cls-1" d="M7960.86,289.82a74,74,0,0,0,24.05-27.05c1.74-3.42,17.44-35.31,1.5-58.62-1.68-2.46-10.35-15.14-22.55-15-16.27.14-26.76,22.91-30.06,30.07-12.85,27.89-5.71,56.33-1.5,69.14"/><path class="cls-3" d="M8040.52,351.45c.29,4.67,47.34,5.57,70.65,6,43.84.83,65.76,1.25,91.68-1.5,45.67-4.86,86.82-9.75,121.75-39.08,18.68-15.68,24.95-29.43,27.06-34.57,9.46-23.14,10.59-58.29-7.52-73.66-28.73-24.38-91.53,13.33-99.2,18-53.36,32.78-45.57,66.39-94.69,96.2C8098,354.59,8040.21,346.29,8040.52,351.45Z"/><path d="M8202.57,223.06c.7,3.36,4.34,4.95,4.79,5.13,5.69,2.38,11.53-2.56,12-3,4-3.53,7-10.32,4.51-13.53-2.66-3.41-10.49-1.51-15,1.5C8208,213.73,8201.52,218,8202.57,223.06Z"/><path class="cls-1" d="M8172.51,288.29c5,8.63,12.1,24.23,11.51,44.12-.24,8.13-.6,21.69-9.8,34.1-8.63,11.65-25.45,23-35.55,17.87-5.64-2.87-7.26-9.45-9.54-17.32a300.46,300.46,0,0,0-21.26-53.21"/><path class="cls-4" d="M8336.63,243.23a24.08,24.08,0,0,1-30.81,2.25"/><path class="cls-1" d="M7948.83,289.82a82,82,0,0,0-63.13-64.63c-9.69-2.07-34.69-7.42-45.09,6-8.64,11.16-2.15,28.75,0,34.57,8.87,24,31.28,34.61,37.58,37.58,26.49,12.51,51.81,6.78,60.12,4.51"/><path class="cls-5" d="M8161.14,91.09c-1.31-7.93-2-19.74,3.14-31.77,5.94-13.91,15.5-18.34,14.24-28-1-7.72-8.3-14.86-16.53-16.54-11.58-2.36-20.54,7-21.05,7.52-5.88,6.32-11.38,19.79-11.21,31.47,0,1.48,0,4-1.57,5.6-3,3-9.84-.3-14.13-3.73-6.24-5-5.44-9-11-13.08a20.27,20.27,0,0,0-14.13-3.74c-6.59.69-17.37,6.57-18.85,14.95-1.24,7.06,4.59,13.26,7.75,16.63,8.84,9.4,17.95,10,34.65,17a172.51,172.51,0,0,1,25.12,13.08"/><path class="cls-1" d="M1865.6,309.06c-2.58,1.3-18.72,9.76-22,27.31-.65,3.52-2.62,14.11,3.28,20.18,9.42,9.67,31.81.63,41.65-4.87a66.54,66.54,0,0,0,22.65-21.15"/><path class="cls-2" d="M2132.42,138c31.93,49.71,4.54,101.58,43.59,130.77,11.1,8.29,28.26,21.12,49.6,19.54,14.52-1.08,28.27-8.62,36.08-1.5,4.57,4.16,4.52,11,4.51,12-.18,23.23-46.77,41.12-57.12,45.09-23.36,9-45.16,12.6-90.18,15-46.51,2.51-69.76,3.77-96.2,1.51-59.11-5.06-140.75-12.05-172.86-67.64-12.23-21.18-13.18-42.32-13.52-52.61-1.78-52.66,30.78-89.44,42.08-102.21,16.12-18.21,61-61.06,129.27-60.12C2011.93,77.94,2095.33,80.26,2132.42,138Z"/><path class="cls-1" d="M2239.14,289.82a74,74,0,0,1-24-27.05c-1.74-3.42-17.44-35.31-1.5-58.62,1.68-2.46,10.35-15.14,22.55-15,16.27.14,26.76,22.91,30.06,30.07,12.85,27.89,5.71,56.33,1.5,69.14"/><path class="cls-3" d="M2159.48,351.45c-.29,4.67-47.34,5.57-70.65,6-43.84.83-65.76,1.25-91.68-1.5-45.67-4.86-86.82-9.75-121.75-39.08-18.68-15.68-25-29.43-27.06-34.57-9.46-23.14-10.59-58.29,7.52-73.66,28.73-24.38,91.53,13.33,99.2,18,53.36,32.78,45.57,66.39,94.69,96.2C2102,354.59,2159.79,346.29,2159.48,351.45Z"/><path d="M1997.43,223.06c-.7,3.36-4.34,4.95-4.79,5.13-5.69,2.38-11.53-2.56-12-3-4-3.53-7-10.32-4.51-13.53,2.66-3.41,10.49-1.51,15,1.5C1992,213.73,1998.48,218,1997.43,223.06Z"/><path class="cls-1" d="M2027.49,288.29c-5,8.63-12.1,24.23-11.51,44.12.24,8.13.6,21.69,9.8,34.1,8.63,11.65,25.45,23,35.55,17.87,5.64-2.87,7.26-9.45,9.54-17.32a300.46,300.46,0,0,1,21.26-53.21"/><path class="cls-4" d="M1863.37,243.23a24.08,24.08,0,0,0,30.81,2.25"/><path class="cls-1" d="M2251.17,289.82a82,82,0,0,1,63.13-64.63c9.69-2.07,34.69-7.42,45.09,6,8.64,11.16,2.15,28.75,0,34.57-8.87,24-31.28,34.61-37.58,37.58-26.49,12.51-51.81,6.78-60.12,4.51"/><path class="cls-5" d="M2038.86,91.09c1.31-7.93,2-19.74-3.14-31.77-5.94-13.91-15.5-18.34-14.24-28,1-7.72,8.3-14.86,16.53-16.54,11.58-2.36,20.54,7,21,7.52,5.88,6.32,11.38,19.79,11.21,31.47,0,1.48,0,4,1.57,5.6,3,3,9.84-.3,14.13-3.73,6.24-5,5.44-9,11-13.08a20.27,20.27,0,0,1,14.13-3.74c6.59.69,17.37,6.57,18.85,14.95,1.24,7.06-4.59,13.26-7.75,16.63-8.84,9.4-18,10-34.65,17a172.51,172.51,0,0,0-25.12,13.08"/><path class="cls-1" d="M2481.41,311.57c-2.37,1.63-17.2,12.22-18,30.06-.17,3.58-.67,14.33,6,19.54,10.66,8.29,31.6-3.73,40.59-10.52a66.63,66.63,0,0,0,19.54-24"/><path class="cls-2" d="M2732.42,135.7c31.93,49.72,4.54,101.58,43.59,130.77,11.1,8.3,28.26,21.13,49.6,19.54,14.52-1.07,28.27-8.62,36.08-1.5,4.57,4.16,4.52,11,4.51,12-.18,23.24-46.77,41.12-57.12,45.1-23.36,9-45.16,12.6-90.18,15-46.51,2.51-69.76,3.76-96.2,1.5-59.11-5.06-140.75-12.05-172.86-67.64-12.23-21.18-13.18-42.31-13.52-52.61-1.78-52.65,30.78-89.44,42.08-102.21,16.12-18.21,61-61.06,129.27-60.12C2611.93,75.64,2695.33,78,2732.42,135.7Z"/><path class="cls-1" d="M2839.14,287.52a73.92,73.92,0,0,1-24-27.06c-1.74-3.41-17.44-35.31-1.5-58.62,1.68-2.45,10.35-15.13,22.55-15,16.27.13,26.76,22.91,30.06,30.06,12.85,27.89,5.71,56.34,1.5,69.14"/><path class="cls-3" d="M2759.48,349.14c-.29,4.68-47.34,5.57-70.65,6-43.84.83-65.76,1.25-91.68-1.51-45.67-4.85-86.82-9.75-121.75-39.08-18.68-15.68-25-29.42-27.06-34.57-9.46-23.14-10.59-58.29,7.52-73.65,28.73-24.39,91.53,13.32,99.2,18,53.36,32.77,45.57,66.39,94.69,96.19C2702,352.28,2759.79,344,2759.48,349.14Z"/><path d="M2597.43,220.75c-.7,3.36-4.34,4.95-4.79,5.14-5.69,2.38-11.53-2.57-12-3-4-3.52-7-10.31-4.51-13.52,2.66-3.42,10.49-1.51,15,1.5C2592,211.43,2598.48,215.73,2597.43,220.75Z"/><path class="cls-1" d="M2625.7,292c-2,5.58-9.5,28.18,1.51,51.1,2.22,4.64,8.92,18.09,24.05,25.55,12.19,6,32,9.18,39.08,0,3.42-4.4,2.74-10.14,1.5-19.54a88.75,88.75,0,0,0-10.52-31.56"/><path class="cls-4" d="M2463.37,240.92a24.1,24.1,0,0,0,30.81,2.26"/><path class="cls-1" d="M2851.17,287.52a82.06,82.06,0,0,1,63.13-64.64c9.69-2.07,34.69-7.41,45.09,6,8.64,11.15,2.15,28.74,0,34.57-8.87,24-31.28,34.6-37.58,37.57-26.49,12.51-51.81,6.78-60.12,4.51"/><path class="cls-5" d="M2646.75,90.61c1-6.91,1.21-16.27-3-25.55-5.85-12.89-15.8-15.91-15-24.05.71-7.59,10.15-13.55,18-15,9.12-1.71,19.71,1.93,24.05,9,3.13,5.13,5.81,16.68,6,25.55,0,1.1,0,3.27,1.5,4.51,2.86,2.41,9.42-.25,13.53-3,6-4,5.2-7.2,10.52-10.52a22.34,22.34,0,0,1,13.53-3c6.57.58,16.35,4.43,18,12,1.57,7.08-4.72,13.68-6,15-8,8.43-17.48,6.81-34.57,12a114.5,114.5,0,0,0-24.05,10.52"/><path class="cls-1" d="M3065.6,309.06c-2.58,1.3-18.72,9.76-22,27.31-.65,3.52-2.62,14.11,3.28,20.18,9.42,9.67,31.81.63,41.65-4.87a66.54,66.54,0,0,0,22.65-21.15"/><path class="cls-2" d="M3332.42,138c31.93,49.71,4.54,101.58,43.59,130.77,11.1,8.29,28.26,21.12,49.6,19.54,14.52-1.08,28.27-8.62,36.08-1.5,4.57,4.16,4.52,11,4.51,12-.18,23.23-46.77,41.12-57.12,45.09-23.36,9-45.16,12.6-90.18,15-46.51,2.51-69.76,3.77-96.2,1.51-59.11-5.06-140.75-12.05-172.86-67.64-12.23-21.18-13.18-42.32-13.52-52.61-1.78-52.66,30.78-89.44,42.08-102.21,16.12-18.21,61-61.06,129.27-60.12C3211.93,77.94,3295.33,80.26,3332.42,138Z"/><path class="cls-1" d="M3439.14,289.82a74,74,0,0,1-24-27.05c-1.74-3.42-17.44-35.31-1.5-58.62,1.68-2.46,10.35-15.14,22.55-15,16.27.14,26.76,22.91,30.06,30.07,12.85,27.89,5.71,56.33,1.5,69.14"/><path class="cls-3" d="M3359.48,351.45c-.29,4.67-47.34,5.57-70.65,6-43.84.83-65.76,1.25-91.68-1.5-45.67-4.86-86.82-9.75-121.75-39.08-18.68-15.68-25-29.43-27.06-34.57-9.46-23.14-10.59-58.29,7.52-73.66,28.73-24.38,91.53,13.33,99.2,18,53.36,32.78,45.57,66.39,94.69,96.2C3302,354.59,3359.79,346.29,3359.48,351.45Z"/><path d="M3197.43,223.06c-.7,3.36-4.34,4.95-4.79,5.13-5.69,2.38-11.53-2.56-12-3-4-3.53-7-10.32-4.51-13.53,2.66-3.41,10.49-1.51,15,1.5C3192,213.73,3198.48,218,3197.43,223.06Z"/><path class="cls-1" d="M3227.49,288.29c-5,8.63-12.1,24.23-11.51,44.12.24,8.13.6,21.69,9.8,34.1,8.63,11.65,25.45,23,35.55,17.87,5.64-2.87,7.26-9.45,9.54-17.32a300.46,300.46,0,0,1,21.26-53.21"/><path class="cls-4" d="M3063.37,243.23a24.08,24.08,0,0,0,30.81,2.25"/><path class="cls-1" d="M3451.17,289.82a82,82,0,0,1,63.13-64.63c9.69-2.07,34.69-7.42,45.09,6,8.64,11.16,2.15,28.75,0,34.57-8.87,24-31.28,34.61-37.58,37.58-26.49,12.51-51.81,6.78-60.12,4.51"/><path class="cls-5" d="M3238.86,91.09c1.31-7.93,2-19.74-3.14-31.77-5.94-13.91-15.5-18.34-14.24-28,1-7.72,8.3-14.86,16.53-16.54,11.58-2.36,20.54,7,21,7.52,5.88,6.32,11.38,19.79,11.21,31.47,0,1.48,0,4,1.57,5.6,3,3,9.84-.3,14.13-3.73,6.24-5,5.44-9,11-13.08a20.27,20.27,0,0,1,14.13-3.74c6.59.69,17.37,6.57,18.85,14.95,1.24,7.06-4.59,13.26-7.75,16.63-8.84,9.4-18,10-34.65,17a172.51,172.51,0,0,0-25.12,13.08"/><path class="cls-1" d="M3681.41,311.57c-2.37,1.63-17.2,12.22-18,30.06-.17,3.58-.67,14.33,6,19.54,10.66,8.29,31.6-3.73,40.59-10.52a66.63,66.63,0,0,0,19.54-24"/><path class="cls-2" d="M3932.42,135.7c31.93,49.72,4.54,101.58,43.59,130.77,11.1,8.3,28.26,21.13,49.6,19.54,14.52-1.07,28.27-8.62,36.08-1.5,4.57,4.16,4.52,11,4.51,12-.18,23.24-46.77,41.12-57.12,45.1-23.36,9-45.16,12.6-90.18,15-46.51,2.51-69.76,3.76-96.2,1.5-59.11-5.06-140.75-12.05-172.86-67.64-12.23-21.18-13.18-42.31-13.52-52.61-1.78-52.65,30.78-89.44,42.08-102.21,16.12-18.21,61-61.06,129.27-60.12C3811.93,75.64,3895.33,78,3932.42,135.7Z"/><path class="cls-1" d="M4039.14,287.52a73.92,73.92,0,0,1-24-27.06c-1.74-3.41-17.44-35.31-1.5-58.62,1.68-2.45,10.35-15.13,22.55-15,16.27.13,26.76,22.91,30.06,30.06,12.85,27.89,5.71,56.34,1.5,69.14"/><path class="cls-3" d="M3959.48,349.14c-.29,4.68-47.34,5.57-70.65,6-43.84.83-65.76,1.25-91.68-1.51-45.67-4.85-86.82-9.75-121.75-39.08-18.68-15.68-25-29.42-27.06-34.57-9.46-23.14-10.59-58.29,7.52-73.65,28.73-24.39,91.53,13.32,99.2,18,53.36,32.77,45.57,66.39,94.69,96.19C3902,352.28,3959.79,344,3959.48,349.14Z"/><path d="M3797.43,220.75c-.7,3.36-4.34,4.95-4.79,5.14-5.69,2.38-11.53-2.57-12-3-4-3.52-7-10.31-4.51-13.52,2.66-3.42,10.49-1.51,15,1.5C3792,211.43,3798.48,215.73,3797.43,220.75Z"/><path class="cls-1" d="M3825.7,292c-2,5.58-9.5,28.18,1.51,51.1,2.22,4.64,8.92,18.09,24.05,25.55,12.19,6,32,9.18,39.08,0,3.42-4.4,2.74-10.14,1.5-19.54a88.75,88.75,0,0,0-10.52-31.56"/><path class="cls-4" d="M3663.37,240.92a24.1,24.1,0,0,0,30.81,2.26"/><path class="cls-1" d="M4051.17,287.52a82.06,82.06,0,0,1,63.13-64.64c9.69-2.07,34.69-7.41,45.09,6,8.64,11.15,2.15,28.74,0,34.57-8.87,24-31.28,34.6-37.58,37.57-26.49,12.51-51.81,6.78-60.12,4.51"/><path class="cls-5" d="M3846.75,90.61c1-6.91,1.21-16.27-3-25.55-5.85-12.89-15.8-15.91-15-24.05.71-7.59,10.15-13.55,18-15,9.12-1.71,19.71,1.93,24.05,9,3.13,5.13,5.81,16.68,6,25.55,0,1.1,0,3.27,1.5,4.51,2.86,2.41,9.42-.25,13.53-3,6-4,5.2-7.2,10.52-10.52a22.34,22.34,0,0,1,13.53-3c6.57.58,16.35,4.43,18,12,1.57,7.08-4.72,13.68-6,15-8,8.43-17.48,6.81-34.57,12a114.5,114.5,0,0,0-24.05,10.52"/><path class="cls-1" d="M4265.6,309.06c-2.58,1.3-18.72,9.76-22,27.31-.65,3.52-2.62,14.11,3.28,20.18,9.42,9.67,31.81.63,41.65-4.87a66.54,66.54,0,0,0,22.65-21.15"/><path class="cls-2" d="M4532.42,138c31.93,49.71,4.54,101.58,43.59,130.77,11.1,8.29,28.26,21.12,49.6,19.54,14.52-1.08,28.27-8.62,36.08-1.5,4.57,4.16,4.52,11,4.51,12-.18,23.23-46.77,41.12-57.12,45.09-23.36,9-45.16,12.6-90.18,15-46.51,2.51-69.76,3.77-96.2,1.51-59.11-5.06-140.75-12.05-172.86-67.64-12.23-21.18-13.18-42.32-13.52-52.61-1.78-52.66,30.78-89.44,42.08-102.21,16.12-18.21,61-61.06,129.27-60.12C4411.93,77.94,4495.33,80.26,4532.42,138Z"/><path class="cls-1" d="M4639.14,289.82a74,74,0,0,1-24.05-27.05c-1.74-3.42-17.44-35.31-1.5-58.62,1.68-2.46,10.35-15.14,22.55-15,16.27.14,26.76,22.91,30.06,30.07,12.85,27.89,5.71,56.33,1.5,69.14"/><path class="cls-3" d="M4559.48,351.45c-.29,4.67-47.34,5.57-70.65,6-43.84.83-65.76,1.25-91.68-1.5-45.67-4.86-86.82-9.75-121.75-39.08-18.68-15.68-24.95-29.43-27.06-34.57-9.46-23.14-10.59-58.29,7.52-73.66,28.73-24.38,91.53,13.33,99.2,18,53.36,32.78,45.57,66.39,94.69,96.2C4502,354.59,4559.79,346.29,4559.48,351.45Z"/><path d="M4397.43,223.06c-.7,3.36-4.34,4.95-4.79,5.13-5.69,2.38-11.53-2.56-12-3-4-3.53-7-10.32-4.51-13.53,2.66-3.41,10.49-1.51,15,1.5C4392,213.73,4398.48,218,4397.43,223.06Z"/><path class="cls-1" d="M4427.49,288.29c-5,8.63-12.1,24.23-11.51,44.12.24,8.13.6,21.69,9.8,34.1,8.63,11.65,25.45,23,35.55,17.87,5.64-2.87,7.26-9.45,9.54-17.32a300.46,300.46,0,0,1,21.26-53.21"/><path class="cls-4" d="M4263.37,243.23a24.08,24.08,0,0,0,30.81,2.25"/><path class="cls-1" d="M4651.17,289.82a82,82,0,0,1,63.13-64.63c9.69-2.07,34.69-7.42,45.09,6,8.64,11.16,2.15,28.75,0,34.57-8.87,24-31.28,34.61-37.58,37.58-26.49,12.51-51.81,6.78-60.12,4.51"/><path class="cls-5" d="M4438.86,91.09c1.31-7.93,2-19.74-3.14-31.77-5.94-13.91-15.5-18.34-14.24-28,1-7.72,8.3-14.86,16.53-16.54,11.58-2.36,20.54,7,21.05,7.52,5.88,6.32,11.38,19.79,11.21,31.47,0,1.48,0,4,1.57,5.6,3,3,9.84-.3,14.13-3.73,6.24-5,5.44-9,11-13.08a20.27,20.27,0,0,1,14.13-3.74c6.59.69,17.37,6.57,18.85,14.95,1.24,7.06-4.59,13.26-7.75,16.63-8.84,9.4-17.95,10-34.65,17a172.51,172.51,0,0,0-25.12,13.08"/><path class="cls-1" d="M4881.41,311.57c-2.37,1.63-17.2,12.22-18,30.06-.17,3.58-.67,14.33,6,19.54,10.66,8.29,31.6-3.73,40.59-10.52a66.63,66.63,0,0,0,19.54-24"/><path class="cls-2" d="M5132.42,135.7c31.93,49.72,4.54,101.58,43.59,130.77,11.1,8.3,28.26,21.13,49.6,19.54,14.52-1.07,28.27-8.62,36.08-1.5,4.57,4.16,4.52,11,4.51,12-.18,23.24-46.77,41.12-57.12,45.1-23.36,9-45.16,12.6-90.18,15-46.51,2.51-69.76,3.76-96.2,1.5-59.11-5.06-140.75-12.05-172.86-67.64-12.23-21.18-13.18-42.31-13.52-52.61-1.78-52.65,30.78-89.44,42.08-102.21,16.12-18.21,61-61.06,129.27-60.12C5011.93,75.64,5095.33,78,5132.42,135.7Z"/><path class="cls-1" d="M5239.14,287.52a73.92,73.92,0,0,1-24.05-27.06c-1.74-3.41-17.44-35.31-1.5-58.62,1.68-2.45,10.35-15.13,22.55-15,16.27.13,26.76,22.91,30.06,30.06,12.85,27.89,5.71,56.34,1.5,69.14"/><path class="cls-3" d="M5159.48,349.14c-.29,4.68-47.34,5.57-70.65,6-43.84.83-65.76,1.25-91.68-1.51-45.67-4.85-86.82-9.75-121.75-39.08-18.68-15.68-24.95-29.42-27.06-34.57-9.46-23.14-10.59-58.29,7.52-73.65,28.73-24.39,91.53,13.32,99.2,18,53.36,32.77,45.57,66.39,94.69,96.19C5102,352.28,5159.79,344,5159.48,349.14Z"/><path d="M4997.43,220.75c-.7,3.36-4.34,4.95-4.79,5.14-5.69,2.38-11.53-2.57-12-3-4-3.52-7-10.31-4.51-13.52,2.66-3.42,10.49-1.51,15,1.5C4992,211.43,4998.48,215.73,4997.43,220.75Z"/><path class="cls-1" d="M5025.7,292c-2,5.58-9.5,28.18,1.51,51.1,2.22,4.64,8.92,18.09,24.05,25.55,12.19,6,32,9.18,39.08,0,3.42-4.4,2.74-10.14,1.5-19.54a88.75,88.75,0,0,0-10.52-31.56"/><path class="cls-4" d="M4863.37,240.92a24.1,24.1,0,0,0,30.81,2.26"/><path class="cls-1" d="M5251.17,287.52a82.06,82.06,0,0,1,63.13-64.64c9.69-2.07,34.69-7.41,45.09,6,8.64,11.15,2.15,28.74,0,34.57-8.87,24-31.28,34.6-37.58,37.57-26.49,12.51-51.81,6.78-60.12,4.51"/><path class="cls-5" d="M5046.75,90.61c1-6.91,1.21-16.27-3-25.55-5.85-12.89-15.8-15.91-15-24.05.71-7.59,10.15-13.55,18-15,9.12-1.71,19.71,1.93,24.05,9,3.13,5.13,5.81,16.68,6,25.55,0,1.1,0,3.27,1.5,4.51,2.86,2.41,9.42-.25,13.53-3,6-4,5.2-7.2,10.52-10.52a22.34,22.34,0,0,1,13.53-3c6.57.58,16.35,4.43,18,12,1.57,7.08-4.72,13.68-6,15-8.05,8.43-17.48,6.81-34.57,12a114.5,114.5,0,0,0-24.05,10.52"/><path class="cls-1" d="M5465.6,309.06c-2.58,1.3-18.72,9.76-22,27.31-.65,3.52-2.62,14.11,3.28,20.18,9.42,9.67,31.81.63,41.65-4.87a66.54,66.54,0,0,0,22.65-21.15"/><path class="cls-2" d="M5732.42,138c31.93,49.71,4.54,101.58,43.59,130.77,11.1,8.29,28.26,21.12,49.6,19.54,14.52-1.08,28.27-8.62,36.08-1.5,4.57,4.16,4.52,11,4.51,12-.18,23.23-46.77,41.12-57.12,45.09-23.36,9-45.16,12.6-90.18,15-46.51,2.51-69.76,3.77-96.2,1.51-59.11-5.06-140.75-12.05-172.86-67.64-12.23-21.18-13.18-42.32-13.52-52.61-1.78-52.66,30.78-89.44,42.08-102.21,16.12-18.21,61-61.06,129.27-60.12C5611.93,77.94,5695.33,80.26,5732.42,138Z"/><path class="cls-1" d="M5839.14,289.82a74,74,0,0,1-24.05-27.05c-1.74-3.42-17.44-35.31-1.5-58.62,1.68-2.46,10.35-15.14,22.55-15,16.27.14,26.76,22.91,30.06,30.07,12.85,27.89,5.71,56.33,1.5,69.14"/><path class="cls-3" d="M5759.48,351.45c-.29,4.67-47.34,5.57-70.65,6-43.84.83-65.76,1.25-91.68-1.5-45.67-4.86-86.82-9.75-121.75-39.08-18.68-15.68-24.95-29.43-27.06-34.57-9.46-23.14-10.59-58.29,7.52-73.66,28.73-24.38,91.53,13.33,99.2,18,53.36,32.78,45.57,66.39,94.69,96.2C5702,354.59,5759.79,346.29,5759.48,351.45Z"/><path d="M5597.43,223.06c-.7,3.36-4.34,4.95-4.79,5.13-5.69,2.38-11.53-2.56-12-3-4-3.53-7-10.32-4.51-13.53,2.66-3.41,10.49-1.51,15,1.5C5592,213.73,5598.48,218,5597.43,223.06Z"/><path class="cls-1" d="M5627.49,288.29c-5,8.63-12.1,24.23-11.51,44.12.24,8.13.6,21.69,9.8,34.1,8.63,11.65,25.45,23,35.55,17.87,5.64-2.87,7.26-9.45,9.54-17.32a300.46,300.46,0,0,1,21.26-53.21"/><path class="cls-4" d="M5463.37,243.23a24.08,24.08,0,0,0,30.81,2.25"/><path class="cls-1" d="M5851.17,289.82a82,82,0,0,1,63.13-64.63c9.69-2.07,34.69-7.42,45.09,6,8.64,11.16,2.15,28.75,0,34.57-8.87,24-31.28,34.61-37.58,37.58-26.49,12.51-51.81,6.78-60.12,4.51"/><path class="cls-5" d="M5638.86,91.09c1.31-7.93,2-19.74-3.14-31.77-5.94-13.91-15.5-18.34-14.24-28,1-7.72,8.3-14.86,16.53-16.54,11.58-2.36,20.54,7,21.05,7.52,5.88,6.32,11.38,19.79,11.21,31.47,0,1.48,0,4,1.57,5.6,3,3,9.84-.3,14.13-3.73,6.24-5,5.44-9,11-13.08a20.27,20.27,0,0,1,14.13-3.74c6.59.69,17.37,6.57,18.85,14.95,1.24,7.06-4.59,13.26-7.75,16.63-8.84,9.4-17.95,10-34.65,17a172.51,172.51,0,0,0-25.12,13.08"/><path class="cls-1" d="M6081.41,311.57c-2.37,1.63-17.2,12.22-18,30.06-.17,3.58-.67,14.33,6,19.54,10.66,8.29,31.6-3.73,40.59-10.52a66.63,66.63,0,0,0,19.54-24"/><path class="cls-2" d="M6332.42,135.7c31.93,49.72,4.54,101.58,43.59,130.77,11.1,8.3,28.26,21.13,49.6,19.54,14.52-1.07,28.27-8.62,36.08-1.5,4.57,4.16,4.52,11,4.51,12-.18,23.24-46.77,41.12-57.12,45.1-23.36,9-45.16,12.6-90.18,15-46.51,2.51-69.76,3.76-96.2,1.5-59.11-5.06-140.75-12.05-172.86-67.64-12.23-21.18-13.18-42.31-13.52-52.61-1.78-52.65,30.78-89.44,42.08-102.21,16.12-18.21,61-61.06,129.27-60.12C6211.93,75.64,6295.33,78,6332.42,135.7Z"/><path class="cls-1" d="M6439.14,287.52a73.92,73.92,0,0,1-24.05-27.06c-1.74-3.41-17.44-35.31-1.5-58.62,1.68-2.45,10.35-15.13,22.55-15,16.27.13,26.76,22.91,30.06,30.06,12.85,27.89,5.71,56.34,1.5,69.14"/><path class="cls-3" d="M6359.48,349.14c-.29,4.68-47.34,5.57-70.65,6-43.84.83-65.76,1.25-91.68-1.51-45.67-4.85-86.82-9.75-121.75-39.08-18.68-15.68-24.95-29.42-27.06-34.57-9.46-23.14-10.59-58.29,7.52-73.65,28.73-24.39,91.53,13.32,99.2,18,53.36,32.77,45.57,66.39,94.69,96.19C6302,352.28,6359.79,344,6359.48,349.14Z"/><path d="M6197.43,220.75c-.7,3.36-4.34,4.95-4.79,5.14-5.69,2.38-11.53-2.57-12-3-4-3.52-7-10.31-4.51-13.52,2.66-3.42,10.49-1.51,15,1.5C6192,211.43,6198.48,215.73,6197.43,220.75Z"/><path class="cls-1" d="M6225.7,292c-2,5.58-9.5,28.18,1.51,51.1,2.22,4.64,8.92,18.09,24.05,25.55,12.19,6,32,9.18,39.08,0,3.42-4.4,2.74-10.14,1.5-19.54a88.75,88.75,0,0,0-10.52-31.56"/><path class="cls-4" d="M6063.37,240.92a24.1,24.1,0,0,0,30.81,2.26"/><path class="cls-1" d="M6451.17,287.52a82.06,82.06,0,0,1,63.13-64.64c9.69-2.07,34.69-7.41,45.09,6,8.64,11.15,2.15,28.74,0,34.57-8.87,24-31.28,34.6-37.58,37.57-26.49,12.51-51.81,6.78-60.12,4.51"/><path class="cls-5" d="M6246.75,90.61c1-6.91,1.21-16.27-3-25.55-5.85-12.89-15.8-15.91-15-24.05.71-7.59,10.15-13.55,18-15,9.12-1.71,19.71,1.93,24.05,9,3.13,5.13,5.81,16.68,6,25.55,0,1.1,0,3.27,1.5,4.51,2.86,2.41,9.42-.25,13.53-3,6-4,5.2-7.2,10.52-10.52a22.34,22.34,0,0,1,13.53-3c6.57.58,16.35,4.43,18,12,1.57,7.08-4.72,13.68-6,15-8.05,8.43-17.48,6.81-34.57,12a114.5,114.5,0,0,0-24.05,10.52"/><path class="cls-1" d="M6665.6,309.06c-2.58,1.3-18.72,9.76-22,27.31-.65,3.52-2.62,14.11,3.28,20.18,9.42,9.67,31.81.63,41.65-4.87a66.54,66.54,0,0,0,22.65-21.15"/><path class="cls-2" d="M6932.42,138c31.93,49.71,4.54,101.58,43.59,130.77,11.1,8.29,28.26,21.12,49.6,19.54,14.52-1.08,28.27-8.62,36.08-1.5,4.57,4.16,4.52,11,4.51,12-.18,23.23-46.77,41.12-57.12,45.09-23.36,9-45.16,12.6-90.18,15-46.51,2.51-69.76,3.77-96.2,1.51-59.11-5.06-140.75-12.05-172.86-67.64-12.23-21.18-13.18-42.32-13.52-52.61-1.78-52.66,30.78-89.44,42.08-102.21,16.12-18.21,61-61.06,129.27-60.12C6811.93,77.94,6895.33,80.26,6932.42,138Z"/><path class="cls-1" d="M7039.14,289.82a74,74,0,0,1-24.05-27.05c-1.74-3.42-17.44-35.31-1.5-58.62,1.68-2.46,10.35-15.14,22.55-15,16.27.14,26.76,22.91,30.06,30.07,12.85,27.89,5.71,56.33,1.5,69.14"/><path class="cls-3" d="M6959.48,351.45c-.29,4.67-47.34,5.57-70.65,6-43.84.83-65.76,1.25-91.68-1.5-45.67-4.86-86.82-9.75-121.75-39.08-18.68-15.68-24.95-29.43-27.06-34.57-9.46-23.14-10.59-58.29,7.52-73.66,28.73-24.38,91.53,13.33,99.2,18,53.36,32.78,45.57,66.39,94.69,96.2C6902,354.59,6959.79,346.29,6959.48,351.45Z"/><path d="M6797.43,223.06c-.7,3.36-4.34,4.95-4.79,5.13-5.69,2.38-11.53-2.56-12-3-4-3.53-7-10.32-4.51-13.53,2.66-3.41,10.49-1.51,15,1.5C6792,213.73,6798.48,218,6797.43,223.06Z"/><path class="cls-1" d="M6827.49,288.29c-5,8.63-12.1,24.23-11.51,44.12.24,8.13.6,21.69,9.8,34.1,8.63,11.65,25.45,23,35.55,17.87,5.64-2.87,7.26-9.45,9.54-17.32a300.46,300.46,0,0,1,21.26-53.21"/><path class="cls-4" d="M6663.37,243.23a24.08,24.08,0,0,0,30.81,2.25"/><path class="cls-1" d="M7051.17,289.82a82,82,0,0,1,63.13-64.63c9.69-2.07,34.69-7.42,45.09,6,8.64,11.16,2.15,28.75,0,34.57-8.87,24-31.28,34.61-37.58,37.58-26.49,12.51-51.81,6.78-60.12,4.51"/><path class="cls-5" d="M6838.86,91.09c1.31-7.93,2-19.74-3.14-31.77-5.94-13.91-15.5-18.34-14.24-28,1-7.72,8.3-14.86,16.53-16.54,11.58-2.36,20.54,7,21.05,7.52,5.88,6.32,11.38,19.79,11.21,31.47,0,1.48,0,4,1.57,5.6,3,3,9.84-.3,14.13-3.73,6.24-5,5.44-9,11-13.08a20.27,20.27,0,0,1,14.13-3.74c6.59.69,17.37,6.57,18.85,14.95,1.24,7.06-4.59,13.26-7.75,16.63-8.84,9.4-17.95,10-34.65,17a172.51,172.51,0,0,0-25.12,13.08"/></g></svg>