<svg xmlns="http://www.w3.org/2000/svg" viewBox="0 0 9120 260"><defs><style>.cls-1,.cls-2{fill:#4180bf;stroke-width:4px;}.cls-1,.cls-2,.cls-4{stroke:#000;}.cls-1,.cls-4{stroke-linecap:round;stroke-linejoin:round;}.cls-2{stroke-miterlimit:10;}.cls-3{fill:#b4d6ed;}.cls-4{fill:none;stroke-width:3px;}.cls-5{fill:#c0efff;}</style></defs><g id="Layer_3" data-name="Layer 3"><path class="cls-1" d="M38.43,206.82c-1.86.46-13.59,3.53-18.33,14.42-1,2.18-3.82,8.75-.89,13.57,4.66,7.68,20.52,5.17,27.72,3.07a44.21,44.21,0,0,0,17.85-10.32"/><path class="cls-2" d="M211.57,94.23c21.24,33.07,3,67.58,29,87,7.39,5.52,18.8,14.05,33,13,9.66-.72,18.8-5.73,24-1,3,2.77,3,7.31,3,8-.12,15.46-31.11,27.36-38,30-15.54,6-30,8.38-60,10-30.94,1.67-46.41,2.51-64,1-39.32-3.37-93.64-8-115-45-8.14-14.09-8.77-28.15-9-35-1.18-35,20.48-59.5,28-68,10.72-12.11,40.56-40.62,86-40C131.41,54.27,186.9,55.81,211.57,94.23Z"/><path class="cls-1" d="M282.57,195.23a49.09,49.09,0,0,1-16-18c-1.16-2.27-11.61-23.49-1-39,1.12-1.63,6.89-10.07,15-10,10.83.09,17.81,15.24,20,20,8.55,18.56,3.8,37.48,1,46"/><path class="cls-3" d="M229.57,236.23c-.19,3.11-31.49,3.71-47,4-29.17.56-43.75.83-61-1-30.38-3.23-57.76-6.49-81-26-12.42-10.43-16.6-19.57-18-23-6.3-15.39-7-38.78,5-49,19.12-16.22,60.9,8.87,66,12,35.5,21.81,30.32,44.17,63,64C191.33,238.32,229.78,232.8,229.57,236.23Z"/><path d="M121.76,150.81c-.46,2.24-2.89,3.3-3.19,3.42-3.78,1.58-7.66-1.71-8-2-2.68-2.34-4.66-6.86-3-9s7-1,10,1C118.14,144.61,122.46,147.47,121.76,150.81Z"/><path class="cls-1" d="M137.09,197.8c-.7,5.23-2.4,23,9,38,2.56,3.38,8.53,11,19,14,9.28,2.65,22.76,1.81,26-5,1.51-3.15.32-6.57-2-13a64.91,64.91,0,0,0-10-18"/><path class="cls-4" d="M32.57,164.23a16,16,0,0,0,20.5,1.5"/><path class="cls-1" d="M290.57,195.23a54.6,54.6,0,0,1,42-43c6.45-1.38,23.08-4.93,30,4,5.75,7.42,1.43,19.13,0,23-5.9,16-20.81,23-25,25-17.62,8.32-34.47,4.51-40,3"/><path class="cls-5" d="M154.12,63c.64-5.75.77-13.55-1.93-21.27-3.74-10.74-10.11-13.25-9.62-20,.46-6.32,6.5-11.29,11.55-12.52a13.82,13.82,0,0,1,15.39,7.51c2,4.28,3.72,13.89,3.85,21.28,0,.92,0,2.72,1,3.76,1.82,2,6-.21,8.66-2.51,3.82-3.34,3.33-6,6.73-8.76a11.56,11.56,0,0,1,8.66-2.5c4.21.48,10.47,3.69,11.55,10,1,5.9-3,11.39-3.85,12.52-5.15,7-11.19,5.67-22.13,10a66.38,66.38,0,0,0-15.4,8.76"/><path class="cls-1" d="M414.05,202.56c-1.71.86-12.45,6.49-14.62,18.17-.44,2.34-1.75,9.38,2.18,13.42,6.27,6.44,21.16.42,27.7-3.24a44.12,44.12,0,0,0,15.07-14.07"/><path class="cls-2" d="M591.57,88.76c21.24,33.07,3,67.58,29,87,7.39,5.52,18.8,14.05,33,13,9.66-.72,18.8-5.74,24-1,3,2.77,3,7.3,3,8-.12,15.45-31.11,27.35-38,30-15.54,6-30,8.38-60,10-30.94,1.67-46.41,2.5-64,1-39.32-3.37-93.64-8-115-45-8.14-14.09-8.77-28.16-9-35-1.18-35,20.48-59.51,28-68,10.72-12.12,40.56-40.63,86-40C511.41,48.8,566.9,50.34,591.57,88.76Z"/><path class="cls-1" d="M662.57,189.76a49.17,49.17,0,0,1-16-18c-1.16-2.27-11.61-23.49-1-39,1.12-1.63,6.89-10.07,15-10,10.83.09,17.81,15.24,20,20,8.55,18.55,3.8,37.48,1,46"/><path class="cls-3" d="M609.57,230.76c-.19,3.11-31.49,3.7-47,4-29.17.55-43.75.83-61-1-30.38-3.23-57.76-6.49-81-26-12.42-10.43-16.6-19.58-18-23-6.3-15.4-7-38.78,5-49,19.12-16.23,60.9,8.86,66,12,35.5,21.8,30.32,44.17,63,64C571.33,232.85,609.78,227.33,609.57,230.76Z"/><path d="M501.76,145.34c-.46,2.24-2.89,3.29-3.19,3.42-3.78,1.58-7.66-1.71-8-2-2.68-2.35-4.66-6.86-3-9s7-1,10,1C498.14,139.14,502.46,142,501.76,145.34Z"/><path class="cls-1" d="M521.76,188.74a55.86,55.86,0,0,0-7.66,29.35c.16,5.41.4,14.43,6.52,22.69,5.74,7.75,16.93,15.31,23.65,11.89,3.76-1.91,4.84-6.29,6.35-11.52a200,200,0,0,1,14.14-35.41"/><path class="cls-4" d="M412.57,158.76a16,16,0,0,0,20.5,1.5"/><path class="cls-1" d="M670.57,189.76a54.6,54.6,0,0,1,42-43c6.45-1.38,23.08-4.94,30,4,5.75,7.42,1.43,19.12,0,23-5.9,16-20.81,23-25,25-17.62,8.32-34.47,4.51-40,3"/><path class="cls-5" d="M529.33,57.54c.87-5.27,1.32-13.13-2.09-21.13-4-9.26-10.31-12.21-9.48-18.67.66-5.13,5.52-9.88,11-11,7.7-1.57,13.67,4.64,14,5,3.91,4.21,7.58,13.17,7.46,20.94a5.15,5.15,0,0,0,1,3.73c2,2,6.55-.21,9.41-2.49,4.15-3.32,3.61-6,7.31-8.7a13.51,13.51,0,0,1,9.4-2.49c4.38.46,11.55,4.38,12.54,10,.83,4.7-3.06,8.82-5.16,11.06-5.88,6.26-11.94,6.67-23,11.32A113.46,113.46,0,0,0,545,63.76"/><path class="cls-1" d="M804.57,204.22c-1.58,1.09-11.44,8.14-12,20-.11,2.39-.45,9.54,4,13,7.09,5.52,21-2.48,27-7a44.09,44.09,0,0,0,13-16"/><path class="cls-2" d="M971.57,87.22c21.24,33.08,3,67.59,29,87,7.39,5.52,18.8,14.06,33,13,9.66-.71,18.8-5.73,24-1,3,2.77,3,7.31,3,8-.12,15.46-31.11,27.36-38,30-15.54,6-30,8.39-60,10-30.94,1.67-46.41,2.51-64,1-39.32-3.36-93.64-8-115-45-8.14-14.09-8.77-28.15-9-35-1.18-35,20.48-59.5,28-68,10.72-12.11,40.56-40.62,86-40C891.41,47.26,946.9,48.81,971.57,87.22Z"/><path class="cls-1" d="M1042.57,188.22a49.09,49.09,0,0,1-16-18c-1.16-2.27-11.61-23.49-1-39,1.12-1.63,6.89-10.06,15-10,10.83.09,17.81,15.24,20,20,8.55,18.56,3.8,37.49,1,46"/><path class="cls-3" d="M989.57,229.22c-.19,3.11-31.49,3.71-47,4-29.17.56-43.75.84-61-1-30.38-3.23-57.76-6.48-81-26-12.42-10.43-16.6-19.57-18-23-6.3-15.39-7-38.78,5-49,19.12-16.22,60.9,8.87,66,12,35.5,21.81,30.32,44.17,63,64C951.33,231.31,989.78,225.79,989.57,229.22Z"/><path d="M881.76,143.81c-.46,2.23-2.89,3.29-3.19,3.41-3.78,1.59-7.66-1.7-8-2-2.68-2.34-4.66-6.86-3-9s7-1,10,1C878.14,137.6,882.46,140.47,881.76,143.81Z"/><path class="cls-1" d="M900.57,191.22c-1.35,3.72-6.32,18.75,1,34,1.48,3.09,5.93,12,16,17,8.11,4,21.26,6.11,26,0,2.28-2.93,1.83-6.74,1-13a59.06,59.06,0,0,0-7-21"/><path class="cls-4" d="M792.57,157.22a16,16,0,0,0,20.5,1.5"/><path class="cls-1" d="M1050.57,188.22a54.6,54.6,0,0,1,42-43c6.45-1.37,23.08-4.93,30,4,5.75,7.43,1.43,19.13,0,23-5.9,16-20.81,23-25,25-17.62,8.33-34.47,4.51-40,3"/><path class="cls-5" d="M914.57,57.22a30.35,30.35,0,0,0-2-17c-3.89-8.57-10.51-10.58-10-16,.48-5,6.76-9,12-10,6.07-1.13,13.12,1.29,16,6,2.09,3.42,3.87,11.1,4,17a3.94,3.94,0,0,0,1,3c1.9,1.61,6.27-.16,9-2,4-2.66,3.46-4.79,7-7a14.94,14.94,0,0,1,9-2c4.38.39,10.88,3,12,8,1,4.72-3.14,9.1-4,10-5.35,5.61-11.63,4.54-23,8a77.5,77.5,0,0,0-16,7"/><path class="cls-1" d="M4901.57,206.82c1.86.46,13.59,3.53,18.33,14.42,1,2.18,3.82,8.75.89,13.57-4.66,7.68-20.52,5.17-27.72,3.07a44.21,44.21,0,0,1-17.85-10.32"/><path class="cls-2" d="M4728.43,94.23c-21.24,33.07-3,67.58-29,87-7.39,5.52-18.8,14.05-33,13-9.66-.72-18.8-5.73-24-1-3,2.77-3,7.31-3,8,.12,15.46,31.11,27.36,38,30,15.54,6,30,8.38,60,10,30.94,1.67,46.41,2.51,64,1,39.32-3.37,93.64-8,115-45,8.14-14.09,8.77-28.15,9-35,1.18-35-20.48-59.5-28-68-10.72-12.11-40.56-40.62-86-40C4808.59,54.27,4753.1,55.81,4728.43,94.23Z"/><path class="cls-1" d="M4657.43,195.23a49.09,49.09,0,0,0,16-18c1.16-2.27,11.61-23.49,1-39-1.12-1.63-6.89-10.07-15-10-10.83.09-17.81,15.24-20,20-8.55,18.56-3.8,37.48-1,46"/><path class="cls-3" d="M4710.43,236.23c.19,3.11,31.49,3.71,47,4,29.17.56,43.75.83,61-1,30.38-3.23,57.76-6.49,81-26,12.42-10.43,16.6-19.57,18-23,6.3-15.39,7-38.78-5-49-19.12-16.22-60.9,8.87-66,12-35.5,21.81-30.32,44.17-63,64C4748.67,238.32,4710.22,232.8,4710.43,236.23Z"/><path d="M4818.24,150.81c.46,2.24,2.89,3.3,3.19,3.42,3.78,1.58,7.66-1.71,8-2,2.68-2.34,4.66-6.86,3-9s-7-1-10,1C4821.86,144.61,4817.54,147.47,4818.24,150.81Z"/><path class="cls-1" d="M4802.91,197.8c.7,5.23,2.4,23-9,38-2.56,3.38-8.53,11-19,14-9.28,2.65-22.76,1.81-26-5-1.51-3.15-.32-6.57,2-13a64.91,64.91,0,0,1,10-18"/><path class="cls-4" d="M4907.43,164.23a16,16,0,0,1-20.5,1.5"/><path class="cls-1" d="M4649.43,195.23a54.6,54.6,0,0,0-42-43c-6.45-1.38-23.08-4.93-30,4-5.75,7.42-1.43,19.13,0,23,5.9,16,20.81,23,25,25,17.62,8.32,34.47,4.51,40,3"/><path class="cls-5" d="M4785.88,63c-.64-5.75-.77-13.55,1.93-21.27,3.74-10.74,10.11-13.25,9.62-20-.46-6.32-6.5-11.29-11.55-12.52a13.82,13.82,0,0,0-15.39,7.51c-2,4.28-3.72,13.89-3.85,21.28,0,.92,0,2.72-1,3.76-1.82,2-6-.21-8.66-2.51-3.82-3.34-3.33-6-6.73-8.76a11.56,11.56,0,0,0-8.66-2.5c-4.21.48-10.47,3.69-11.55,10-1,5.9,3,11.39,3.85,12.52,5.15,7,11.19,5.67,22.13,10a66.38,66.38,0,0,1,15.4,8.76"/><path class="cls-1" d="M9086,202.56c1.71.86,12.45,6.49,14.62,18.17.44,2.34,1.75,9.38-2.18,13.42-6.27,6.44-21.16.42-27.7-3.24a44.12,44.12,0,0,1-15.07-14.07"/><path class="cls-2" d="M8908.43,88.76c-21.24,33.07-3,67.58-29,87-7.39,5.52-18.8,14.05-33,13-9.66-.72-18.8-5.74-24-1-3,2.77-3,7.3-3,8,.12,15.45,31.11,27.35,38,30,15.54,6,30,8.38,60,10,30.94,1.67,46.41,2.5,64,1,39.32-3.37,93.64-8,115-45,8.14-14.09,8.77-28.16,9-35,1.18-35-20.48-59.51-28-68-10.72-12.12-40.56-40.63-86-40C8988.59,48.8,8933.1,50.34,8908.43,88.76Z"/><path class="cls-1" d="M8837.43,189.76a49.17,49.17,0,0,0,16-18c1.16-2.27,11.61-23.49,1-39-1.12-1.63-6.89-10.07-15-10-10.83.09-17.81,15.24-20,20-8.55,18.55-3.8,37.48-1,46"/><path class="cls-3" d="M8890.43,230.76c.19,3.11,31.49,3.7,47,4,29.17.55,43.75.83,61-1,30.38-3.23,57.76-6.49,81-26,12.42-10.43,16.6-19.58,18-23,6.3-15.4,7-38.78-5-49-19.12-16.23-60.9,8.86-66,12-35.5,21.8-30.32,44.17-63,64C8928.67,232.85,8890.22,227.33,8890.43,230.76Z"/><path d="M8998.24,145.34c.46,2.24,2.89,3.29,3.19,3.42,3.78,1.58,7.66-1.71,8-2,2.68-2.35,4.66-6.86,3-9s-7-1-10,1C9001.86,139.14,8997.54,142,8998.24,145.34Z"/><path class="cls-1" d="M8978.24,188.74a55.86,55.86,0,0,1,7.66,29.35c-.16,5.41-.4,14.43-6.52,22.69-5.74,7.75-16.93,15.31-23.65,11.89-3.76-1.91-4.84-6.29-6.35-11.52a200,200,0,0,0-14.14-35.41"/><path class="cls-4" d="M9087.43,158.76a16,16,0,0,1-20.5,1.5"/><path class="cls-1" d="M8829.43,189.76a54.6,54.6,0,0,0-42-43c-6.45-1.38-23.08-4.94-30,4-5.75,7.42-1.43,19.12,0,23,5.9,16,20.81,23,25,25,17.62,8.32,34.47,4.51,40,3"/><path class="cls-5" d="M8970.67,57.54c-.87-5.27-1.32-13.13,2.09-21.13,4-9.26,10.31-12.21,9.48-18.67-.66-5.13-5.52-9.88-11-11-7.7-1.57-13.67,4.64-14,5-3.91,4.21-7.58,13.17-7.46,20.94a5.15,5.15,0,0,1-1,3.73c-2,2-6.55-.21-9.41-2.49-4.15-3.32-3.61-6-7.31-8.7a13.51,13.51,0,0,0-9.4-2.49c-4.38.46-11.55,4.38-12.54,10-.83,4.7,3.06,8.82,5.16,11.06,5.88,6.26,11.94,6.67,23.05,11.32a113.46,113.46,0,0,1,16.71,8.7"/><path class="cls-1" d="M8695.43,204.22c1.58,1.09,11.44,8.14,12,20,.11,2.39.45,9.54-4,13-7.09,5.52-21-2.48-27-7a44.09,44.09,0,0,1-13-16"/><path class="cls-2" d="M8528.43,87.22c-21.24,33.08-3,67.59-29,87-7.39,5.52-18.8,14.06-33,13-9.66-.71-18.8-5.73-24-1-3,2.77-3,7.31-3,8,.12,15.46,31.11,27.36,38,30,15.54,6,30,8.39,60,10,30.94,1.67,46.41,2.51,64,1,39.32-3.36,93.64-8,115-45,8.14-14.09,8.77-28.15,9-35,1.18-35-20.48-59.5-28-68-10.72-12.11-40.56-40.62-86-40C8608.59,47.26,8553.1,48.81,8528.43,87.22Z"/><path class="cls-1" d="M8457.43,188.22a49.09,49.09,0,0,0,16-18c1.16-2.27,11.61-23.49,1-39-1.12-1.63-6.89-10.06-15-10-10.83.09-17.81,15.24-20,20-8.55,18.56-3.8,37.49-1,46"/><path class="cls-3" d="M8510.43,229.22c.19,3.11,31.49,3.71,47,4,29.17.56,43.75.84,61-1,30.38-3.23,57.76-6.48,81-26,12.42-10.43,16.6-19.57,18-23,6.3-15.39,7-38.78-5-49-19.12-16.22-60.9,8.87-66,12-35.5,21.81-30.32,44.17-63,64C8548.67,231.31,8510.22,225.79,8510.43,229.22Z"/><path d="M8618.24,143.81c.46,2.23,2.89,3.29,3.19,3.41,3.78,1.59,7.66-1.7,8-2,2.68-2.34,4.66-6.86,3-9s-7-1-10,1C8621.86,137.6,8617.54,140.47,8618.24,143.81Z"/><path class="cls-1" d="M8599.43,191.22c1.35,3.72,6.32,18.75-1,34-1.48,3.09-5.93,12-16,17-8.11,4-21.26,6.11-26,0-2.28-2.93-1.83-6.74-1-13a59.06,59.06,0,0,1,7-21"/><path class="cls-4" d="M8707.43,157.22a16,16,0,0,1-20.5,1.5"/><path class="cls-1" d="M8449.43,188.22a54.6,54.6,0,0,0-42-43c-6.45-1.37-23.08-4.93-30,4-5.75,7.43-1.43,19.13,0,23,5.9,16,20.81,23,25,25,17.62,8.33,34.47,4.51,40,3"/><path class="cls-5" d="M8585.43,57.22a30.35,30.35,0,0,1,2-17c3.89-8.57,10.51-10.58,10-16-.48-5-6.76-9-12-10-6.07-1.13-13.12,1.29-16,6-2.09,3.42-3.87,11.1-4,17a3.94,3.94,0,0,1-1,3c-1.9,1.61-6.27-.16-9-2-4-2.66-3.46-4.79-7-7a14.94,14.94,0,0,0-9-2c-4.38.39-10.88,3-12,8-1.05,4.72,3.14,9.1,4,10,5.35,5.61,11.63,4.54,23,8a77.5,77.5,0,0,1,16,7"/><path class="cls-1" d="M8326,202.56c1.71.86,12.45,6.49,14.62,18.17.44,2.34,1.75,9.38-2.18,13.42-6.27,6.44-21.16.42-27.7-3.24a44.12,44.12,0,0,1-15.07-14.07"/><path class="cls-2" d="M8148.43,88.76c-21.24,33.07-3,67.58-29,87-7.39,5.52-18.8,14.05-33,13-9.66-.72-18.8-5.74-24-1-3,2.77-3,7.3-3,8,.12,15.45,31.11,27.35,38,30,15.54,6,30,8.38,60,10,30.94,1.67,46.41,2.5,64,1,39.32-3.37,93.64-8,115-45,8.14-14.09,8.77-28.16,9-35,1.18-35-20.48-59.51-28-68-10.72-12.12-40.56-40.63-86-40C8228.59,48.8,8173.1,50.34,8148.43,88.76Z"/><path class="cls-1" d="M8077.43,189.76a49.17,49.17,0,0,0,16-18c1.16-2.27,11.61-23.49,1-39-1.12-1.63-6.89-10.07-15-10-10.83.09-17.81,15.24-20,20-8.55,18.55-3.8,37.48-1,46"/><path class="cls-3" d="M8130.43,230.76c.19,3.11,31.49,3.7,47,4,29.17.55,43.75.83,61-1,30.38-3.23,57.76-6.49,81-26,12.42-10.43,16.6-19.58,18-23,6.3-15.4,7-38.78-5-49-19.12-16.23-60.9,8.86-66,12-35.5,21.8-30.32,44.17-63,64C8168.67,232.85,8130.22,227.33,8130.43,230.76Z"/><path d="M8238.24,145.34c.46,2.24,2.89,3.29,3.19,3.42,3.78,1.58,7.66-1.71,8-2,2.68-2.35,4.66-6.86,3-9s-7-1-10,1C8241.86,139.14,8237.54,142,8238.24,145.34Z"/><path class="cls-1" d="M8218.24,188.74a55.86,55.86,0,0,1,7.66,29.35c-.16,5.41-.4,14.43-6.52,22.69-5.74,7.75-16.93,15.31-23.65,11.89-3.76-1.91-4.84-6.29-6.35-11.52a200,200,0,0,0-14.14-35.41"/><path class="cls-4" d="M8327.43,158.76a16,16,0,0,1-20.5,1.5"/><path class="cls-1" d="M8069.43,189.76a54.6,54.6,0,0,0-42-43c-6.45-1.38-23.08-4.94-30,4-5.75,7.42-1.43,19.12,0,23,5.9,16,20.81,23,25,25,17.62,8.32,34.47,4.51,40,3"/><path class="cls-5" d="M8210.67,57.54c-.87-5.27-1.32-13.13,2.09-21.13,4-9.26,10.31-12.21,9.48-18.67-.66-5.13-5.52-9.88-11-11-7.7-1.57-13.67,4.64-14,5-3.91,4.21-7.58,13.17-7.46,20.94a5.15,5.15,0,0,1-1,3.73c-2,2-6.55-.21-9.41-2.49-4.15-3.32-3.61-6-7.31-8.7a13.51,13.51,0,0,0-9.4-2.49c-4.38.46-11.55,4.38-12.54,10-.83,4.7,3.06,8.82,5.16,11.06,5.88,6.26,11.94,6.67,23.05,11.32a113.46,113.46,0,0,1,16.71,8.7"/><path class="cls-1" d="M7935.43,204.22c1.58,1.09,11.44,8.14,12,20,.11,2.39.45,9.54-4,13-7.09,5.52-21-2.48-27-7a44.09,44.09,0,0,1-13-16"/><path class="cls-2" d="M7768.43,87.22c-21.24,33.08-3,67.59-29,87-7.39,5.52-18.8,14.06-33,13-9.66-.71-18.8-5.73-24-1-3,2.77-3,7.31-3,8,.12,15.46,31.11,27.36,38,30,15.54,6,30,8.39,60,10,30.94,1.67,46.41,2.51,64,1,39.32-3.36,93.64-8,115-45,8.14-14.09,8.77-28.15,9-35,1.18-35-20.48-59.5-28-68-10.72-12.11-40.56-40.62-86-40C7848.59,47.26,7793.1,48.81,7768.43,87.22Z"/><path class="cls-1" d="M7697.43,188.22a49.09,49.09,0,0,0,16-18c1.16-2.27,11.61-23.49,1-39-1.12-1.63-6.89-10.06-15-10-10.83.09-17.81,15.24-20,20-8.55,18.56-3.8,37.49-1,46"/><path class="cls-3" d="M7750.43,229.22c.19,3.11,31.49,3.71,47,4,29.17.56,43.75.84,61-1,30.38-3.23,57.76-6.48,81-26,12.42-10.43,16.6-19.57,18-23,6.3-15.39,7-38.78-5-49-19.12-16.22-60.9,8.87-66,12-35.5,21.81-30.32,44.17-63,64C7788.67,231.31,7750.22,225.79,7750.43,229.22Z"/><path d="M7858.24,143.81c.46,2.23,2.89,3.29,3.19,3.41,3.78,1.59,7.66-1.7,8-2,2.68-2.34,4.66-6.86,3-9s-7-1-10,1C7861.86,137.6,7857.54,140.47,7858.24,143.81Z"/><path class="cls-1" d="M7839.43,191.22c1.35,3.72,6.32,18.75-1,34-1.48,3.09-5.93,12-16,17-8.11,4-21.26,6.11-26,0-2.28-2.93-1.83-6.74-1-13a59.06,59.06,0,0,1,7-21"/><path class="cls-4" d="M7947.43,157.22a16,16,0,0,1-20.5,1.5"/><path class="cls-1" d="M7689.43,188.22a54.6,54.6,0,0,0-42-43c-6.45-1.37-23.08-4.93-30,4-5.75,7.43-1.43,19.13,0,23,5.9,16,20.81,23,25,25,17.62,8.33,34.47,4.51,40,3"/><path class="cls-5" d="M7825.43,57.22a30.35,30.35,0,0,1,2-17c3.89-8.57,10.51-10.58,10-16-.48-5-6.76-9-12-10-6.07-1.13-13.12,1.29-16,6-2.09,3.42-3.87,11.1-4,17a3.94,3.94,0,0,1-1,3c-1.9,1.61-6.27-.16-9-2-4-2.66-3.46-4.79-7-7a14.94,14.94,0,0,0-9-2c-4.38.39-10.88,3-12,8-1.05,4.72,3.14,9.1,4,10,5.35,5.61,11.63,4.54,23,8a77.5,77.5,0,0,1,16,7"/><path class="cls-1" d="M7566,202.56c1.71.86,12.45,6.49,14.62,18.17.44,2.34,1.75,9.38-2.18,13.42-6.27,6.44-21.16.42-27.7-3.24a44.12,44.12,0,0,1-15.07-14.07"/><path class="cls-2" d="M7388.43,88.76c-21.24,33.07-3,67.58-29,87-7.39,5.52-18.8,14.05-33,13-9.66-.72-18.8-5.74-24-1-3,2.77-3,7.3-3,8,.12,15.45,31.11,27.35,38,30,15.54,6,30,8.38,60,10,30.94,1.67,46.41,2.5,64,1,39.32-3.37,93.64-8,115-45,8.14-14.09,8.77-28.16,9-35,1.18-35-20.48-59.51-28-68-10.72-12.12-40.56-40.63-86-40C7468.59,48.8,7413.1,50.34,7388.43,88.76Z"/><path class="cls-1" d="M7317.43,189.76a49.17,49.17,0,0,0,16-18c1.16-2.27,11.61-23.49,1-39-1.12-1.63-6.89-10.07-15-10-10.83.09-17.81,15.24-20,20-8.55,18.55-3.8,37.48-1,46"/><path class="cls-3" d="M7370.43,230.76c.19,3.11,31.49,3.7,47,4,29.17.55,43.75.83,61-1,30.38-3.23,57.76-6.49,81-26,12.42-10.43,16.6-19.58,18-23,6.3-15.4,7-38.78-5-49-19.12-16.23-60.9,8.86-66,12-35.5,21.8-30.32,44.17-63,64C7408.67,232.85,7370.22,227.33,7370.43,230.76Z"/><path d="M7478.24,145.34c.46,2.24,2.89,3.29,3.19,3.42,3.78,1.58,7.66-1.71,8-2,2.68-2.35,4.66-6.86,3-9s-7-1-10,1C7481.86,139.14,7477.54,142,7478.24,145.34Z"/><path class="cls-1" d="M7458.24,188.74a55.86,55.86,0,0,1,7.66,29.35c-.16,5.41-.4,14.43-6.52,22.69-5.74,7.75-16.93,15.31-23.65,11.89-3.76-1.91-4.84-6.29-6.35-11.52a200,200,0,0,0-14.14-35.41"/><path class="cls-4" d="M7567.43,158.76a16,16,0,0,1-20.5,1.5"/><path class="cls-1" d="M7309.43,189.76a54.6,54.6,0,0,0-42-43c-6.45-1.38-23.08-4.94-30,4-5.75,7.42-1.43,19.12,0,23,5.9,16,20.81,23,25,25,17.62,8.32,34.47,4.51,40,3"/><path class="cls-5" d="M7450.67,57.54c-.87-5.27-1.32-13.13,2.09-21.13,4-9.26,10.31-12.21,9.48-18.67-.66-5.13-5.52-9.88-11-11-7.7-1.57-13.67,4.64-14,5-3.91,4.21-7.58,13.17-7.46,20.94a5.15,5.15,0,0,1-1,3.73c-2,2-6.55-.21-9.41-2.49-4.15-3.32-3.61-6-7.31-8.7a13.51,13.51,0,0,0-9.4-2.49c-4.38.46-11.55,4.38-12.54,10-.83,4.7,3.06,8.82,5.16,11.06,5.88,6.26,11.94,6.67,23.05,11.32a113.46,113.46,0,0,1,16.71,8.7"/><path class="cls-1" d="M7175.43,204.22c1.58,1.09,11.44,8.14,12,20,.11,2.39.45,9.54-4,13-7.09,5.52-21-2.48-27-7a44.09,44.09,0,0,1-13-16"/><path class="cls-2" d="M7008.43,87.22c-21.24,33.08-3,67.59-29,87-7.39,5.52-18.8,14.06-33,13-9.66-.71-18.8-5.73-24-1-3,2.77-3,7.31-3,8,.12,15.46,31.11,27.36,38,30,15.54,6,30,8.39,60,10,30.94,1.67,46.41,2.51,64,1,39.32-3.36,93.64-8,115-45,8.14-14.09,8.77-28.15,9-35,1.18-35-20.48-59.5-28-68-10.72-12.11-40.56-40.62-86-40C7088.59,47.26,7033.1,48.81,7008.43,87.22Z"/><path class="cls-1" d="M6937.43,188.22a49.09,49.09,0,0,0,16-18c1.16-2.27,11.61-23.49,1-39-1.12-1.63-6.89-10.06-15-10-10.83.09-17.81,15.24-20,20-8.55,18.56-3.8,37.49-1,46"/><path class="cls-3" d="M6990.43,229.22c.19,3.11,31.49,3.71,47,4,29.17.56,43.75.84,61-1,30.38-3.23,57.76-6.48,81-26,12.42-10.43,16.6-19.57,18-23,6.3-15.39,7-38.78-5-49-19.12-16.22-60.9,8.87-66,12-35.5,21.81-30.32,44.17-63,64C7028.67,231.31,6990.22,225.79,6990.43,229.22Z"/><path d="M7098.24,143.81c.46,2.23,2.89,3.29,3.19,3.41,3.78,1.59,7.66-1.7,8-2,2.68-2.34,4.66-6.86,3-9s-7-1-10,1C7101.86,137.6,7097.54,140.47,7098.24,143.81Z"/><path class="cls-1" d="M7079.43,191.22c1.35,3.72,6.32,18.75-1,34-1.48,3.09-5.93,12-16,17-8.11,4-21.26,6.11-26,0-2.28-2.93-1.83-6.74-1-13a59.06,59.06,0,0,1,7-21"/><path class="cls-4" d="M7187.43,157.22a16,16,0,0,1-20.5,1.5"/><path class="cls-1" d="M6929.43,188.22a54.6,54.6,0,0,0-42-43c-6.45-1.37-23.08-4.93-30,4-5.75,7.43-1.43,19.13,0,23,5.9,16,20.81,23,25,25,17.62,8.33,34.47,4.51,40,3"/><path class="cls-5" d="M7065.43,57.22a30.35,30.35,0,0,1,2-17c3.89-8.57,10.51-10.58,10-16-.48-5-6.76-9-12-10-6.07-1.13-13.12,1.29-16,6-2.09,3.42-3.87,11.1-4,17a3.94,3.94,0,0,1-1,3c-1.9,1.61-6.27-.16-9-2-4-2.66-3.46-4.79-7-7a14.94,14.94,0,0,0-9-2c-4.38.39-10.88,3-12,8-1.05,4.72,3.14,9.1,4,10,5.35,5.61,11.63,4.54,23,8a77.5,77.5,0,0,1,16,7"/><path class="cls-1" d="M6806,202.56c1.71.86,12.45,6.49,14.62,18.17.44,2.34,1.75,9.38-2.18,13.42-6.27,6.44-21.16.42-27.7-3.24a44.12,44.12,0,0,1-15.07-14.07"/><path class="cls-2" d="M6628.43,88.76c-21.24,33.07-3,67.58-29,87-7.39,5.52-18.8,14.05-33,13-9.66-.72-18.8-5.74-24-1-3,2.77-3,7.3-3,8,.12,15.45,31.11,27.35,38,30,15.54,6,30,8.38,60,10,30.94,1.67,46.41,2.5,64,1,39.32-3.37,93.64-8,115-45,8.14-14.09,8.77-28.16,9-35,1.18-35-20.48-59.51-28-68-10.72-12.12-40.56-40.63-86-40C6708.59,48.8,6653.1,50.34,6628.43,88.76Z"/><path class="cls-1" d="M6557.43,189.76a49.17,49.17,0,0,0,16-18c1.16-2.27,11.61-23.49,1-39-1.12-1.63-6.89-10.07-15-10-10.83.09-17.81,15.24-20,20-8.55,18.55-3.8,37.48-1,46"/><path class="cls-3" d="M6610.43,230.76c.19,3.11,31.49,3.7,47,4,29.17.55,43.75.83,61-1,30.38-3.23,57.76-6.49,81-26,12.42-10.43,16.6-19.58,18-23,6.3-15.4,7-38.78-5-49-19.12-16.23-60.9,8.86-66,12-35.5,21.8-30.32,44.17-63,64C6648.67,232.85,6610.22,227.33,6610.43,230.76Z"/><path d="M6718.24,145.34c.46,2.24,2.89,3.29,3.19,3.42,3.78,1.58,7.66-1.71,8-2,2.68-2.35,4.66-6.86,3-9s-7-1-10,1C6721.86,139.14,6717.54,142,6718.24,145.34Z"/><path class="cls-1" d="M6698.24,188.74a55.86,55.86,0,0,1,7.66,29.35c-.16,5.41-.4,14.43-6.52,22.69-5.74,7.75-16.93,15.31-23.65,11.89-3.76-1.91-4.84-6.29-6.35-11.52a200,200,0,0,0-14.14-35.41"/><path class="cls-4" d="M6807.43,158.76a16,16,0,0,1-20.5,1.5"/><path class="cls-1" d="M6549.43,189.76a54.6,54.6,0,0,0-42-43c-6.45-1.38-23.08-4.94-30,4-5.75,7.42-1.43,19.12,0,23,5.9,16,20.81,23,25,25,17.62,8.32,34.47,4.51,40,3"/><path class="cls-5" d="M6690.67,57.54c-.87-5.27-1.32-13.13,2.09-21.13,4-9.26,10.31-12.21,9.48-18.67-.66-5.13-5.52-9.88-11-11-7.7-1.57-13.67,4.64-14,5-3.91,4.21-7.58,13.17-7.46,20.94a5.15,5.15,0,0,1-1,3.73c-2,2-6.55-.21-9.41-2.49-4.15-3.32-3.61-6-7.31-8.7a13.51,13.51,0,0,0-9.4-2.49c-4.38.46-11.55,4.38-12.54,10-.83,4.7,3.06,8.82,5.16,11.06,5.88,6.26,11.94,6.67,23.05,11.32a113.46,113.46,0,0,1,16.71,8.7"/><path class="cls-1" d="M6415.43,204.22c1.58,1.09,11.44,8.14,12,20,.11,2.39.45,9.54-4,13-7.09,5.52-21-2.48-27-7a44.09,44.09,0,0,1-13-16"/><path class="cls-2" d="M6248.43,87.22c-21.24,33.08-3,67.59-29,87-7.39,5.52-18.8,14.06-33,13-9.66-.71-18.8-5.73-24-1-3,2.77-3,7.31-3,8,.12,15.46,31.11,27.36,38,30,15.54,6,30,8.39,60,10,30.94,1.67,46.41,2.51,64,1,39.32-3.36,93.64-8,115-45,8.14-14.09,8.77-28.15,9-35,1.18-35-20.48-59.5-28-68-10.72-12.11-40.56-40.62-86-40C6328.59,47.26,6273.1,48.81,6248.43,87.22Z"/><path class="cls-1" d="M6177.43,188.22a49.09,49.09,0,0,0,16-18c1.16-2.27,11.61-23.49,1-39-1.12-1.63-6.89-10.06-15-10-10.83.09-17.81,15.24-20,20-8.55,18.56-3.8,37.49-1,46"/><path class="cls-3" d="M6230.43,229.22c.19,3.11,31.49,3.71,47,4,29.17.56,43.75.84,61-1,30.38-3.23,57.76-6.48,81-26,12.42-10.43,16.6-19.57,18-23,6.3-15.39,7-38.78-5-49-19.12-16.22-60.9,8.87-66,12-35.5,21.81-30.32,44.17-63,64C6268.67,231.31,6230.22,225.79,6230.43,229.22Z"/><path d="M6338.24,143.81c.46,2.23,2.89,3.29,3.19,3.41,3.78,1.59,7.66-1.7,8-2,2.68-2.34,4.66-6.86,3-9s-7-1-10,1C6341.86,137.6,6337.54,140.47,6338.24,143.81Z"/><path class="cls-1" d="M6319.43,191.22c1.35,3.72,6.32,18.75-1,34-1.48,3.09-5.93,12-16,17-8.11,4-21.26,6.11-26,0-2.28-2.93-1.83-6.74-1-13a59.06,59.06,0,0,1,7-21"/><path class="cls-4" d="M6427.43,157.22a16,16,0,0,1-20.5,1.5"/><path class="cls-1" d="M6169.43,188.22a54.6,54.6,0,0,0-42-43c-6.45-1.37-23.08-4.93-30,4-5.75,7.43-1.43,19.13,0,23,5.9,16,20.81,23,25,25,17.62,8.33,34.47,4.51,40,3"/><path class="cls-5" d="M6305.43,57.22a30.35,30.35,0,0,1,2-17c3.89-8.57,10.51-10.58,10-16-.48-5-6.76-9-12-10-6.07-1.13-13.12,1.29-16,6-2.09,3.42-3.87,11.1-4,17a3.94,3.94,0,0,1-1,3c-1.9,1.61-6.27-.16-9-2-4-2.66-3.46-4.79-7-7a14.94,14.94,0,0,0-9-2c-4.38.39-10.88,3-12,8-1.05,4.72,3.14,9.1,4,10,5.35,5.61,11.63,4.54,23,8a77.5,77.5,0,0,1,16,7"/><path class="cls-1" d="M6046,202.56c1.71.86,12.45,6.49,14.62,18.17.44,2.34,1.75,9.38-2.18,13.42-6.27,6.44-21.16.42-27.7-3.24a44.12,44.12,0,0,1-15.07-14.07"/><path class="cls-2" d="M5868.43,88.76c-21.24,33.07-3,67.58-29,87-7.39,5.52-18.8,14.05-33,13-9.66-.72-18.8-5.74-24-1-3,2.77-3,7.3-3,8,.12,15.45,31.11,27.35,38,30,15.54,6,30,8.38,60,10,30.94,1.67,46.41,2.5,64,1,39.32-3.37,93.64-8,115-45,8.14-14.09,8.77-28.16,9-35,1.18-35-20.48-59.51-28-68-10.72-12.12-40.56-40.63-86-40C5948.59,48.8,5893.1,50.34,5868.43,88.76Z"/><path class="cls-1" d="M5797.43,189.76a49.17,49.17,0,0,0,16-18c1.16-2.27,11.61-23.49,1-39-1.12-1.63-6.89-10.07-15-10-10.83.09-17.81,15.24-20,20-8.55,18.55-3.8,37.48-1,46"/><path class="cls-3" d="M5850.43,230.76c.19,3.11,31.49,3.7,47,4,29.17.55,43.75.83,61-1,30.38-3.23,57.76-6.49,81-26,12.42-10.43,16.6-19.58,18-23,6.3-15.4,7-38.78-5-49-19.12-16.23-60.9,8.86-66,12-35.5,21.8-30.32,44.17-63,64C5888.67,232.85,5850.22,227.33,5850.43,230.76Z"/><path d="M5958.24,145.34c.46,2.24,2.89,3.29,3.19,3.42,3.78,1.58,7.66-1.71,8-2,2.68-2.35,4.66-6.86,3-9s-7-1-10,1C5961.86,139.14,5957.54,142,5958.24,145.34Z"/><path class="cls-1" d="M5938.24,188.74a55.86,55.86,0,0,1,7.66,29.35c-.16,5.41-.4,14.43-6.52,22.69-5.74,7.75-16.93,15.31-23.65,11.89-3.76-1.91-4.84-6.29-6.35-11.52a200,200,0,0,0-14.14-35.41"/><path class="cls-4" d="M6047.43,158.76a16,16,0,0,1-20.5,1.5"/><path class="cls-1" d="M5789.43,189.76a54.6,54.6,0,0,0-42-43c-6.45-1.38-23.08-4.94-30,4-5.75,7.42-1.43,19.12,0,23,5.9,16,20.81,23,25,25,17.62,8.32,34.47,4.51,40,3"/><path class="cls-5" d="M5930.67,57.54c-.87-5.27-1.32-13.13,2.09-21.13,4-9.26,10.31-12.21,9.48-18.67-.66-5.13-5.52-9.88-11-11-7.7-1.57-13.67,4.64-14,5-3.91,4.21-7.58,13.17-7.46,20.94a5.15,5.15,0,0,1-1,3.73c-2,2-6.55-.21-9.41-2.49-4.15-3.32-3.61-6-7.31-8.7a13.51,13.51,0,0,0-9.4-2.49c-4.38.46-11.55,4.38-12.54,10-.83,4.7,3.06,8.82,5.16,11.06,5.88,6.26,11.94,6.67,23.05,11.32a113.46,113.46,0,0,1,16.71,8.7"/><path class="cls-1" d="M5655.43,204.22c1.58,1.09,11.44,8.14,12,20,.11,2.39.45,9.54-4,13-7.09,5.52-21-2.48-27-7a44.09,44.09,0,0,1-13-16"/><path class="cls-2" d="M5488.43,87.22c-21.24,33.08-3,67.59-29,87-7.39,5.52-18.8,14.06-33,13-9.66-.71-18.8-5.73-24-1-3,2.77-3,7.31-3,8,.12,15.46,31.11,27.36,38,30,15.54,6,30,8.39,60,10,30.94,1.67,46.41,2.51,64,1,39.32-3.36,93.64-8,115-45,8.14-14.09,8.77-28.15,9-35,1.18-35-20.48-59.5-28-68-10.72-12.11-40.56-40.62-86-40C5568.59,47.26,5513.1,48.81,5488.43,87.22Z"/><path class="cls-1" d="M5417.43,188.22a49.09,49.09,0,0,0,16-18c1.16-2.27,11.61-23.49,1-39-1.12-1.63-6.89-10.06-15-10-10.83.09-17.81,15.24-20,20-8.55,18.56-3.8,37.49-1,46"/><path class="cls-3" d="M5470.43,229.22c.19,3.11,31.49,3.71,47,4,29.17.56,43.75.84,61-1,30.38-3.23,57.76-6.48,81-26,12.42-10.43,16.6-19.57,18-23,6.3-15.39,7-38.78-5-49-19.12-16.22-60.9,8.87-66,12-35.5,21.81-30.32,44.17-63,64C5508.67,231.31,5470.22,225.79,5470.43,229.22Z"/><path d="M5578.24,143.81c.46,2.23,2.89,3.29,3.19,3.41,3.78,1.59,7.66-1.7,8-2,2.68-2.34,4.66-6.86,3-9s-7-1-10,1C5581.86,137.6,5577.54,140.47,5578.24,143.81Z"/><path class="cls-1" d="M5559.43,191.22c1.35,3.72,6.32,18.75-1,34-1.48,3.09-5.93,12-16,17-8.11,4-21.26,6.11-26,0-2.28-2.93-1.83-6.74-1-13a59.06,59.06,0,0,1,7-21"/><path class="cls-4" d="M5667.43,157.22a16,16,0,0,1-20.5,1.5"/><path class="cls-1" d="M5409.43,188.22a54.6,54.6,0,0,0-42-43c-6.45-1.37-23.08-4.93-30,4-5.75,7.43-1.43,19.13,0,23,5.9,16,20.81,23,25,25,17.62,8.33,34.47,4.51,40,3"/><path class="cls-5" d="M5545.43,57.22a30.35,30.35,0,0,1,2-17c3.89-8.57,10.51-10.58,10-16-.48-5-6.76-9-12-10-6.07-1.13-13.12,1.29-16,6-2.09,3.42-3.87,11.1-4,17a3.94,3.94,0,0,1-1,3c-1.9,1.61-6.27-.16-9-2-4-2.66-3.46-4.79-7-7a14.94,14.94,0,0,0-9-2c-4.38.39-10.88,3-12,8-1.05,4.72,3.14,9.1,4,10,5.35,5.61,11.63,4.54,23,8a77.5,77.5,0,0,1,16,7"/><path class="cls-1" d="M5286,202.56c1.71.86,12.45,6.49,14.62,18.17.44,2.34,1.75,9.38-2.18,13.42-6.27,6.44-21.16.42-27.7-3.24a44.12,44.12,0,0,1-15.07-14.07"/><path class="cls-2" d="M5108.43,88.76c-21.24,33.07-3,67.58-29,87-7.39,5.52-18.8,14.05-33,13-9.66-.72-18.8-5.74-24-1-3,2.77-3,7.3-3,8,.12,15.45,31.11,27.35,38,30,15.54,6,30,8.38,60,10,30.94,1.67,46.41,2.5,64,1,39.32-3.37,93.64-8,115-45,8.14-14.09,8.77-28.16,9-35,1.18-35-20.48-59.51-28-68-10.72-12.12-40.56-40.63-86-40C5188.59,48.8,5133.1,50.34,5108.43,88.76Z"/><path class="cls-1" d="M5037.43,189.76a49.17,49.17,0,0,0,16-18c1.16-2.27,11.61-23.49,1-39-1.12-1.63-6.89-10.07-15-10-10.83.09-17.81,15.24-20,20-8.55,18.55-3.8,37.48-1,46"/><path class="cls-3" d="M5090.43,230.76c.19,3.11,31.49,3.7,47,4,29.17.55,43.75.83,61-1,30.38-3.23,57.76-6.49,81-26,12.42-10.43,16.6-19.58,18-23,6.3-15.4,7-38.78-5-49-19.12-16.23-60.9,8.86-66,12-35.5,21.8-30.32,44.17-63,64C5128.67,232.85,5090.22,227.33,5090.43,230.76Z"/><path d="M5198.24,145.34c.46,2.24,2.89,3.29,3.19,3.42,3.78,1.58,7.66-1.71,8-2,2.68-2.35,4.66-6.86,3-9s-7-1-10,1C5201.86,139.14,5197.54,142,5198.24,145.34Z"/><path class="cls-1" d="M5178.24,188.74a55.86,55.86,0,0,1,7.66,29.35c-.16,5.41-.4,14.43-6.52,22.69-5.74,7.75-16.93,15.31-23.65,11.89-3.76-1.91-4.84-6.29-6.35-11.52a200,200,0,0,0-14.14-35.41"/><path class="cls-4" d="M5287.43,158.76a16,16,0,0,1-20.5,1.5"/><path class="cls-1" d="M5029.43,189.76a54.6,54.6,0,0,0-42-43c-6.45-1.38-23.08-4.94-30,4-5.75,7.42-1.43,19.12,0,23,5.9,16,20.81,23,25,25,17.62,8.32,34.47,4.51,40,3"/><path class="cls-5" d="M5170.67,57.54c-.87-5.27-1.32-13.13,2.09-21.13,4-9.26,10.31-12.21,9.48-18.67-.66-5.13-5.52-9.88-11-11-7.7-1.57-13.67,4.64-14,5-3.91,4.21-7.58,13.17-7.46,20.94a5.15,5.15,0,0,1-1,3.73c-2,2-6.55-.21-9.41-2.49-4.15-3.32-3.61-6-7.31-8.7a13.51,13.51,0,0,0-9.4-2.49c-4.38.46-11.55,4.38-12.54,10-.83,4.7,3.06,8.82,5.16,11.06,5.88,6.26,11.94,6.67,23.05,11.32a113.46,113.46,0,0,1,16.71,8.7"/><path class="cls-1" d="M1174.05,202.56c-1.71.86-12.45,6.49-14.62,18.17-.44,2.34-1.75,9.38,2.18,13.42,6.27,6.44,21.16.42,27.7-3.24a44.12,44.12,0,0,0,15.07-14.07"/><path class="cls-2" d="M1351.57,88.76c21.24,33.07,3,67.58,29,87,7.39,5.52,18.8,14.05,33,13,9.66-.72,18.8-5.74,24-1,3,2.77,3,7.3,3,8-.12,15.45-31.11,27.35-38,30-15.54,6-30,8.38-60,10-30.94,1.67-46.41,2.5-64,1-39.32-3.37-93.64-8-115-45-8.14-14.09-8.77-28.16-9-35-1.18-35,20.48-59.51,28-68,10.72-12.12,40.56-40.63,86-40C1271.41,48.8,1326.9,50.34,1351.57,88.76Z"/><path class="cls-1" d="M1422.57,189.76a49.17,49.17,0,0,1-16-18c-1.16-2.27-11.61-23.49-1-39,1.12-1.63,6.89-10.07,15-10,10.83.09,17.81,15.24,20,20,8.55,18.55,3.8,37.48,1,46"/><path class="cls-3" d="M1369.57,230.76c-.19,3.11-31.49,3.7-47,4-29.17.55-43.75.83-61-1-30.38-3.23-57.76-6.49-81-26-12.42-10.43-16.6-19.58-18-23-6.3-15.4-7-38.78,5-49,19.12-16.23,60.9,8.86,66,12,35.5,21.8,30.32,44.17,63,64C1331.33,232.85,1369.78,227.33,1369.57,230.76Z"/><path d="M1261.76,145.34c-.46,2.24-2.89,3.29-3.19,3.42-3.78,1.58-7.66-1.71-8-2-2.68-2.35-4.66-6.86-3-9s7-1,10,1C1258.14,139.14,1262.46,142,1261.76,145.34Z"/><path class="cls-1" d="M1281.76,188.74a55.86,55.86,0,0,0-7.66,29.35c.16,5.41.4,14.43,6.52,22.69,5.74,7.75,16.93,15.31,23.65,11.89,3.76-1.91,4.84-6.29,6.35-11.52a200,200,0,0,1,14.14-35.41"/><path class="cls-4" d="M1172.57,158.76a16,16,0,0,0,20.5,1.5"/><path class="cls-1" d="M1430.57,189.76a54.6,54.6,0,0,1,42-43c6.45-1.38,23.08-4.94,30,4,5.75,7.42,1.43,19.12,0,23-5.9,16-20.81,23-25,25-17.62,8.32-34.47,4.51-40,3"/><path class="cls-5" d="M1289.33,57.54c.87-5.27,1.32-13.13-2.09-21.13-4-9.26-10.31-12.21-9.48-18.67.66-5.13,5.52-9.88,11-11,7.7-1.57,13.67,4.64,14,5,3.91,4.21,7.58,13.17,7.46,20.94a5.15,5.15,0,0,0,1,3.73c2,2,6.55-.21,9.41-2.49,4.15-3.32,3.61-6,7.31-8.7a13.51,13.51,0,0,1,9.4-2.49c4.38.46,11.55,4.38,12.54,10,.83,4.7-3.06,8.82-5.16,11.06-5.88,6.26-11.94,6.67-23,11.32a113.46,113.46,0,0,0-16.71,8.7"/><path class="cls-1" d="M1564.57,204.22c-1.58,1.09-11.44,8.14-12,20-.11,2.39-.45,9.54,4,13,7.09,5.52,21-2.48,27-7a44.09,44.09,0,0,0,13-16"/><path class="cls-2" d="M1731.57,87.22c21.24,33.08,3,67.59,29,87,7.39,5.52,18.8,14.06,33,13,9.66-.71,18.8-5.73,24-1,3,2.77,3,7.31,3,8-.12,15.46-31.11,27.36-38,30-15.54,6-30,8.39-60,10-30.94,1.67-46.41,2.51-64,1-39.32-3.36-93.64-8-115-45-8.14-14.09-8.77-28.15-9-35-1.18-35,20.48-59.5,28-68,10.72-12.11,40.56-40.62,86-40C1651.41,47.26,1706.9,48.81,1731.57,87.22Z"/><path class="cls-1" d="M1802.57,188.22a49.09,49.09,0,0,1-16-18c-1.16-2.27-11.61-23.49-1-39,1.12-1.63,6.89-10.06,15-10,10.83.09,17.81,15.24,20,20,8.55,18.56,3.8,37.49,1,46"/><path class="cls-3" d="M1749.57,229.22c-.19,3.11-31.49,3.71-47,4-29.17.56-43.75.84-61-1-30.38-3.23-57.76-6.48-81-26-12.42-10.43-16.6-19.57-18-23-6.3-15.39-7-38.78,5-49,19.12-16.22,60.9,8.87,66,12,35.5,21.81,30.32,44.17,63,64C1711.33,231.31,1749.78,225.79,1749.57,229.22Z"/><path d="M1641.76,143.81c-.46,2.23-2.89,3.29-3.19,3.41-3.78,1.59-7.66-1.7-8-2-2.68-2.34-4.66-6.86-3-9s7-1,10,1C1638.14,137.6,1642.46,140.47,1641.76,143.81Z"/><path class="cls-1" d="M1660.57,191.22c-1.35,3.72-6.32,18.75,1,34,1.48,3.09,5.93,12,16,17,8.11,4,21.26,6.11,26,0,2.28-2.93,1.83-6.74,1-13a59.06,59.06,0,0,0-7-21"/><path class="cls-4" d="M1552.57,157.22a16,16,0,0,0,20.5,1.5"/><path class="cls-1" d="M1810.57,188.22a54.6,54.6,0,0,1,42-43c6.45-1.37,23.08-4.93,30,4,5.75,7.43,1.43,19.13,0,23-5.9,16-20.81,23-25,25-17.62,8.33-34.47,4.51-40,3"/><path class="cls-5" d="M1674.57,57.22a30.35,30.35,0,0,0-2-17c-3.89-8.57-10.51-10.58-10-16,.48-5,6.76-9,12-10,6.07-1.13,13.12,1.29,16,6,2.09,3.42,3.87,11.1,4,17a3.94,3.94,0,0,0,1,3c1.9,1.61,6.27-.16,9-2,4-2.66,3.46-4.79,7-7a14.94,14.94,0,0,1,9-2c4.38.39,10.88,3,12,8,1,4.72-3.14,9.1-4,10-5.35,5.61-11.63,4.54-23,8a77.5,77.5,0,0,0-16,7"/><path class="cls-1" d="M1934.05,202.56c-1.71.86-12.45,6.49-14.62,18.17-.44,2.34-1.75,9.38,2.18,13.42,6.27,6.44,21.16.42,27.7-3.24a44.12,44.12,0,0,0,15.07-14.07"/><path class="cls-2" d="M2111.57,88.76c21.24,33.07,3,67.58,29,87,7.39,5.52,18.8,14.05,33,13,9.66-.72,18.8-5.74,24-1,3,2.77,3,7.3,3,8-.12,15.45-31.11,27.35-38,30-15.54,6-30,8.38-60,10-30.94,1.67-46.41,2.5-64,1-39.32-3.37-93.64-8-115-45-8.14-14.09-8.77-28.16-9-35-1.18-35,20.48-59.51,28-68,10.72-12.12,40.56-40.63,86-40C2031.41,48.8,2086.9,50.34,2111.57,88.76Z"/><path class="cls-1" d="M2182.57,189.76a49.17,49.17,0,0,1-16-18c-1.16-2.27-11.61-23.49-1-39,1.12-1.63,6.89-10.07,15-10,10.83.09,17.81,15.24,20,20,8.55,18.55,3.8,37.48,1,46"/><path class="cls-3" d="M2129.57,230.76c-.19,3.11-31.49,3.7-47,4-29.17.55-43.75.83-61-1-30.38-3.23-57.76-6.49-81-26-12.42-10.43-16.6-19.58-18-23-6.3-15.4-7-38.78,5-49,19.12-16.23,60.9,8.86,66,12,35.5,21.8,30.32,44.17,63,64C2091.33,232.85,2129.78,227.33,2129.57,230.76Z"/><path d="M2021.76,145.34c-.46,2.24-2.89,3.29-3.19,3.42-3.78,1.58-7.66-1.71-8-2-2.68-2.35-4.66-6.86-3-9s7-1,10,1C2018.14,139.14,2022.46,142,2021.76,145.34Z"/><path class="cls-1" d="M2041.76,188.74a55.86,55.86,0,0,0-7.66,29.35c.16,5.41.4,14.43,6.52,22.69,5.74,7.75,16.93,15.31,23.65,11.89,3.76-1.91,4.84-6.29,6.35-11.52a200,200,0,0,1,14.14-35.41"/><path class="cls-4" d="M1932.57,158.76a16,16,0,0,0,20.5,1.5"/><path class="cls-1" d="M2190.57,189.76a54.6,54.6,0,0,1,42-43c6.45-1.38,23.08-4.94,30,4,5.75,7.42,1.43,19.12,0,23-5.9,16-20.81,23-25,25-17.62,8.32-34.47,4.51-40,3"/><path class="cls-5" d="M2049.33,57.54c.87-5.27,1.32-13.13-2.09-21.13-4-9.26-10.31-12.21-9.48-18.67.66-5.13,5.52-9.88,11-11,7.7-1.57,13.67,4.64,14,5,3.91,4.21,7.58,13.17,7.46,20.94a5.15,5.15,0,0,0,1,3.73c2,2,6.55-.21,9.41-2.49,4.15-3.32,3.61-6,7.31-8.7a13.51,13.51,0,0,1,9.4-2.49c4.38.46,11.55,4.38,12.54,10,.83,4.7-3.06,8.82-5.16,11.06-5.88,6.26-11.94,6.67-23.05,11.32a113.46,113.46,0,0,0-16.71,8.7"/><path class="cls-1" d="M2324.57,204.22c-1.58,1.09-11.44,8.14-12,20-.11,2.39-.45,9.54,4,13,7.09,5.52,21-2.48,27-7a44.09,44.09,0,0,0,13-16"/><path class="cls-2" d="M2491.57,87.22c21.24,33.08,3,67.59,29,87,7.39,5.52,18.8,14.06,33,13,9.66-.71,18.8-5.73,24-1,3,2.77,3,7.31,3,8-.12,15.46-31.11,27.36-38,30-15.54,6-30,8.39-60,10-30.94,1.67-46.41,2.51-64,1-39.32-3.36-93.64-8-115-45-8.14-14.09-8.77-28.15-9-35-1.18-35,20.48-59.5,28-68,10.72-12.11,40.56-40.62,86-40C2411.41,47.26,2466.9,48.81,2491.57,87.22Z"/><path class="cls-1" d="M2562.57,188.22a49.09,49.09,0,0,1-16-18c-1.16-2.27-11.61-23.49-1-39,1.12-1.63,6.89-10.06,15-10,10.83.09,17.81,15.24,20,20,8.55,18.56,3.8,37.49,1,46"/><path class="cls-3" d="M2509.57,229.22c-.19,3.11-31.49,3.71-47,4-29.17.56-43.75.84-61-1-30.38-3.23-57.76-6.48-81-26-12.42-10.43-16.6-19.57-18-23-6.3-15.39-7-38.78,5-49,19.12-16.22,60.9,8.87,66,12,35.5,21.81,30.32,44.17,63,64C2471.33,231.31,2509.78,225.79,2509.57,229.22Z"/><path d="M2401.76,143.81c-.46,2.23-2.89,3.29-3.19,3.41-3.78,1.59-7.66-1.7-8-2-2.68-2.34-4.66-6.86-3-9s7-1,10,1C2398.14,137.6,2402.46,140.47,2401.76,143.81Z"/><path class="cls-1" d="M2420.57,191.22c-1.35,3.72-6.32,18.75,1,34,1.48,3.09,5.93,12,16,17,8.11,4,21.26,6.11,26,0,2.28-2.93,1.83-6.74,1-13a59.06,59.06,0,0,0-7-21"/><path class="cls-4" d="M2312.57,157.22a16,16,0,0,0,20.5,1.5"/><path class="cls-1" d="M2570.57,188.22a54.6,54.6,0,0,1,42-43c6.45-1.37,23.08-4.93,30,4,5.75,7.43,1.43,19.13,0,23-5.9,16-20.81,23-25,25-17.62,8.33-34.47,4.51-40,3"/><path class="cls-5" d="M2434.57,57.22a30.35,30.35,0,0,0-2-17c-3.89-8.57-10.51-10.58-10-16,.48-5,6.76-9,12-10,6.07-1.13,13.12,1.29,16,6,2.09,3.42,3.87,11.1,4,17a3.94,3.94,0,0,0,1,3c1.9,1.61,6.27-.16,9-2,4-2.66,3.46-4.79,7-7a14.94,14.94,0,0,1,9-2c4.38.39,10.88,3,12,8,1,4.72-3.14,9.1-4,10-5.35,5.61-11.63,4.54-23,8a77.5,77.5,0,0,0-16,7"/><path class="cls-1" d="M2694.05,202.56c-1.71.86-12.45,6.49-14.62,18.17-.44,2.34-1.75,9.38,2.18,13.42,6.27,6.44,21.16.42,27.7-3.24a44.12,44.12,0,0,0,15.07-14.07"/><path class="cls-2" d="M2871.57,88.76c21.24,33.07,3,67.58,29,87,7.39,5.52,18.8,14.05,33,13,9.66-.72,18.8-5.74,24-1,3,2.77,3,7.3,3,8-.12,15.45-31.11,27.35-38,30-15.54,6-30,8.38-60,10-30.94,1.67-46.41,2.5-64,1-39.32-3.37-93.64-8-115-45-8.14-14.09-8.77-28.16-9-35-1.18-35,20.48-59.51,28-68,10.72-12.12,40.56-40.63,86-40C2791.41,48.8,2846.9,50.34,2871.57,88.76Z"/><path class="cls-1" d="M2942.57,189.76a49.17,49.17,0,0,1-16-18c-1.16-2.27-11.61-23.49-1-39,1.12-1.63,6.89-10.07,15-10,10.83.09,17.81,15.24,20,20,8.55,18.55,3.8,37.48,1,46"/><path class="cls-3" d="M2889.57,230.76c-.19,3.11-31.49,3.7-47,4-29.17.55-43.75.83-61-1-30.38-3.23-57.76-6.49-81-26-12.42-10.43-16.6-19.58-18-23-6.3-15.4-7-38.78,5-49,19.12-16.23,60.9,8.86,66,12,35.5,21.8,30.32,44.17,63,64C2851.33,232.85,2889.78,227.33,2889.57,230.76Z"/><path d="M2781.76,145.34c-.46,2.24-2.89,3.29-3.19,3.42-3.78,1.58-7.66-1.71-8-2-2.68-2.35-4.66-6.86-3-9s7-1,10,1C2778.14,139.14,2782.46,142,2781.76,145.34Z"/><path class="cls-1" d="M2801.76,188.74a55.86,55.86,0,0,0-7.66,29.35c.16,5.41.4,14.43,6.52,22.69,5.74,7.75,16.93,15.31,23.65,11.89,3.76-1.91,4.84-6.29,6.35-11.52a200,200,0,0,1,14.14-35.41"/><path class="cls-4" d="M2692.57,158.76a16,16,0,0,0,20.5,1.5"/><path class="cls-1" d="M2950.57,189.76a54.6,54.6,0,0,1,42-43c6.45-1.38,23.08-4.94,30,4,5.75,7.42,1.43,19.12,0,23-5.9,16-20.81,23-25,25-17.62,8.32-34.47,4.51-40,3"/><path class="cls-5" d="M2809.33,57.54c.87-5.27,1.32-13.13-2.09-21.13-4-9.26-10.31-12.21-9.48-18.67.66-5.13,5.52-9.88,11-11,7.7-1.57,13.67,4.64,14,5,3.91,4.21,7.58,13.17,7.46,20.94a5.15,5.15,0,0,0,1,3.73c2,2,6.55-.21,9.41-2.49,4.15-3.32,3.61-6,7.31-8.7a13.51,13.51,0,0,1,9.4-2.49c4.38.46,11.55,4.38,12.54,10,.83,4.7-3.06,8.82-5.16,11.06-5.88,6.26-11.94,6.67-23.05,11.32a113.46,113.46,0,0,0-16.71,8.7"/><path class="cls-1" d="M3084.57,204.22c-1.58,1.09-11.44,8.14-12,20-.11,2.39-.45,9.54,4,13,7.09,5.52,21-2.48,27-7a44.09,44.09,0,0,0,13-16"/><path class="cls-2" d="M3251.57,87.22c21.24,33.08,3,67.59,29,87,7.39,5.52,18.8,14.06,33,13,9.66-.71,18.8-5.73,24-1,3,2.77,3,7.31,3,8-.12,15.46-31.11,27.36-38,30-15.54,6-30,8.39-60,10-30.94,1.67-46.41,2.51-64,1-39.32-3.36-93.64-8-115-45-8.14-14.09-8.77-28.15-9-35-1.18-35,20.48-59.5,28-68,10.72-12.11,40.56-40.62,86-40C3171.41,47.26,3226.9,48.81,3251.57,87.22Z"/><path class="cls-1" d="M3322.57,188.22a49.09,49.09,0,0,1-16-18c-1.16-2.27-11.61-23.49-1-39,1.12-1.63,6.89-10.06,15-10,10.83.09,17.81,15.24,20,20,8.55,18.56,3.8,37.49,1,46"/><path class="cls-3" d="M3269.57,229.22c-.19,3.11-31.49,3.71-47,4-29.17.56-43.75.84-61-1-30.38-3.23-57.76-6.48-81-26-12.42-10.43-16.6-19.57-18-23-6.3-15.39-7-38.78,5-49,19.12-16.22,60.9,8.87,66,12,35.5,21.81,30.32,44.17,63,64C3231.33,231.31,3269.78,225.79,3269.57,229.22Z"/><path d="M3161.76,143.81c-.46,2.23-2.89,3.29-3.19,3.41-3.78,1.59-7.66-1.7-8-2-2.68-2.34-4.66-6.86-3-9s7-1,10,1C3158.14,137.6,3162.46,140.47,3161.76,143.81Z"/><path class="cls-1" d="M3180.57,191.22c-1.35,3.72-6.32,18.75,1,34,1.48,3.09,5.93,12,16,17,8.11,4,21.26,6.11,26,0,2.28-2.93,1.83-6.74,1-13a59.06,59.06,0,0,0-7-21"/><path class="cls-4" d="M3072.57,157.22a16,16,0,0,0,20.5,1.5"/><path class="cls-1" d="M3330.57,188.22a54.6,54.6,0,0,1,42-43c6.45-1.37,23.08-4.93,30,4,5.75,7.43,1.43,19.13,0,23-5.9,16-20.81,23-25,25-17.62,8.33-34.47,4.51-40,3"/><path class="cls-5" d="M3194.57,57.22a30.35,30.35,0,0,0-2-17c-3.89-8.57-10.51-10.58-10-16,.48-5,6.76-9,12-10,6.07-1.13,13.12,1.29,16,6,2.09,3.42,3.87,11.1,4,17a3.94,3.94,0,0,0,1,3c1.9,1.61,6.27-.16,9-2,4-2.66,3.46-4.79,7-7a14.94,14.94,0,0,1,9-2c4.38.39,10.88,3,12,8,1,4.72-3.14,9.1-4,10-5.35,5.61-11.63,4.54-23,8a77.5,77.5,0,0,0-16,7"/><path class="cls-1" d="M3454.05,202.56c-1.71.86-12.45,6.49-14.62,18.17-.44,2.34-1.75,9.38,2.18,13.42,6.27,6.44,21.16.42,27.7-3.24a44.12,44.12,0,0,0,15.07-14.07"/><path class="cls-2" d="M3631.57,88.76c21.24,33.07,3,67.58,29,87,7.39,5.52,18.8,14.05,33,13,9.66-.72,18.8-5.74,24-1,3,2.77,3,7.3,3,8-.12,15.45-31.11,27.35-38,30-15.54,6-30,8.38-60,10-30.94,1.67-46.41,2.5-64,1-39.32-3.37-93.64-8-115-45-8.14-14.09-8.77-28.16-9-35-1.18-35,20.48-59.51,28-68,10.72-12.12,40.56-40.63,86-40C3551.41,48.8,3606.9,50.34,3631.57,88.76Z"/><path class="cls-1" d="M3702.57,189.76a49.17,49.17,0,0,1-16-18c-1.16-2.27-11.61-23.49-1-39,1.12-1.63,6.89-10.07,15-10,10.83.09,17.81,15.24,20,20,8.55,18.55,3.8,37.48,1,46"/><path class="cls-3" d="M3649.57,230.76c-.19,3.11-31.49,3.7-47,4-29.17.55-43.75.83-61-1-30.38-3.23-57.76-6.49-81-26-12.42-10.43-16.6-19.58-18-23-6.3-15.4-7-38.78,5-49,19.12-16.23,60.9,8.86,66,12,35.5,21.8,30.32,44.17,63,64C3611.33,232.85,3649.78,227.33,3649.57,230.76Z"/><path d="M3541.76,145.34c-.46,2.24-2.89,3.29-3.19,3.42-3.78,1.58-7.66-1.71-8-2-2.68-2.35-4.66-6.86-3-9s7-1,10,1C3538.14,139.14,3542.46,142,3541.76,145.34Z"/><path class="cls-1" d="M3561.76,188.74a55.86,55.86,0,0,0-7.66,29.35c.16,5.41.4,14.43,6.52,22.69,5.74,7.75,16.93,15.31,23.65,11.89,3.76-1.91,4.84-6.29,6.35-11.52a200,200,0,0,1,14.14-35.41"/><path class="cls-4" d="M3452.57,158.76a16,16,0,0,0,20.5,1.5"/><path class="cls-1" d="M3710.57,189.76a54.6,54.6,0,0,1,42-43c6.45-1.38,23.08-4.94,30,4,5.75,7.42,1.43,19.12,0,23-5.9,16-20.81,23-25,25-17.62,8.32-34.47,4.51-40,3"/><path class="cls-5" d="M3569.33,57.54c.87-5.27,1.32-13.13-2.09-21.13-4-9.26-10.31-12.21-9.48-18.67.66-5.13,5.52-9.88,11-11,7.7-1.57,13.67,4.64,14,5,3.91,4.21,7.58,13.17,7.46,20.94a5.15,5.15,0,0,0,1,3.73c2,2,6.55-.21,9.41-2.49,4.15-3.32,3.61-6,7.31-8.7a13.51,13.51,0,0,1,9.4-2.49c4.38.46,11.55,4.38,12.54,10,.83,4.7-3.06,8.82-5.16,11.06-5.88,6.26-11.94,6.67-23.05,11.32a113.46,113.46,0,0,0-16.71,8.7"/><path class="cls-1" d="M3844.57,204.22c-1.58,1.09-11.44,8.14-12,20-.11,2.39-.45,9.54,4,13,7.09,5.52,21-2.48,27-7a44.09,44.09,0,0,0,13-16"/><path class="cls-2" d="M4011.57,87.22c21.24,33.08,3,67.59,29,87,7.39,5.52,18.8,14.06,33,13,9.66-.71,18.8-5.73,24-1,3,2.77,3,7.31,3,8-.12,15.46-31.11,27.36-38,30-15.54,6-30,8.39-60,10-30.94,1.67-46.41,2.51-64,1-39.32-3.36-93.64-8-115-45-8.14-14.09-8.77-28.15-9-35-1.18-35,20.48-59.5,28-68,10.72-12.11,40.56-40.62,86-40C3931.41,47.26,3986.9,48.81,4011.57,87.22Z"/><path class="cls-1" d="M4082.57,188.22a49.09,49.09,0,0,1-16-18c-1.16-2.27-11.61-23.49-1-39,1.12-1.63,6.89-10.06,15-10,10.83.09,17.81,15.24,20,20,8.55,18.56,3.8,37.49,1,46"/><path class="cls-3" d="M4029.57,229.22c-.19,3.11-31.49,3.71-47,4-29.17.56-43.75.84-61-1-30.38-3.23-57.76-6.48-81-26-12.42-10.43-16.6-19.57-18-23-6.3-15.39-7-38.78,5-49,19.12-16.22,60.9,8.87,66,12,35.5,21.81,30.32,44.17,63,64C3991.33,231.31,4029.78,225.79,4029.57,229.22Z"/><path d="M3921.76,143.81c-.46,2.23-2.89,3.29-3.19,3.41-3.78,1.59-7.66-1.7-8-2-2.68-2.34-4.66-6.86-3-9s7-1,10,1C3918.14,137.6,3922.46,140.47,3921.76,143.81Z"/><path class="cls-1" d="M3940.57,191.22c-1.35,3.72-6.32,18.75,1,34,1.48,3.09,5.93,12,16,17,8.11,4,21.26,6.11,26,0,2.28-2.93,1.83-6.74,1-13a59.06,59.06,0,0,0-7-21"/><path class="cls-4" d="M3832.57,157.22a16,16,0,0,0,20.5,1.5"/><path class="cls-1" d="M4090.57,188.22a54.6,54.6,0,0,1,42-43c6.45-1.37,23.08-4.93,30,4,5.75,7.43,1.43,19.13,0,23-5.9,16-20.81,23-25,25-17.62,8.33-34.47,4.51-40,3"/><path class="cls-5" d="M3954.57,57.22a30.35,30.35,0,0,0-2-17c-3.89-8.57-10.51-10.58-10-16,.48-5,6.76-9,12-10,6.07-1.13,13.12,1.29,16,6,2.09,3.42,3.87,11.1,4,17a3.94,3.94,0,0,0,1,3c1.9,1.61,6.27-.16,9-2,4-2.66,3.46-4.79,7-7a14.94,14.94,0,0,1,9-2c4.38.39,10.88,3,12,8,1,4.72-3.14,9.1-4,10-5.35,5.61-11.63,4.54-23,8a77.5,77.5,0,0,0-16,7"/><path class="cls-1" d="M4214.05,202.56c-1.71.86-12.45,6.49-14.62,18.17-.44,2.34-1.75,9.38,2.18,13.42,6.27,6.44,21.16.42,27.7-3.24a44.12,44.12,0,0,0,15.07-14.07"/><path class="cls-2" d="M4391.57,88.76c21.24,33.07,3,67.58,29,87,7.39,5.52,18.8,14.05,33,13,9.66-.72,18.8-5.74,24-1,3,2.77,3,7.3,3,8-.12,15.45-31.11,27.35-38,30-15.54,6-30,8.38-60,10-30.94,1.67-46.41,2.5-64,1-39.32-3.37-93.64-8-115-45-8.14-14.09-8.77-28.16-9-35-1.18-35,20.48-59.51,28-68,10.72-12.12,40.56-40.63,86-40C4311.41,48.8,4366.9,50.34,4391.57,88.76Z"/><path class="cls-1" d="M4462.57,189.76a49.17,49.17,0,0,1-16-18c-1.16-2.27-11.61-23.49-1-39,1.12-1.63,6.89-10.07,15-10,10.83.09,17.81,15.24,20,20,8.55,18.55,3.8,37.48,1,46"/><path class="cls-3" d="M4409.57,230.76c-.19,3.11-31.49,3.7-47,4-29.17.55-43.75.83-61-1-30.38-3.23-57.76-6.49-81-26-12.42-10.43-16.6-19.58-18-23-6.3-15.4-7-38.78,5-49,19.12-16.23,60.9,8.86,66,12,35.5,21.8,30.32,44.17,63,64C4371.33,232.85,4409.78,227.33,4409.57,230.76Z"/><path d="M4301.76,145.34c-.46,2.24-2.89,3.29-3.19,3.42-3.78,1.58-7.66-1.71-8-2-2.68-2.35-4.66-6.86-3-9s7-1,10,1C4298.14,139.14,4302.46,142,4301.76,145.34Z"/><path class="cls-1" d="M4321.76,188.74a55.86,55.86,0,0,0-7.66,29.35c.16,5.41.4,14.43,6.52,22.69,5.74,7.75,16.93,15.31,23.65,11.89,3.76-1.91,4.84-6.29,6.35-11.52a200,200,0,0,1,14.14-35.41"/><path class="cls-4" d="M4212.57,158.76a16,16,0,0,0,20.5,1.5"/><path class="cls-1" d="M4470.57,189.76a54.6,54.6,0,0,1,42-43c6.45-1.38,23.08-4.94,30,4,5.75,7.42,1.43,19.12,0,23-5.9,16-20.81,23-25,25-17.62,8.32-34.47,4.51-40,3"/><path class="cls-5" d="M4329.33,57.54c.87-5.27,1.32-13.13-2.09-21.13-4-9.26-10.31-12.21-9.48-18.67.66-5.13,5.52-9.88,11-11,7.7-1.57,13.67,4.64,14,5,3.91,4.21,7.58,13.17,7.46,20.94a5.15,5.15,0,0,0,1,3.73c2,2,6.55-.21,9.41-2.49,4.15-3.32,3.61-6,7.31-8.7a13.51,13.51,0,0,1,9.4-2.49c4.38.46,11.55,4.38,12.54,10,.83,4.7-3.06,8.82-5.16,11.06-5.88,6.26-11.94,6.67-23.05,11.32a113.46,113.46,0,0,0-16.71,8.7"/></g></svg>