<svg xmlns="http://www.w3.org/2000/svg" viewBox="0 0 129.56 217.04"><defs><style>.cls-1{fill:#f7cfc4;}.cls-1,.cls-2,.cls-3{stroke:#000;stroke-linecap:round;stroke-linejoin:round;}.cls-1,.cls-2{stroke-width:4px;}.cls-2{fill:#f29880;}.cls-3{fill:none;stroke-width:2px;}</style></defs><g id="Layer_2" data-name="Layer 2"><g id="Layer_36" data-name="Layer 36"><g id="Layer_40" data-name="Layer 40"><path class="cls-1" d="M127.37,30.9c.31-4.46,1.4-20.21-8.56-26.3C114,1.64,106.27.78,101,4.3c-8.47,5.68-6,19.23-5.93,42.77,0,24.11-.21,55.56-15.37,83-7.56,13.68-15.06,19.55-17,21-12.11,9.14-17.85,5.24-33,14-17.38,10.06-24.82,23.88-27,33-1.75,7.35.13,10.73,1,12a12.69,12.69,0,0,0,10,5c9.34,0,12.91-12.82,23-24,16.42-18.16,29-8.59,50-27,14.94-13.11,21.4-29.26,24-36,4.1-10.56,5.18-18.88,7-33,3.29-25.38-.45-30.72,5.21-47.64C125,41.28,126.89,37.76,127.37,30.9Z"/><path class="cls-2" d="M124.34,48.27c1.5,2.33-.53,4.31-.62,12.77,0,5.16.7,5.61,0,7-3.68,7.45-30,5.56-33-3-.63-1.82.37-2.3,1-9,.8-8.36-.52-10.1,1.1-11.77,2.24-2.31,5.82,0,17.21,1.36C119.66,46.77,122.76,45.79,124.34,48.27Z"/><path d="M102.17,16.25c0,1.71,1.12,3.75,2.37,3.79s2.67-2.27,2.61-4.27C107.1,14.06,106,12,104.77,12S102.11,14.24,102.17,16.25Z"/><path class="cls-3" d="M108.91,23.63a3,3,0,1,0,6-.57"/><path d="M119.05,13.81c-.6-1.61-2.27-3.2-3.47-2.83s-1.79,3-1.09,4.88c.6,1.6,2.27,3.19,3.47,2.82S119.75,15.68,119.05,13.81Z"/></g></g></g></svg>