<svg xmlns="http://www.w3.org/2000/svg" viewBox="0 0 3600 240"><defs><style>.cls-1{fill:#f7cfc4;}.cls-1,.cls-2,.cls-3{stroke:#000;stroke-linecap:round;stroke-linejoin:round;}.cls-1,.cls-2{stroke-width:4px;}.cls-2{fill:#f29880;}.cls-3{fill:none;stroke-width:2px;}</style></defs><g id="Layer_2" data-name="Layer 2"><path class="cls-1" d="M8.58,42.1c-.31-4.45-1.4-20.2,8.56-26.3,4.83-3,12.54-3.82,17.79-.29,10.3,6.9,3.18,25,5.92,42.76,5,32.71,43.55,30.8,74.39,72.47,26.29,35.51,32.84,85.71,20,94.36a12.1,12.1,0,0,1-12.71-.22c-6.65-4.75-2.86-17.12-3.42-30.47-.84-19.93-11.06-34.48-18.45-45-15.51-22.06-39.17-36.05-51.1-43.1C39.06,100.1,32.51,97.53,26.16,89,21.26,82.43,18.51,74.48,13,58.6,9,47.06,8.69,43.75,8.58,42.1Z"/><path class="cls-2" d="M11.6,59.47c-.62,1.15-.3,2.21,2.93,11.33,2.73,7.72,2.85,8,3.21,8.35,6.83,7.55,31.7-1.11,31.92-8,.05-1.68-1.43-1.91-3.41-6.36-2.51-5.66-1.28-7.58-3.12-9.34-2.55-2.46-6.25,0-17.21,1.35C16.49,58,12.94,57,11.6,59.47Z"/><path d="M33.78,27.45c-.05,1.71-1.12,3.75-2.38,3.79S28.74,29,28.8,27c.05-1.71,1.12-3.75,2.38-3.79S33.84,25.45,33.78,27.45Z"/><path class="cls-3" d="M27,34.84a3,3,0,1,1-6-.58"/><path d="M16.9,25c.6-1.6,2.27-3.2,3.46-2.83s1.8,3,1.1,4.88c-.6,1.6-2.27,3.2-3.47,2.83S16.2,26.89,16.9,25Z"/><path class="cls-1" d="M161.32,42.2c-.31-4.46-1.4-20.21,8.56-26.3,4.83-3,12.54-3.82,17.79-.3,9,6,2.76,19.82,5.92,42.77,1.84,13.28,9.24,28.64,24,59.35,8.45,17.55,12.68,26.33,17,33,11.86,18.35,37,50.2,47,58a19.41,19.41,0,0,1,5,6c.2.38,3.86,7.44,1.39,10.48s-10.15.6-12.71-.22c-25.79-8.34-57.68-61.26-57.68-61.26-19.39-32.16-18.7-37.55-38.73-74.62,0,0-5.89-9.45-13.14-30.4C161.76,47.15,161.43,43.85,161.32,42.2Z"/><path class="cls-2" d="M164.34,59.57c-.62,1.14-.3,2.2,2.93,11.33,2.73,7.71,2.85,7.95,3.21,8.35,6.84,7.54,31.7-1.11,31.92-8,0-1.68-1.43-1.91-3.41-6.35a27.24,27.24,0,0,1-1.32-3.71c-1.89-6.74-1.47-6.89-2-7.49-2.23-2.32-7.13,1.46-17,3.21C169.88,58.49,165.8,56.9,164.34,59.57Z"/><path d="M186.52,27.55c-.05,1.71-1.12,3.75-2.38,3.79s-2.66-2.27-2.6-4.27c.05-1.71,1.12-3.76,2.38-3.79S186.58,25.54,186.52,27.55Z"/><path class="cls-3" d="M179.78,34.93a3,3,0,0,1-6-.57"/><path d="M169.64,25.11c.6-1.61,2.27-3.2,3.47-2.83s1.79,3,1.09,4.88c-.6,1.6-2.27,3.19-3.47,2.82S168.94,27,169.64,25.11Z"/><path class="cls-1" d="M312.41,42.37c-.31-4.45-1.4-20.2,8.56-26.3,4.83-3,12.54-3.82,17.79-.29,8.47,5.68,6,19.23,5.93,42.77,0,24.11.21,55.56,15.37,83,7.56,13.67,15.07,19.55,17,21,12.11,9.14,17.86,5.24,33,14,17.38,10.06,24.82,23.88,27,33,1.75,7.35-.12,10.73-1,12a12.7,12.7,0,0,1-10,5c-9.34,0-12.91-12.82-23-24-16.42-18.17-29-8.59-50-27-14.94-13.11-21.39-29.27-24-36-4.09-10.56-5.17-18.88-7-33-3.29-25.38.45-30.72-5.21-47.64C314.8,52.76,312.89,49.24,312.41,42.37Z"/><path class="cls-2" d="M315.44,59.74c-1.5,2.34.54,4.32.62,12.78.05,5.16-.69,5.6,0,7,3.69,7.45,30,5.56,33-3,.63-1.82-.37-2.31-1-9-.8-8.36.52-10.1-1.09-11.77-2.25-2.32-5.82,0-17.21,1.36C320.13,58.25,317,57.27,315.44,59.74Z"/><path d="M337.61,27.72c-.05,1.71-1.12,3.76-2.37,3.79s-2.67-2.26-2.6-4.27c.05-1.71,1.12-3.75,2.37-3.79S337.67,25.72,337.61,27.72Z"/><path class="cls-3" d="M330.87,35.11a3,3,0,0,1-6-.57"/><path d="M320.73,25.28c.6-1.6,2.27-3.19,3.47-2.82s1.79,3,1.09,4.88c-.6,1.6-2.27,3.19-3.47,2.82S320,27.16,320.73,25.28Z"/><path class="cls-1" d="M3441.42,42.1c.31-4.45,1.4-20.2-8.56-26.3-4.83-3-12.54-3.82-17.79-.29-10.3,6.9-3.18,25-5.92,42.76-5.05,32.71-43.55,30.8-74.39,72.47-26.29,35.51-32.84,85.71-20,94.36a12.1,12.1,0,0,0,12.71-.22c6.65-4.75,2.86-17.12,3.42-30.47.84-19.93,11.06-34.48,18.45-45,15.51-22.06,39.17-36.05,51.1-43.1,10.54-6.23,17.09-8.8,23.44-17.33,4.9-6.57,7.65-14.52,13.15-30.4C3441,47.06,3441.31,43.75,3441.42,42.1Z"/><path class="cls-2" d="M3438.4,59.47c.62,1.15.3,2.21-2.93,11.33-2.73,7.72-2.85,8-3.21,8.35-6.83,7.55-31.7-1.11-31.92-8-.05-1.68,1.43-1.91,3.41-6.36,2.51-5.66,1.28-7.58,3.12-9.34,2.55-2.46,6.25,0,17.21,1.35C3433.51,58,3437.06,57,3438.4,59.47Z"/><path d="M3416.22,27.45c.05,1.71,1.12,3.75,2.38,3.79s2.66-2.27,2.6-4.27c0-1.71-1.12-3.75-2.38-3.79S3416.16,25.45,3416.22,27.45Z"/><path class="cls-3" d="M3423,34.84a3,3,0,1,0,6-.58"/><path d="M3433.1,25c-.6-1.6-2.27-3.2-3.46-2.83s-1.8,3-1.1,4.88c.6,1.6,2.27,3.2,3.47,2.83S3433.8,26.89,3433.1,25Z"/><path class="cls-1" d="M3288.68,42.2c.31-4.46,1.4-20.21-8.56-26.3-4.83-3-12.54-3.82-17.79-.3-9,6-2.76,19.82-5.92,42.77-1.84,13.28-9.24,28.64-24,59.35-8.45,17.55-12.68,26.33-17,33-11.86,18.35-37,50.2-47,58a19.41,19.41,0,0,0-5,6c-.2.38-3.86,7.44-1.39,10.48s10.15.6,12.71-.22c25.79-8.34,57.68-61.26,57.68-61.26,19.39-32.16,18.7-37.55,38.73-74.62,0,0,5.89-9.45,13.14-30.4C3288.24,47.15,3288.57,43.85,3288.68,42.2Z"/><path class="cls-2" d="M3285.66,59.57c.62,1.14.3,2.2-2.93,11.33-2.73,7.71-2.85,7.95-3.21,8.35-6.84,7.54-31.7-1.11-31.92-8,0-1.68,1.43-1.91,3.41-6.35a27.24,27.24,0,0,0,1.32-3.71c1.89-6.74,1.47-6.89,2-7.49,2.23-2.32,7.13,1.46,17,3.21C3280.12,58.49,3284.2,56.9,3285.66,59.57Z"/><path d="M3263.48,27.55c.05,1.71,1.12,3.75,2.38,3.79s2.66-2.27,2.6-4.27c-.05-1.71-1.12-3.76-2.38-3.79S3263.42,25.54,3263.48,27.55Z"/><path class="cls-3" d="M3270.22,34.93a3,3,0,1,0,6-.57"/><path d="M3280.36,25.11c-.6-1.61-2.27-3.2-3.47-2.83s-1.79,3-1.09,4.88c.6,1.6,2.27,3.19,3.47,2.82S3281.06,27,3280.36,25.11Z"/><path class="cls-1" d="M1937.59,42.37c.31-4.45,1.4-20.2-8.56-26.3-4.83-3-12.54-3.82-17.79-.29-8.47,5.68-6,19.23-5.93,42.77,0,24.11-.21,55.56-15.37,83-7.56,13.67-15.07,19.55-17,21-12.11,9.14-17.86,5.24-33,14-17.38,10.06-24.82,23.88-27,33-1.75,7.35.12,10.73,1,12a12.7,12.7,0,0,0,10,5c9.34,0,12.91-12.82,23-24,16.42-18.17,29-8.59,50-27,14.94-13.11,21.39-29.27,24-36,4.09-10.56,5.17-18.88,7-33,3.29-25.38-.45-30.72,5.21-47.64C1935.2,52.76,1937.11,49.24,1937.59,42.37Z"/><path class="cls-2" d="M1934.56,59.74c1.5,2.34-.54,4.32-.62,12.78,0,5.16.69,5.6,0,7-3.69,7.45-30,5.56-33-3-.63-1.82.37-2.31,1-9,.8-8.36-.52-10.1,1.09-11.77,2.25-2.32,5.82,0,17.21,1.36C1929.87,58.25,1933,57.27,1934.56,59.74Z"/><path d="M1912.39,27.72c0,1.71,1.12,3.76,2.37,3.79s2.67-2.26,2.6-4.27c0-1.71-1.12-3.75-2.37-3.79S1912.33,25.72,1912.39,27.72Z"/><path class="cls-3" d="M1919.13,35.11a3,3,0,0,0,6-.57"/><path d="M1929.27,25.28c-.6-1.6-2.27-3.19-3.47-2.82s-1.79,3-1.09,4.88c.6,1.6,2.27,3.19,3.47,2.82S1930,27.16,1929.27,25.28Z"/><path class="cls-1" d="M3141.42,42.1c.31-4.45,1.4-20.2-8.56-26.3-4.83-3-12.54-3.82-17.79-.29-10.3,6.9-3.18,25-5.92,42.76-5.05,32.71-43.55,30.8-74.39,72.47-26.29,35.51-32.84,85.71-20,94.36a12.1,12.1,0,0,0,12.71-.22c6.65-4.75,2.86-17.12,3.42-30.47.84-19.93,11.06-34.48,18.45-45,15.51-22.06,39.17-36.05,51.1-43.1,10.54-6.23,17.09-8.8,23.44-17.33,4.9-6.57,7.65-14.52,13.15-30.4C3141,47.06,3141.31,43.75,3141.42,42.1Z"/><path class="cls-2" d="M3138.4,59.47c.62,1.15.3,2.21-2.93,11.33-2.73,7.72-2.85,8-3.21,8.35-6.83,7.55-31.7-1.11-31.92-8-.05-1.68,1.43-1.91,3.41-6.36,2.51-5.66,1.28-7.58,3.12-9.34,2.55-2.46,6.25,0,17.21,1.35C3133.51,58,3137.06,57,3138.4,59.47Z"/><path d="M3116.22,27.45c.05,1.71,1.12,3.75,2.38,3.79s2.66-2.27,2.6-4.27c0-1.71-1.12-3.75-2.38-3.79S3116.16,25.45,3116.22,27.45Z"/><path class="cls-3" d="M3123,34.84a3,3,0,1,0,6-.58"/><path d="M3133.1,25c-.6-1.6-2.27-3.2-3.46-2.83s-1.8,3-1.1,4.88c.6,1.6,2.27,3.2,3.47,2.83S3133.8,26.89,3133.1,25Z"/><path class="cls-1" d="M2988.68,42.2c.31-4.46,1.4-20.21-8.56-26.3-4.83-3-12.54-3.82-17.79-.3-9,6-2.76,19.82-5.92,42.77-1.84,13.28-9.24,28.64-24,59.35-8.45,17.55-12.68,26.33-17,33-11.86,18.35-37,50.2-47,58a19.41,19.41,0,0,0-5,6c-.2.38-3.86,7.44-1.39,10.48s10.15.6,12.71-.22c25.79-8.34,57.68-61.26,57.68-61.26,19.39-32.16,18.7-37.55,38.73-74.62,0,0,5.89-9.45,13.14-30.4C2988.24,47.15,2988.57,43.85,2988.68,42.2Z"/><path class="cls-2" d="M2985.66,59.57c.62,1.14.3,2.2-2.93,11.33-2.73,7.71-2.85,7.95-3.21,8.35-6.84,7.54-31.7-1.11-31.92-8,0-1.68,1.43-1.91,3.41-6.35a27.24,27.24,0,0,0,1.32-3.71c1.89-6.74,1.47-6.89,2-7.49,2.23-2.32,7.13,1.46,17,3.21C2980.12,58.49,2984.2,56.9,2985.66,59.57Z"/><path d="M2963.48,27.55c.05,1.71,1.12,3.75,2.38,3.79s2.66-2.27,2.6-4.27c-.05-1.71-1.12-3.76-2.38-3.79S2963.42,25.54,2963.48,27.55Z"/><path class="cls-3" d="M2970.22,34.93a3,3,0,1,0,6-.57"/><path d="M2980.36,25.11c-.6-1.61-2.27-3.2-3.47-2.83s-1.79,3-1.09,4.88c.6,1.6,2.27,3.19,3.47,2.82S2981.06,27,2980.36,25.11Z"/><path class="cls-1" d="M2841.42,42.1c.31-4.45,1.4-20.2-8.56-26.3-4.83-3-12.54-3.82-17.79-.29-10.3,6.9-3.18,25-5.92,42.76-5.05,32.71-43.55,30.8-74.39,72.47-26.29,35.51-32.84,85.71-20,94.36a12.1,12.1,0,0,0,12.71-.22c6.65-4.75,2.86-17.12,3.42-30.47.84-19.93,11.06-34.48,18.45-45,15.51-22.06,39.17-36.05,51.1-43.1,10.54-6.23,17.09-8.8,23.44-17.33,4.9-6.57,7.65-14.52,13.15-30.4C2841,47.06,2841.31,43.75,2841.42,42.1Z"/><path class="cls-2" d="M2838.4,59.47c.62,1.15.3,2.21-2.93,11.33-2.73,7.72-2.85,8-3.21,8.35-6.83,7.55-31.7-1.11-31.92-8-.05-1.68,1.43-1.91,3.41-6.36,2.51-5.66,1.28-7.58,3.12-9.34,2.55-2.46,6.25,0,17.21,1.35C2833.51,58,2837.06,57,2838.4,59.47Z"/><path d="M2816.22,27.45c.05,1.71,1.12,3.75,2.38,3.79s2.66-2.27,2.6-4.27c0-1.71-1.12-3.75-2.38-3.79S2816.16,25.45,2816.22,27.45Z"/><path class="cls-3" d="M2823,34.84a3,3,0,1,0,6-.58"/><path d="M2833.1,25c-.6-1.6-2.27-3.2-3.46-2.83s-1.8,3-1.1,4.88c.6,1.6,2.27,3.2,3.47,2.83S2833.8,26.89,2833.1,25Z"/><path class="cls-1" d="M2688.68,42.2c.31-4.46,1.4-20.21-8.56-26.3-4.83-3-12.54-3.82-17.79-.3-9,6-2.76,19.82-5.92,42.77-1.84,13.28-9.24,28.64-24,59.35-8.45,17.55-12.68,26.33-17,33-11.86,18.35-37,50.2-47,58a19.41,19.41,0,0,0-5,6c-.2.38-3.86,7.44-1.39,10.48s10.15.6,12.71-.22c25.79-8.34,57.68-61.26,57.68-61.26,19.39-32.16,18.7-37.55,38.73-74.62,0,0,5.89-9.45,13.14-30.4C2688.24,47.15,2688.57,43.85,2688.68,42.2Z"/><path class="cls-2" d="M2685.66,59.57c.62,1.14.3,2.2-2.93,11.33-2.73,7.71-2.85,7.95-3.21,8.35-6.84,7.54-31.7-1.11-31.92-8,0-1.68,1.43-1.91,3.41-6.35a27.24,27.24,0,0,0,1.32-3.71c1.89-6.74,1.47-6.89,2-7.49,2.23-2.32,7.13,1.46,17,3.21C2680.12,58.49,2684.2,56.9,2685.66,59.57Z"/><path d="M2663.48,27.55c.05,1.71,1.12,3.75,2.38,3.79s2.66-2.27,2.6-4.27c-.05-1.71-1.12-3.76-2.38-3.79S2663.42,25.54,2663.48,27.55Z"/><path class="cls-3" d="M2670.22,34.93a3,3,0,1,0,6-.57"/><path d="M2680.36,25.11c-.6-1.61-2.27-3.2-3.47-2.83s-1.79,3-1.09,4.88c.6,1.6,2.27,3.19,3.47,2.82S2681.06,27,2680.36,25.11Z"/><path class="cls-1" d="M2541.42,42.1c.31-4.45,1.4-20.2-8.56-26.3-4.83-3-12.54-3.82-17.79-.29-10.3,6.9-3.18,25-5.92,42.76-5.05,32.71-43.55,30.8-74.39,72.47-26.29,35.51-32.84,85.71-20,94.36a12.1,12.1,0,0,0,12.71-.22c6.65-4.75,2.86-17.12,3.42-30.47.84-19.93,11.06-34.48,18.45-45,15.51-22.06,39.17-36.05,51.1-43.1,10.54-6.23,17.09-8.8,23.44-17.33,4.9-6.57,7.65-14.52,13.15-30.4C2541,47.06,2541.31,43.75,2541.42,42.1Z"/><path class="cls-2" d="M2538.4,59.47c.62,1.15.3,2.21-2.93,11.33-2.73,7.72-2.85,8-3.21,8.35-6.83,7.55-31.7-1.11-31.92-8-.05-1.68,1.43-1.91,3.41-6.36,2.51-5.66,1.28-7.58,3.12-9.34,2.55-2.46,6.25,0,17.21,1.35C2533.51,58,2537.06,57,2538.4,59.47Z"/><path d="M2516.22,27.45c.05,1.71,1.12,3.75,2.38,3.79s2.66-2.27,2.6-4.27c0-1.71-1.12-3.75-2.38-3.79S2516.16,25.45,2516.22,27.45Z"/><path class="cls-3" d="M2523,34.84a3,3,0,1,0,6-.58"/><path d="M2533.1,25c-.6-1.6-2.27-3.2-3.46-2.83s-1.8,3-1.1,4.88c.6,1.6,2.27,3.2,3.47,2.83S2533.8,26.89,2533.1,25Z"/><path class="cls-1" d="M2388.68,42.2c.31-4.46,1.4-20.21-8.56-26.3-4.83-3-12.54-3.82-17.79-.3-9,6-2.76,19.82-5.92,42.77-1.84,13.28-9.24,28.64-24,59.35-8.45,17.55-12.68,26.33-17,33-11.86,18.35-37,50.2-47,58a19.41,19.41,0,0,0-5,6c-.2.38-3.86,7.44-1.39,10.48s10.15.6,12.71-.22c25.79-8.34,57.68-61.26,57.68-61.26,19.39-32.16,18.7-37.55,38.73-74.62,0,0,5.89-9.45,13.14-30.4C2388.24,47.15,2388.57,43.85,2388.68,42.2Z"/><path class="cls-2" d="M2385.66,59.57c.62,1.14.3,2.2-2.93,11.33-2.73,7.71-2.85,7.95-3.21,8.35-6.84,7.54-31.7-1.11-31.92-8,0-1.68,1.43-1.91,3.41-6.35a27.24,27.24,0,0,0,1.32-3.71c1.89-6.74,1.47-6.89,2-7.49,2.23-2.32,7.13,1.46,17,3.21C2380.12,58.49,2384.2,56.9,2385.66,59.57Z"/><path d="M2363.48,27.55c.05,1.71,1.12,3.75,2.38,3.79s2.66-2.27,2.6-4.27c-.05-1.71-1.12-3.76-2.38-3.79S2363.42,25.54,2363.48,27.55Z"/><path class="cls-3" d="M2370.22,34.93a3,3,0,0,0,6-.57"/><path d="M2380.36,25.11c-.6-1.61-2.27-3.2-3.47-2.83s-1.79,3-1.09,4.88c.6,1.6,2.27,3.19,3.47,2.82S2381.06,27,2380.36,25.11Z"/><path class="cls-1" d="M2241.42,42.1c.31-4.45,1.4-20.2-8.56-26.3-4.83-3-12.54-3.82-17.79-.29-10.3,6.9-3.18,25-5.92,42.76-5.05,32.71-43.55,30.8-74.39,72.47-26.29,35.51-32.84,85.71-20,94.36a12.1,12.1,0,0,0,12.71-.22c6.65-4.75,2.86-17.12,3.42-30.47.84-19.93,11.06-34.48,18.45-45,15.51-22.06,39.17-36.05,51.1-43.1,10.54-6.23,17.09-8.8,23.44-17.33,4.9-6.57,7.65-14.52,13.15-30.4C2241,47.06,2241.31,43.75,2241.42,42.1Z"/><path class="cls-2" d="M2238.4,59.47c.62,1.15.3,2.21-2.93,11.33-2.73,7.72-2.85,8-3.21,8.35-6.83,7.55-31.7-1.11-31.92-8-.05-1.68,1.43-1.91,3.41-6.36,2.51-5.66,1.28-7.58,3.12-9.34,2.55-2.46,6.25,0,17.21,1.35C2233.51,58,2237.06,57,2238.4,59.47Z"/><path d="M2216.22,27.45c.05,1.71,1.12,3.75,2.38,3.79s2.66-2.27,2.6-4.27c0-1.71-1.12-3.75-2.38-3.79S2216.16,25.45,2216.22,27.45Z"/><path class="cls-3" d="M2223,34.84a3,3,0,1,0,6-.58"/><path d="M2233.1,25c-.6-1.6-2.27-3.2-3.46-2.83s-1.8,3-1.1,4.88c.6,1.6,2.27,3.2,3.47,2.83S2233.8,26.89,2233.1,25Z"/><path class="cls-1" d="M2088.68,42.2c.31-4.46,1.4-20.21-8.56-26.3-4.83-3-12.54-3.82-17.79-.3-9,6-2.76,19.82-5.92,42.77-1.84,13.28-9.24,28.64-24,59.35-8.45,17.55-12.68,26.33-17,33-11.86,18.35-37,50.2-47,58a19.41,19.41,0,0,0-5,6c-.2.38-3.86,7.44-1.39,10.48s10.15.6,12.71-.22c25.79-8.34,57.68-61.26,57.68-61.26,19.39-32.16,18.7-37.55,38.73-74.62,0,0,5.89-9.45,13.14-30.4C2088.24,47.15,2088.57,43.85,2088.68,42.2Z"/><path class="cls-2" d="M2085.66,59.57c.62,1.14.3,2.2-2.93,11.33-2.73,7.71-2.85,7.95-3.21,8.35-6.84,7.54-31.7-1.11-31.92-8,0-1.68,1.43-1.91,3.41-6.35a27.24,27.24,0,0,0,1.32-3.71c1.89-6.74,1.47-6.89,2-7.49,2.23-2.32,7.13,1.46,17,3.21C2080.12,58.49,2084.2,56.9,2085.66,59.57Z"/><path d="M2063.48,27.55c.05,1.71,1.12,3.75,2.38,3.79s2.66-2.27,2.6-4.27c-.05-1.71-1.12-3.76-2.38-3.79S2063.42,25.54,2063.48,27.55Z"/><path class="cls-3" d="M2070.22,34.93a3,3,0,0,0,6-.57"/><path d="M2080.36,25.11c-.6-1.61-2.27-3.2-3.47-2.83s-1.79,3-1.09,4.88c.6,1.6,2.27,3.19,3.47,2.82S2081.06,27,2080.36,25.11Z"/><path class="cls-1" d="M3588.68,42.2c.31-4.46,1.4-20.21-8.56-26.3-4.83-3-12.54-3.82-17.79-.3-9,6-2.76,19.82-5.92,42.77-1.84,13.28-9.24,28.64-24,59.35-8.45,17.55-12.68,26.33-17,33-11.86,18.35-37,50.2-47,58a19.41,19.41,0,0,0-5,6c-.2.38-3.86,7.44-1.39,10.48s10.15.6,12.71-.22c25.79-8.34,57.68-61.26,57.68-61.26,19.39-32.16,18.7-37.55,38.73-74.62,0,0,5.89-9.45,13.14-30.4C3588.24,47.15,3588.57,43.85,3588.68,42.2Z"/><path class="cls-2" d="M3585.66,59.57c.62,1.14.3,2.2-2.93,11.33-2.73,7.71-2.85,7.95-3.21,8.35-6.84,7.54-31.7-1.11-31.92-8,0-1.68,1.43-1.91,3.41-6.35a27.24,27.24,0,0,0,1.32-3.71c1.89-6.74,1.47-6.89,2-7.49,2.23-2.32,7.13,1.46,17,3.21C3580.12,58.49,3584.2,56.9,3585.66,59.57Z"/><path d="M3563.48,27.55c.05,1.71,1.12,3.75,2.38,3.79s2.66-2.27,2.6-4.27c-.05-1.71-1.12-3.76-2.38-3.79S3563.42,25.54,3563.48,27.55Z"/><path class="cls-3" d="M3570.22,34.93a3,3,0,1,0,6-.57"/><path d="M3580.36,25.11c-.6-1.61-2.27-3.2-3.47-2.83s-1.79,3-1.09,4.88c.6,1.6,2.27,3.19,3.47,2.82S3581.06,27,3580.36,25.11Z"/><path class="cls-1" d="M461.32,42.2c-.31-4.46-1.4-20.21,8.56-26.3,4.83-3,12.54-3.82,17.79-.3,9,6,2.76,19.82,5.92,42.77,1.84,13.28,9.24,28.64,24,59.35,8.45,17.55,12.68,26.33,17,33,11.86,18.35,37,50.2,47,58a19.41,19.41,0,0,1,5,6c.2.38,3.86,7.44,1.39,10.48s-10.15.6-12.71-.22c-25.79-8.34-57.68-61.26-57.68-61.26-19.39-32.16-18.7-37.55-38.73-74.62,0,0-5.89-9.45-13.14-30.4C461.76,47.15,461.43,43.85,461.32,42.2Z"/><path class="cls-2" d="M464.34,59.57c-.62,1.14-.3,2.2,2.93,11.33,2.73,7.71,2.85,7.95,3.21,8.35,6.84,7.54,31.7-1.11,31.92-8,.05-1.68-1.43-1.91-3.41-6.35a27.24,27.24,0,0,1-1.32-3.71c-1.89-6.74-1.47-6.89-2-7.49-2.23-2.32-7.13,1.46-17,3.21C469.88,58.49,465.8,56.9,464.34,59.57Z"/><path d="M486.52,27.55c0,1.71-1.12,3.75-2.38,3.79s-2.66-2.27-2.6-4.27c0-1.71,1.12-3.76,2.38-3.79S486.58,25.54,486.52,27.55Z"/><path class="cls-3" d="M479.78,34.93a3,3,0,1,1-6-.57"/><path d="M469.64,25.11c.6-1.61,2.27-3.2,3.47-2.83s1.79,3,1.09,4.88c-.6,1.6-2.27,3.19-3.47,2.82S468.94,27,469.64,25.11Z"/><path class="cls-1" d="M612.41,42.37c-.31-4.45-1.4-20.2,8.56-26.3,4.83-3,12.54-3.82,17.79-.29,8.47,5.68,6,19.23,5.93,42.77,0,24.11.21,55.56,15.37,83,7.56,13.67,15.07,19.55,17,21,12.11,9.14,17.86,5.24,33,14,17.38,10.06,24.82,23.88,27,33,1.75,7.35-.12,10.73-1,12a12.7,12.7,0,0,1-10,5c-9.34,0-12.91-12.82-23-24-16.42-18.17-29-8.59-50-27-14.94-13.11-21.39-29.27-24-36-4.09-10.56-5.17-18.88-7-33-3.29-25.38.45-30.72-5.21-47.64C614.8,52.76,612.89,49.24,612.41,42.37Z"/><path class="cls-2" d="M615.44,59.74c-1.5,2.34.54,4.32.62,12.78.05,5.16-.69,5.6,0,7,3.69,7.45,30,5.56,33-3,.63-1.82-.37-2.31-1-9-.8-8.36.52-10.1-1.09-11.77-2.25-2.32-5.82,0-17.21,1.36C620.13,58.25,617,57.27,615.44,59.74Z"/><path d="M637.61,27.72c-.05,1.71-1.12,3.76-2.37,3.79s-2.67-2.26-2.6-4.27c.05-1.71,1.12-3.75,2.37-3.79S637.67,25.72,637.61,27.72Z"/><path class="cls-3" d="M630.87,35.11a3,3,0,0,1-6-.57"/><path d="M620.73,25.28c.6-1.6,2.27-3.19,3.47-2.82s1.79,3,1.09,4.88c-.6,1.6-2.27,3.19-3.47,2.82S620,27.16,620.73,25.28Z"/><path class="cls-1" d="M761.32,42.2c-.31-4.46-1.4-20.21,8.56-26.3,4.83-3,12.54-3.82,17.79-.3,9,6,2.76,19.82,5.92,42.77,1.84,13.28,9.24,28.64,24,59.35,8.45,17.55,12.68,26.33,17,33,11.86,18.35,37,50.2,47,58a19.41,19.41,0,0,1,5,6c.2.38,3.86,7.44,1.39,10.48s-10.15.6-12.71-.22c-25.79-8.34-57.68-61.26-57.68-61.26-19.39-32.16-18.7-37.55-38.73-74.62,0,0-5.89-9.45-13.14-30.4C761.76,47.15,761.43,43.85,761.32,42.2Z"/><path class="cls-2" d="M764.34,59.57c-.62,1.14-.3,2.2,2.93,11.33,2.73,7.71,2.85,7.95,3.21,8.35,6.84,7.54,31.7-1.11,31.92-8,.05-1.68-1.43-1.91-3.41-6.35a27.24,27.24,0,0,1-1.32-3.71c-1.89-6.74-1.47-6.89-2-7.49-2.23-2.32-7.13,1.46-17,3.21C769.88,58.49,765.8,56.9,764.34,59.57Z"/><path d="M786.52,27.55c0,1.71-1.12,3.75-2.38,3.79s-2.66-2.27-2.6-4.27c.05-1.71,1.12-3.76,2.38-3.79S786.58,25.54,786.52,27.55Z"/><path class="cls-3" d="M779.78,34.93a3,3,0,0,1-6-.57"/><path d="M769.64,25.11c.6-1.61,2.27-3.2,3.47-2.83s1.79,3,1.09,4.88c-.6,1.6-2.27,3.19-3.47,2.82S768.94,27,769.64,25.11Z"/><path class="cls-1" d="M912.41,42.37c-.31-4.45-1.4-20.2,8.56-26.3,4.83-3,12.54-3.82,17.79-.29,8.47,5.68,6,19.23,5.93,42.77,0,24.11.21,55.56,15.37,83,7.56,13.67,15.07,19.55,17,21,12.11,9.14,17.86,5.24,33,14,17.38,10.06,24.82,23.88,27,33,1.75,7.35-.12,10.73-1,12a12.7,12.7,0,0,1-10,5c-9.34,0-12.91-12.82-23-24-16.42-18.17-29-8.59-50-27-14.94-13.11-21.39-29.27-24-36-4.09-10.56-5.17-18.88-7-33-3.29-25.38.45-30.72-5.21-47.64C914.8,52.76,912.89,49.24,912.41,42.37Z"/><path class="cls-2" d="M915.44,59.74c-1.5,2.34.54,4.32.62,12.78.05,5.16-.69,5.6,0,7,3.69,7.45,30,5.56,33-3,.63-1.82-.37-2.31-1-9-.8-8.36.52-10.1-1.09-11.77-2.25-2.32-5.82,0-17.21,1.36C920.13,58.25,917,57.27,915.44,59.74Z"/><path d="M937.61,27.72c-.05,1.71-1.12,3.76-2.37,3.79s-2.67-2.26-2.6-4.27c.05-1.71,1.12-3.75,2.37-3.79S937.67,25.72,937.61,27.72Z"/><path class="cls-3" d="M930.87,35.11a3,3,0,0,1-6-.57"/><path d="M920.73,25.28c.6-1.6,2.27-3.19,3.47-2.82s1.79,3,1.09,4.88c-.6,1.6-2.27,3.19-3.47,2.82S920,27.16,920.73,25.28Z"/><path class="cls-1" d="M1061.32,42.2c-.31-4.46-1.4-20.21,8.56-26.3,4.83-3,12.54-3.82,17.79-.3,9,6,2.76,19.82,5.92,42.77,1.84,13.28,9.24,28.64,24,59.35,8.45,17.55,12.68,26.33,17,33,11.86,18.35,37,50.2,47,58a19.41,19.41,0,0,1,5,6c.2.38,3.86,7.44,1.39,10.48s-10.15.6-12.71-.22c-25.79-8.34-57.68-61.26-57.68-61.26-19.39-32.16-18.7-37.55-38.73-74.62,0,0-5.89-9.45-13.14-30.4C1061.76,47.15,1061.43,43.85,1061.32,42.2Z"/><path class="cls-2" d="M1064.34,59.57c-.62,1.14-.3,2.2,2.93,11.33,2.73,7.71,2.85,7.95,3.21,8.35,6.84,7.54,31.7-1.11,31.92-8,0-1.68-1.43-1.91-3.41-6.35a27.24,27.24,0,0,1-1.32-3.71c-1.89-6.74-1.47-6.89-2-7.49-2.23-2.32-7.13,1.46-17,3.21C1069.88,58.49,1065.8,56.9,1064.34,59.57Z"/><path d="M1086.52,27.55c0,1.71-1.12,3.75-2.38,3.79s-2.66-2.27-2.6-4.27c0-1.71,1.12-3.76,2.38-3.79S1086.58,25.54,1086.52,27.55Z"/><path class="cls-3" d="M1079.78,34.93a3,3,0,0,1-6-.57"/><path d="M1069.64,25.11c.6-1.61,2.27-3.2,3.47-2.83s1.79,3,1.09,4.88c-.6,1.6-2.27,3.19-3.47,2.82S1068.94,27,1069.64,25.11Z"/><path class="cls-1" d="M1212.41,42.37c-.31-4.45-1.4-20.2,8.56-26.3,4.83-3,12.54-3.82,17.79-.29,8.47,5.68,6,19.23,5.93,42.77,0,24.11.21,55.56,15.37,83,7.56,13.67,15.07,19.55,17,21,12.11,9.14,17.86,5.24,33,14,17.38,10.06,24.82,23.88,27,33,1.75,7.35-.12,10.73-1,12a12.7,12.7,0,0,1-10,5c-9.34,0-12.91-12.82-23-24-16.42-18.17-29-8.59-50-27-14.94-13.11-21.39-29.27-24-36-4.09-10.56-5.17-18.88-7-33-3.29-25.38.45-30.72-5.21-47.64C1214.8,52.76,1212.89,49.24,1212.41,42.37Z"/><path class="cls-2" d="M1215.44,59.74c-1.5,2.34.54,4.32.62,12.78,0,5.16-.69,5.6,0,7,3.69,7.45,30,5.56,33-3,.63-1.82-.37-2.31-1-9-.8-8.36.52-10.1-1.09-11.77-2.25-2.32-5.82,0-17.21,1.36C1220.13,58.25,1217,57.27,1215.44,59.74Z"/><path d="M1237.61,27.72c0,1.71-1.12,3.76-2.37,3.79s-2.67-2.26-2.6-4.27c0-1.71,1.12-3.75,2.37-3.79S1237.67,25.72,1237.61,27.72Z"/><path class="cls-3" d="M1230.87,35.11a3,3,0,0,1-6-.57"/><path d="M1220.73,25.28c.6-1.6,2.27-3.19,3.47-2.82s1.79,3,1.09,4.88c-.6,1.6-2.27,3.19-3.47,2.82S1220,27.16,1220.73,25.28Z"/><path class="cls-1" d="M1361.32,42.2c-.31-4.46-1.4-20.21,8.56-26.3,4.83-3,12.54-3.82,17.79-.3,9,6,2.76,19.82,5.92,42.77,1.84,13.28,9.24,28.64,24,59.35,8.45,17.55,12.68,26.33,17,33,11.86,18.35,37,50.2,47,58a19.41,19.41,0,0,1,5,6c.2.38,3.86,7.44,1.39,10.48s-10.15.6-12.71-.22c-25.79-8.34-57.68-61.26-57.68-61.26-19.39-32.16-18.7-37.55-38.73-74.62,0,0-5.89-9.45-13.14-30.4C1361.76,47.15,1361.43,43.85,1361.32,42.2Z"/><path class="cls-2" d="M1364.34,59.57c-.62,1.14-.3,2.2,2.93,11.33,2.73,7.71,2.85,7.95,3.21,8.35,6.84,7.54,31.7-1.11,31.92-8,0-1.68-1.43-1.91-3.41-6.35a27.24,27.24,0,0,1-1.32-3.71c-1.89-6.74-1.47-6.89-2-7.49-2.23-2.32-7.13,1.46-17,3.21C1369.88,58.49,1365.8,56.9,1364.34,59.57Z"/><path d="M1386.52,27.55c0,1.71-1.12,3.75-2.38,3.79s-2.66-2.27-2.6-4.27c0-1.71,1.12-3.76,2.38-3.79S1386.58,25.54,1386.52,27.55Z"/><path class="cls-3" d="M1379.78,34.93a3,3,0,0,1-6-.57"/><path d="M1369.64,25.11c.6-1.61,2.27-3.2,3.47-2.83s1.79,3,1.09,4.88c-.6,1.6-2.27,3.19-3.47,2.82S1368.94,27,1369.64,25.11Z"/><path class="cls-1" d="M1512.41,42.37c-.31-4.45-1.4-20.2,8.56-26.3,4.83-3,12.54-3.82,17.79-.29,8.47,5.68,6,19.23,5.93,42.77,0,24.11.21,55.56,15.37,83,7.56,13.67,15.07,19.55,17,21,12.11,9.14,17.86,5.24,33,14,17.38,10.06,24.82,23.88,27,33,1.75,7.35-.12,10.73-1,12a12.7,12.7,0,0,1-10,5c-9.34,0-12.91-12.82-23-24-16.42-18.17-29-8.59-50-27-14.94-13.11-21.39-29.27-24-36-4.09-10.56-5.17-18.88-7-33-3.29-25.38.45-30.72-5.21-47.64C1514.8,52.76,1512.89,49.24,1512.41,42.37Z"/><path class="cls-2" d="M1515.44,59.74c-1.5,2.34.54,4.32.62,12.78,0,5.16-.69,5.6,0,7,3.69,7.45,30,5.56,33-3,.63-1.82-.37-2.31-1-9-.8-8.36.52-10.1-1.09-11.77-2.25-2.32-5.82,0-17.21,1.36C1520.13,58.25,1517,57.27,1515.44,59.74Z"/><path d="M1537.61,27.72c0,1.71-1.12,3.76-2.37,3.79s-2.67-2.26-2.6-4.27c0-1.71,1.12-3.75,2.37-3.79S1537.67,25.72,1537.61,27.72Z"/><path class="cls-3" d="M1530.87,35.11a3,3,0,0,1-6-.57"/><path d="M1520.73,25.28c.6-1.6,2.27-3.19,3.47-2.82s1.79,3,1.09,4.88c-.6,1.6-2.27,3.19-3.47,2.82S1520,27.16,1520.73,25.28Z"/><path class="cls-1" d="M1661.32,42.2c-.31-4.46-1.4-20.21,8.56-26.3,4.83-3,12.54-3.82,17.79-.3,9,6,2.76,19.82,5.92,42.77,1.84,13.28,9.24,28.64,24,59.35,8.45,17.55,12.68,26.33,17,33,11.86,18.35,37,50.2,47,58a19.41,19.41,0,0,1,5,6c.2.38,3.86,7.44,1.39,10.48s-10.15.6-12.71-.22c-25.79-8.34-57.68-61.26-57.68-61.26-19.39-32.16-18.7-37.55-38.73-74.62,0,0-5.89-9.45-13.14-30.4C1661.76,47.15,1661.43,43.85,1661.32,42.2Z"/><path class="cls-2" d="M1664.34,59.57c-.62,1.14-.3,2.2,2.93,11.33,2.73,7.71,2.85,7.95,3.21,8.35,6.84,7.54,31.7-1.11,31.92-8,0-1.68-1.43-1.91-3.41-6.35a27.24,27.24,0,0,1-1.32-3.71c-1.89-6.74-1.47-6.89-2-7.49-2.23-2.32-7.13,1.46-17,3.21C1669.88,58.49,1665.8,56.9,1664.34,59.57Z"/><path d="M1686.52,27.55c0,1.71-1.12,3.75-2.38,3.79s-2.66-2.27-2.6-4.27c0-1.71,1.12-3.76,2.38-3.79S1686.58,25.54,1686.52,27.55Z"/><path class="cls-3" d="M1679.78,34.93a3,3,0,0,1-6-.57"/><path d="M1669.64,25.11c.6-1.61,2.27-3.2,3.47-2.83s1.79,3,1.09,4.88c-.6,1.6-2.27,3.19-3.47,2.82S1668.94,27,1669.64,25.11Z"/></g></svg>