<svg xmlns="http://www.w3.org/2000/svg" viewBox="0 0 129.56 217.04"><defs><style>.cls-1{fill:#f7cfc4;}.cls-1,.cls-2,.cls-3{stroke:#000;stroke-linecap:round;stroke-linejoin:round;}.cls-1,.cls-2{stroke-width:4px;}.cls-2{fill:#f29880;}.cls-3{fill:none;stroke-width:2px;}</style></defs><g id="Layer_2" data-name="Layer 2"><g id="Layer_36" data-name="Layer 36"><g id="Layer_40" data-name="Layer 40"><path class="cls-1" d="M2.19,30.9c-.3-4.46-1.4-20.21,8.57-26.3,4.82-3,12.53-3.82,17.79-.3,8.46,5.68,6,19.23,5.92,42.77,0,24.11.21,55.56,15.37,83,7.56,13.68,15.07,19.55,17,21,12.11,9.14,17.86,5.24,33,14,17.38,10.06,24.82,23.88,27,33,1.76,7.35-.12,10.73-1,12a12.67,12.67,0,0,1-10,5c-9.34,0-12.9-12.82-23-24-16.41-18.16-29-8.59-50-27-14.93-13.11-21.39-29.26-24-36-4.09-10.56-5.17-18.88-7-33-3.29-25.38.45-30.72-5.21-47.64C4.58,41.28,2.67,37.76,2.19,30.9Z"/><path class="cls-2" d="M5.22,48.27c-1.49,2.33.54,4.31.62,12.77,0,5.16-.69,5.61,0,7,3.69,7.45,30,5.56,33-3,.63-1.82-.36-2.3-1-9-.79-8.36.52-10.1-1.09-11.77-2.25-2.31-5.82,0-17.21,1.36C9.91,46.77,6.81,45.79,5.22,48.27Z"/><path d="M27.39,16.25C27.34,18,26.27,20,25,20s-2.66-2.27-2.6-4.27c0-1.71,1.12-3.76,2.37-3.79S27.46,14.24,27.39,16.25Z"/><path class="cls-3" d="M20.65,23.63a3,3,0,0,1-6-.57"/><path d="M10.51,13.81c.6-1.61,2.27-3.2,3.47-2.83s1.79,3,1.09,4.88c-.59,1.6-2.27,3.19-3.46,2.82S9.81,15.68,10.51,13.81Z"/></g></g></g></svg>