<svg xmlns="http://www.w3.org/2000/svg" viewBox="0 0 367.64 198.46"><defs><style>.cls-1{fill:#fff;}</style></defs><g id="Layer_2" data-name="Layer 2"><g id="clouds"><path class="cls-1" d="M310.46,187.42a211.92,211.92,0,0,1-58,9,212.14,212.14,0,0,1-49-5,195.14,195.14,0,0,1-48,7,195.87,195.87,0,0,1-56-7,67.32,67.32,0,0,1-61-10c-19.76-1-35.26-13.64-38-29-1.5-8.41.44-19.85,9-28,11-10.47,25.38-8.27,27-8,.75-3.42,5.26-22.59,24-34a53.34,53.34,0,0,1,35-7c6.47-36.18,31.13-64.92,63-73,4.86-1.23,40.07-9.54,68,14,17,14.34,22.33,32.81,24,40,2.91-.66,24.12-5.15,42,9a49.29,49.29,0,0,1,17,27,49.24,49.24,0,0,1,29,3c18.24,8.07,30.86,28.11,29,48C365.13,168.36,340.4,189.52,310.46,187.42Z"/></g></g></svg>