<svg xmlns="http://www.w3.org/2000/svg" viewBox="0 0 326.28 149.02"><defs><style>.cls-1{fill:#fff;}</style></defs><g id="Layer_2" data-name="Layer 2"><g id="clouds"><path class="cls-1" d="M326.27,93.18c-.49,18.87-19.61,37.32-43.9,35.77a92.88,92.88,0,0,1-87.8,9.76,58.7,58.7,0,0,1-50.41,4.88,76,76,0,0,1-71.53-8.13c-21.72,10.19-46,6.66-60.16-8.13-1.34-1.4-16.61-17.91-11.38-39C5.47,70.58,22.46,57.07,43.36,55.79,44.77,52.16,51.92,35,71,26.52a53.06,53.06,0,0,1,32.52-3.25A97.87,97.87,0,0,1,128.37,8.16c25.6-10.68,64-13.58,92,8.15a76.52,76.52,0,0,1,19.75,23.22,38.68,38.68,0,0,1,24.39,3.25,38,38,0,0,1,14.63,13C305.46,52.13,326.79,72.76,326.27,93.18Z"/></g></g></svg>