<svg xmlns="http://www.w3.org/2000/svg" viewBox="0 0 216.5 200.8"><defs><style>.cls-1,.cls-3,.cls-5{fill:#ca956d;}.cls-1,.cls-2,.cls-3,.cls-5,.cls-6{stroke:#000;}.cls-1,.cls-3,.cls-6{stroke-linecap:round;}.cls-1,.cls-2,.cls-5{stroke-miterlimit:10;}.cls-1,.cls-2,.cls-3,.cls-5{stroke-width:4px;}.cls-2{fill:#774f3d;}.cls-3,.cls-6{stroke-linejoin:round;}.cls-4{fill:#fff;}.cls-6{fill:none;stroke-width:3px;}</style></defs><g id="Layer_2" data-name="Layer 2"><g id="doggo"><g id="Layer_11" data-name="Layer 11"><path class="cls-1" d="M75.84,96.82c-.85,2.13-2.18,5.28-4,9-9.21,18.81-21,32.21-26,37-13.74,13.23-20.25,16.73-19,21,1.32,4.48,10.2,6.28,16,6,4.73-.24,7.95-1.89,14-5a80.16,80.16,0,0,0,16-11,85.27,85.27,0,0,0,12-13"/><path class="cls-1" d="M162.84,146.79a130.08,130.08,0,0,1-5,34c-1.49,5.13-3.31,10.05-8,13-4.22,2.66-10.71,3.7-13,1-2.59-3,2-8.69,4-18s.33-18.19-2-25"/><path class="cls-2" d="M209.84,70.79c-4.68-5.33-13.15-8.6-16-6-3.93,3.6,7.16,14.42,3,27-2.94,8.91-11.62,12.93-10,16,1.29,2.45,7.58,1.35,8.48,1.2,7.24-1.26,13.43-6.73,16.52-13.2C215.08,89,216.34,78.19,209.84,70.79Z"/><path class="cls-3" d="M75.84,133.82c.79,4.8,2.85,12.57,9,19,8,8.31,18.13,9.52,32,11,10.5,1.1,29.12,2.89,50-6a78.21,78.21,0,0,0,25-17c8.22-8.38,9.58-13.8,10-16a27.64,27.64,0,0,0-21-32c-17.13-4.51-43.46,7.86-68,8-8.63,0-21.36-1.38-37-9"/><path class="cls-4" d="M150.84,149.79c18.61-.08,28.34-4.88,29-3,.91,2.62-16.78,14-37,16a121.51,121.51,0,0,1-18,0,118.53,118.53,0,0,1-22-3,37.32,37.32,0,0,1-11-4,22.19,22.19,0,0,1-7-6c-1.38-1.91-3.27-4.5-3-8,0-.59.34-3.55,2-5,3.68-3.22,12.84,1.92,19,5C119.25,149.93,135.47,149.86,150.84,149.79Z"/><path class="cls-1" d="M135.84,141.82a136.48,136.48,0,0,1-2,19c-2.76,15.62-6.89,23.07-8,25-4.78,8.31-8.77,10.39-10,11-4.46,2.13-11.51,3.16-14,0-2.13-2.7.72-6.39,3-17,1.2-5.56,1.47-9.48,2-17a164.21,164.21,0,0,0,0-23"/><path class="cls-1" d="M194.84,100.79a71.88,71.88,0,0,1,12,28c3.26,17-.74,30.29-3,38a57,57,0,0,1-8,17c-3.23,4.64-6.82,9.63-13.13,11.34-2.84.77-8.79,1.57-10.87-1.34s1.53-6.21,4-16c1.76-7,1.85-12.66,1.94-18.42a102.61,102.61,0,0,0-1-16"/><path class="cls-2" d="M53.25,50.09c-1.2,5.57-1.79,8.35-3.41,11.7-7.35,15.28-27.47,27.16-39,21-5.67-3-7.57-9.52-8-11-5.2-17.79,15.23-35.69,19-39,7.69-6.73,24.22-18.09,31-13C58.78,24.25,55.42,39.94,53.25,50.09Z"/><path class="cls-5" d="M152.84,32.79c8.65,15.91,11.65,39.92-1,57-15.79,21.32-46.13,18.55-63,17-16.58-1.51-40.58-3.71-51-22C27.82,67.2,34.59,42.1,45,27.36c.45-.64.8-1.11,1-1.35C57.54,10.68,77.43,2.57,95,2,96.77,2,135.75,1.36,152.84,32.79Z"/><path class="cls-2" d="M180.47,74.2a19.68,19.68,0,0,1-8.74,9.25c-9.74,4.93-20.53-1.09-21-1.38-14.81-8.55-14.44-31.58-14.24-43.64.15-8.85.26-15.8,4.49-18.13,7.27-4,21.45,8.52,28.5,17.2C172,40.68,187,59.16,180.47,74.2Z"/><path d="M122.91,48.36a4.87,4.87,0,0,1-.43,3.13c-1.66,3.15-7.12,4-10.81,2-1.94-1-4.75-3.52-4.24-6.32.54-3,4.61-4.41,7.3-4.43C118.24,42.75,122.28,45,122.91,48.36Z"/><path class="cls-4" d="M120.84,28.79c0,1.55-1.55,2.71-2,3-3.5,2.32-9.92.31-11-3a3,3,0,0,1,0-2c.89-2.22,5-2.77,8-2C117.58,25.25,120.78,26.64,120.84,28.79Z"/><path class="cls-4" d="M61.84,31.79c.27-.74.94-2.63,0-4-1.19-1.73-4.24-1.54-6-1-4.3,1.33-7.38,6.76-6,9,1,1.72,4.55,1.33,6,1C56,36.75,60.46,35.68,61.84,31.79Z"/><path d="M67.84,51.79c-1.63,4-6.45,4.86-7.5,5-.51.08-6,.78-7.5-2s1.47-7.17,5-9c3.25-1.68,8.3-1.73,10,1C69.07,48.76,68,51.32,67.84,51.79Z"/><path d="M88.84,60.79c-.55,1.74-3.71,2-4,2-1.85.13-4.5-.45-5-2a1.49,1.49,0,0,1,0-1c.43-1,2.21-1,4.5-1s4.07,0,4.5,1A1.38,1.38,0,0,1,88.84,60.79Z"/><path class="cls-6" d="M92.34,75.29a9.67,9.67,0,0,1-14,0"/></g></g></g></svg>